<?xml version="1.0" encoding="utf-8"?>
<!-- Generator: Adobe Illustrator 16.0.4, SVG Export Plug-In . SVG Version: 6.00 Build 0)  -->
<!DOCTYPE svg PUBLIC "-//W3C//DTD SVG 1.1//EN" "http://www.w3.org/Graphics/SVG/1.1/DTD/svg11.dtd">
<svg version="1.1"
	 id="svg3070" sodipodi:docname="New document 4" inkscape:version="0.48.0 r9654" xmlns:cc="http://creativecommons.org/ns#" xmlns:rdf="http://www.w3.org/1999/02/22-rdf-syntax-ns#" xmlns:svg="http://www.w3.org/2000/svg" xmlns:sodipodi="http://sodipodi.sourceforge.net/DTD/sodipodi-0.dtd" xmlns:inkscape="http://www.inkscape.org/namespaces/inkscape" xmlns:dc="http://purl.org/dc/elements/1.1/"
	 xmlns="http://www.w3.org/2000/svg" xmlns:xlink="http://www.w3.org/1999/xlink" x="0px" y="0px" width="259.198px"
	 height="259.2px" viewBox="0.002 0 259.198 259.2" enable-background="new 0.002 0 259.198 259.2" xml:space="preserve">
<rect x="0.002" opacity="0.25" width="259.2" height="259.2"/>
<sodipodi:namedview  fit-margin-right="0" inkscape:window-x="-8" inkscape:window-height="750" inkscape:window-width="1280" inkscape:pageopacity="0.0" inkscape:window-maximized="1" inkscape:document-units="px" inkscape:window-y="-8" inkscape:current-layer="layer1" inkscape:pageshadow="2" fit-margin-bottom="0" id="base" pagecolor="#ffffff" bordercolor="#666666" borderopacity="1.0" inkscape:zoom="2.8" inkscape:cx="142.93233" inkscape:cy="33.703355" showgrid="false" fit-margin-top="0" fit-margin-left="0">
	</sodipodi:namedview>
<path fill="#FFFFFF" d="M0.002,0v259.2H259.2V0H0.002z M74.738,225.958H31.526V95.926h43.212V225.958z M53.129,78.168h-0.276
	c-14.511,0-23.883-9.98-23.883-22.457c0-12.769,9.667-22.469,24.447-22.469c14.79,0,23.889,9.704,24.169,22.468
	C77.586,68.184,68.199,78.168,53.129,78.168z M230.571,225.95h-43.214v-69.566c0-17.479-6.248-29.395-21.895-29.395
	c-11.94,0-19.049,8.042-22.169,15.808c-1.144,2.776-1.424,6.661-1.424,10.548v72.613H98.658c0,0,0.564-117.831-0.012-130.031h43.217
	v18.415c5.739-8.857,16.019-21.465,38.951-21.465c28.436,0,49.757,18.586,49.757,58.525V225.95L230.571,225.95z"/>
</svg>
