<?xml version="1.0" encoding="utf-8"?>
<!-- Generator: Adobe Illustrator 16.0.4, SVG Export Plug-In . SVG Version: 6.00 Build 0)  -->
<!DOCTYPE svg PUBLIC "-//W3C//DTD SVG 1.1//EN" "http://www.w3.org/Graphics/SVG/1.1/DTD/svg11.dtd">
<svg version="1.1"
	 id="svg3070" xmlns:inkscape="http://www.inkscape.org/namespaces/inkscape" xmlns:sodipodi="http://sodipodi.sourceforge.net/DTD/sodipodi-0.dtd" xmlns:svg="http://www.w3.org/2000/svg" xmlns:rdf="http://www.w3.org/1999/02/22-rdf-syntax-ns#" xmlns:cc="http://creativecommons.org/ns#" xmlns:dc="http://purl.org/dc/elements/1.1/" inkscape:version="0.48.0 r9654" sodipodi:docname="New document 4"
	 xmlns="http://www.w3.org/2000/svg" xmlns:xlink="http://www.w3.org/1999/xlink" x="0px" y="0px" width="259.2px" height="259.2px"
	 viewBox="-28.968 -33.242 259.2 259.2" enable-background="new -28.968 -33.242 259.2 259.2" xml:space="preserve">
<sodipodi:namedview  id="base" pagecolor="#ffffff" bordercolor="#666666" borderopacity="1.0" inkscape:zoom="2.8" inkscape:cx="142.93233" inkscape:cy="33.703355" showgrid="false" fit-margin-top="0" fit-margin-left="0" inkscape:pageshadow="2" inkscape:current-layer="layer1" inkscape:window-maximized="1" inkscape:window-width="1280" fit-margin-bottom="0" inkscape:window-y="-8" inkscape:document-units="px" inkscape:pageopacity="0.0" inkscape:window-height="750" inkscape:window-x="-8" fit-margin-right="0">
	</sodipodi:namedview>
<path fill="#FFFFFF" d="M-28.968-33.242v259.2H230.23v-259.2H-28.968z M45.768,192.715H2.556V62.684h43.212V192.715z M24.159,44.926
	h-0.276C9.372,44.926,0,34.946,0,22.469C0,9.7,9.667,0,24.447,0c14.79,0,23.889,9.704,24.169,22.468
	C48.616,34.942,39.229,44.926,24.159,44.926z M201.601,192.707h-43.214v-69.566c0-17.478-6.248-29.395-21.894-29.395
	c-11.941,0-19.049,8.041-22.169,15.808c-1.144,2.777-1.424,6.661-1.424,10.548v72.613H69.688c0,0,0.564-117.83-0.012-130.031h43.217
	v18.415c5.739-8.857,16.018-21.465,38.951-21.465c28.436,0,49.757,18.586,49.757,58.524V192.707z"/>
</svg>
