<?xml version="1.0" encoding="utf-8"?>
<!-- Generator: Adobe Illustrator 16.0.4, SVG Export Plug-In . SVG Version: 6.00 Build 0)  -->
<!DOCTYPE svg PUBLIC "-//W3C//DTD SVG 1.1//EN" "http://www.w3.org/Graphics/SVG/1.1/DTD/svg11.dtd">
<svg version="1.1" id="Layer_1" xmlns="http://www.w3.org/2000/svg" xmlns:xlink="http://www.w3.org/1999/xlink" x="0px" y="0px"
	 width="567.039px" height="203.129px" viewBox="0 0 567.039 203.129" enable-background="new 0 0 567.039 203.129"
	 xml:space="preserve">
<path fill-rule="evenodd" clip-rule="evenodd" fill="#1356A4" d="M0,98.844c1.522-4.764,4.979-8.116,8.366-11.532
	C24.932,70.602,41.49,53.883,58.042,37.16c6.656-6.725,13.29-13.472,19.937-20.206c0.438-0.445,0.902-0.865,1.354-1.296
	c0.122,0.111,0.244,0.222,0.366,0.333C55.997,49.533,32.294,83.076,8.52,116.72c-3.577-3.226-7.153-6.314-8.52-11.118
	C0,103.35,0,101.097,0,98.844z"/>
<path fill-rule="evenodd" clip-rule="evenodd" fill="#078F4B" d="M85.147,8.686c2.357-2.226,4.196-4.819,6.928-6.413
	c5.463-3.185,10.888-3.037,16.142,0.524c3.5,2.373,6.205,5.627,9.19,8.559c18.244,17.912,36.446,35.868,54.66,53.81
	c4.63,4.561,9.257,9.125,13.882,13.691c0.323,0.319,0.618,0.666,0.926,1c-0.078,0.103-0.157,0.205-0.235,0.307
	C152.851,56.368,119.062,32.571,85.147,8.686z"/>
<path fill-rule="evenodd" clip-rule="evenodd" fill="#050405" d="M118.186,194.323c-2.55,2.429-4.578,5.159-7.562,6.866
	c-5.365,3.07-11.266,2.509-16.559-1.765c-4.308-3.478-7.974-7.645-11.915-11.513c-16.651-16.343-33.252-32.735-49.874-49.106
	c-4.627-4.559-9.264-9.107-13.893-13.665c-0.235-0.232-0.634-0.403-0.255-1.279C51.488,147.354,84.773,170.793,118.186,194.323z"/>
<path fill-rule="evenodd" clip-rule="evenodd" fill="#050405" d="M368.634,86.202c-0.283,2.41-0.566,4.829-0.872,7.438
	c-2.441-1.008-4.822-1.734-7.296-1.999c-4.692-0.502-9.306-0.176-13.657,1.838c-3.834,1.774-5.914,4.738-5.929,9.052
	c-0.014,4.382,2.162,7.383,5.97,9.219c3.762,1.813,7.743,2.055,11.892,1.211c0-2.301,0-4.524,0-6.872c-2.139,0-4.221,0-6.387,0
	c0-2.24,0-4.357,0-6.545c5.799,0,11.515,0,17.343,0c0,6.375,0,12.742,0,19.225c-5.167,1.026-10.381,1.61-15.661,1.583
	c-6.119-0.032-12.036-0.945-17.342-4.251c-5.828-3.632-8.07-9.01-7.397-15.705c0.628-6.251,4.108-10.417,9.729-12.913
	c5.796-2.575,11.961-2.997,18.18-2.872c3.677,0.075,7.364,0.277,10.929,1.356C368.274,86.01,368.402,86.092,368.634,86.202z"/>
<path fill-rule="evenodd" clip-rule="evenodd" fill="#050405" d="M295.501,97.221c0-5.134,0-9.783,0-14.532c3.666,0,7.263,0,10.94,0
	c0,12.327,0,24.582,0,36.932c-3.303,0-6.554,0-9.904,0c-0.307-1.305-0.017-2.682-0.202-4.293c-2.236,3.147-5.395,4.343-8.877,4.9
	c-6.159,0.986-12.334-1.966-14.921-7.116c-2.75-5.476-1.771-12.008,2.481-16.154c3.394-3.309,7.593-3.938,12.096-3.516
	C290.197,93.73,292.938,94.806,295.501,97.221z M295.511,106.817c-0.018-3.896-2.855-6.718-6.694-6.656
	c-3.784,0.062-6.53,2.816-6.492,6.513c0.041,4.025,2.723,6.779,6.575,6.75C292.661,113.396,295.528,110.531,295.511,106.817z"/>
<path fill-rule="evenodd" clip-rule="evenodd" fill="#050405" d="M60.914,107.634c0,4.161,0,8.035,0,11.994
	c-3.756,0-7.412,0-11.158,0c0-11.461,0-22.889,0-34.413c5.367,0,10.672-0.018,15.977,0.007c2.93,0.014,5.815,0.443,8.608,1.327
	c2.747,0.869,5.139,2.256,6.583,4.912c2.493,4.585,1.033,10.426-3.329,13.276c-3.294,2.152-7.018,2.708-10.827,2.884
	C64.883,107.706,62.99,107.634,60.914,107.634z M61.01,91.764c0,3.182,0,6.176,0,9.301c2.422-0.115,4.787,0.306,7.034-0.688
	c1.991-0.881,2.807-2.221,2.683-4.351c-0.11-1.881-1.113-3.068-3.092-3.739C65.494,91.563,63.297,91.765,61.01,91.764z"/>
<path fill-rule="evenodd" clip-rule="evenodd" fill="#050405" d="M101.84,120.374c-4.063-0.13-8.215-0.869-12.069-3.073
	c-7.687-4.395-8.091-15.451-0.708-20.541c6.459-4.453,19.412-4.602,25.86-0.083c8.107,5.682,7.225,16.84-1.679,21.26
	C109.737,119.677,105.989,120.301,101.84,120.374z M109.069,106.835c-0.002-4.564-2.64-7.264-7.052-7.218
	c-4.351,0.045-6.947,2.73-6.951,7.186c-0.004,4.515,2.657,7.225,7.076,7.204C106.499,113.989,109.071,111.326,109.069,106.835z"/>
<path fill-rule="evenodd" clip-rule="evenodd" fill="#050405" d="M447.786,119.662c-3.676,0-7.191,0-10.674,0
	c-0.392-0.365-0.25-0.8-0.251-1.189c-0.01-3.376-0.002-6.752-0.006-10.127c-0.001-0.767,0.004-1.536-0.047-2.3
	c-0.206-3.093-1.604-4.87-4.036-5.164c-3.537-0.427-6.145,1.041-7.064,3.986c-0.399,1.278-0.576,2.586-0.57,3.929
	c0.015,3.573,0.005,7.147,0.005,10.819c-3.633,0-7.184,0-10.841,0c0-8.523,0-17.036,0-25.642c3.238,0,6.484,0,9.89,0
	c0,1.417,0,2.813,0,4.368c4.769-4.981,12.273-6.475,18.08-3.751c3.363,1.578,5.322,4.279,5.459,7.902
	C447.943,108.154,447.786,113.83,447.786,119.662z"/>
<path fill-rule="evenodd" clip-rule="evenodd" fill="#050405" d="M232.287,119.599c0-8.598,0-17.079,0-25.639
	c3.255,0,6.451,0,9.744,0c0.352,1.367,0.015,2.794,0.221,4.468c1.486-1.84,3.068-3.295,5.174-4.012
	c4.417-1.502,8.828-1.658,13.132,0.331c3.131,1.447,5.014,4.053,5.141,7.438c0.217,5.768,0.06,11.55,0.06,17.428
	c-3.556,0-7.107,0-10.845,0c0-2.257,0.013-4.487-0.004-6.719c-0.019-2.453,0.089-4.921-0.139-7.357
	c-0.279-2.981-1.725-4.432-4.17-4.666c-3.391-0.326-5.806,1.012-6.788,3.75c-0.526,1.466-0.648,2.986-0.646,4.526
	c0.003,3.471,0.001,6.941,0.001,10.451C239.446,119.599,235.854,119.599,232.287,119.599z"/>
<path fill-rule="evenodd" clip-rule="evenodd" fill="#050405" d="M548.877,119.712c-2.962,0-5.872,0.002-8.781-0.003
	c-0.349-0.001-0.697-0.041-1.17-0.07c-0.08-1.194-0.157-2.347-0.238-3.569c-0.206,0.054-0.386,0.044-0.458,0.128
	c-3.749,4.338-8.579,4.702-13.75,3.703c-1.45-0.28-2.853-0.749-4.138-1.549c-4.851-3.021-4.779-9.584,0.17-12.485
	c2.758-1.617,5.822-2.154,8.952-2.383c2.852-0.21,5.708-0.138,8.571,0.131c-0.167-2.214-1.117-3.401-3.345-3.862
	c-3.986-0.826-7.927-0.428-11.801,0.75c-0.578,0.176-1.144,0.395-1.84,0.637c-0.337-1.997-0.264-3.912-0.357-5.92
	c1.924-0.726,3.885-1.235,5.902-1.451c5.201-0.556,10.398-0.966,15.438,1.024c4.056,1.601,6.243,4.686,6.345,9.042
	c0.102,4.345-0.184,8.695,0.169,13.036C548.621,117.781,548.756,118.686,548.877,119.712z M538.066,108.413
	c-2.163-0.26-4.337-0.3-6.518-0.114c-1.128,0.096-2.215,0.328-3.18,0.967c-1.894,1.254-1.784,3.527,0.286,4.475
	C532.86,115.667,538.056,112.793,538.066,108.413z"/>
<path fill-rule="evenodd" clip-rule="evenodd" fill="#050405" d="M227.349,119.645c-3.37,0-6.624,0-9.937,0
	c-0.483-1.132-0.018-2.417-0.529-3.665c-4.604,5.104-10.212,5.174-16.102,3.322c-4.971-1.562-7.051-6.46-4.688-10.695
	c1.164-2.087,3.14-3.158,5.314-3.896c4.451-1.51,9.045-1.462,13.654-1.205c0.453,0.025,0.904,0.064,1.363,0.098
	c-0.114-2.108-1.124-3.375-3.296-3.834c-4.037-0.854-8.023-0.449-11.943,0.758c-0.531,0.164-1.049,0.371-1.807,0.642
	c-0.103-2.061-0.2-3.998-0.299-5.993c5.125-1.719,10.284-2.078,15.521-1.711c1.893,0.132,3.733,0.518,5.521,1.188
	c4.266,1.599,6.559,4.775,6.62,9.324c0.032,2.352,0,4.706,0.008,7.058C226.759,113.891,226.599,116.756,227.349,119.645z
	 M216.535,108.367c-2.18-0.141-4.256-0.262-6.343-0.091c-1.128,0.092-2.225,0.272-3.229,0.844c-0.962,0.548-1.542,1.317-1.511,2.467
	c0.033,1.191,0.784,1.817,1.773,2.26C211.205,115.625,215.883,112.97,216.535,108.367z"/>
<path fill-rule="evenodd" clip-rule="evenodd" fill="#050405" d="M386.843,109.474c0.61,2.786,2.504,3.884,4.787,4.396
	c4.363,0.979,8.635,0.42,12.816-1.045c0.334-0.117,0.664-0.243,0.998-0.357c0.039-0.014,0.094,0.021,0.202,0.047
	c0,2.016,0,4.047,0,6.198c-4.775,1.381-9.608,1.968-14.546,1.479c-2.969-0.294-5.856-0.977-8.492-2.431
	c-4.544-2.509-7.105-6.29-6.878-11.582c0.226-5.251,2.941-8.98,7.704-11.057c5.104-2.226,10.441-2.421,15.764-0.887
	c5.433,1.566,8.398,5.398,9.193,10.914c0.194,1.344,0.029,2.74,0.029,4.325C401.293,109.474,394.122,109.474,386.843,109.474z
	 M398.627,104.288c0.002-3.442-2.178-5.287-6.119-5.244c-3.362,0.037-5.75,2.248-5.649,5.244
	C390.782,104.288,394.706,104.288,398.627,104.288z"/>
<path fill-rule="evenodd" clip-rule="evenodd" fill="#050405" d="M485.67,109.475c-7.113,0-14.253,0-21.546,0
	c0.457,2.218,1.776,3.435,3.665,4.056c3.552,1.169,7.153,0.993,10.749,0.2c1.438-0.317,2.874-0.658,4.315-1.418
	c0,2.182,0,4.201,0,6.383c-2.479,0.881-5.142,1.255-7.817,1.498c-4.849,0.441-9.601,0.077-14.122-1.945
	c-5.293-2.368-8.047-6.604-7.88-12.167c0.155-5.159,3.384-9.475,8.637-11.346c5.331-1.899,10.745-2.059,16.065-0.056
	C483.503,96.851,486.831,103.156,485.67,109.475z M475.934,104.288c-0.113-3.379-2.073-5.177-5.64-5.24
	c-3.736-0.066-5.958,1.783-6.237,5.24C468.018,104.288,471.975,104.288,475.934,104.288z"/>
<path fill-rule="evenodd" clip-rule="evenodd" fill="#CB0730" d="M123.886,186.486c13.261-19.116,26.523-38.233,39.931-57.562
	c5.876,0,11.827,0,17.821,0c-19.14,19.249-38.319,38.538-57.498,57.827C124.055,186.663,123.97,186.575,123.886,186.486z"/>
<path fill-rule="evenodd" clip-rule="evenodd" fill="#050405" d="M149.753,100.164c0-2.176,0-4.156,0-6.269c2.103,0,4.13,0,6.273,0
	c0-1.95,0-3.773,0-5.739c3.609-0.918,7.142-1.817,10.798-2.747c0,2.862,0,5.565,0,8.427c2.56,0,5.036,0,7.585,0
	c0,2.182,0,4.205,0,6.324c-2.489,0-4.927,0-7.606,0c0.159,3.901-0.31,7.713,0.305,11.506c0.25,1.536,1.323,2.331,2.857,2.573
	c1.486,0.234,2.946-0.109,4.483-0.137c0.48,1.816,0.238,3.664,0.512,5.649c-5.058,0.734-10.033,1.227-14.835-0.773
	c-2.793-1.162-3.962-3.636-4.077-6.529c-0.138-3.476-0.087-6.959-0.117-10.439c-0.005-0.551-0.001-1.102-0.001-1.847
	C153.776,100.164,151.757,100.164,149.753,100.164z"/>
<path fill-rule="evenodd" clip-rule="evenodd" fill="#050405" d="M555.208,82.653c3.648,0,7.166,0,10.775,0
	c0,12.325,0,24.584,0,36.952c-3.551,0-7.105,0-10.775,0C555.208,107.355,555.208,95.059,555.208,82.653z"/>
<path fill-rule="evenodd" clip-rule="evenodd" fill="#050405" d="M190.012,119.662c-3.618,0-7.135,0-10.75,0
	c0-12.346,0-24.639,0-37.005c3.6,0,7.112,0,10.75,0C190.012,94.948,190.012,107.238,190.012,119.662z"/>
<path fill-rule="evenodd" clip-rule="evenodd" fill="#050405" d="M320.334,159.828c0,1.518,0,2.783,0,4.153
	c-7.583,0-15.122,0-22.656,0c-0.249-1.175-0.327-30.767-0.076-32.885c0.848,0,1.71,0,2.573,0c6.691,0,13.384,0,20.14,0
	c0,1.431,0,2.735,0,4.18c-5.612,0-11.169,0-16.83,0c0,3.231,0,6.323,0,9.601c5.07,0,10.148,0,15.298,0c0,1.436,0,2.69,0,4.075
	c-5.074,0-10.118,0-15.282,0c0,3.668,0,7.209,0,10.876C309.096,159.828,314.655,159.828,320.334,159.828z"/>
<path fill-rule="evenodd" clip-rule="evenodd" fill="#050405" d="M491.592,93.944c3.261,0,6.461,0,9.834,0c0,1.444,0,2.838,0,4.232
	c3.282-4.802,7.86-5.383,13.11-4.5c-0.16,2.416-0.317,4.787-0.476,7.166c-1.365,0-2.625-0.012-3.883,0.002
	c-4.896,0.054-7.665,2.805-7.73,7.757c-0.048,3.625-0.01,7.252-0.01,10.996c-3.644,0-7.192,0-10.846,0
	C491.592,111.095,491.592,102.538,491.592,93.944z"/>
<path fill-rule="evenodd" clip-rule="evenodd" fill="#050405" d="M124.282,93.942c3.35,0,6.556,0,9.91,0c0,1.449,0,2.853,0,4.722
	c1.617-2.462,3.318-4.157,5.789-4.853c2.363-0.665,4.743-0.591,7.291-0.129c-0.157,2.394-0.312,4.766-0.47,7.163
	c-1.327,0-2.58-0.013-3.833,0.002c-4.901,0.058-7.708,2.81-7.794,7.724c-0.056,3.174-0.011,6.349-0.012,9.522
	c0,0.499,0,0.998,0,1.54c-3.702,0-7.259,0-10.88,0C124.282,111.067,124.282,102.581,124.282,93.942z"/>
<path fill-rule="evenodd" clip-rule="evenodd" fill="#050405" d="M393.709,153.086c-6.957,0-13.935,0-20.911,0
	c0.043,3.663,2.662,6.585,6.754,7.549c3.801,0.896,7.396-0.008,10.903-1.446c0.321-0.132,0.63-0.296,1.085-0.512
	c0,1.526,0,2.917,0,4.481c-6.319,1.869-12.701,2.575-18.847-0.616c-5.009-2.601-6.367-7.262-5.818-12.497
	c0.521-4.966,3.509-8.157,8.155-9.758c3.68-1.267,7.43-1.237,11.166-0.174C391.935,141.747,394.374,147.736,393.709,153.086z
	 M387.87,149.626c0.237-3.574-2.629-6.41-6.591-6.573c-4.785-0.197-8.315,2.541-8.391,6.573
	C377.883,149.626,382.878,149.626,387.87,149.626z"/>
<path fill-rule="evenodd" clip-rule="evenodd" fill="#050405" d="M453.026,143.658c-2.26,0-4.346,0-6.497,0
	c-0.327-1.214-0.137-2.358-0.165-3.645c2.223,0,4.347,0,6.639,0c0-1.956,0-3.77,0-5.62c1.914-0.498,3.676-0.958,5.558-1.448
	c0,2.354,0,4.589,0,6.976c2.617,0,5.147,0,7.789,0c0.199,1.279,0.173,2.416,0.017,3.698c-2.566,0-5.101,0-7.727,0
	c0,4.68-0.075,9.221,0.037,13.757c0.046,1.879,1.569,3.227,3.482,3.52c1.601,0.246,3.141-0.051,4.707-0.649c0,1.256,0,2.418,0,3.78
	c-3.777,0.829-7.538,1.188-11.08-0.882c-2.033-1.188-2.767-3.181-2.763-5.479c0.007-4.093,0.003-8.187,0.003-12.279
	C453.026,144.881,453.026,144.376,453.026,143.658z"/>
<path fill-rule="evenodd" clip-rule="evenodd" fill="#050405" d="M432.319,140.306c-0.111,1.318-0.117,2.485-0.521,3.659
	c-2.221-0.49-4.397-1.106-6.674-0.905c-3.571,0.316-6.409,1.875-7.892,5.22c-1.482,3.344-1.16,6.667,1.232,9.502
	c2.747,3.257,6.491,3.563,10.393,2.949c1.091-0.172,2.141-0.608,3.257-0.938c0.285,1.26,0.465,2.499,0.421,3.975
	c-5.85,1.435-11.506,1.468-16.75-2.009c-2.326-1.542-3.98-3.668-4.784-6.37c-1.879-6.315,1.218-12.295,7.791-14.821
	C423.191,138.876,427.692,139.075,432.319,140.306z"/>
<path fill-rule="evenodd" clip-rule="evenodd" fill="#050405" d="M566.661,159.591c0.148,1.537,0.265,2.748,0.378,3.924
	c-5.329,2.184-15.87,1.787-20.449-5.475c-4.163-6.6-0.624-15.218,7.343-17.749c3.915-1.244,8.676-1.236,12.755,0.041
	c0.216,1.215-0.258,2.377-0.341,3.662c-2.258-0.492-4.424-1.056-6.701-0.953c-7.021,0.313-11.08,7.616-7.54,13.678
	c1.541,2.638,4.02,3.838,6.961,4.17C561.642,161.18,564.143,160.832,566.661,159.591z"/>
<path fill-rule="evenodd" clip-rule="evenodd" fill="#050405" d="M341.646,128.681c1.787,0,3.512,0,5.333,0
	c0,11.775,0,23.509,0,35.322c-1.78,0-3.505,0-5.333,0C341.646,152.304,341.646,140.563,341.646,128.681z"/>
<path fill-rule="evenodd" clip-rule="evenodd" fill="#050405" d="M490.585,164.032c-1.977,0-3.703,0-5.521,0
	c0-7.993,0-15.935,0-23.961c1.695,0,3.349,0,5.153,0c0,1.098,0,2.135,0,3.461c3.138-3.896,6.941-4.801,11.457-3.761
	c-0.02,1.312,0.137,2.566-0.111,3.864c-2.247-0.366-4.451-0.578-6.496,0.507c-3.329,1.768-4.362,4.854-4.462,8.337
	c-0.095,3.318-0.021,6.643-0.021,9.964C490.585,162.943,490.585,163.442,490.585,164.032z"/>
<path fill-rule="evenodd" clip-rule="evenodd" fill="#050405" d="M520.23,140.055c1.812,0,3.525,0,5.311,0
	c0,8.012,0,15.952,0,23.961c-1.765,0-3.479,0-5.311,0C520.23,156.067,520.23,148.137,520.23,140.055z"/>
<path fill-rule="evenodd" clip-rule="evenodd" fill="#050405" d="M525.945,134.578c-2.136,0-4.105,0-6.135,0c0-1.669,0-3.28,0-4.971
	c2.043,0,4.049,0,6.135,0C525.945,131.256,525.945,132.855,525.945,134.578z"/>
<path fill-rule="evenodd" clip-rule="evenodd" d="M16.038,122.44c0.809,0.473,1.782,0.77,2.197,2.032
	c-1.293-0.247-1.734-1.177-2.367-1.863C15.922,122.55,15.979,122.495,16.038,122.44z"/>
<path fill-rule="evenodd" clip-rule="evenodd" fill="#1356A4" d="M79.569,15.9c-0.032-0.677,0.194-0.812,0.488-0.901
	C80.328,15.473,79.911,15.535,79.569,15.9z"/>
<path fill-rule="evenodd" clip-rule="evenodd" fill="#CB0730" d="M123.686,187.008c-0.179,0.231-0.141,0.182-0.1,0.133
	C123.55,187.194,123.513,187.245,123.686,187.008z"/>
<path fill-rule="evenodd" clip-rule="evenodd" fill="#1356A4" d="M15.663,122.193c-0.179,0.043-0.228-0.024-0.174-0.209
	c0.069,0.079,0.124,0.143,0.179,0.205L15.663,122.193z"/>
<path fill-rule="evenodd" clip-rule="evenodd" fill="#1356A4" d="M15.868,122.609c-0.186-0.081-0.327-0.184-0.205-0.416l0.005-0.004
	c0.196-0.023,0.316,0.065,0.37,0.251C15.979,122.495,15.922,122.55,15.868,122.609z"/>
<path fill-rule="evenodd" clip-rule="evenodd" fill="#078F4B" d="M187.408,80.388c0.04,0.061,0.078,0.121,0.067,0.103
	c0.004,0.015-0.018-0.06-0.041-0.134L187.408,80.388z"/>
<path fill-rule="evenodd" clip-rule="evenodd" fill="#078F4B" d="M187.435,80.357c-0.096,0-0.192,0-0.075,0
	c-0.099-0.072-0.026-0.019,0.047,0.033C187.408,80.388,187.435,80.357,187.435,80.357z"/>
<path fill-rule="evenodd" clip-rule="evenodd" fill="none" d="M295.511,106.817c0.017,3.714-2.85,6.579-6.611,6.606
	c-3.852,0.029-6.534-2.725-6.575-6.75c-0.038-3.697,2.708-6.451,6.492-6.513C292.656,100.099,295.494,102.92,295.511,106.817z"/>
<path fill-rule="evenodd" clip-rule="evenodd" fill="none" d="M61.01,91.764c2.287,0.001,4.484-0.201,6.624,0.524
	c1.979,0.67,2.982,1.857,3.092,3.739c0.124,2.129-0.691,3.469-2.683,4.351c-2.247,0.994-4.612,0.572-7.034,0.688
	C61.01,97.94,61.01,94.946,61.01,91.764z"/>
<path fill-rule="evenodd" clip-rule="evenodd" fill="none" d="M109.069,106.835c0.002,4.491-2.57,7.154-6.928,7.172
	c-4.418,0.021-7.08-2.689-7.076-7.204c0.004-4.456,2.601-7.141,6.951-7.186C106.429,99.571,109.066,102.271,109.069,106.835z"/>
<path fill-rule="evenodd" clip-rule="evenodd" fill="none" d="M538.066,108.413c-0.01,4.381-5.206,7.254-9.411,5.327
	c-2.07-0.947-2.18-3.221-0.286-4.475c0.965-0.639,2.052-0.871,3.18-0.967C533.729,108.113,535.903,108.152,538.066,108.413z"/>
<path fill-rule="evenodd" clip-rule="evenodd" fill="none" d="M216.535,108.367c-0.652,4.604-5.33,7.258-9.309,5.479
	c-0.989-0.442-1.74-1.068-1.773-2.26c-0.032-1.149,0.548-1.919,1.511-2.467c1.003-0.572,2.101-0.752,3.229-0.844
	C212.279,108.104,214.355,108.226,216.535,108.367z"/>
<path fill-rule="evenodd" clip-rule="evenodd" fill="none" d="M398.627,104.288c-3.922,0-7.846,0-11.769,0
	c-0.101-2.996,2.287-5.207,5.649-5.244C396.45,99.001,398.629,100.846,398.627,104.288z"/>
<path fill-rule="evenodd" clip-rule="evenodd" fill="none" d="M475.934,104.288c-3.959,0-7.916,0-11.877,0
	c0.279-3.457,2.501-5.306,6.237-5.24C473.861,99.111,475.821,100.909,475.934,104.288z"/>
<path fill-rule="evenodd" clip-rule="evenodd" fill="none" d="M387.87,149.626c-4.991,0-9.986,0-14.981,0
	c0.075-4.032,3.605-6.771,8.391-6.573C385.241,143.216,388.107,146.052,387.87,149.626z"/>
</svg>
