<?xml version="1.0" encoding="utf-8"?>
<!-- Generator: Adobe Illustrator 16.0.4, SVG Export Plug-In . SVG Version: 6.00 Build 0)  -->
<!DOCTYPE svg PUBLIC "-//W3C//DTD SVG 1.1//EN" "http://www.w3.org/Graphics/SVG/1.1/DTD/svg11.dtd">
<svg version="1.1" id="Layer_1" xmlns="http://www.w3.org/2000/svg" xmlns:xlink="http://www.w3.org/1999/xlink" x="0px" y="0px"
	 width="4059.127px" height="1120.375px" viewBox="0 0 4059.127 1120.375" enable-background="new 0 0 4059.127 1120.375"
	 xml:space="preserve">
<path fill="#2DC23E" d="M3019.362,848.744c-111.038,0-222.076,0.02-333.115-0.004c-27.759-0.006-55.519-0.016-83.278-0.025
	c-13.324-0.006-26.648-0.014-39.974-0.021c-9.866-0.006-22.789,2.129-32.149-1.822c-11.025-4.654-3.211-18.418,0.313-25.551
	c5.99-12.115,10.952-24.746,14.991-37.643c7.983-25.486,13.376-52.109,17.867-78.414c2.177-12.74,4.125-25.604,5.119-38.5
	c1.049-13.594-1.34-26.777-4.625-39.924c-6.127-24.52-14.565-49.355-29.354-70.103c-14.592-20.472-32.648-38.956-48.938-58.102
	c-7.714-9.066-15.24-18.411-25.818-24.206c-11.261-6.168-21.366-13.829-32.811-19.683c-11.704-5.99-23.473-11.854-35.239-17.718
	c-4.674-2.331-10.149-6.331-15.407-7.082c-7.351-1.051-14.771-1.741-22.139-2.684c-26.483-3.385-54.654-8.835-81.391-5.868
	c-25.62,2.844-52.176,11.185-75.626,21.739c-22.94,10.326-38.943,28.759-59.896,42.069c-10.001,6.354-21.654,11.959-29.587,20.957
	c-8.948,10.149-16.042,22.363-23.452,33.649c-6.938,10.569-14.486,21.092-20.119,32.438c-5.973,12.027-9.478,26.188-12.177,39.295
	c-10.726,52.08-0.86,108.758-20.644,159.043c-2.238,5.689-4.791,11.256-7.601,16.688c-1.906,3.686-4.174,10.424-8.512,11.848
	c-4.791,1.572-10.761,0.688-15.68,0.314c-4.112-0.312-12.771,1.039-15.539-2.521c-7.191-9.246-16.821-16.516-25.171-24.709
	c-8.723-8.559-21.971-16.705-26.369-28.564c-8.848-23.854-7.333-51.518-11.694-76.354c-2.114-12.041-6.571-23.623-7.973-35.789
	c-1.54-13.365,2.044-27.113,5.658-39.887c3.288-11.623,6.202-24.846,11.493-35.718c2.262-4.646,5.787-8.519,8.255-13.045
	c3.299-6.052,4.384-13.521,5.813-20.192c2.661-12.409,5.076-24.893,9.136-36.942c4.382-13.005,10.278-25.441,14.952-38.34
	c1.841-5.08,0.657-10.83,3.213-15.709c2.849-5.436,6.368-10.474,9.85-15.514c7.636-11.059,13.738-23.086,21.709-33.913
	c7.544-10.246,15.718-20.013,23.235-30.276c7.854-10.721,14.087-22.232,22.472-32.615c16.632-20.596,36.054-38.427,54.222-57.606
	c18.174-19.184,40.319-34.213,60.544-51.11c9.99-8.347,19.973-16.708,29.843-25.196c10.089-8.676,20.091-18.431,31.481-25.394
	c10.288-6.289,21.228-10.578,31.244-17.526c10.777-7.475,21.332-15.267,32.101-22.751c12.402-8.622-20.716-23.242-25.532-26.25
	c-15.931-9.949-29.588-23.008-45.365-33.135c-15.945-10.236-32.923-19.144-49.069-29.143c-15.356-9.509-32.429-17.007-46.757-27.912
	c6.856-6.409,17.823-2.594,25.273,1.974c11.297,6.927,22.221,14.127,33.895,20.446c23.473,12.706,46.884,26.919,72.161,35.74
	c11.648,4.064,22.824,8.25,33.162,15.122c5.066,3.368,9.958,6.99,15.025,10.356c4.677,3.104,10.233,3.756,16.04,5.125
	c12.285,2.896,24.717,6.04,37.434,5.813c14.02-0.249,27.887-2.665,41.648-5.151c26.826-4.846,53.928-9.187,81.035-12.149
	c27.399-2.994,55.243-2.612,82.775-3.325c55.477-1.437,110.956-2.758,166.439-3.895c55.457-1.136,110.922-2.181,166.388-2.79
	c27.278-0.299,53.8,5.105,80.636,9.285c26.855,4.183,53.436,8.2,79.639,15.631c25.639,7.271,51.398,15.578,75.813,26.312
	c24.012,10.557,44.354,26.878,67.671,38.479c47.749,23.758,91.896,53.995,138.16,80.507c10.729,6.149,21.901,11.521,32.312,18.222
	c10.46,6.733,20.188,14.507,30.161,21.921c20.47,15.216,41.827,24.335,65.81,32.578c23.69,8.143,46.067,21.216,70.078,27.711
	c25.852,6.993,51.798,11.426,78.181,15.833c53.192,8.884,106.022,25.658,157.025,42.954c25.657,8.699,50.862,18.477,76.11,28.277
	c24.44,9.487,48.289,17.797,70.164,32.604c10.158,6.875,19.941,14.274,29.993,21.3c10.578,7.392,21.966,13.259,32.858,20.125
	c21.063,13.277,37.899,34.7,52.572,54.502c3.739,5.05,7.358,10.187,11.004,15.306c2.396,3.365,7.024,7.709,7.396,11.809
	c1.23,13.529,2.557,27.051,3.854,40.574c2.615,27.311,5.819,54.85,6.514,82.291c0.312,12.303-4.523,24.111-9.206,35.246
	c-5.38,12.795-11.431,25.295-17.698,37.674c-5.684,11.225-11.309,22.502-17.348,33.537c-5.871,10.727-11.879,23.18-22.678,29.711
	c-10.229,6.189-21.478,11.064-32.359,15.975c-9.315,4.203-24.631,14.09-35.242,9.367c-8.696-3.871-4.321-21.613-1.607-27.709
	c4.765-10.701,14.598-17.682,18.078-29.184c7.607-25.115,11.453-51.967,15.969-77.791c2.115-12.1,3.359-24.537,0.326-36.596
	c-3.158-12.568-9.729-23.84-14.346-35.865c-1.811-4.717-0.365-9.539-2.689-14.025c-2.748-5.312-5.658-10.543-8.627-15.734
	c-6.237-10.91-11.113-23.795-18.839-33.699c-15.78-20.234-36.165-38.931-55.48-55.747c-9.312-8.104-19.117-15.79-29.306-22.766
	c-12.129-8.307-23.795-9.179-38.049-10.625c-27.447-2.784-54.922-5.572-82.505-6.559c-12.481-0.445-25.184-1.35-37.395,1.83
	c-12.251,3.19-24.015,8.977-34.866,15.41c-21.549,12.776-37.761,32.229-59.138,45.28c-10.185,6.217-16.896,15.896-23.694,25.455
	c-8.073,11.35-15.841,22.906-23.681,34.418c-1.97,2.891-6.147,6.531-6.877,9.898c-1.298,5.998-2.584,11.996-3.859,17.998
	c-2.952,13.895-5.487,27.924-8.812,41.734c-2.824,11.729-7.396,23.629-6.325,35.885c1.159,13.252,6.188,26.061,10.543,38.512
	c4.19,11.988,7.875,24.178,11.375,36.385c3.307,11.533,9.343,24.59-2.437,32.906c-4.48,3.166-12.774,1.742-17.989,1.887
	c-6.658,0.184-13.316,0.365-19.976,0.547c-14.427,0.391-28.854,0.773-43.281,1.15c-27.743,0.727-55.487,1.426-83.233,2.102
	c-55.491,1.352-110.983,2.609-166.479,3.789c-18.436,0.393-242.072,2.566-242.072,1.521
	C2949.305,848.712,3019.362,848.685,3019.362,848.744C2992.713,848.744,3019.362,848.671,3019.362,848.744z M3166.128,418.754
	c0,0.342,69.87,0.179,76.223,0.178c13.326-0.003,26.651-0.009,39.979-0.02c5.03-0.004,11.411,1.05,16.3-0.15
	c2.842-0.697,6.521-10.984,7.865-13.392c10.65-19.089,27.785-43.334,20.105-66.127c-7.774-23.081-27.736-38.042-47.404-50.688
	c-22.332-14.359-44.949-28.495-67.826-41.966c-22.596-13.306-44.99-27.451-69.207-37.668
	c-48.75-20.567-102.348-31.436-153.932-42.354c-53.513-11.327-108.263-17.713-162.961-17.994
	c-13.107-0.067-26.254,0.09-39.336,0.963c-13.213,0.882-22.382,5.058-30.028,16.313c-6.427,9.458-3.254,24.161-2.571,34.927
	c0.904,14.249,2.363,28.455,3.705,42.667c2.577,27.301,4.006,54.705,4.618,82.12c0.293,13.127,0.269,26.268-0.367,39.386
	c-0.524,10.81-3.675,23.547,3.81,32.765c6.957,8.568,19.013,9.236,29.173,9.852c14.005,0.847,28.005,1.766,42.013,2.564
	c27.673,1.58,55.357,2.919,83.05,4.097c40.972,1.742,81.972,3.425,122.968,4.436C3083.576,419.678,3124.85,418.754,3166.128,418.754
	c0,0.048-18.952,0.026-18.952,0.013C3147.176,418.75,3165.359,418.754,3166.128,418.754
	C3166.128,419.09,3123.486,418.754,3166.128,418.754z M2658.645,149.042c-0.752-3.388-5.474-0.975-8.24-0.551
	c-6.545,1.003-13.094,1.989-19.641,2.98c-14.179,2.147-28.358,4.299-42.487,6.751c-25.882,4.491-51.039,10.021-75.216,20.244
	c-23.855,10.088-44.713,21.885-64.697,38.482c-9.329,7.748-18.889,15.104-28.358,22.664c-10.251,8.182-17.563,19.192-25.144,29.746
	c-15.046,20.95-33.368,39.901-47.662,61.311c-6.76,10.123-6.521,21.607-5.788,33.289c0.261,4.156,0.009,8.107,2.811,11.517
	c3.7,4.502,13.353,4.175,18.667,5.04c54.561,8.879,109.604,13.354,164.582,18.723c40.491,3.954,81.295,9.656,122.02,9.649
	c15.346-0.003,38.229,5.257,47.297-11.268c4.109-7.489,4.304-16.496,4.235-24.815c-0.091-11.072-0.099-22.143-0.071-33.215
	c0.096-41.078,0.641-82.153,1.069-123.228c0.046-4.384,0.003-8.78,0.162-13.162c0.159-4.375,1.765-8.593,1.632-12.961
	c-0.29-9.462-0.9-18.983-1.977-28.389c-1.051-9.18-2.312-11.518-12.176-12.514C2679.405,148.3,2668.934,149.042,2658.645,149.042
	c-0.109-0.496,4.104-0.029,4.381-0.111C2661.854,149.277,2659.727,149.042,2658.645,149.042
	C2658.564,148.69,2668.634,149.042,2658.645,149.042z M2920.953,700.216c1.791-0.182,3.583-0.365,5.374-0.547
	c-3.446-26.736-5.771-53.609-9.711-80.283c-1.806-12.223-3.138-25.41-7.134-37.148c-3.635-10.682-12.996-18.818-21.717-25.435
	c-20.754-15.746-43.352-25.646-69.476-26.115c-26.942-0.481-53.714-4.534-80.706-2.911c-12.413,0.747-24.805,2.644-36.67,6.438
	c-10.533,3.37-24.676,8.447-32.519,16.612c-6.286,6.546-9.143,21.708-3.112,29.034c8.963,10.887,19.904,8.77,32.479,7.23
	c25.521-3.123,52.34-10.5,78.156-9.211c22.727,1.135,38.483,24.039,52.794,39.201c8.093,8.574-2.272,13.283-9.996,11.811
	c-12.955-2.467-25.626-6.584-38.787-7.912c-25.896-2.613-54.637,5.125-79.809,10.605c-22.21,4.836-51.412,8.07-67.638,25.854
	c-15.258,16.73-28.159,41.014-29.128,63.873c-0.945,22.285,5.184,45.148,24.941,57.771c19.347,12.361,40.787,27.807,64.433,28.854
	c26.785,1.188,53.471-3.531,80.052-6.002c12.562-1.168,25.106-2.324,37.603,0.01c13.314,2.484,26.064,6.51,39.686,7.209
	c15.295,0.787,30.627,0.438,45.925-0.115c11.504-0.414,24.443,1.545,24.67-13.453
	C2921.145,763.798,2920.953,732.007,2920.953,700.216c0.959-0.098,1.259,14.672,0.396,14.76
	C2921.047,715.007,2920.953,700.796,2920.953,700.216C2922.744,700.035,2920.953,733.517,2920.953,700.216z M3011.271,665.07
	c0,27.758-0.242,55.518-0.022,83.275c0.053,6.66,0.133,13.32,0.248,19.98c0.099,5.707-0.815,12.494,0.966,17.992
	c4.617,14.252,17.166,13.244,29.7,13.453c12.707,0.211,25.692,0.184,38.361-0.912c13.284-1.148,9.608-20.145,9.706-28.99
	c0.302-27.688,0.315-55.375,0.733-83.061c0.2-13.285,0.494-26.566,0.957-39.844c0.477-13.717,4.333-21.738,13.17-32.203
	c7.438-8.807,16.335-12.691,25.736-18.844c3.774-2.469,6.142-5.715,10.931-5.607c7.614,0.174,15.219,0.723,22.786,1.574
	c2.535,0.285,6.028,0.115,8.31,1.457c1.912,1.127,3.062,3.178,5.006,4.258c3.322,1.844,9.336-2.191,11.344-4.543
	c7.969-9.328,13.115-22.305,18.844-33.086c4.786-9.009,14.56-15.896,8.702-26.846c-5.807-10.865-18.036-12.128-29.063-11.957
	c-15.891,0.247-31.58,3.466-46.992,7.088c-6.457,1.519-12.387,2.583-17.704,6.776c-5.119,4.037-9.697,9.559-16.259,11.254
	c-6.403,1.655-12.352-1.604-17.342-5.282c-6.466-4.767-13.066-7.346-20.982-8.709c-7.13-1.228-14.363-1.633-21.553-2.375
	c-6.936-0.717-14.157-2.003-20.996,0.041c-14.11,4.219-14.896,19.641-14.795,31.934c0.136,16.523,0.241,33.047,0.229,49.57
	c-0.014,21.461-2.085,43.943-0.03,65.312c-0.66-6.869-0.688-14.883-0.022-21.75C3010.921,658.302,3011.263,661.785,3011.271,665.07
	C3011.271,691.718,3011.188,629.093,3011.271,665.07z"/>
<path fill="#2DC23E" d="M2310.646,868.501c-12.58,0-25.192,1.906-37.744,0.311c-12.54-1.592-25.291-5.172-37.392-8.766
	c-24.129-7.168-43.348-19.811-61.646-36.857c-18.581-17.311-38.43-33.473-56.562-51.219c-7.982-7.811-13.936-16.467-15.025-27.818
	c-1.376-14.299-2.834-28.59-4.185-42.889c-2.592-27.471-4.788-55.008-5.202-82.609c-0.354-23.441,10.479-47.664,26.638-64.685
	c7.532-7.934,16.501-14.3,24.61-21.6c9.42-8.478,16.513-19.1,25.756-27.721c8.565-7.99,19.322-13.348,30.308-17.182
	c12.456-4.348,24.228-8.992,36.348-14.175c23.877-10.211,49.813-14.282,75.679-14.243c11.983,0.019,24.416,0.331,36.2,2.681
	c12.795,2.552,24.55,8.702,36.507,13.67c11.533,4.79,23.646,7.976,35.202,12.695c12.216,4.989,22.126,14.285,32.427,22.311
	c9.814,7.645,20.424,15.147,28.86,24.348c9.167,9.996,16.115,22.198,23.386,33.583c3.352,5.248,6.684,10.51,10.033,15.76
	c2.376,3.723,5.314,6.617,5.649,11.053c1.056,13.947,2.498,27.859,3.819,41.783c2.509,26.406,6.022,54.42,2.429,80.871
	c-3.168,23.307-17.718,46.689-32.5,64.498c-14.733,17.746-35.689,33.898-55.556,45.494c-39.371,22.982-83.389,34.336-127.106,45.49
	c-0.659-3.381,0.337-4.836-3.572-4.76c0.095-0.004-3.646,0.352-3.622,0.367C2305.061,869.365,2310.831,869.455,2310.646,868.501
	C2298.076,868.501,2310.956,870.095,2310.646,868.501z M2321.52,808.814c0.006-1.482,25.269,0.17,28.082,0.195
	c13.985,0.125,27.302-2.566,40.623-6.664c12.075-3.713,24.111-7.883,35.888-12.463c9.022-3.512,25.036-10.27,25.067-21.621
	c0.028-10.08-14.449-14.383-22.152-18.543c-11.172-6.031-22.983-10.801-35.919-9.477c-12.233,1.25-23.71,6.299-35.941,7.584
	c-12.148,1.279-24.733,1.479-36.95,1.98c-26.322,1.082-47.096-4.854-64.89-24.822c-7.409-8.316-15.102-16.754-19.725-27.021
	c-4.974-11.047-5.328-25.547-4.692-37.467c1.223-22.939,12.485-42.121,30.521-56.016c8.771-6.758,18.57-12.127,28.896-16.105
	c10.278-3.961,24.414-9.584,35.591-7.588c12.062,2.154,22.007,8.666,34.678,7.814c13.84-0.928,27.474-3.799,40.921-7.074
	c12.133-2.955,23.145-6.65,33.383-14.018c4.481-3.225,4.624-7.848,3.547-13.097c-1.12-5.457-8.657-8.167-12.971-10.736
	c-22.042-13.133-48.487-20.856-74.09-22.662c-26.975-1.9-55.026,2.869-81.699,6.439c-12.241,1.639-25.329,2.154-36.854,6.909
	c-11.752,4.848-22.264,13.505-32.5,20.911c-18.666,13.505-41.129,29.226-52.793,49.632c-5.941,10.393-4.19,23.873-4.058,35.418
	c0.161,13.939,0.9,27.879,2.28,41.754c2.525,25.402,4.971,50.203,21.768,70.514c18.103,21.891,42.452,36.561,68.949,46.191
	C2263.913,808.753,2292.816,808.814,2321.52,808.814c0-0.17-4.801-0.111-5.298-0.059
	C2317.879,808.576,2319.879,808.814,2321.52,808.814C2321.521,808.32,2309.528,808.814,2321.52,808.814z"/>
<path fill="#2DC23E" d="M3731.145,881.294c-25.377-4.311-53.123-5.105-77.344-14.434c-9.79-3.771-17.359-11.477-25.152-18.201
	c-9.236-7.971-20.618-12.01-30.02-19.512c-8.464-6.756-14.575-16.146-21.352-24.479c-3.89-4.781-7.785-9.561-11.592-14.408
	c-1.008-1.283-3.216-2.506-3.891-4c-1.109-2.455-0.676-6.793-0.926-9.463c-2.592-27.41-6.043-54.756-7.443-82.268
	c-0.596-11.678-2.645-25.666,0.361-37.096c2.912-11.08,11.134-20.117,18.144-28.832c15.083-18.754,27.431-40.266,48.479-53.148
	c21.291-13.029,45.604-22.894,68.412-32.956c10.918-4.816,24.882-2.926,36.599-3.215c13.739-0.338,27.125,0.653,40.659,3.039
	c24.043,4.234,48.886,11.696,68.977,26.008c9.539,6.797,17.409,15.508,25.117,24.248c8.389,9.508,17.396,18.096,26.416,26.979
	c8.214,8.09,15.247,17.922,19.812,28.539c5.228,12.154,4.196,26.748,4.731,39.742c0.535,13.018,0.801,26.055,0.389,39.082
	c-0.393,12.402,0.127,27.18-4.898,38.754c-4.52,10.406-12.461,18.918-19.027,28.023c-7.299,10.121-11.311,22.49-20.112,31.49
	c-8.128,8.309-18.281,15.107-27.233,22.525c-9.362,7.754-20.593,16.951-32.543,20.115c-12.318,3.262-25.188,5.047-37.746,7.135
	c-6.457,1.074-12.922,2.107-19.386,3.146c-6.213,1-14.813,4.057-20.979,2.906c-11.129-2.074-1.027-3.146,4.093-2.91
	C3742.074,878.498,3736.054,880.464,3731.145,881.294C3706.153,877.048,3756.764,876.964,3731.145,881.294z"/>
<path fill="#219171" d="M330.938,675.771c0,27.539,0.961,55.076,0.491,82.617c-0.217,12.723,0.208,26.139-2.216,38.67
	c-2.485,12.855-8.93,24.424-14.516,36.113c-10.95,22.916-21.562,43.26-42.88,58.121c-9.413,6.561-18.843,13.391-28.608,19.414
	c-11.441,7.059-23.827,8.793-37.068,9.232c-6.376,0.211-12.757,0.105-19.133-0.039c-5.674-0.131-12.931,1.02-18.301-1.08
	c-9.92-3.875-6.561-17.83-6.41-26.83c0.184-10.98,2.086-22.518,12.423-28.365c9.88-5.592,21.745-6.604,31.242-13.014
	c9.327-6.297,15.21-17.355,20.324-27.061c1.225-2.322,15.91-25.514,3.831-24.207c-9.313,1.01-24.949,0.943-32.432,7.223
	c-3.568,2.994-8.688,2.01-13.063,2.145c-7.517,0.232-15.028,0.592-22.543,0.873c-26.051,0.969-52.312,0.916-76.558-9.861
	c-19.567-8.695-40.612-20.303-56.849-34.418C9.765,748.867,4.611,725.902,2.184,701.878c-2.491-24.656-5.865-54.166,1.673-78.252
	c3.269-10.445,11.203-18.941,18.474-26.805c8.779-9.494,17.636-18.572,27.737-26.688c9.181-7.379,18.915-15.779,30.449-19.107
	c13.218-3.814,28.261-4.245,41.899-5.837c26.929-3.143,54.464-7.415,81.59-4.909c12.369,1.143,23.827,5.909,36.069,7.45
	c13.464,1.694,28.243-1.227,41.625-2.841c9.765-1.179,19.517-2.469,29.294-3.536c7.022-0.768,17.653-2.578,19.305,7.233
	c1.49,8.848,0.28,18.943,0.34,27.914c0.066,9.98,0.104,19.961,0.121,29.939c0.054,28.775-0.68,57.652,0.163,86.35
	C330.876,691.193,330.953,675.771,330.938,675.771C330.938,702.212,330.874,675.769,330.938,675.771z M241.915,670.333
	c-6.399-8.326,0.713-22.047,1.268-31.211c0.794-13.15-8.799-19.133-20.208-22.287c-10.973-3.035-19.547-10.977-30.076-14.977
	c-10.706-4.066-24.749,0.104-35.492,2.494c-21.609,4.809-47.362,11.824-58.055,32.963c-5.279,10.436-8.572,22.6-7.752,34.348
	c0.947,13.572,6.17,26.412,8.387,39.771c1.787,10.775,4.898,19.996,14.287,26.479c10.487,7.238,24.125,8.955,36.433,10.768
	c23.736,3.498,49.089,2.697,67.967-14.01c7.954-7.041,14.949-16.025,19.668-25.545c5.79-11.678,3.989-22.965,3.624-35.521
	c-0.094-3.211-0.632-5.123-3.521-6.994c-1.185-0.768-1.278,0.465-1.119,1.359c0.159,0.896,3.109,8.254,4.22,5.461
	C241.92,672.486,241.915,671.326,241.915,670.333C238.825,666.312,241.915,683.554,241.915,670.333z"/>
<path fill="#219171" d="M907.246,699.781c-27.557,0-55.122-0.918-82.674-0.004c-12.389,0.408-23.989-1.289-32.188,9.434
	c-3.26,4.266-5.952,8.947-8.771,13.506c-2.597,4.205,1.238,8.32,4.303,11.451c7.417,7.58,20.339,11.645,30.349,14.23
	c13.348,3.447,27.239,6.174,40.9,8.002c11.682,1.562,23.971,2.676,35.117-1.875c10.843-4.426,21.043-12.947,32.955-14.182
	c11.63-1.205,22.259,5.609,31.774,11.43c7.831,4.789,23.6,14.023,21.411,25.475c-1.804,9.443-16.17,16.432-23.455,21.012
	c-11.864,7.461-22.054,10.23-35.942,10.555c-11.482,0.27-21.368,4.807-32.287,7.666c-12.696,3.328-26.706,0.914-39.592-0.242
	c-26.024-2.334-53.723-4.957-78.001-15.188c-10.674-4.498-22.512-9.77-31.481-17.217c-9.509-7.893-16.573-18.748-23.669-28.738
	c-7.221-10.164-14.123-20.57-20.199-31.467c-6.459-11.586-4.385-23.215-4.781-35.994c-0.793-25.57-3.091-50.176,10.856-72.9
	c6.045-9.85,13.142-19.064,19.708-28.566c7.117-10.299,15.29-21.139,25.762-28.253c20.449-13.895,47.751-17.529,71.604-20.595
	c26.841-3.451,53.771-7.079,80.897-6.565c24.927,0.473,43.639,16.183,64.933,27.073c21.809,11.151,35.217,34.454,49.238,53.895
	c12.198,16.912,16.671,37.369,17.097,57.924c0.147,7.16,2.009,19.582-2.914,25.57c-5.85,7.117-21.684,3.779-29.973,3.84
	c-23.212,0.17-46.424,0.148-69.636,0.127c-12.588-0.01-24.543,1.646-36.731,0.557C893.291,699.865,907.248,699.501,907.246,699.781
	C880.788,699.781,907.247,699.578,907.246,699.781z M861.651,649.539c0-0.201,47.976-0.373,52.569-0.131
	c7.163,0.377,15.405,2.385,22.333-0.287c8.251-3.184,7.488-12.521,5.693-19.645c-3.927-15.592-12.966-26.613-28.909-30.504
	c-17.633-4.303-35.691-6.475-53.691-8.572c-8.544-0.996-17.281-2.607-25.907-2.162c-8.534,0.438-15.171,4.967-22.113,9.539
	c-11.505,7.58-29.877,18.307-30.341,33.561c-0.103,3.338-1.402,13.879,2.076,15.879c6.703,3.854,16.527,2.26,23.887,2.305
	C825.382,649.625,843.517,649.539,861.651,649.539c0,0.07-9.499-0.014-10.481,0.012C854.66,649.462,858.161,649.539,861.651,649.539
	C861.651,649.591,838.032,649.539,861.651,649.539z"/>
<path fill="#219171" d="M1306.577,699.927c-33.254,0-66.513-0.334-99.762,0.391c-13.63,0.297-19.624,11.752-13.534,24.057
	c2.982,6.027,10.158,9.762,15.339,13.715c5.999,4.574,12.103,9.082,18.735,12.709c12.662,6.926,27.036,8.279,41.246,7.127
	c15.656-1.27,28.769-7.826,43.643-11.873c12.69-3.453,28.999-6.365,39.919,2.828c5.372,4.521,12.433,6.305,18.317,10.014
	c7.021,4.426,13.406,9.818,20.059,14.76c-9,8.143-17.668,17.246-28.205,23.436c-11.002,6.461-23.494,9.744-36.063,11.383
	c-12.031,1.57-24.831,0.332-36.646,2.971c-12.809,2.855-22.853,7.17-36.292,6.189c-25.595-1.865-49.547-3.766-71.924-17.598
	c-20.75-12.826-40.945-29.107-59.472-44.973c-8.239-7.055-15.416-15.588-19.111-25.916c-4.279-11.959-3.375-25.344-5.992-37.746
	c-2.555-12.107-5.725-24.494-3.677-36.93c2.034-12.352,7.946-23.795,14.027-34.588c5.882-10.438,11.767-20.926,17.896-31.217
	c6.229-10.457,13.256-23.1,23.192-30.47c19.537-14.491,47.316-17.665,70.652-20.432c20.809-2.466,41.643-4.827,62.564-6.097
	c10.328-0.627,21.126-1.703,31.449-0.618c9.761,1.026,18.799,5.781,27.305,10.369c17.166,9.258,36.281,17.03,50.308,30.996
	c6.63,6.6,11.474,14.705,17.774,21.594c6.13,6.703,11.887,13.238,15.782,21.547c7.807,16.648,7.986,35.443,7.602,53.461
	c-0.214,10.006-1.651,17.672-8.998,25.033c-7.013,7.025-17.005,5.494-26.247,5.787c-35.078,1.111-70.352,0.721-105.428,0.1
	C1292.497,699.96,1306.577,699.945,1306.577,699.927C1279.972,699.927,1306.577,699.964,1306.577,699.927z M1265.669,649.132
	c0.006-0.75,42.115-0.344,46.14-0.354c8.554-0.025,17.105-0.078,25.658-0.188c7.367-0.094,12.741-1.572,12.187-10.219
	c-0.984-15.27-20.678-25.318-31.561-33.553c-14.547-11.006-28.649-16.992-47.087-17.42c-16.03-0.371-35.648-0.293-49.779,8.074
	c-13.683,8.104-26.61,21.953-34.932,35.479c-2.262,3.678-5.779,11.426-1.939,15.057c5.597,5.293,16.938,3.031,23.974,3.082
	C1227.442,649.232,1246.556,649.132,1265.669,649.132c0-0.057-10.167-0.088-11.219-0.027
	C1258.158,648.896,1261.957,649.132,1265.669,649.132C1265.674,648.548,1240.391,649.132,1265.669,649.132z"/>
<path fill="#219171" d="M1511.905,670.923c0-27.514-0.974-55.033-0.142-82.543c0.352-11.604-1.312-25.596,6.596-35.022
	c7.951-9.481,18.782-14.646,31.002-15.65c10.142-0.833,24.078-1.012,33.553,3.224c4.984,2.229,8.669,6.646,12.904,9.946
	c4.903,3.823,10.813,5.381,16.823,6.595c3.97,0.803,8.869,1.882,12.938,1.07c3.698-0.737,5.996-6.742,8.585-9.282
	c9.082-8.907,21.854-9.313,33.807-9.68c11.807-0.362,20.407-4.339,31.456-7.75c11.517-3.555,26.628-0.497,38.346,1.074
	c11.567,1.55,23.845,4.005,34.102,9.843c11.425,6.502,19.701,17.163,29.375,25.816c8.02,7.174,18.393,11.447,24.682,20.477
	c7.036,10.1,7.198,22.709,6.459,34.521c-1.64,26.23-0.271,52.586-0.39,78.869c-0.126,27.748-0.658,55.49-1.153,83.234
	c-0.15,8.461,1.85,22.615-10.526,23.012c-12.543,0.402-25.176,1.074-37.718,0.318c-9.643-0.582-21.124-2.283-26.41-11.498
	c-6.25-10.896-5.349-26.051-5.547-38.178c-0.445-27.348,2.502-54.971,0.08-82.246c-1.947-21.939-0.878-53.707-24.423-64.516
	c-10.22-4.689-22.5-5.52-33.404-7.98c-12.947-2.922-26.566-5.939-39.88-3.824c-57.601,9.146-52.122,79.402-52.63,122.736
	c-0.168,14.334-0.05,28.672,0.483,42.996c0.4,10.785,5.479,30.494-4.392,38.457c-8.505,6.859-25.155,4.713-35.269,4.482
	c-12.411-0.281-31.207,4.418-40.779-5.701c-8.491-8.975-8.42-23.314-8.419-34.758c0.002-15.52,0.004-31.041,0.004-46.561
	c0-22.439,0.284-44.896-0.104-67.318C1511.939,656.576,1511.922,670.923,1511.905,670.923
	C1511.905,644.505,1511.943,670.923,1511.905,670.923z"/>
<path fill="#219171" d="M441.674,670.613c0-27.746-0.048-55.49,0.035-83.234c0.039-13.006-0.048-26.027,0.196-39.031
	c0.229-12.271,19.694-9.021,27.608-9.26c11.738-0.354,26.189-1.938,37.282,2.649c9.897,4.093,17.838,16.626,29.291,16.051
	c5.56-0.279,9.867-3.992,12.676-8.538c1.675-2.709,2.75-9.083,6.439-9.59c13.154-1.808,26.222-4.246,39.373-6.104
	c10.485-1.48,25.895-6.03,35.59-0.458c11.752,6.756,11.037,15.889,6.542,27.415c-3.292,8.442-5.857,23.426-14.072,28.403
	c-10.865,6.584-23.772,9.176-36.285,9.777c-24.924,1.197-47.102,9.807-57.675,33.84c-10.384,23.602-8.132,50.744-7.962,75.898
	c0.104,15.441,0.313,30.887,0.127,46.326c-0.145,11.959,2.467,29.074-4.831,39.34c-3.321,4.672-7.68,8.896-12.676,11.74
	c-6.006,3.414-13.754,2.67-20.449,2.969c-10.789,0.48-28.655,2.975-36.367-6.83c-7.553-9.6-5.679-26.355-5.746-37.754
	c-0.097-16.271,0.002-32.547,0.002-48.818c0-13.73,0-27.461,0-41.191c0-6.484,1.851-14.322,0.838-21.939
	C441.836,653.976,441.23,670.613,441.674,670.613C441.674,643.976,441.374,670.613,441.674,670.613z"/>
<path fill="#219171" d="M2240.523,1031.373c0,17.176,1.561,34.375,0.271,51.537c-0.523,6.979-0.823,13.787-5.525,19.334
	c-5.271,6.221-12.303,10.576-17.899,16.463c-4.415-8.045-9.231-15.873-13.318-24.096c-4.044-8.129-5.4-16.473-7.564-25.184
	c-7.679,7.33-15.38,14.592-22.757,22.23c-3.153,3.264-15.742,19.152-20.102,16.109c-7.434-5.191-12.732-12.152-16.502-20.312
	c-3.609-7.814-6.064-18.572-16.312-18.178c-1.515,0.059-6.848-0.238-7.981,1.045c-2.199,2.49-1.951,8.145-1.989,11.133
	c-0.115,8.893,1.52,19.559-3.283,27.578c-11.928,19.914-34.414-0.48-35.135-16.688c-1.04-23.184-1.203-46.396-1.094-69.6
	c0.053-11.061,0.168-22.119,0.283-33.178c0.083-8.027-2.496-21.035,2.429-28.02c3.921-5.562,15.369-0.363,18.931,3.711
	c7.706,8.822,15,17.992,22.242,27.195c13.122,16.674,26.492,32.219,41.553,47.162c13.753-14.98,27.061-30.242,39.576-46.287
	c5.375-6.889,8.874-14.596,13.373-22.02c4.818-7.947,11.537-14.354,17.618-21.303c3.845,7.311,9.663,13.793,12.019,21.83
	c2.576,8.793,1.844,19.314,1.809,28.385c-0.053,13.492-0.955,27.021-0.626,40.459
	C2240.515,1039.81,2240.594,1031.373,2240.523,1031.373C2240.523,1044.298,2240.58,1031.373,2240.523,1031.373z"/>
<path fill="#219171" d="M3031.253,1029.812c0-21.037-0.083-42.078,0.073-63.117c0.051-6.801-1.617-16.861,7.26-17.391
	c10.596-0.631,16.57,4.445,24.752,10.543c7.525,5.611,14.826,11.531,21.823,17.793c6.711,6.004,11.591,13.25,17.366,20.078
	c11.199,13.238,27.019,15.699,42.468,21.434c1.645-6.018,4.189-11.805,5.052-18.021c0.89-6.416,0.646-13.092,0.605-19.555
	c-0.069-11.197-3.086-27.646,2.101-38.033c5.291-10.596,20.646-0.883,26.675,3.83c11.793,9.217,9.958,20.973,10.303,34.674
	c0.693,27.709,0.576,55.432,0.26,83.146c-0.137,11.959,0.557,24.293-0.485,36.207c-1.05,11.988-21.486,6.25-26.999,2.338
	c-9.739-6.914-17.652-16.631-25.995-25.086c-9.834-9.967-20.008-19.613-29.646-29.771c-3.557-3.746-15.864-20.227-21.858-18.414
	c-4.269,1.289-8.96,4.521-11.88,7.855c-3.843,4.389-2.691,12.273-2.643,17.666c0.11,12.072,1.154,24.133-0.416,36.158
	c-1.577,12.066-13.151,18.252-20.557,26.65c-8.508-8.035-16.854-10.436-17.66-23.131c-0.893-14.045-0.793-28.127-0.609-42.191
	c0.148-11.51-0.343-23.008,0.028-34.453C3031.235,1020.033,3031.324,1029.814,3031.253,1029.812
	C3031.253,1016.525,3031.326,1029.814,3031.253,1029.812z"/>
<path fill="#219171" d="M1724.616,1018.583c5.349-11.088,10.16-22.426,15.503-33.516c4.604-9.555,9.771-24.299,19.767-29.42
	c10.074-5.16,22.354-6.785,33.062-10.455c12.814-4.395,24.104-6.943,37.03-1.625c10.865,4.471,20.76,10.76,30.496,17.264
	c9.953,6.646,20.138,12.754,27.647,22.297c13.855,17.605,18.147,46.152,7.961,66.59c-10.533,21.131-29.486,39.113-45.468,56.082
	c-7.825,8.309-12.15,12.574-23.832,11.865c-13.26-0.805-27.793-2.564-40.342-7.119c-10.107-3.666-18.074-11.244-26.007-18.207
	c-9.233-8.107-16.736-16.619-21.514-28.062c-4.623-11.072-7.527-22.768-10.854-34.268c-1.301-4.498-4.561-9.891-2.023-14.104
	c0.48-0.803,2.025-3.582,3.396-2.795C1732.921,1015.109,1729.237,1033.076,1724.616,1018.583
	C1729.965,1007.496,1731.083,1038.869,1724.616,1018.583z M1813.486,1069.796c26.379,0.248,51.218-16.025,47.845-45.189
	c-1.601-13.84-9.796-27.73-20.088-36.943c-12.076-10.811-25.992-9.924-40.604-4.926c-26.953,9.221-53.027,35.756-34.018,64.641
	c12.412,18.857,34.388,22.312,55.192,22.498c-5.85-0.053-11.697-0.119-17.547-0.166
	C1807.342,1069.736,1810.414,1069.767,1813.486,1069.796C1829.73,1069.951,1782.214,1069.503,1813.486,1069.796z"/>
<path fill="#2DC23E" d="M711.15,363.394c0.003-13.321,0.104-26.643,0.068-39.964c-0.028-11.481-2.659-26.498,5.452-36.01
	c7.187-8.427,18.382-7.672,28.422-7.748c13.989-0.106,27.96-0.933,41.949-0.265c13.846,0.661,21.21,4.646,28.891,16.284
	c3.27,4.952,5.117,6.79,1.146,11.675c-4.225,5.199-9.4,9.838-16.085,11.348c-12.115,2.735-23.674-0.506-35.75-0.8
	c-12.202-0.297-16.499,7.931-14.599,19.027c2.002,11.682,9.457,11.973,19.697,12.088c6.521,0.073,13.042-0.016,19.561,0.153
	c5.771,0.149,14.896-0.805,19.776,2.798c4.484,3.31,7.141,8.519,11.013,12.439c-3.571,3.482-6.233,7.795-9.996,11.094
	c-8.171,7.167-25.809,5.174-35.741,3.935c-7.941-0.991-19.283-2.944-23.515,6.058c-2.986,6.352-2.529,21.807,6.195,23.817
	c10.585,2.438,23.251-0.624,34.105-0.028c13.935,0.765,18.956,5.971,27.46,16.3c3.744,4.546,3.192,3.726-0.574,8.244
	c-2.97,3.562-5.711,7.425-9.175,10.542c-6.364,5.726-18.026,4.513-26.069,4.915c-9.723,0.485-19.472,0.548-29.196,0.072
	c-8.737-0.427-19.572,0.028-27.266-4.66c-15.755-9.603-16.292-25.361-16.47-42.06c-0.157-14.799,0.683-29.596,0.7-44.396
	c-0.004,3.818,0.017,7.637-0.002,11.455C711.16,367.602,711.15,365.498,711.15,363.394
	C711.154,350.073,711.146,384.374,711.15,363.394z"/>
<path fill="#219171" d="M2784.354,1089.867c-13.141,3.393-30.272-8.184-34.943,11.318c-1.749,7.299-1.771,8.93-9.896,11.006
	c-8.328,2.131-16.875,3.445-25.126,5.869c-0.696-9.449-3.694-18.783-3.192-28.312c0.552-10.51,6.766-21.305,11.3-30.586
	c9.618-19.693,19.787-38.967,28.565-59.072c4.269-9.773,8.485-19.57,12.936-29.262c4.037-8.797,6.109-19.537,16.964-20.76
	c3.194-0.359,7.737-1.252,9.638,2.004c3.109,5.328,5.869,10.852,8.514,16.424c4.799,10.104,9.091,20.572,14.943,30.131
	c5.147,8.408,11.487,15.969,16.238,24.641c5.129,9.363,9.084,19.334,12.694,29.363c4.007,11.135,7.442,22.471,10.422,33.924
	c1.388,5.336,8.618,23.836,3.188,27.791c-17.188,12.523-27.873-6.414-37.92-17.326c-5.148-5.592-11.521-10.33-19.401-10.623
	c-1.882-0.068-17.271,3.936-17.314,3.85c-0.297-0.568,11.677-5.451,11.831-5.014
	C2793.991,1085.796,2784.804,1089.664,2784.354,1089.867C2779.3,1091.171,2810.658,1077.984,2784.354,1089.867z"/>
<path fill="#219171" d="M1410.529,1028.898c-2.622-26.055,13.047-47.021,30.33-64.717c18.285-18.721,42.334-28.912,68.627-23.938
	c9.761,1.848,20.584,3.803,29.133,9.125c8.436,5.252,15.156,17.688,10.357,27.518c-1.978,4.051-5.301,7.775-9.214,10.033
	c-4.604,2.658-8.264-0.342-12.302-2.59c-8.952-4.984-22.955-1.748-32.693-0.779c-10.795,1.074-23.05,2.566-32.491,8.355
	c-10.524,6.447-13.738,18.254-13.073,29.969c0.624,10.98,2.29,22.602,9.303,31.412c7.503,9.424,16.738,14.768,28.654,16.318
	c12.494,1.629,25.139,0.908,37.681,0.371c8.104-0.346,25.04-4.33,25.692,7.104c0.546,9.576,2.209,17.412-5.951,23.854
	c-9.239,7.295-19.523,13.646-30.894,16.977c-31.207,9.137-57.353-11.373-78.303-32.203c-9.43-9.377-21.378-22.162-23.516-35.785
	c-1.201-7.65-0.789-15.516-1.562-23.221c-0.233-2.326-0.94-5.1-0.729-7.449c-0.285,3.146,0.283,8.398,1.167,11.434
	C1410.588,1030.136,1410.593,1029.457,1410.529,1028.898C1409.521,1018.888,1411.668,1038.851,1410.529,1028.898z"/>
<path fill="#219171" d="M2420.98,1029.175c0-19.969,0.106-39.938-0.011-59.904c-0.104-17.842,6.354-30.457,26.145-29.703
	c18.407,0.699,38.194-2.4,56.039,3.207c17.664,5.551,26.72,19.215,30.924,36.58c2.133,8.807,3.202,17.842,3.646,26.883
	c0.295,5.998,2.311,16.443-1.988,21.373c-11.659,13.375-32.83,14.508-49.043,17.312c-7.501,1.297-18.562,1.895-24.625,6.938
	c-5.769,4.799-8.877,12.195-10.773,19.264c-2.146,8-3.139,16.275-4.561,24.42c-0.74,4.232-1.13,9.373-3.086,13.266
	c-2.006,3.996-5.942,6.641-8.755,10.01c-3.993-5.32-12.046-10.432-12.725-17.582c-1.032-10.877-0.894-21.973-0.895-32.889
	c-0.002-16.367,1.139-32.994-0.247-48.621C2421.104,1020.613,2421.1,1029.175,2420.98,1029.175
	C2420.98,1015.863,2421.166,1029.175,2420.98,1029.175z M2481.665,1019.656c6.721-8.035,13.442-16.07,20.164-24.105
	c-9.343-4.867-17.813-11.689-28.089-14.596c-10.512-2.971-16.521,8.191-23.704,13.959
	C2460.579,1003.162,2471.122,1011.41,2481.665,1019.656C2490.232,1009.414,2468.52,1009.373,2481.665,1019.656
	C2488.386,1011.621,2467.312,1008.427,2481.665,1019.656z"/>
<path fill="#2DC23E" d="M440.989,362.208c0-23.642-5.811-53.187,7.336-74.079c3.082-4.898,4.042-8.952,10.399-7.315
	c4.217,1.085,4.557,7.719,5.583,11.269c3.35,11.582,7.582,23.783,8.533,35.853c0.354,4.487-0.505,9.329,4.476,10.684
	c5.633,1.533,11.178,3.363,16.76,5.066c10.408,3.176,24,7.444,34.484,2.331c8.594-4.191,8.737-20.33,9.688-28.362
	c1.595-13.461,4.445-24.835,9.302-37.448c4.81,3.222,12.812,5.087,16.1,10.114c3.343,5.116,1.77,17.755,2.175,23.737
	c1.122,16.562,2.101,33.135,2.907,49.716c0.806,16.581,1.437,33.17,1.861,49.766c0.149,5.839,2.009,14.522-1.007,19.792
	c-3.447,6.025-9.591,9.997-13.89,15.345c-7.659-11.896-14.654-20.969-17.679-35.149c-1.566-7.351-2.698-31.548-11.853-33.305
	c-6.812-1.308-14.007-0.256-20.905-0.801c-6.465-0.511-13.068-0.738-19.136,1.977c-12.157,5.439-13.856,19.663-13.754,31.406
	c0.082,9.381,1.979,25.738-10.567,27.998c-4.511,0.812-10.304,0.034-14.476-1.89c-5.512-2.54-5.501-7.236-5.583-12.502
	c-0.092-5.929,0.064-72.792-0.714-72.792C441.073,353.616,441.146,362.208,440.989,362.208
	C440.989,349.046,441.184,362.208,440.989,362.208z"/>
<path fill="#2DC23E" d="M261.73,279.73c12.962,0.005,25.914-0.845,38.878-0.592c6.41,0.125,12.824,0.524,19.172,1.448
	c6.265,0.912,10.484,6.604,14.098,11.248c1.782,2.291,3.526,4.615,5.433,6.806c2.993,3.438,0.589,3.254-2.132,6.173
	c-3.506,3.762-6.743,8.249-10.953,11.275c-4.083,2.936-8.893,1.207-13.51,0.882c-6.143-0.431-12.604-0.32-18.456,1.813
	c-24.443,8.913-12.481,46.391-12.075,65.29c0.277,12.895-0.412,25.798-1.648,38.632c-1.04,10.791-8.298,23.397-20.671,24.745
	c-4.592,0.5-9.931-5.247-12.562-8.31c-3.878-4.516-4.479-8.398-4.801-14.154c-0.799-14.286-1.245-28.592-1.292-42.899
	c-0.043-13.103,0.134-26.245,0.935-39.326c0.658-10.744,0.614-23.241-12.828-24.413c-10.483-0.914-20.967,2.516-31.437,0.351
	c-10.158-2.1-18.223-12.836-15.475-23.523c2.781-10.818,14.373-14.662,23.997-15.285c14.182-0.918,28.402-0.519,42.599-0.286
	c6.084,0.099,12.168,0.129,18.253,0.128c-3.908,0.001-7.818-0.047-11.726-0.004C257.596,279.706,259.664,279.73,261.73,279.73
	C274.693,279.736,240.746,279.724,261.73,279.73z"/>
<path fill="#219171" d="M3416.227,1061.666c-3.589-12.014-5.67-24.445-9.732-36.324c-4.047-11.83-10.717-21.688-19.03-30.932
	c-7.932-8.822-16.633-17.021-23.519-26.73c-3.075-4.34-2.736-10.287-2.276-15.307c0.543-5.934-0.383-10.271,6.208-11.904
	c22.604-5.605,42.437,19.736,54.979,34.771c3.657,4.385,7.066,8.971,10.676,13.395c4.169-3.598,9.17-6.096,13.261-9.789
	c3.551-3.203,3.869-7.033,5.553-11.242c2.235-5.594,5.793-10.609,10.052-14.848c7.562-7.52,17.948-13.461,28.864-13.42
	c12.974,0.049,10.391,14.072,8.722,23.5c-2.013,11.365-10.962,19.994-17.777,28.75c-8.36,10.738-16.653,21.645-24.405,32.83
	c-7.454,10.748-7.144,20.672-7.236,33.402c-0.105,14.195,0.127,28.398-0.113,42.594c-0.176,10.326-10.574,12.533-18.918,15.799
	c-11.38,4.455-16.104-12.209-18.313-20.541c-1.89-7.127-2.198-14.246-1.868-21.578
	C3411.65,1067.382,3409.638,1063.591,3416.227,1061.666c-0.235-0.789-2.875-6.637-2.593-7.367
	C3413.284,1055.203,3415.258,1061.949,3416.227,1061.666C3412.906,1050.55,3414.734,1062.101,3416.227,1061.666z"/>
<path fill="#2DC23E" d="M2758.977,679.781c15.772,0,31.625-2.121,47.356-0.162c14.981,1.869,23.964,11.398,31.474,23.945
	c7.437,12.422-7.453,28.348-16.599,35.086c-12.829,9.451-28.529,12.346-44.167,12.318c-16.375-0.027-33.727-1.074-49.909-3.592
	c-14.196-2.205-28.461-9.199-32.909-23.873c-4.439-14.639,7.688-26.643,19.428-33.777c13.416-8.156,29.387-10.334,44.137-15.004
	c1.176,5.002,0.985,5.16,6.204,4.996c-0.067,0.002,3.031-0.326,3.002-0.346C2766.143,678.798,2758.771,678.906,2758.977,679.781
	C2771.667,679.781,2758.58,678.095,2758.977,679.781z"/>
</svg>
