<?xml version="1.0" encoding="utf-8"?>
<!-- Generator: Adobe Illustrator 16.0.4, SVG Export Plug-In . SVG Version: 6.00 Build 0)  -->
<!DOCTYPE svg PUBLIC "-//W3C//DTD SVG 1.1//EN" "http://www.w3.org/Graphics/SVG/1.1/DTD/svg11.dtd">
<svg version="1.1" id="Layer_1" xmlns="http://www.w3.org/2000/svg" xmlns:xlink="http://www.w3.org/1999/xlink" x="0px" y="0px"
	 width="172.317px" height="34.281px" viewBox="0 0 172.317 34.281" enable-background="new 0 0 172.317 34.281"
	 xml:space="preserve">
<g>
	<path fill="#6D8D24" d="M26.591,10.841c0,0-2.736,0-2.829,0c0-0.097,0-3.866,0-3.866c0-3.846-3.14-6.976-6.997-6.976
		c-3.858,0-6.997,3.129-6.997,6.976c0,0,0,3.769,0,3.866c-0.093,0-2.772,0-2.772,0C3.139,10.841,0,13.97,0,17.82
		c0,3.842,3.139,6.971,6.996,6.971c0,0,2.68,0,2.772,0c0,0.094,0,2.519,0,2.519c0,3.849,3.139,6.972,6.997,6.972
		c3.857,0,6.997-3.123,6.997-6.972c0,0,0-2.425,0-2.519c0.093,0,2.829,0,2.829,0c3.856,0,6.998-3.129,6.998-6.971
		C33.589,13.97,30.448,10.841,26.591,10.841z M12.429,6.976c0-2.383,1.943-4.32,4.334-4.32c2.42,0,4.391,1.903,4.391,4.25
		c0,2.379-1.971,4.32-4.391,4.32h-0.518V9.112h0.518c1.23,0,2.269-1.012,2.269-2.207c0-1.179-1.018-2.137-2.269-2.137
		c-1.221,0-2.213,0.992-2.213,2.208v8.266l-2.121,1.721V6.976z M21.099,27.31c0,2.382-1.944,4.323-4.335,4.323
		c-2.391,0-4.334-1.941-4.334-4.323v-2.688h2.121v2.688c0,1.218,0.993,2.211,2.213,2.211s2.214-0.993,2.214-2.211v-6.913
		l2.121-1.698V27.31z M26.592,22.139h-2.875v-2.117h2.875c1.222,0,2.214-0.987,2.214-2.202c0-1.222-0.992-2.21-2.214-2.21h-4.204
		c-0.565,0-1.077,0.164-1.767,0.567c-0.13,0.073-0.626,0.436-0.804,0.579c-4.226,3.384-4.875,3.904-4.927,3.946
		c-0.168,0.133-0.595,0.456-0.888,0.615c-0.794,0.482-1.641,0.776-2.451,0.822H6.993c-2.389,0-4.335-1.939-4.335-4.319
		c0-2.386,1.946-4.324,4.335-4.324h2.868v2.114H6.993c-1.222,0-2.214,0.988-2.214,2.21c0,1.214,0.993,2.202,2.214,2.202
		c0,0,4.4-0.004,4.397-0.004c0.499-0.027,1.009-0.21,1.603-0.573l0.572-0.404c0,0,4.909-3.943,4.913-3.938
		c0.006-0.006,0.765-0.608,1.173-0.817c0.926-0.539,1.795-0.789,2.738-0.789h4.204c2.392,0,4.336,1.938,4.336,4.324
		C30.928,20.199,28.984,22.139,26.592,22.139z"/>
	<path d="M57.899,11.921c-2.705,0-4.745,2.27-4.745,5.277c0,3.021,2.04,5.303,4.745,5.303c2.69,0,4.718-2.281,4.718-5.303
		C62.618,14.191,60.59,11.921,57.899,11.921z M57.899,21.695c-1.986,0-2.759-1.262-2.759-4.497c0-3.234,0.773-4.494,2.759-4.494
		c1.967,0,2.734,1.259,2.734,4.494C60.633,20.434,59.867,21.695,57.899,21.695z"/>
	<path d="M155.285,21.352l-0.017-0.029c-0.026-0.044-0.072-0.072-0.126-0.076c-0.049-0.005-0.103,0.014-0.135,0.054
		c-0.197,0.225-0.385,0.344-0.54,0.344c-0.331,0-0.424-0.201-0.424-0.905v-5.462c0-2.227-1.144-3.355-3.395-3.355
		c-1.479,0-3.194,0.956-3.194,2.185c0,0.594,0.438,1.042,1.019,1.042c0.562,0,1.018-0.469,1.018-1.042
		c0-0.358-0.16-0.658-0.446-0.843c0,0-0.004-0.002-0.006-0.004l0.006-0.006c0.102-0.141,0.521-0.598,1.604-0.598
		c1.101,0,1.633,0.548,1.633,1.678v2.077h-0.005c-2.721,0-5.645,1.104-5.645,3.521c0,1.433,1.016,2.471,2.418,2.471
		c1.085,0,2.182-0.504,3.269-1.491l0.01-0.009v0.015c0.147,0.816,0.873,1.436,1.687,1.436c0.581,0,1.102-0.366,1.359-0.584
		c0.058-0.056,0.076-0.143,0.035-0.211L155.285,21.352z M152.282,20.121h-0.002c-1.21,1.079-1.97,1.199-2.432,1.199
		c-0.735,0-1.356-0.783-1.356-1.715c0-1.622,1.307-2.483,3.785-2.483h0.005V20.121z"/>
	<path d="M95.793,21.51l-0.114-0.188c-0.029-0.044-0.072-0.072-0.126-0.076C95.5,21.241,95.45,21.26,95.417,21.3
		c-0.201,0.225-0.384,0.344-0.54,0.344c-0.33,0-0.426-0.201-0.426-0.905v-5.462c0-2.227-1.143-3.355-3.393-3.355
		c-1.477,0-3.195,0.956-3.195,2.185c0,0.594,0.438,1.042,1.021,1.042c0.561,0,1.018-0.469,1.018-1.042
		c0-0.358-0.16-0.658-0.446-0.843c0,0-0.007-0.002-0.007-0.004l0.005-0.006c0.101-0.141,0.523-0.598,1.605-0.598
		c1.102,0,1.635,0.548,1.635,1.678v2.077h-0.006c-2.722,0-5.646,1.104-5.646,3.521c0,1.433,1.018,2.471,2.42,2.471
		c1.085,0,2.182-0.504,3.266-1.491l0.013-0.009l0.002,0.015c0.146,0.816,0.869,1.436,1.681,1.436c0.584,0,1.104-0.366,1.363-0.584
		c0.062-0.056,0.074-0.143,0.033-0.211L95.793,21.51z M92.693,20.121h-0.004c-1.211,1.079-1.968,1.199-2.431,1.199
		c-0.737,0-1.358-0.783-1.358-1.715c0-1.622,1.309-2.483,3.787-2.483h0.006V20.121z"/>
	<path d="M133.37,12.919l-1.203-0.376c-1.642-0.458-2.578-1.512-2.578-2.9c0-1.75,1.244-2.972,3.033-2.972
		c2.549,0,3.459,1.78,3.459,3.446c0,0.264,0.118,0.392,0.368,0.392c0.242,0,0.367-0.132,0.367-0.392V6.081
		c0-0.191-0.05-0.369-0.393-0.369c-0.308,0-0.343,0.222-0.343,0.393c0,0.277-0.214,0.552-0.429,0.704l-0.006,0.004l-0.006-0.007
		c-0.385-0.416-1.299-1.118-3.094-1.118c-2.188,0-4.545,1.665-4.545,4.355c0,2.415,1.464,4.128,4.241,4.952
		c0.004,0,0.004,0.001,0.004,0.001c0.018,0.006,0.032,0.006,0.045,0.006c-0.013,0-0.025,0-0.037-0.003l0.966,0.273
		c1.106,0.305,2.96,1.118,2.96,3.148c0,1.949-1.718,2.998-3.334,2.998c-2.413,0-4.033-1.615-4.033-4.02
		c0-0.199-0.031-0.393-0.368-0.393c-0.242,0-0.369,0.138-0.369,0.393v4.638c0,0.128,0,0.392,0.395,0.392
		c0.231,0,0.343-0.14,0.343-0.419c0-0.372,0.199-0.739,0.48-0.876l0.004-0.004l0.002,0.004c0.449,0.41,1.676,1.367,3.446,1.367
		c2.996,0,5.172-1.999,5.172-4.755C137.918,15.406,136.386,13.781,133.37,12.919z M132.452,14.887c0,0,0,0.003-0.002,0.003
		C132.452,14.887,132.452,14.887,132.452,14.887L132.452,14.887z"/>
	<path d="M171.927,19.177c-0.229,0-0.328,0.237-0.395,0.392c-0.486,1.379-1.527,2.102-3.009,2.102c-1.911,0-2.881-1.441-2.881-4.287
		c0,0.003,0.017-0.624,0.022-0.93c0.076,0,6.397,0,6.397,0c0.087,0,0.159-0.063,0.163-0.149l0.005-0.053
		c0.006-0.09,0.015-0.185,0.015-0.279c0-1.07-0.37-2.064-1.031-2.798c-0.741-0.82-1.764-1.253-2.967-1.253
		c-2.256,0-4.593,1.974-4.593,5.277c0,3.277,2.372,5.303,4.568,5.303c1.095,0,3.064-0.323,3.994-2.489
		c0.051-0.12,0.101-0.345,0.101-0.469C172.317,19.362,172.185,19.177,171.927,19.177z M165.79,15.585
		c0.324-1.886,1.253-2.881,2.685-2.881c2.154,0,2.241,2.852,2.241,2.884c0,0,0,0.001,0,0.005h-4.926
		C165.79,15.589,165.79,15.585,165.79,15.585z"/>
	<path d="M85.017,21.302l-1.401,0.019v-0.004c0-0.003,0-14.889,0-14.889c0-0.287-0.187-0.443-0.364-0.443
		c-0.012,0.003-0.519,0.041-0.517,0.041l-0.897,0.063c0.015-0.003-1.352-0.021-1.352-0.021c0.001,0-0.131-0.005-0.131-0.005
		c-0.046,0-0.087,0.018-0.119,0.047s-0.049,0.07-0.049,0.117v0.521c0,0.047,0.019,0.09,0.054,0.12
		c0.033,0.033,0.078,0.048,0.123,0.043l0.123-0.01c0.206-0.022,0.542-0.057,1.364-0.057h0.005V21.32l-1.369-0.019l-0.13-0.004
		c-0.044,0-0.087,0.016-0.119,0.047s-0.049,0.07-0.049,0.116v0.524c0,0.043,0.019,0.087,0.052,0.118
		c0.033,0.03,0.08,0.045,0.125,0.041l0.089-0.004c0.255-0.027,0.724-0.072,2.248-0.072h0.1c1.257,0,1.892,0.035,2.204,0.062
		c0.043,0.004,0.089-0.01,0.124-0.039c0.034-0.031,0.051-0.074,0.051-0.122v-0.506c0-0.044-0.015-0.087-0.044-0.116
		C85.102,21.316,85.06,21.302,85.017,21.302z"/>
	<path d="M69.933,11.921c-1.309,0-2.325,0.724-2.797,1.986l-0.013,0.04v-1.286c0-0.266-0.189-0.443-0.368-0.443
		c-0.012,0-0.546,0.043-0.546,0.043l-0.866,0.059c0.015,0-1.274-0.02-1.274-0.02c-0.044,0-0.086,0.018-0.118,0.048
		c-0.029,0.031-0.048,0.074-0.048,0.116v0.499c0,0.045,0.021,0.091,0.054,0.122c0.036,0.029,0.079,0.045,0.125,0.042
		c0.214-0.025,0.551-0.047,1.272-0.047h0.009v8.241l-1.295-0.019c-0.044,0-0.087,0.019-0.118,0.047
		c-0.029,0.031-0.048,0.07-0.048,0.114v0.502c0,0.045,0.019,0.089,0.053,0.12c0.033,0.03,0.076,0.045,0.124,0.043
		c0.28-0.024,0.927-0.06,2.102-0.06h0.099c1.18,0,1.783,0.035,2.08,0.06c0.048,0.006,0.091-0.011,0.127-0.043
		c0.033-0.029,0.051-0.075,0.051-0.118v-0.504c0-0.044-0.019-0.083-0.049-0.114c-0.032-0.032-0.073-0.047-0.115-0.047l-1.25,0.019
		v-0.004c0-0.003,0-4.292,0-4.292c0-1.855,0.523-3.3,1.439-3.968c0.421-0.307,0.897-0.408,1.307-0.277l0.012,0.002l-0.009,0.008
		c-0.167,0.167-0.268,0.348-0.268,0.724c0,0.625,0.46,1.099,1.067,1.099c0.64,0,1.105-0.535,1.105-1.271
		C71.775,12.504,71.016,11.921,69.933,11.921z"/>
	<path d="M47.632,6.086l-1.901,0.028l-0.95,0.023c-1.422,0-2.117-0.029-2.445-0.054c-0.045-0.002-0.09,0.012-0.123,0.043
		c-0.035,0.03-0.054,0.075-0.054,0.118v0.459c0,0.042,0.018,0.085,0.049,0.114c0.032,0.031,0.074,0.047,0.117,0.045l1.612-0.019
		V6.85c0,0.002,0,12.863,0,14.471l-1.243-0.017c-0.043,0-0.085,0.017-0.116,0.045c-0.031,0.031-0.047,0.07-0.047,0.116v0.5
		c0,0.045,0.019,0.089,0.051,0.12c0.031,0.03,0.079,0.045,0.125,0.043c0.266-0.024,0.89-0.06,2.073-0.06h0.3
		c1.271,0,1.877,0.035,2.16,0.06c0.046,0.006,0.091-0.011,0.126-0.041c0.034-0.029,0.052-0.077,0.052-0.12v-0.506
		c0-0.042-0.016-0.085-0.047-0.114c-0.032-0.03-0.074-0.047-0.117-0.045h-0.043c0.001,0-0.907,0.012-1.289,0.019v-0.004
		c0-0.003,0-4.934,0-5.893h1.708c3.49,0,5.572-1.752,5.572-4.683C53.204,7.828,51.123,6.086,47.632,6.086z M47.632,14.542h-1.708
		V6.994h1.708c2.532,0,3.387,0.947,3.387,3.747C51.019,13.58,50.165,14.542,47.632,14.542z"/>
	<path d="M78.652,12.294c-0.001,0-1.884,0.021-2.456,0.026v-0.008c0,0.003,0-2.583,0-2.583c0-0.378-0.025-0.716-0.319-0.716
		c-0.323,0-0.396,0.241-0.667,1.583c-0.001,0.003-0.001,0.005-0.001,0.006c-0.249,1.32-0.673,1.573-1.819,1.661
		c-0.084,0.007-0.149,0.077-0.149,0.163v0.51c0,0.089,0.071,0.164,0.161,0.164l0.343,0.004c-0.002,0,0.461,0.007,0.712,0.011v0.012
		c0-0.006,0,7.041,0,7.041c0,1.321,0.763,2.11,2.044,2.11c1.256,0,1.758-0.484,1.917-0.69c0.035-0.048,0.043-0.117,0.018-0.169
		l-0.146-0.304c-0.023-0.05-0.067-0.081-0.118-0.094c-0.055-0.008-0.106,0.011-0.143,0.046c-0.204,0.197-0.613,0.528-1.074,0.528
		c-0.328,0-0.758-0.104-0.758-1.007v-7.474l2.028,0.008l0.427,0.006c0.182,0,0.369-0.157,0.369-0.418
		C79.02,12.45,78.833,12.294,78.652,12.294z"/>
	<path d="M144.856,12.294c-0.003,0-1.885,0.021-2.455,0.026v-0.008c0,0.003,0-2.583,0-2.583c0-0.378-0.025-0.716-0.32-0.716
		c-0.357,0-0.424,0.192-0.667,1.4c0,0.002,0,0.004-0.005,0.005c-0.242,1.311-0.668,1.741-1.815,1.842
		c-0.085,0.01-0.149,0.08-0.149,0.162v0.51c0,0.042,0.02,0.087,0.048,0.115c0.031,0.034,0.075,0.048,0.12,0.048l1.05-0.016v0.003
		c0,0.003,0,7.085,0,7.085c0,1.321,0.764,2.11,2.043,2.11c1.253,0,1.757-0.484,1.916-0.69c0.042-0.05,0.046-0.117,0.021-0.169
		l-0.019-0.035l-0.13-0.269c-0.024-0.05-0.067-0.081-0.117-0.094c-0.056-0.008-0.106,0.011-0.144,0.046
		c-0.204,0.197-0.612,0.528-1.076,0.528c-0.324,0-0.756-0.104-0.756-1.007v-7.513l2.031,0.039c-0.006,0,0.419,0.014,0.419,0.014
		c0.187,0,0.373-0.157,0.373-0.418C145.225,12.45,145.038,12.294,144.856,12.294z"/>
	<path d="M162.027,21.588c0.037-0.05,0.044-0.117,0.015-0.169l-0.041-0.089l-0.104-0.22c-0.025-0.045-0.066-0.078-0.119-0.089
		c-0.052-0.008-0.105,0.011-0.143,0.044c-0.201,0.199-0.611,0.53-1.074,0.53c-0.324,0-0.759-0.104-0.759-1.007v-7.513l2.03,0.039
		l0.424,0.014c0.187,0,0.374-0.157,0.374-0.418c0-0.261-0.188-0.416-0.372-0.416c0,0-1.882,0.021-2.456,0.026v-0.008
		c0,0.003,0-2.583,0-2.583c0-0.378-0.024-0.716-0.317-0.716c-0.361,0-0.424,0.192-0.669,1.4v0.002c0,0.001,0,0.002,0,0.003
		c-0.247,1.311-0.669,1.741-1.824,1.842c-0.081,0.01-0.144,0.08-0.144,0.162v0.51c0,0.042,0.015,0.087,0.048,0.115
		c0.03,0.034,0.073,0.048,0.116,0.048l1.054-0.016v0.003c0,0.003,0,7.085,0,7.085c0,1.321,0.765,2.11,2.042,2.11
		C161.362,22.278,161.865,21.794,162.027,21.588z"/>
	<path d="M108.736,21.304l-1.338,0.017v-0.004c0-0.003,0-5.714,0-5.714c0-1.678-0.536-3.681-3.094-3.681
		c-1.6,0-3.098,1.431-3.621,2.811l-0.013,0.04v-2.11c0-0.266-0.19-0.443-0.367-0.443c-0.011,0-0.549,0.043-0.549,0.043
		c0.002,0-0.864,0.059-0.864,0.059c0.013,0-1.275-0.02-1.275-0.02s-0.027-0.002-0.039-0.002c-0.046,0-0.088,0.017-0.119,0.045
		c-0.031,0.033-0.05,0.072-0.05,0.117v0.523c0,0.045,0.019,0.087,0.05,0.116c0.031,0.031,0.075,0.047,0.123,0.045l0.037-0.003
		c-0.002,0,0.906-0.02,1.292-0.028v0.005c0,0.001,0,7.042,0,8.201l-1.294-0.019c0.002,0-0.027,0-0.039-0.002
		c-0.046,0-0.088,0.017-0.119,0.047c-0.031,0.029-0.05,0.072-0.05,0.114v0.519c0,0.089,0.075,0.161,0.164,0.161
		c0.005,0,0.015,0,0.017,0c0.221-0.027,0.61-0.072,2.141-0.072h0.097c1.419,0,1.901,0.028,2.141,0.054
		c0.046,0.006,0.092-0.011,0.124-0.042c0.033-0.028,0.055-0.072,0.055-0.117v-0.5c0-0.044-0.02-0.083-0.05-0.114
		c-0.029-0.028-0.072-0.047-0.115-0.047l-1.309,0.019v-0.004c0-0.003,0-3.743,0-3.743c0-2.424,1.681-4.72,3.459-4.72
		c1.097,0,1.505,0.516,1.505,1.902v6.565l-1.354-0.019c-0.044,0-0.085,0.015-0.117,0.045c-0.031,0.029-0.05,0.072-0.05,0.116v0.506
		c0,0.046,0.019,0.089,0.055,0.118c0.033,0.03,0.077,0.047,0.124,0.041c0.306-0.024,0.825-0.06,2.161-0.06h0.102
		c1.062,0,1.771,0.017,2.172,0.045c0.043,0.004,0.089-0.01,0.122-0.041c0.033-0.029,0.052-0.072,0.052-0.118v-0.491
		c0-0.044-0.019-0.083-0.049-0.114C108.823,21.32,108.78,21.302,108.736,21.304z"/>
	<path d="M120.707,21.981v-0.525c0-0.047-0.021-0.093-0.056-0.123c-0.033-0.029-0.083-0.042-0.13-0.035
		c-0.197,0.024-0.525,0.072-1.348,0.072h-0.008V6.428c0-0.263-0.191-0.443-0.368-0.443c-0.015,0.003-0.518,0.041-0.513,0.041
		l-0.897,0.063c0.012-0.003-1.189-0.019-1.189-0.019c-0.043-0.002-0.082,0.016-0.117,0.048c-0.029,0.029-0.047,0.073-0.047,0.114
		v0.488c0,0.048,0.021,0.091,0.053,0.122c0.035,0.032,0.081,0.045,0.126,0.041c0.191-0.018,0.52-0.038,1.185-0.038h0.007v6.89
		l-0.015-0.026c-0.661-1.119-1.76-1.788-2.941-1.788c-2.524,0-4.221,2.121-4.221,5.277c0,3.122,1.735,5.303,4.221,5.303
		c1.175,0,2.274-0.678,2.941-1.815l0.015-0.026v1.102c0,0.268,0.19,0.441,0.369,0.441c0.009,0,0.514-0.033,0.514-0.033l0.897-0.052
		c-0.013,0,1.358,0.027,1.358,0.027c0.044,0,0.083-0.017,0.116-0.048C120.692,22.068,120.707,22.024,120.707,21.981z M114.473,21.67
		c-1.564,0-2.261-1.379-2.261-4.472c0-3.092,0.696-4.469,2.261-4.469c1.782,0,2.932,1.754,2.932,4.469
		C117.404,19.914,116.255,21.67,114.473,21.67z"/>
	<path d="M113.657,29.799c0,0.789-0.441,1.255-1.181,1.255c-0.738,0-1.178-0.466-1.178-1.255V26.51h-0.711v3.289
		c0,1.405,0.977,1.905,1.889,1.905c0.916,0,1.891-0.5,1.891-1.905V26.51h-0.71V29.799z"/>
	<path d="M121.41,30.522c-0.175-0.293-2.33-4.013-2.33-4.013h-0.788v5.111h0.711c0,0,0-3.598,0-3.929
		c0.171,0.289,2.283,3.929,2.283,3.929h0.832V26.51h-0.708C121.41,26.51,121.41,30.19,121.41,30.522z"/>
	<rect x="126.07" y="26.51" width="0.71" height="5.111"/>
	<path d="M132.352,30.695c-0.084-0.243-1.5-4.186-1.5-4.186h-0.754l1.908,5.111h0.678l1.941-5.111h-0.718
		C133.907,26.51,132.607,30.013,132.352,30.695z"/>
	<path d="M138.54,29.318c0.096,0,1.82,0,1.82,0v-0.645c0,0-1.725,0-1.82,0c0-0.092,0-1.43,0-1.516c0.096,0,1.915,0,1.915,0V26.51
		h-2.623v5.111h2.713v-0.646c0,0-1.909,0-2.005,0C138.54,30.884,138.54,29.409,138.54,29.318z"/>
	<path d="M146.72,29.574c0-0.007-0.016-0.038-0.016-0.038c-0.093-0.199-0.195-0.373-0.382-0.492
		c0.532-0.183,0.868-0.614,0.868-1.155c0-0.899-0.541-1.379-1.557-1.379h-1.375v5.111h0.712c0,0,0-2.21,0-2.303
		c0.073,0,0.288,0,0.288,0c0.416,0,0.585,0,0.846,0.583c0.002,0.002,0.053,0.122,0.709,1.648l0.03,0.071h0.783l-0.071-0.16
		L146.72,29.574z M145.369,28.674c0,0-0.319,0-0.398,0c0-0.092,0-1.43,0-1.516c0.079,0,0.382,0,0.382,0
		c0.678,0,1.125,0.049,1.125,0.73C146.478,28.615,145.632,28.674,145.369,28.674z"/>
	<rect x="157.4" y="26.51" width="0.711" height="5.111"/>
	<path d="M152.433,28.653c-0.488-0.257-0.906-0.479-0.906-0.852c0-0.679,0.722-0.729,0.945-0.729c0.336,0,0.648,0.062,0.834,0.168
		l0.142,0.078l0.104-0.598c0-0.002,0.019-0.094,0.019-0.094l-0.088-0.031c-0.428-0.156-0.874-0.171-1.004-0.171
		c-0.978,0-1.661,0.572-1.661,1.386c0,0.753,0.689,1.13,1.298,1.463c0.491,0.27,0.945,0.518,0.945,0.896
		c0,0.555-0.365,0.884-0.988,0.884c-0.409,0-0.73-0.081-1.02-0.268l-0.157-0.093l-0.076,0.755l0.074,0.035
		c0.233,0.101,0.616,0.221,1.155,0.221c0.857,0,1.721-0.461,1.721-1.493C153.77,29.362,153.059,28.986,152.433,28.653z"/>
	<path d="M161.189,27.158c0,0,1.423,0,1.515,0c0,0.097,0,4.463,0,4.463h0.712c0,0,0-4.366,0-4.463c0.093,0,1.513,0,1.513,0V26.51
		h-3.739V27.158z"/>
	<path d="M169.49,28.799c-0.075-0.125-1.416-2.258-1.416-2.258l-0.045-0.031h-0.803l1.921,2.971l-0.012,2.141h0.712v-2.166
		c0.007,0.004,1.801-2.771,1.801-2.771l0.114-0.174h-0.797C170.966,26.51,169.572,28.676,169.49,28.799z"/>
</g>
</svg>
