<?xml version="1.0" encoding="utf-8"?>
<!-- Generator: Adobe Illustrator 16.0.4, SVG Export Plug-In . SVG Version: 6.00 Build 0)  -->
<!DOCTYPE svg PUBLIC "-//W3C//DTD SVG 1.1//EN" "http://www.w3.org/Graphics/SVG/1.1/DTD/svg11.dtd">
<svg version="1.1" id="Layer_1" xmlns="http://www.w3.org/2000/svg" xmlns:xlink="http://www.w3.org/1999/xlink" x="0px" y="0px"
	 width="4059.127px" height="1120.374px" viewBox="0 0 4059.127 1120.374" enable-background="new 0 0 4059.127 1120.374"
	 xml:space="preserve">
<path fill-rule="evenodd" clip-rule="evenodd" fill="#4B8C00" d="M3019.362,848.743c-111.038,0-222.076,0.021-333.115-0.003
	c-27.759-0.006-55.519-0.015-83.278-0.026c-13.324-0.006-26.649-0.013-39.974-0.021c-9.866-0.006-22.789,2.129-32.15-1.823
	c-11.025-4.654-3.211-18.417,0.314-25.551c5.99-12.115,10.952-24.746,14.991-37.641c7.984-25.487,13.376-52.11,17.868-78.414
	c2.176-12.741,4.124-25.605,5.119-38.5c1.049-13.595-1.34-26.778-4.625-39.924c-6.127-24.521-14.566-49.357-29.354-70.104
	c-14.592-20.471-32.648-38.956-48.937-58.101c-7.714-9.067-15.24-18.411-25.818-24.206c-11.261-6.168-21.367-13.829-32.811-19.683
	c-11.704-5.99-23.473-11.853-35.239-17.718c-4.674-2.331-10.15-6.331-15.407-7.082c-7.351-1.05-14.771-1.741-22.139-2.683
	c-26.484-3.385-54.655-8.835-81.391-5.868c-25.62,2.843-52.175,11.184-75.626,21.739c-22.94,10.326-38.943,28.759-59.895,42.069
	c-10.001,6.354-21.655,11.959-29.587,20.957c-8.949,10.15-16.042,22.363-23.452,33.65c-6.938,10.569-14.487,21.091-20.12,32.437
	c-5.972,12.028-9.477,26.188-12.176,39.295c-10.726,52.081-0.861,108.759-20.644,159.043c-2.238,5.69-4.791,11.257-7.6,16.688
	c-1.907,3.686-4.174,10.424-8.512,11.848c-4.791,1.572-10.761,0.688-15.68,0.314c-4.112-0.313-12.771,1.039-15.539-2.521
	c-7.191-9.246-16.821-16.516-25.171-24.709c-8.722-8.559-21.971-16.706-26.369-28.565c-8.847-23.854-7.333-51.517-11.694-76.354
	c-2.114-12.041-6.572-23.622-7.973-35.788c-1.54-13.366,2.044-27.114,5.658-39.888c3.289-11.623,6.203-24.844,11.494-35.717
	c2.261-4.646,5.787-8.519,8.254-13.045c3.299-6.052,4.384-13.521,5.814-20.193c2.661-12.409,5.076-24.892,9.136-36.942
	c4.382-13.005,10.278-25.442,14.952-38.34c1.841-5.08,0.657-10.83,3.213-15.709c2.848-5.435,6.368-10.474,9.849-15.514
	c7.636-11.058,13.739-23.086,21.709-33.912c7.544-10.246,15.718-20.013,23.236-30.276c7.854-10.721,14.087-22.232,22.471-32.615
	c16.632-20.596,36.054-38.427,54.222-57.606c18.174-19.184,40.319-34.213,60.544-51.11c9.99-8.347,19.973-16.708,29.843-25.196
	c10.089-8.676,20.09-18.431,31.481-25.394c10.288-6.289,21.228-10.578,31.244-17.526c10.778-7.475,21.333-15.267,32.101-22.751
	c12.402-8.622-20.716-23.242-25.532-26.25c-15.931-9.949-29.588-23.008-45.365-33.135c-15.946-10.236-32.923-19.144-49.07-29.143
	c-15.356-9.509-32.428-17.007-46.757-27.912c6.857-6.409,17.824-2.594,25.274,1.974c11.297,6.927,22.221,14.127,33.895,20.446
	c23.472,12.706,46.883,26.919,72.161,35.74c11.648,4.064,22.824,8.25,33.162,15.122c5.066,3.368,9.958,6.99,15.025,10.356
	c4.677,3.104,10.234,3.756,16.04,5.125c12.285,2.896,24.717,6.04,37.434,5.813c14.019-0.249,27.886-2.665,41.648-5.151
	c26.827-4.846,53.928-9.187,81.035-12.149c27.4-2.994,55.244-2.612,82.776-3.325c55.477-1.437,110.956-2.758,166.439-3.895
	c55.458-1.136,110.922-2.181,166.388-2.79c27.278-0.299,53.8,5.105,80.636,9.285c26.855,4.183,53.435,8.2,79.639,15.631
	c25.638,7.271,51.398,15.578,75.813,26.312c24.012,10.557,44.354,26.878,67.671,38.479c47.749,23.758,91.896,53.995,138.16,80.507
	c10.73,6.149,21.902,11.521,32.313,18.222c10.46,6.733,20.188,14.507,30.161,21.921c20.47,15.216,41.828,24.335,65.81,32.578
	c23.69,8.143,46.067,21.216,70.078,27.711c25.852,6.993,51.798,11.426,78.181,15.833c53.192,8.884,106.022,25.658,157.025,42.953
	c25.657,8.7,50.862,18.477,76.111,28.278c24.44,9.487,48.289,17.797,70.164,32.603c10.158,6.875,19.941,14.275,29.993,21.3
	c10.578,7.392,21.965,13.259,32.858,20.125c21.064,13.277,37.9,34.7,52.572,54.502c3.74,5.05,7.359,10.187,11.004,15.306
	c2.396,3.366,7.025,7.709,7.397,11.809c1.231,13.529,2.557,27.051,3.853,40.574c2.616,27.31,5.82,54.849,6.514,82.292
	c0.312,12.301-4.523,24.11-9.206,35.246c-5.38,12.794-11.431,25.294-17.698,37.673c-5.683,11.224-11.308,22.502-17.348,33.538
	c-5.871,10.726-11.879,23.179-22.677,29.711c-10.229,6.188-21.478,11.064-32.36,15.974c-9.315,4.202-24.631,14.09-35.242,9.367
	c-8.696-3.871-4.321-21.613-1.607-27.709c4.764-10.701,14.597-17.681,18.078-29.184c7.607-25.114,11.453-51.967,15.969-77.791
	c2.115-12.099,3.359-24.537,0.326-36.596c-3.159-12.567-9.73-23.84-14.346-35.865c-1.81-4.717-0.365-9.538-2.689-14.025
	c-2.748-5.312-5.659-10.542-8.627-15.734c-6.238-10.91-11.114-23.795-18.839-33.7c-15.78-20.234-36.165-38.931-55.481-55.746
	c-9.311-8.105-19.117-15.79-29.305-22.766c-12.129-8.306-23.795-9.179-38.049-10.625c-27.447-2.784-54.922-5.572-82.505-6.558
	c-12.482-0.446-25.184-1.35-37.395,1.83c-12.251,3.19-24.014,8.976-34.866,15.41c-21.549,12.776-37.761,32.229-59.138,45.279
	c-10.184,6.217-16.896,15.898-23.694,25.455c-8.073,11.35-15.841,22.907-23.681,34.418c-1.97,2.892-6.147,6.532-6.877,9.9
	c-1.298,5.997-2.584,11.996-3.859,17.998c-2.953,13.894-5.487,27.924-8.812,41.733c-2.824,11.73-7.396,23.629-6.325,35.885
	c1.159,13.252,6.189,26.061,10.543,38.512c4.191,11.988,7.875,24.177,11.375,36.385c3.307,11.533,9.343,24.59-2.437,32.907
	c-4.48,3.165-12.774,1.741-17.989,1.885c-6.658,0.185-13.316,0.367-19.975,0.548c-14.427,0.391-28.854,0.774-43.281,1.151
	c-27.744,0.726-55.488,1.425-83.234,2.101c-55.491,1.352-110.984,2.609-166.479,3.788c-18.436,0.393-242.073,2.568-242.073,1.523
	C2949.305,848.712,3019.362,848.685,3019.362,848.743C2992.713,848.743,3019.362,848.671,3019.362,848.743z M3166.128,418.754
	c0,0.342,69.87,0.179,76.223,0.178c13.326-0.003,26.651-0.009,39.978-0.02c5.031-0.004,11.411,1.05,16.3-0.15
	c2.842-0.698,6.521-10.985,7.865-13.392c10.651-19.089,27.785-43.334,20.106-66.127c-7.775-23.081-27.736-38.042-47.405-50.688
	c-22.332-14.359-44.949-28.495-67.826-41.966c-22.596-13.306-44.99-27.451-69.207-37.668
	c-48.75-20.567-102.347-31.436-153.931-42.354c-53.513-11.327-108.263-17.713-162.962-17.994
	c-13.107-0.067-26.254,0.09-39.336,0.963c-13.213,0.882-22.381,5.058-30.028,16.313c-6.427,9.458-3.254,24.161-2.571,34.927
	c0.904,14.249,2.363,28.455,3.705,42.667c2.577,27.301,4.006,54.705,4.618,82.12c0.293,13.127,0.269,26.268-0.367,39.386
	c-0.524,10.81-3.675,23.547,3.809,32.765c6.957,8.568,19.013,9.236,29.173,9.851c14.005,0.847,28.005,1.766,42.013,2.565
	c27.673,1.58,55.358,2.919,83.05,4.097c40.972,1.742,81.971,3.424,122.968,4.435
	C3083.576,419.678,3124.849,418.754,3166.128,418.754c0,0.048-18.952,0.026-18.952,0.013
	C3147.176,418.75,3165.359,418.754,3166.128,418.754C3166.128,419.09,3123.486,418.754,3166.128,418.754z M2658.644,149.042
	c-0.751-3.388-5.473-0.975-8.24-0.551c-6.545,1.003-13.093,1.989-19.64,2.98c-14.179,2.147-28.359,4.299-42.488,6.751
	c-25.882,4.491-51.039,10.021-75.215,20.244c-23.856,10.088-44.713,21.885-64.698,38.482c-9.329,7.748-18.888,15.105-28.358,22.664
	c-10.251,8.182-17.564,19.192-25.144,29.746c-15.046,20.95-33.368,39.901-47.662,61.311c-6.759,10.123-6.521,21.607-5.788,33.289
	c0.261,4.156,0.009,8.107,2.811,11.517c3.7,4.502,13.352,4.175,18.667,5.04c54.56,8.879,109.604,13.354,164.582,18.723
	c40.491,3.954,81.295,9.657,122.019,9.65c15.346-0.003,38.229,5.257,47.297-11.268c4.109-7.489,4.304-16.496,4.235-24.815
	c-0.09-11.072-0.098-22.143-0.071-33.215c0.096-41.078,0.641-82.153,1.069-123.228c0.046-4.384,0.003-8.78,0.162-13.162
	c0.159-4.375,1.765-8.593,1.632-12.961c-0.29-9.462-0.901-18.983-1.977-28.389c-1.05-9.18-2.312-11.518-12.175-12.514
	C2679.405,148.3,2668.933,149.042,2658.644,149.042c-0.109-0.496,4.104-0.029,4.381-0.111
	C2661.854,149.277,2659.727,149.042,2658.644,149.042C2658.565,148.69,2668.634,149.042,2658.644,149.042z M2920.953,700.217
	c1.791-0.183,3.583-0.365,5.374-0.548c-3.446-26.736-5.77-53.608-9.711-80.283c-1.805-12.222-3.138-25.41-7.133-37.148
	c-3.635-10.681-12.997-18.819-21.717-25.435c-20.754-15.746-43.352-25.647-69.476-26.115c-26.942-0.482-53.714-4.535-80.706-2.912
	c-12.413,0.747-24.805,2.644-36.67,6.439c-10.533,3.37-24.676,8.447-32.518,16.612c-6.286,6.546-9.143,21.708-3.112,29.033
	c8.963,10.887,19.904,8.771,32.479,7.232c25.521-3.124,52.34-10.501,78.156-9.211c22.727,1.135,38.484,24.039,52.794,39.201
	c8.093,8.574-2.272,13.282-9.996,11.811c-12.955-2.468-25.626-6.585-38.787-7.913c-25.896-2.613-54.637,5.125-79.808,10.605
	c-22.21,4.837-51.412,8.071-67.638,25.854c-15.258,16.731-28.159,41.013-29.128,63.874c-0.945,22.284,5.184,45.147,24.941,57.771
	c19.347,12.36,40.787,27.807,64.433,28.854c26.785,1.187,53.471-3.533,80.052-6.003c12.562-1.167,25.106-2.324,37.602,0.009
	c13.315,2.486,26.065,6.51,39.686,7.21c15.295,0.786,30.627,0.437,45.924-0.115c11.504-0.415,24.444,1.545,24.671-13.454
	C2921.144,763.798,2920.953,732.007,2920.953,700.217c0.959-0.098,1.259,14.672,0.397,14.76
	C2921.047,715.007,2920.953,700.797,2920.953,700.217C2922.744,700.035,2920.953,733.517,2920.953,700.217z M3011.271,665.069
	c0,27.759-0.242,55.519-0.022,83.276c0.053,6.661,0.133,13.321,0.248,19.98c0.099,5.707-0.815,12.495,0.966,17.992
	c4.617,14.253,17.166,13.246,29.7,13.454c12.707,0.211,25.692,0.184,38.361-0.912c13.285-1.148,9.609-20.145,9.706-28.991
	c0.302-27.687,0.316-55.375,0.734-83.06c0.2-13.284,0.494-26.566,0.957-39.844c0.476-13.717,4.333-21.738,13.17-32.203
	c7.438-8.807,16.335-12.692,25.736-18.844c3.774-2.469,6.142-5.714,10.931-5.606c7.614,0.173,15.219,0.721,22.786,1.574
	c2.535,0.285,6.028,0.114,8.309,1.457c1.913,1.127,3.062,3.177,5.006,4.257c3.322,1.844,9.336-2.191,11.344-4.542
	c7.969-9.329,13.115-22.306,18.844-33.087c4.786-9.009,14.559-15.896,8.702-26.846c-5.807-10.865-18.036-12.128-29.064-11.957
	c-15.89,0.247-31.579,3.466-46.992,7.088c-6.457,1.518-12.387,2.583-17.704,6.776c-5.119,4.037-9.697,9.559-16.258,11.254
	c-6.404,1.655-12.352-1.604-17.342-5.282c-6.466-4.767-13.067-7.346-20.983-8.709c-7.13-1.228-14.363-1.633-21.552-2.375
	c-6.936-0.717-14.158-2.003-20.996,0.041c-14.111,4.219-14.896,19.641-14.795,31.934c0.135,16.524,0.241,33.046,0.229,49.571
	c-0.014,21.461-2.085,43.943-0.03,65.312c-0.66-6.87-0.688-14.882-0.023-21.751C3010.921,658.302,3011.263,661.784,3011.271,665.069
	C3011.271,691.718,3011.187,629.093,3011.271,665.069z"/>
<path fill-rule="evenodd" clip-rule="evenodd" fill="#4B8C00" d="M2310.646,868.501c-12.579,0-25.192,1.907-37.744,0.312
	c-12.54-1.593-25.291-5.172-37.391-8.767c-24.129-7.168-43.348-19.811-61.646-36.857c-18.581-17.31-38.429-33.472-56.562-51.218
	c-7.983-7.812-13.936-16.468-15.026-27.82c-1.376-14.298-2.834-28.588-4.184-42.888c-2.592-27.471-4.788-55.008-5.203-82.609
	c-0.353-23.441,10.479-47.664,26.638-64.685c7.532-7.934,16.501-14.3,24.611-21.6c9.42-8.477,16.512-19.099,25.755-27.721
	c8.566-7.99,19.323-13.347,30.308-17.181c12.456-4.348,24.227-8.992,36.348-14.175c23.877-10.211,49.813-14.282,75.679-14.243
	c11.983,0.018,24.416,0.331,36.2,2.681c12.795,2.551,24.549,8.702,36.506,13.669c11.534,4.791,23.646,7.976,35.203,12.696
	c12.216,4.989,22.126,14.285,32.426,22.31c9.815,7.645,20.424,15.148,28.861,24.348c9.167,9.996,16.115,22.198,23.385,33.583
	c3.352,5.248,6.684,10.51,10.034,15.759c2.376,3.723,5.314,6.618,5.649,11.053c1.056,13.947,2.498,27.86,3.82,41.783
	c2.508,26.407,6.022,54.421,2.428,80.872c-3.168,23.306-17.717,46.688-32.5,64.497c-14.733,17.747-35.689,33.898-55.555,45.495
	c-39.371,22.981-83.389,34.336-127.107,45.489c-0.659-3.381,0.337-4.836-3.572-4.76c0.095-0.002-3.647,0.352-3.622,0.369
	C2305.061,869.365,2310.831,869.455,2310.646,868.501C2298.076,868.501,2310.956,870.095,2310.646,868.501z M2321.519,808.814
	c0.006-1.482,25.269,0.17,28.082,0.195c13.986,0.126,27.302-2.566,40.624-6.663c12.075-3.714,24.111-7.883,35.887-12.464
	c9.023-3.511,25.036-10.27,25.068-21.62c0.028-10.08-14.45-14.384-22.153-18.543c-11.172-6.032-22.983-10.801-35.919-9.478
	c-12.233,1.251-23.71,6.299-35.941,7.584c-12.149,1.281-24.734,1.48-36.95,1.982c-26.323,1.082-47.096-4.854-64.89-24.823
	c-7.409-8.317-15.102-16.754-19.725-27.022c-4.973-11.047-5.328-25.547-4.692-37.467c1.222-22.938,12.485-42.12,30.521-56.015
	c8.771-6.758,18.57-12.126,28.896-16.105c10.278-3.962,24.414-9.585,35.591-7.589c12.061,2.154,22.006,8.667,34.677,7.816
	c13.84-0.929,27.474-3.8,40.921-7.075c12.133-2.955,23.145-6.651,33.383-14.017c4.482-3.225,4.624-7.849,3.547-13.098
	c-1.12-5.457-8.658-8.167-12.971-10.736c-22.042-13.133-48.487-20.857-74.09-22.662c-26.974-1.901-55.026,2.869-81.699,6.439
	c-12.241,1.639-25.329,2.154-36.855,6.909c-11.752,4.848-22.263,13.505-32.499,20.912c-18.666,13.505-41.13,29.225-52.794,49.631
	c-5.941,10.393-4.19,23.874-4.057,35.418c0.161,13.941,0.9,27.88,2.28,41.755c2.525,25.402,4.971,50.202,21.768,70.514
	c18.102,21.89,42.452,36.561,68.949,46.19C2263.913,808.753,2292.816,808.814,2321.519,808.814c0.001-0.169-4.8-0.111-5.297-0.058
	C2317.879,808.576,2319.879,808.814,2321.519,808.814C2321.521,808.319,2309.528,808.814,2321.519,808.814z"/>
<path fill-rule="evenodd" clip-rule="evenodd" fill="#4B8C00" d="M3731.145,881.295c-25.377-4.312-53.124-5.106-77.344-14.434
	c-9.79-3.771-17.36-11.477-25.153-18.202c-9.236-7.97-20.618-12.009-30.019-19.511c-8.464-6.755-14.575-16.147-21.352-24.478
	c-3.889-4.781-7.785-9.561-11.591-14.408c-1.008-1.284-3.216-2.507-3.891-4c-1.109-2.455-0.675-6.794-0.926-9.463
	c-2.591-27.411-6.042-54.757-7.443-82.268c-0.596-11.677-2.644-25.666,0.361-37.096c2.913-11.08,11.134-20.116,18.144-28.832
	c15.083-18.753,27.431-40.265,48.479-53.148c21.291-13.03,45.604-22.894,68.413-32.956c10.917-4.816,24.881-2.926,36.598-3.215
	c13.739-0.338,27.125,0.654,40.66,3.039c24.043,4.235,48.885,11.697,68.976,26.009c9.539,6.796,17.409,15.508,25.117,24.247
	c8.389,9.509,17.396,18.097,26.416,26.979c8.214,8.09,15.247,17.923,19.812,28.54c5.227,12.153,4.196,26.748,4.731,39.741
	c0.536,13.019,0.801,26.056,0.389,39.082c-0.393,12.402,0.127,27.18-4.899,38.755c-4.519,10.405-12.461,18.917-19.027,28.023
	c-7.298,10.12-11.31,22.49-20.112,31.49c-8.128,8.309-18.281,15.107-27.234,22.525c-9.362,7.755-20.592,16.951-32.542,20.115
	c-12.319,3.262-25.188,5.048-37.746,7.136c-6.458,1.073-12.922,2.106-19.386,3.146c-6.213,0.999-14.814,4.056-20.979,2.906
	c-11.129-2.074-1.027-3.147,4.093-2.91C3742.074,878.498,3736.054,880.465,3731.145,881.295
	C3706.153,877.049,3756.764,876.965,3731.145,881.295z"/>
<path fill-rule="evenodd" clip-rule="evenodd" fill="#4B8C00" d="M330.938,675.771c0,27.54,0.96,55.077,0.491,82.618
	c-0.217,12.721,0.208,26.138-2.216,38.67c-2.485,12.855-8.93,24.423-14.516,36.113c-10.95,22.915-21.562,43.26-42.88,58.12
	c-9.413,6.562-18.843,13.392-28.608,19.415c-11.441,7.059-23.827,8.793-37.068,9.232c-6.376,0.212-12.757,0.106-19.133-0.039
	c-5.674-0.13-12.931,1.019-18.301-1.08c-9.92-3.875-6.561-17.83-6.41-26.831c0.184-10.979,2.086-22.516,12.423-28.365
	c9.88-5.591,21.745-6.603,31.242-13.014c9.327-6.296,15.21-17.354,20.324-27.059c1.225-2.323,15.91-25.514,3.831-24.207
	c-9.313,1.01-24.949,0.942-32.432,7.222c-3.568,2.994-8.688,2.009-13.063,2.145c-7.517,0.233-15.028,0.592-22.543,0.872
	c-26.051,0.97-52.312,0.916-76.558-9.86c-19.567-8.696-40.612-20.303-56.849-34.419C9.765,748.866,4.611,725.901,2.184,701.879
	c-2.491-24.657-5.865-54.167,1.673-78.252c3.269-10.445,11.203-18.942,18.474-26.805c8.779-9.495,17.636-18.572,27.737-26.688
	c9.181-7.378,18.915-15.779,30.449-19.107c13.218-3.814,28.261-4.245,41.899-5.837c26.929-3.142,54.464-7.415,81.59-4.909
	c12.369,1.143,23.827,5.909,36.069,7.45c13.464,1.695,28.243-1.226,41.625-2.84c9.765-1.179,19.517-2.469,29.294-3.537
	c7.023-0.767,17.653-2.578,19.305,7.234c1.49,8.847,0.28,18.943,0.34,27.914c0.066,9.98,0.103,19.96,0.121,29.939
	c0.053,28.775-0.68,57.653,0.163,86.349C330.876,691.193,330.953,675.771,330.938,675.771
	C330.938,702.212,330.874,675.77,330.938,675.771z M241.915,670.333c-6.399-8.326,0.713-22.047,1.268-31.211
	c0.794-13.15-8.799-19.132-20.208-22.287c-10.973-3.035-19.547-10.976-30.076-14.976c-10.706-4.066-24.749,0.104-35.492,2.494
	c-21.609,4.809-47.362,11.825-58.055,32.963c-5.279,10.436-8.572,22.599-7.752,34.347c0.947,13.573,6.17,26.412,8.387,39.773
	c1.787,10.774,4.898,19.995,14.287,26.477c10.487,7.239,24.125,8.955,36.433,10.769c23.736,3.498,49.089,2.697,67.967-14.011
	c7.954-7.04,14.949-16.025,19.668-25.544c5.79-11.679,3.989-22.966,3.624-35.522c-0.094-3.21-0.632-5.124-3.521-6.994
	c-1.185-0.767-1.278,0.465-1.119,1.36c0.159,0.896,3.109,8.254,4.22,5.461C241.92,672.485,241.915,671.326,241.915,670.333
	C238.825,666.313,241.915,683.555,241.915,670.333z"/>
<path fill-rule="evenodd" clip-rule="evenodd" fill="#4B8C00" d="M907.246,699.78c-27.557,0-55.122-0.917-82.674-0.004
	c-12.388,0.41-23.989-1.289-32.188,9.435c-3.26,4.265-5.952,8.946-8.771,13.505c-2.596,4.206,1.239,8.321,4.303,11.452
	c7.417,7.58,20.339,11.644,30.349,14.229c13.347,3.448,27.239,6.175,40.9,8.003c11.682,1.562,23.971,2.675,35.117-1.875
	c10.843-4.425,21.043-12.947,32.955-14.182c11.63-1.205,22.259,5.61,31.775,11.43c7.831,4.789,23.599,14.024,21.411,25.475
	c-1.804,9.442-16.17,16.431-23.455,21.011c-11.865,7.461-22.054,10.231-35.943,10.556c-11.482,0.268-21.368,4.805-32.287,7.666
	c-12.696,3.327-26.706,0.913-39.592-0.243c-26.024-2.335-53.722-4.958-78.001-15.188c-10.673-4.497-22.511-9.77-31.481-17.216
	c-9.509-7.894-16.573-18.749-23.669-28.738c-7.221-10.164-14.123-20.572-20.199-31.468c-6.459-11.585-4.385-23.215-4.781-35.994
	c-0.793-25.57-3.091-50.176,10.856-72.9c6.045-9.849,13.142-19.065,19.708-28.567c7.117-10.299,15.29-21.138,25.762-28.253
	c20.449-13.894,47.751-17.529,71.603-20.595c26.841-3.451,53.771-7.079,80.898-6.565c24.926,0.473,43.638,16.183,64.932,27.073
	c21.809,11.152,35.217,34.453,49.239,53.895c12.198,16.912,16.671,37.369,17.096,57.925c0.148,7.16,2.009,19.582-2.914,25.57
	c-5.85,7.116-21.683,3.779-29.973,3.84c-23.211,0.169-46.423,0.147-69.635,0.127c-12.588-0.011-24.543,1.645-36.732,0.556
	C893.291,699.865,907.248,699.502,907.246,699.78C880.788,699.78,907.247,699.577,907.246,699.78z M861.651,649.538
	c0-0.201,47.976-0.372,52.57-0.131c7.163,0.377,15.405,2.385,22.333-0.287c8.251-3.183,7.488-12.52,5.693-19.644
	c-3.927-15.592-12.966-26.614-28.909-30.504c-17.633-4.302-35.692-6.474-53.692-8.572c-8.543-0.997-17.281-2.608-25.907-2.162
	c-8.534,0.438-15.171,4.967-22.113,9.539c-11.505,7.579-29.877,18.307-30.341,33.56c-0.102,3.339-1.402,13.88,2.076,15.879
	c6.703,3.854,16.528,2.261,23.887,2.304C825.382,649.625,843.517,649.538,861.651,649.538c0,0.07-9.499-0.013-10.481,0.012
	C854.66,649.462,858.161,649.538,861.651,649.538C861.651,649.592,838.032,649.538,861.651,649.538z"/>
<path fill-rule="evenodd" clip-rule="evenodd" fill="#4B8C00" d="M1306.577,699.927c-33.254,0-66.513-0.333-99.762,0.39
	c-13.63,0.297-19.624,11.752-13.534,24.057c2.983,6.027,10.158,9.762,15.339,13.716c5.999,4.574,12.103,9.082,18.735,12.709
	c12.663,6.925,27.037,8.279,41.247,7.127c15.656-1.27,28.768-7.827,43.642-11.874c12.691-3.452,28.999-6.365,39.919,2.828
	c5.372,4.522,12.433,6.305,18.318,10.015c7.02,4.425,13.406,9.818,20.058,14.759c-9,8.142-17.668,17.246-28.205,23.436
	c-11.002,6.461-23.494,9.743-36.063,11.383c-12.032,1.569-24.831,0.332-36.646,2.969c-12.808,2.857-22.852,7.171-36.292,6.191
	c-25.595-1.865-49.547-3.767-71.924-17.599c-20.75-12.825-40.945-29.106-59.471-44.971c-8.24-7.056-15.416-15.588-19.112-25.917
	c-4.279-11.958-3.375-25.344-5.992-37.746c-2.555-12.108-5.725-24.494-3.677-36.929c2.034-12.353,7.946-23.795,14.028-34.588
	c5.882-10.438,11.766-20.926,17.896-31.218c6.229-10.457,13.256-23.099,23.192-30.47c19.538-14.491,47.317-17.665,70.653-20.431
	c20.808-2.466,41.643-4.827,62.564-6.097c10.328-0.627,21.126-1.703,31.45-0.618c9.76,1.026,18.798,5.781,27.304,10.369
	c17.166,9.258,36.282,17.03,50.308,30.995c6.63,6.601,11.474,14.706,17.774,21.595c6.13,6.702,11.887,13.238,15.783,21.546
	c7.806,16.649,7.986,35.443,7.601,53.461c-0.214,10.006-1.651,17.673-8.998,25.034c-7.012,7.025-17.005,5.493-26.247,5.786
	c-35.078,1.112-70.351,0.721-105.428,0.101C1292.497,699.961,1306.577,699.945,1306.577,699.927
	C1279.972,699.927,1306.577,699.965,1306.577,699.927z M1265.669,649.133c0.006-0.75,42.115-0.344,46.14-0.355
	c8.553-0.024,17.105-0.078,25.658-0.187c7.367-0.094,12.741-1.571,12.186-10.219c-0.984-15.268-20.677-25.317-31.56-33.552
	c-14.547-11.006-28.65-16.992-47.087-17.42c-16.03-0.371-35.648-0.294-49.779,8.074c-13.683,8.104-26.611,21.953-34.932,35.479
	c-2.262,3.678-5.779,11.425-1.939,15.057c5.596,5.292,16.938,3.031,23.973,3.082
	C1227.442,649.232,1246.556,649.133,1265.669,649.133c0-0.058-10.167-0.088-11.219-0.028
	C1258.158,648.896,1261.957,649.133,1265.669,649.133C1265.674,648.548,1240.391,649.133,1265.669,649.133z"/>
<path fill-rule="evenodd" clip-rule="evenodd" fill="#4B8C00" d="M1511.905,670.923c0-27.514-0.973-55.032-0.141-82.542
	c0.351-11.604-1.312-25.597,6.595-35.023c7.952-9.481,18.783-14.646,31.002-15.65c10.142-0.833,24.078-1.012,33.553,3.224
	c4.985,2.229,8.669,6.645,12.904,9.946c4.904,3.823,10.814,5.381,16.824,6.595c3.969,0.802,8.869,1.882,12.938,1.07
	c3.698-0.737,5.996-6.742,8.585-9.282c9.082-8.907,21.854-9.314,33.807-9.68c11.806-0.362,20.407-4.339,31.456-7.75
	c11.516-3.555,26.628-0.497,38.346,1.074c11.567,1.55,23.844,4.005,34.101,9.843c11.425,6.502,19.701,17.163,29.375,25.816
	c8.02,7.173,18.393,11.447,24.682,20.476c7.036,10.101,7.198,22.71,6.459,34.522c-1.64,26.231-0.271,52.587-0.39,78.869
	c-0.126,27.748-0.658,55.491-1.153,83.235c-0.151,8.46,1.849,22.615-10.527,23.011c-12.543,0.402-25.175,1.075-37.717,0.318
	c-9.643-0.582-21.124-2.283-26.411-11.498c-6.25-10.896-5.348-26.051-5.546-38.178c-0.446-27.347,2.502-54.969,0.08-82.245
	c-1.948-21.939-0.878-53.708-24.423-64.515c-10.22-4.691-22.5-5.521-33.404-7.981c-12.948-2.922-26.567-5.939-39.88-3.825
	c-57.601,9.147-52.122,79.402-52.63,122.737c-0.168,14.333-0.05,28.672,0.483,42.996c0.401,10.785,5.479,30.495-4.391,38.457
	c-8.505,6.86-25.156,4.712-35.269,4.482c-12.411-0.281-31.207,4.419-40.779-5.7c-8.491-8.976-8.42-23.315-8.419-34.758
	c0.002-15.521,0.004-31.041,0.004-46.562c0-22.439,0.284-44.896-0.105-67.318C1511.939,656.575,1511.922,670.923,1511.905,670.923
	C1511.905,644.506,1511.943,670.923,1511.905,670.923z"/>
<path fill-rule="evenodd" clip-rule="evenodd" fill="#4B8C00" d="M441.674,670.612c0-27.745-0.048-55.49,0.035-83.234
	c0.039-13.006-0.048-26.027,0.196-39.03c0.23-12.272,19.695-9.021,27.609-9.26c11.738-0.354,26.189-1.938,37.282,2.649
	c9.897,4.093,17.838,16.626,29.291,16.051c5.559-0.279,9.867-3.992,12.676-8.538c1.674-2.709,2.75-9.083,6.439-9.59
	c13.154-1.807,26.222-4.246,39.373-6.104c10.485-1.481,25.895-6.031,35.59-0.458c11.752,6.756,11.037,15.888,6.542,27.415
	c-3.292,8.441-5.858,23.426-14.072,28.402c-10.866,6.584-23.773,9.177-36.285,9.778c-24.924,1.198-47.102,9.806-57.675,33.839
	c-10.384,23.602-8.132,50.745-7.962,75.9c0.104,15.441,0.313,30.885,0.127,46.326c-0.145,11.958,2.467,29.073-4.831,39.339
	c-3.322,4.672-7.68,8.897-12.676,11.74c-6.006,3.414-13.754,2.67-20.449,2.969c-10.789,0.481-28.656,2.974-36.368-6.829
	c-7.552-9.601-5.678-26.357-5.746-37.754c-0.096-16.272,0.002-32.548,0.002-48.82c0-13.73,0-27.46,0-41.19
	c0-6.485,1.851-14.322,0.838-21.939C441.836,653.977,441.23,670.613,441.674,670.612
	C441.674,643.977,441.374,670.613,441.674,670.612z"/>
<path fill-rule="evenodd" clip-rule="evenodd" fill="#4B8C00" d="M2240.524,1031.373c0,17.176,1.56,34.374,0.271,51.537
	c-0.524,6.978-0.823,13.787-5.526,19.334c-5.27,6.221-12.302,10.575-17.899,16.462c-4.415-8.045-9.231-15.872-13.318-24.095
	c-4.044-8.13-5.401-16.473-7.565-25.183c-7.678,7.33-15.38,14.591-22.757,22.229c-3.153,3.265-15.742,19.153-20.101,16.111
	c-7.434-5.192-12.733-12.154-16.502-20.313c-3.609-7.815-6.065-18.573-16.312-18.178c-1.515,0.059-6.848-0.239-7.982,1.045
	c-2.199,2.489-1.951,8.145-1.989,11.132c-0.116,8.893,1.519,19.56-3.284,27.578c-11.927,19.915-34.414-0.479-35.134-16.686
	c-1.04-23.184-1.203-46.397-1.094-69.601c0.053-11.06,0.168-22.118,0.283-33.177c0.083-8.027-2.496-21.036,2.429-28.02
	c3.921-5.562,15.369-0.362,18.931,3.711c7.706,8.822,15,17.992,22.242,27.195c13.122,16.675,26.492,32.219,41.553,47.163
	c13.753-14.981,27.06-30.243,39.576-46.288c5.375-6.889,8.874-14.596,13.373-22.018c4.818-7.949,11.537-14.354,17.618-21.304
	c3.845,7.31,9.663,13.793,12.019,21.83c2.576,8.793,1.843,19.314,1.808,28.385c-0.052,13.493-0.955,27.021-0.626,40.459
	C2240.515,1039.811,2240.594,1031.373,2240.524,1031.373C2240.524,1044.298,2240.58,1031.373,2240.524,1031.373z"/>
<path fill-rule="evenodd" clip-rule="evenodd" fill="#4B8C00" d="M3031.253,1029.813c0-21.039-0.083-42.079,0.073-63.118
	c0.051-6.8-1.617-16.861,7.26-17.39c10.596-0.631,16.57,4.444,24.752,10.543c7.526,5.611,14.826,11.531,21.823,17.792
	c6.711,6.005,11.591,13.25,17.367,20.078c11.199,13.238,27.018,15.7,42.467,21.434c1.645-6.017,4.19-11.805,5.052-18.021
	c0.89-6.417,0.646-13.092,0.605-19.555c-0.069-11.198-3.085-27.647,2.101-38.033c5.291-10.596,20.646-0.884,26.675,3.829
	c11.793,9.217,9.958,20.973,10.302,34.675c0.694,27.709,0.577,55.432,0.26,83.146c-0.137,11.959,0.557,24.293-0.485,36.206
	c-1.05,11.989-21.486,6.251-26.999,2.338c-9.739-6.913-17.652-16.631-25.995-25.086c-9.834-9.966-20.008-19.613-29.646-29.77
	c-3.556-3.746-15.864-20.227-21.858-18.415c-4.268,1.289-8.96,4.521-11.88,7.855c-3.843,4.389-2.692,12.274-2.643,17.667
	c0.111,12.073,1.155,24.133-0.416,36.159c-1.577,12.066-13.151,18.251-20.556,26.65c-8.508-8.035-16.854-10.436-17.661-23.131
	c-0.892-14.045-0.792-28.127-0.609-42.191c0.149-11.51-0.343-23.008,0.028-34.453
	C3031.235,1020.032,3031.324,1029.814,3031.253,1029.813C3031.253,1016.525,3031.326,1029.814,3031.253,1029.813z"/>
<path fill-rule="evenodd" clip-rule="evenodd" fill="#4B8C00" d="M1724.616,1018.583c5.349-11.088,10.16-22.426,15.503-33.516
	c4.604-9.553,9.771-24.298,19.767-29.419c10.074-5.16,22.354-6.785,33.062-10.456c12.815-4.394,24.104-6.943,37.031-1.624
	c10.865,4.47,20.759,10.759,30.496,17.264c9.953,6.647,20.137,12.753,27.647,22.296c13.856,17.605,18.148,46.153,7.961,66.591
	c-10.533,21.131-29.486,39.113-45.468,56.082c-7.825,8.308-12.15,12.574-23.832,11.864c-13.26-0.805-27.793-2.564-40.342-7.118
	c-10.107-3.667-18.074-11.244-26.006-18.208c-9.234-8.107-16.737-16.618-21.514-28.062c-4.623-11.073-7.527-22.767-10.854-34.268
	c-1.301-4.498-4.561-9.89-2.024-14.104c0.481-0.801,2.025-3.581,3.396-2.794C1732.921,1015.108,1729.237,1033.075,1724.616,1018.583
	C1729.965,1007.496,1731.083,1038.868,1724.616,1018.583z M1813.486,1069.797c26.379,0.247,51.218-16.026,47.845-45.19
	c-1.601-13.84-9.796-27.73-20.088-36.944c-12.076-10.811-25.992-9.923-40.603-4.925c-26.953,9.22-53.028,35.756-34.018,64.64
	c12.412,18.857,34.388,22.312,55.192,22.498c-5.849-0.053-11.697-0.118-17.546-0.165
	C1807.342,1069.736,1810.414,1069.768,1813.486,1069.797C1829.731,1069.95,1782.214,1069.503,1813.486,1069.797z"/>
<path fill-rule="evenodd" clip-rule="evenodd" fill="#4B8C00" d="M711.15,363.394c0.003-13.321,0.104-26.643,0.069-39.964
	c-0.029-11.481-2.659-26.498,5.452-36.01c7.186-8.427,18.382-7.672,28.422-7.748c13.989-0.106,27.96-0.933,41.949-0.265
	c13.846,0.661,21.21,4.646,28.891,16.284c3.269,4.952,5.117,6.79,1.145,11.675c-4.225,5.199-9.4,9.838-16.085,11.348
	c-12.115,2.735-23.674-0.506-35.75-0.8c-12.202-0.297-16.499,7.931-14.598,19.027c2.002,11.682,9.457,11.973,19.697,12.088
	c6.52,0.073,13.042-0.016,19.56,0.153c5.771,0.149,14.896-0.805,19.777,2.798c4.484,3.31,7.14,8.519,11.012,12.439
	c-3.571,3.482-6.233,7.795-9.996,11.094c-8.171,7.167-25.808,5.174-35.741,3.935c-7.941-0.991-19.283-2.944-23.515,6.058
	c-2.986,6.352-2.529,21.806,6.196,23.817c10.585,2.438,23.251-0.624,34.105-0.028c13.935,0.765,18.956,5.971,27.46,16.3
	c3.744,4.546,3.193,3.725-0.574,8.244c-2.97,3.562-5.711,7.425-9.175,10.542c-6.364,5.725-18.026,4.513-26.069,4.915
	c-9.723,0.485-19.472,0.548-29.196,0.072c-8.738-0.427-19.573,0.029-27.266-4.66c-15.755-9.603-16.292-25.361-16.47-42.06
	c-0.157-14.799,0.683-29.595,0.7-44.396c-0.004,3.818,0.017,7.637-0.002,11.455C711.16,367.602,711.15,365.498,711.15,363.394
	C711.154,350.073,711.146,384.374,711.15,363.394z"/>
<path fill-rule="evenodd" clip-rule="evenodd" fill="#4B8C00" d="M2784.354,1089.867c-13.141,3.392-30.273-8.183-34.944,11.319
	c-1.749,7.298-1.771,8.928-9.896,11.005c-8.328,2.13-16.875,3.445-25.126,5.869c-0.696-9.45-3.694-18.783-3.193-28.313
	c0.552-10.509,6.766-21.304,11.3-30.585c9.619-19.694,19.787-38.967,28.566-59.073c4.268-9.773,8.485-19.569,12.935-29.262
	c4.037-8.796,6.11-19.537,16.964-20.759c3.194-0.359,7.737-1.253,9.638,2.003c3.109,5.329,5.869,10.853,8.514,16.424
	c4.798,10.104,9.09,20.572,14.943,30.132c5.147,8.407,11.487,15.968,16.238,24.64c5.129,9.364,9.084,19.334,12.694,29.364
	c4.007,11.135,7.443,22.471,10.422,33.923c1.388,5.337,8.618,23.836,3.188,27.792c-17.188,12.522-27.872-6.415-37.919-17.326
	c-5.149-5.593-11.521-10.331-19.402-10.623c-1.882-0.069-17.27,3.935-17.314,3.848c-0.297-0.568,11.677-5.45,11.831-5.012
	C2793.991,1085.797,2784.804,1089.664,2784.354,1089.867C2779.3,1091.171,2810.658,1077.984,2784.354,1089.867z"/>
<path fill-rule="evenodd" clip-rule="evenodd" fill="#4B8C00" d="M1410.529,1028.898c-2.622-26.055,13.047-47.021,30.33-64.716
	c18.286-18.722,42.334-28.912,68.627-23.938c9.761,1.848,20.584,3.803,29.133,9.125c8.436,5.252,15.156,17.688,10.358,27.517
	c-1.978,4.051-5.301,7.775-9.214,10.034c-4.604,2.658-8.264-0.343-12.302-2.591c-8.952-4.983-22.955-1.748-32.694-0.778
	c-10.794,1.074-23.049,2.566-32.491,8.354c-10.524,6.449-13.738,18.255-13.073,29.969c0.624,10.982,2.29,22.603,9.303,31.413
	c7.503,9.423,16.738,14.767,28.654,16.318c12.494,1.628,25.139,0.908,37.681,0.372c8.103-0.347,25.04-4.331,25.692,7.103
	c0.546,9.576,2.209,17.411-5.951,23.854c-9.239,7.294-19.524,13.646-30.894,16.976c-31.207,9.137-57.352-11.373-78.302-32.204
	c-9.43-9.376-21.378-22.161-23.516-35.784c-1.201-7.65-0.789-15.517-1.562-23.222c-0.233-2.325-0.94-5.099-0.728-7.448
	c-0.285,3.147,0.283,8.399,1.167,11.434C1410.588,1030.137,1410.593,1029.457,1410.529,1028.898
	C1409.521,1018.888,1411.668,1038.852,1410.529,1028.898z"/>
<path fill-rule="evenodd" clip-rule="evenodd" fill="#4B8C00" d="M2420.981,1029.175c0-19.968,0.106-39.937-0.011-59.904
	c-0.104-17.841,6.354-30.457,26.144-29.704c18.407,0.7,38.194-2.399,56.039,3.208c17.664,5.55,26.72,19.215,30.924,36.579
	c2.133,8.807,3.202,17.842,3.646,26.884c0.294,5.997,2.31,16.444-1.989,21.373c-11.659,13.374-32.83,14.508-49.043,17.312
	c-7.501,1.298-18.561,1.895-24.625,6.938c-5.768,4.798-8.877,12.196-10.773,19.263c-2.146,8-3.139,16.276-4.561,24.42
	c-0.74,4.233-1.13,9.373-3.086,13.266c-2.006,3.997-5.942,6.641-8.755,10.009c-3.993-5.319-12.046-10.431-12.724-17.582
	c-1.033-10.877-0.894-21.971-0.895-32.887c-0.002-16.369,1.139-32.995-0.247-48.622
	C2421.104,1020.612,2421.099,1029.175,2420.981,1029.175C2420.981,1015.863,2421.166,1029.175,2420.981,1029.175z
	 M2481.665,1019.656c6.721-8.035,13.442-16.07,20.164-24.105c-9.343-4.868-17.814-11.691-28.089-14.596
	c-10.512-2.971-16.52,8.191-23.704,13.959C2460.579,1003.161,2471.122,1011.409,2481.665,1019.656
	C2490.233,1009.413,2468.52,1009.373,2481.665,1019.656C2488.386,1011.621,2467.312,1008.428,2481.665,1019.656z"/>
<path fill-rule="evenodd" clip-rule="evenodd" fill="#4B8C00" d="M440.989,362.208c0-23.642-5.81-53.187,7.336-74.079
	c3.082-4.898,4.042-8.952,10.4-7.315c4.216,1.085,4.556,7.719,5.583,11.269c3.349,11.582,7.582,23.783,8.533,35.853
	c0.354,4.487-0.505,9.329,4.475,10.684c5.633,1.533,11.178,3.363,16.76,5.066c10.408,3.176,24,7.444,34.485,2.331
	c8.593-4.191,8.737-20.33,9.688-28.362c1.595-13.461,4.445-24.835,9.302-37.448c4.809,3.222,12.812,5.087,16.099,10.114
	c3.343,5.116,1.77,17.755,2.175,23.737c1.122,16.562,2.101,33.135,2.907,49.716c0.806,16.581,1.437,33.17,1.862,49.766
	c0.149,5.839,2.009,14.522-1.007,19.792c-3.447,6.025-9.591,9.997-13.89,15.345c-7.659-11.896-14.654-20.969-17.678-35.15
	c-1.567-7.35-2.699-31.548-11.853-33.305c-6.812-1.308-14.007-0.256-20.905-0.801c-6.465-0.511-13.069-0.738-19.136,1.977
	c-12.157,5.439-13.856,19.663-13.754,31.406c0.082,9.381,1.98,25.738-10.567,27.998c-4.511,0.812-10.304,0.034-14.476-1.89
	c-5.512-2.54-5.501-7.236-5.583-12.502c-0.092-5.929,0.065-72.792-0.714-72.792C441.073,353.616,441.146,362.208,440.989,362.208
	C440.989,349.046,441.184,362.208,440.989,362.208z"/>
<path fill-rule="evenodd" clip-rule="evenodd" fill="#4B8C00" d="M261.73,279.73c12.962,0.005,25.914-0.845,38.878-0.592
	c6.41,0.125,12.824,0.524,19.172,1.448c6.265,0.912,10.485,6.604,14.098,11.248c1.782,2.291,3.526,4.615,5.433,6.806
	c2.993,3.438,0.588,3.254-2.132,6.173c-3.506,3.762-6.743,8.249-10.953,11.275c-4.083,2.936-8.893,1.207-13.51,0.882
	c-6.143-0.431-12.604-0.32-18.456,1.813c-24.443,8.913-12.481,46.391-12.075,65.29c0.277,12.895-0.412,25.798-1.648,38.632
	c-1.04,10.791-8.298,23.398-20.671,24.745c-4.592,0.5-9.931-5.247-12.562-8.309c-3.878-4.516-4.479-8.399-4.801-14.155
	c-0.799-14.286-1.245-28.591-1.292-42.899c-0.043-13.103,0.134-26.245,0.935-39.326c0.658-10.744,0.614-23.241-12.828-24.413
	c-10.483-0.914-20.967,2.516-31.437,0.351c-10.158-2.1-18.223-12.836-15.475-23.523c2.781-10.818,14.373-14.662,23.997-15.285
	c14.182-0.918,28.402-0.519,42.599-0.286c6.084,0.099,12.168,0.129,18.253,0.128c-3.908,0.001-7.818-0.047-11.726-0.004
	C257.596,279.706,259.664,279.73,261.73,279.73C274.693,279.736,240.746,279.724,261.73,279.73z"/>
<path fill-rule="evenodd" clip-rule="evenodd" fill="#4B8C00" d="M3416.227,1061.666c-3.589-12.015-5.67-24.445-9.733-36.324
	c-4.047-11.831-10.717-21.688-19.03-30.933c-7.932-8.821-16.633-17.02-23.519-26.73c-3.075-4.34-2.736-10.287-2.276-15.306
	c0.543-5.935-0.383-10.271,6.208-11.905c22.604-5.605,42.436,19.736,54.979,34.771c3.658,4.386,7.067,8.971,10.676,13.396
	c4.169-3.599,9.17-6.096,13.261-9.789c3.55-3.204,3.869-7.034,5.552-11.242c2.236-5.595,5.793-10.611,10.052-14.848
	c7.562-7.521,17.948-13.461,28.864-13.42c12.974,0.048,10.391,14.072,8.722,23.499c-2.012,11.366-10.962,19.995-17.777,28.75
	c-8.36,10.738-16.653,21.645-24.405,32.83c-7.454,10.749-7.144,20.672-7.237,33.403c-0.105,14.196,0.128,28.398-0.113,42.594
	c-0.176,10.326-10.574,12.533-18.918,15.799c-11.38,4.454-16.104-12.209-18.313-20.542c-1.89-7.127-2.199-14.245-1.868-21.577
	C3411.65,1067.383,3409.638,1063.591,3416.227,1061.666c-0.236-0.79-2.876-6.637-2.593-7.367
	C3413.284,1055.202,3415.258,1061.949,3416.227,1061.666C3412.906,1050.55,3414.734,1062.102,3416.227,1061.666z"/>
<path fill-rule="evenodd" clip-rule="evenodd" fill="#4B8C00" d="M2758.977,679.781c15.772,0,31.625-2.122,47.356-0.162
	c14.981,1.869,23.964,11.399,31.474,23.945c7.436,12.421-7.454,28.348-16.599,35.085c-12.829,9.452-28.529,12.346-44.167,12.319
	c-16.375-0.028-33.726-1.074-49.909-3.591c-14.196-2.206-28.461-9.199-32.91-23.873c-4.439-14.64,7.689-26.643,19.428-33.777
	c13.416-8.157,29.387-10.335,44.137-15.004c1.176,5.001,0.985,5.16,6.204,4.996c-0.067,0.002,3.031-0.326,3.002-0.346
	C2766.143,678.799,2758.771,678.905,2758.977,679.781C2771.667,679.781,2758.58,678.095,2758.977,679.781z"/>
</svg>
