<?xml version="1.0" encoding="utf-8"?>
<!-- Generator: Adobe Illustrator 16.0.4, SVG Export Plug-In . SVG Version: 6.00 Build 0)  -->
<!DOCTYPE svg PUBLIC "-//W3C//DTD SVG 1.1//EN" "http://www.w3.org/Graphics/SVG/1.1/DTD/svg11.dtd">
<svg version="1.1" id="Layer_1" xmlns="http://www.w3.org/2000/svg" xmlns:xlink="http://www.w3.org/1999/xlink" x="0px" y="0px"
	 width="33.589px" height="34.283px" viewBox="0 -0.001 33.589 34.283" enable-background="new 0 -0.001 33.589 34.283"
	 xml:space="preserve">
<path fill="#6D8D24" d="M26.591,10.841c0,0-2.736,0-2.829,0c0-0.097,0-3.866,0-3.866c0-3.846-3.14-6.976-6.997-6.976
	S9.768,3.128,9.768,6.975c0,0,0,3.769,0,3.866c-0.093,0-2.771,0-2.771,0C3.139,10.841,0,13.97,0,17.82
	c0,3.842,3.139,6.971,6.996,6.971c0,0,2.68,0,2.771,0c0,0.094,0,2.52,0,2.52c0,3.849,3.14,6.972,6.997,6.972
	s6.997-3.123,6.997-6.972c0,0,0-2.426,0-2.52c0.093,0,2.829,0,2.829,0c3.855,0,6.998-3.129,6.998-6.971
	C33.589,13.97,30.448,10.841,26.591,10.841z M12.429,6.976c0-2.383,1.943-4.32,4.334-4.32c2.42,0,4.391,1.903,4.391,4.25
	c0,2.379-1.971,4.32-4.391,4.32h-0.518V9.112h0.518c1.23,0,2.27-1.012,2.27-2.207c0-1.179-1.019-2.137-2.27-2.137
	c-1.221,0-2.213,0.992-2.213,2.208v8.266l-2.121,1.721V6.976z M21.099,27.311c0,2.381-1.944,4.322-4.335,4.322
	s-4.334-1.941-4.334-4.322v-2.688h2.121v2.688c0,1.217,0.993,2.211,2.213,2.211s2.214-0.994,2.214-2.211v-6.914l2.121-1.697V27.311z
	 M26.592,22.139h-2.875v-2.117h2.875c1.222,0,2.214-0.986,2.214-2.201c0-1.222-0.992-2.21-2.214-2.21h-4.204
	c-0.564,0-1.077,0.164-1.767,0.567c-0.13,0.073-0.626,0.436-0.805,0.579c-4.226,3.385-4.875,3.904-4.927,3.946
	c-0.168,0.133-0.595,0.456-0.888,0.614c-0.794,0.482-1.642,0.776-2.451,0.822H6.993c-2.39,0-4.335-1.938-4.335-4.318
	c0-2.386,1.945-4.324,4.335-4.324h2.867v2.114H6.993c-1.223,0-2.215,0.988-2.215,2.21c0,1.214,0.993,2.201,2.215,2.201
	c0,0,4.399-0.004,4.396-0.004c0.499-0.026,1.009-0.209,1.604-0.572l0.571-0.404c0,0,4.909-3.943,4.913-3.938
	c0.006-0.006,0.766-0.608,1.173-0.817c0.927-0.539,1.795-0.789,2.738-0.789h4.204c2.392,0,4.336,1.938,4.336,4.323
	C30.928,20.199,28.984,22.139,26.592,22.139z"/>
</svg>
