<?xml version="1.0" encoding="utf-8"?>
<!-- Generator: Adobe Illustrator 16.0.4, SVG Export Plug-In . SVG Version: 6.00 Build 0)  -->
<!DOCTYPE svg PUBLIC "-//W3C//DTD SVG 1.1//EN" "http://www.w3.org/Graphics/SVG/1.1/DTD/svg11.dtd">
<svg version="1.1" id="Layer_1" xmlns="http://www.w3.org/2000/svg" xmlns:xlink="http://www.w3.org/1999/xlink" x="0px" y="0px"
	 width="1845.466px" height="661.13px" viewBox="0 0 1845.466 661.13" enable-background="new 0 0 1845.466 661.13"
	 xml:space="preserve">
<path fill-rule="evenodd" clip-rule="evenodd" fill="#1356A4" d="M0,321.743c4.957-15.514,16.22-26.429,27.249-37.554
	c53.951-54.423,107.876-108.87,161.783-163.336c21.638-21.862,43.204-43.797,64.812-65.689c1.431-1.449,2.941-2.821,4.414-4.229
	c0.394,0.357,0.788,0.715,1.182,1.072C182.289,161.203,105.137,270.4,27.747,379.936C16.09,369.437,4.452,359.385,0,343.743
	C0,336.41,0,329.076,0,321.743z"/>
<path fill-rule="evenodd" clip-rule="evenodd" fill="#050405" d="M55.679,403.828c6.038,0.56,306.588,210.694,328.472,228.678
	c-4.671,4.852-9.285,9.766-14.031,14.549c-11.092,11.183-24.536,15.893-40.076,13.443c-12.301-1.939-21.992-9.032-30.925-17.291
	c-6.941-6.417-14.238-12.47-20.918-19.144c-9.342-9.332-18.106-19.24-27.399-28.623c-8.554-8.638-17.581-16.805-26.221-25.359
	c-17.589-17.414-34.932-35.078-52.628-52.383c-9.334-9.126-19.457-17.448-28.752-26.612c-9.752-9.614-18.742-19.999-28.421-29.692
	c-17.647-17.673-35.55-35.091-53.37-52.593C59.942,407.359,58.302,406.093,55.679,403.828z"/>
<path fill-rule="evenodd" clip-rule="evenodd" fill="#078F4B" d="M604.251,259.001c-7.518-5.646-14.897-11.488-22.582-16.898
	c-15.418-10.854-31.086-21.353-46.506-32.204C452.555,151.765,369.985,93.575,287.432,35.362c-2.956-2.084-6.433-4.173-7.979-7.139
	c-0.604-1.16,3.461-4.74,5.381-7.232c5.878-7.63,12.975-14.1,21.954-17.414c13.051-4.816,26.558-5.271,39.053,1.752
	c6.594,3.705,12.86,8.441,18.265,13.741c46.454,45.558,92.645,91.384,138.98,137.062c32.482,32.021,65.079,63.929,97.588,95.924
	c1.791,1.763,3.248,3.864,4.86,5.808C605.106,258.243,604.679,258.622,604.251,259.001z"/>
<path fill-rule="evenodd" clip-rule="evenodd" fill="#050405" d="M1200.182,279.551c-1.05,8.914-1.979,16.787-2.882,24.451
	c-8.194-1.98-15.937-4.584-23.883-5.614c-15.223-1.974-30.271-0.662-44.434,5.897c-12.899,5.975-19.592,16.036-19.27,30.469
	c0.319,14.279,7.896,23.652,20.316,29.449c10.548,4.923,21.776,5.645,33.232,4.445c3.54-0.371,5.256-1.524,4.975-5.556
	c-0.401-5.764-0.102-11.575-0.102-17.756c-7.241,0-14.019,0-21.073,0c0-7.289,0-14.182,0-21.309c18.854,0,37.458,0,56.441,0
	c0,20.719,0,41.441,0,62.169c-12.88,4.616-26.4,4.892-39.792,5.296c-11.614,0.352-23.513,0.9-34.841-1.127
	c-15.781-2.824-30.716-8.719-42.839-20.178c-6.912-6.533-10.791-14.517-12.97-23.484c-8.078-33.248,12.178-58.097,41.137-65.884
	c21.274-5.721,42.845-6.952,64.667-4.093C1185.871,277.646,1192.875,278.583,1200.182,279.551z"/>
<path fill-rule="evenodd" clip-rule="evenodd" fill="#050405" d="M997.674,269.079c0,40.267,0,80.052,0,120.221
	c-10.815,0-21.521,0-32.66,0c0-4.404,0-8.803,0-14.799c-5.501,9.143-13.368,13.785-21.381,15.623
	c-8.597,1.972-18.232,1.475-27.053-0.044c-15.585-2.682-26.207-12.28-31.55-27.392c-4.588-12.975-3.576-25.482,2.878-37.618
	c1.219-2.29,2.09-4.764,3.155-7.138c0.26-0.578,0.525-1.271,1.003-1.615c19.563-14.084,45.968-19.306,69.66-0.568
	c0-15.806,0-31.117,0-46.67C973.967,269.079,985.557,269.079,997.674,269.079z M940.29,369.194
	c12.248,0.022,21.705-9.252,21.719-21.299c0.015-12.729-9.059-21.917-21.596-21.868c-12.286,0.048-21.364,8.988-21.331,21.006
	C919.12,360.157,927.746,369.172,940.29,369.194z"/>
<path fill-rule="evenodd" clip-rule="evenodd" fill="#050405" d="M198.313,350.613c0,6.927,0,13.23,0,19.533
	c0,6.315,0,12.63,0,19.239c-12.2,0-24.106,0-36.32,0c0-37.276,0-74.482,0-111.904c16.776,0,33.383-0.39,49.96,0.153
	c9.214,0.302,18.517,1.523,27.527,3.486c9.952,2.167,18.675,6.972,23.885,16.479c9.671,17.648,1.02,39.743-17.636,47.139
	c-11.666,4.624-23.566,5.736-35.79,5.869C206.284,350.646,202.628,350.613,198.313,350.613z M198.547,329.854
	c8.044-1.067,15.593-1.287,22.668-3.231c6.852-1.883,9.347-6.89,9.038-13.794c-0.285-6.364-3.458-10.869-10.347-12.338
	c-6.872-1.464-14.002-1.72-21.358-2.544C198.547,308.841,198.547,318.585,198.547,329.854z"/>
<path fill-rule="evenodd" clip-rule="evenodd" fill="#050405" d="M330.547,391.798c-12.604-0.4-26.442-2.625-38.866-10.373
	c-14.941-9.317-21.465-24.657-18.262-42.008c2.786-15.091,12.837-24.136,25.983-29.356c23.43-9.306,47.203-9.214,70.107,2.024
	c20.59,10.104,27.804,32.056,18.564,53.173c-2.651,6.061-6.518,10.723-12.042,14.175
	C359.805,389.571,352.217,391.327,330.547,391.798z M355.062,347.788c-0.002-14.872-8.563-23.659-22.926-23.528
	c-14.162,0.129-22.641,8.869-22.66,23.362c-0.021,14.705,8.628,23.534,23.002,23.485
	C346.667,371.06,355.065,362.388,355.062,347.788z"/>
<path fill-rule="evenodd" clip-rule="evenodd" fill="#050405" d="M1457.591,389.471c-11.963,0-23.411,0-35.451,0
	c0-3.634,0.011-7.078-0.002-10.522c-0.044-11.326,0.182-22.663-0.229-33.977c-0.363-10.033-5.284-15.751-13.282-16.624
	c-11.362-1.241-19.91,3.386-22.621,12.772c-1.186,4.104-1.818,8.488-1.911,12.763c-0.253,11.724-0.087,23.457-0.087,35.495
	c-11.144,0-23.061,0-35.309,0c0-27.791,0-55.509,0-83.51c10.625,0,21.188,0,32.081,0c0,4.632,0,9.085,0,13.76
	c4.119-3.461,7.496-7.541,11.829-9.717c16.413-8.242,33.334-8.812,49.901-0.504c9.124,4.574,14.487,12.922,14.869,22.872
	C1458.106,351.197,1457.591,370.163,1457.591,389.471z"/>
<path fill-rule="evenodd" clip-rule="evenodd" fill="#050405" d="M865.146,389.46c-11.867,0-23.296,0-35.304,0
	c0-9.481,0.001-18.753-0.001-28.024c0-3.833,0.427-7.728-0.111-11.483c-0.737-5.142-1.516-10.494-3.634-15.137
	c-1.224-2.682-4.853-5.238-7.856-5.967c-14.22-3.445-25.079,4.34-26.106,18.986c-0.79,11.279-0.402,22.642-0.526,33.967
	c-0.027,2.469-0.004,4.938-0.004,7.642c-12.228,0-24.006,0-35.934,0c0-27.692,0-55.482,0-83.563c10.424,0,21.183,0,32.43,0
	c0,4.495,0,9.049,0,13.059c5.869-3.925,11.188-8.908,17.491-11.405c14.106-5.587,28.652-5.562,42.69,0.887
	c10.238,4.704,16.181,13.324,16.644,24.185C865.724,351.384,865.146,370.223,865.146,389.46z"/>
<path fill-rule="evenodd" clip-rule="evenodd" fill="#050405" d="M1694.993,309.801c16.943-5.616,34.065-6.865,51.459-5.47
	c8.89,0.713,17.374,2.863,24.981,7.775c8.604,5.556,13.089,13.599,13.582,23.669c0.398,8.142,0.056,16.317,0.22,24.475
	c0.194,9.626,0.58,19.248,0.892,29.151c-10,0-20.574,0-31.706,0c-0.256-3.808-0.516-7.668-0.778-11.568
	c-0.762,0.127-1.208,0.065-1.354,0.246c-10.943,13.636-26.298,15.144-41.694,13.35c-13.174-1.535-24.861-8.219-28.771-21.913
	c-1.97-6.896,0.972-14.501,6.631-20.186c7.478-7.512,17.058-10.618,27.008-11.396c11.877-0.931,23.881-0.22,35.816-0.22
	c0.089-7.18-3.17-11.409-10.431-12.958c-12.969-2.766-25.805-1.438-38.437,2.296c-1.749,0.517-3.436,1.24-5.167,1.822
	c-0.282,0.095-0.646-0.053-1.388-0.135C1695.574,322.537,1695.289,316.273,1694.993,309.801z M1751.666,352.511
	c-7.067,0-14.155-0.297-21.199,0.129c-3.357,0.203-7.147,1.06-9.787,2.951c-2.33,1.669-4.607,5.22-4.542,7.881
	c0.059,2.377,2.873,5.755,5.296,6.828C1735.154,376.377,1751.479,367.004,1751.666,352.511z"/>
<path fill-rule="evenodd" clip-rule="evenodd" fill="#050405" d="M707.429,389.677c-0.341-4.292-0.637-8.016-1.034-13.021
	c-6.87,8.693-14.952,13.307-24.687,14.481c-12.316,1.485-24.316,0.663-35.258-6.193c-14.952-9.37-14.896-30.717,0.227-39.897
	c8.901-5.404,18.83-7.595,29.041-8.069c9.612-0.447,19.261-0.096,28.885-0.096c-0.628-7.458-3.729-10.642-13.261-12.194
	c-8.865-1.444-17.73-2.318-26.643,0.771c-4.881,1.693-10.228,2.042-15.699,3.06c-0.309-5.81-0.631-11.874-1.003-18.861
	c4.644-1.186,9.758-3.331,14.987-3.662c13.412-0.85,26.897-1.481,40.311-0.991c6.022,0.22,12.311,2.572,17.828,5.281
	c11.895,5.842,17.146,16.001,17.094,29.254c-0.056,14.152,0.106,28.316,0.661,42.456c0.303,7.698,0.759,7.681-7.415,7.683
	C723.641,389.679,715.818,389.677,707.429,389.677z M704.938,352.217c-6.228,0-12.038-0.351-17.783,0.113
	c-4.395,0.354-8.838,1.354-13.013,2.784c-3.521,1.206-6.154,4.417-5.079,8.139c0.799,2.766,3.176,5.975,5.711,7.187
	C687.588,376.567,703.006,367.574,704.938,352.217z"/>
<path fill-rule="evenodd" clip-rule="evenodd" fill="#050405" d="M1259.083,356.458c3.164,11.142,11.688,14.124,21.076,15.158
	c13.026,1.435,25.847,0.382,37.945-5.385c0.896-0.427,2.172-0.056,3.343-0.056c-0.348,6.762-0.684,13.285-1.074,20.859
	c-8.207,1.367-16.605,3.191-25.103,4.077c-11.603,1.21-23.465,1.909-34.699-1.604c-14.784-4.623-28.504-11.429-34.64-27.225
	c-8.389-21.598,1.16-43.229,21.802-52.435c17.229-7.685,35.296-8.332,53.172-2.704c19.104,6.016,28.192,21.354,28.942,40.404
	c0.117,2.95,0.526,6.37-0.776,8.688c-0.633,1.127-4.903,0.219-7.527,0.219C1300.905,356.458,1280.267,356.458,1259.083,356.458z
	 M1259.153,339.392c12.882,0,25.755,0,38.635,0c-0.396-11.158-6.977-16.88-19.206-16.977
	C1267.172,322.326,1259.741,328.77,1259.153,339.392z"/>
<path fill-rule="evenodd" clip-rule="evenodd" fill="#050405" d="M1581.935,356.308c-24.005,0-47.242,0-70.524,0
	c0.679,6.182,4.133,9.74,9.096,11.876c17.444,7.507,34.246,3.53,51.347-2.127c0,6.527,0,13.111,0,21.069
	c-8.813,1.409-18.009,3.585-27.304,4.171c-9.567,0.603-19.539,1.068-28.785-0.937c-15.029-3.259-29.622-9.902-36.898-24.122
	c-6.635-12.966-6.119-27.321,1.815-40.603c3.893-6.517,8.916-11.277,15.912-14.552c22.747-10.645,45.273-10.748,67.085,1.717
	c11.078,6.331,15.825,17.465,17.265,29.901C1581.447,347.062,1581.592,351.463,1581.935,356.308z M1549.387,339.457
	c-0.481-11.08-6.802-16.856-18.422-17.052c-12.176-0.205-19.453,5.877-20.24,17.052
	C1523.616,339.457,1536.497,339.457,1549.387,339.457z"/>
<path fill-rule="evenodd" clip-rule="evenodd" fill="#CB0730" d="M405.962,603.238c12.714-18.347,25.421-36.697,38.143-55.038
	c28.66-41.321,57.349-82.623,85.947-123.986c1.953-2.825,3.917-4.355,7.634-4.312c17.792,0.21,35.588,0.095,53.483,0.095
	c-9.815,9.834-20.07,20.119-30.338,30.392c-10.239,10.245-20.497,20.473-30.737,30.717c-10.359,10.365-20.734,20.716-31.053,31.122
	c-10.319,10.409-20.56,20.897-30.869,31.316c-10.194,10.303-20.41,20.584-30.655,30.835c-10.079,10.083-20.024,20.314-30.255,30.235
	C406.828,604.155,406.396,603.696,405.962,603.238z"/>
<path fill-rule="evenodd" clip-rule="evenodd" fill="#050405" d="M568.323,390.896c-10.396,0.11-20.989,0.434-31.572,0.222
	c-3.776-0.076-7.59-1.228-11.276-2.272c-12.447-3.529-17.363-12.693-17.617-24.798c-0.258-12.307-0.058-24.623-0.058-37.303
	c-6.088,0-11.691-0.122-17.285,0.049c-3.072,0.094-3.881-0.972-3.709-4.029c0.312-5.557,0.088-11.144,0.088-17.142
	c7.469,0,14.066,0,21.039,0c0-6.348,0-12.279,0-18.675c11.744-2.988,23.242-5.913,35.14-8.94c0,9.312,0,18.109,0,27.422
	c8.33,0,16.39,0,24.687,0c0,7.102,0,13.683,0,20.585c-8.091,0-16.022,0-23.823,0c0,12.7-0.333,25.092,0.163,37.451
	c0.2,4.979,4.152,7.946,9.188,8.293c4.772,0.328,9.585,0.07,15.036,0.07C568.323,377.4,568.323,383.3,568.323,390.896z"/>
<path fill-rule="evenodd" clip-rule="evenodd" fill="#050405" d="M1842.412,389.379c-12.256,0-24.189,0-35.713,0
	c0-40.139,0-79.979,0-120.188c12.181,0,23.746,0,35.713,0C1842.412,309.052,1842.412,349.06,1842.412,389.379z"/>
<path fill-rule="evenodd" clip-rule="evenodd" fill="#050405" d="M583.481,269.093c11.85,0,23.409,0,35.228,0
	c0,40.154,0,80.07,0,120.289c-11.834,0-23.551,0-35.228,0C583.481,349.215,583.481,309.297,583.481,269.093z"/>
<path fill-rule="evenodd" clip-rule="evenodd" fill="#050405" d="M988.022,471.715c16.541,0,32.978,0,49.699,0
	c0,4.459,0,8.541,0,13.215c-16.511,0-33.05,0-49.839,0c0,12.003,0,23.42,0,35.243c18.274,0,36.37,0,54.771,0
	c0,4.655,0,8.912,0,13.566c-24.442,0-48.978,0-73.937,0c0-35.792,0-71.631,0-107.082c24.736,0,49.39,0,74.069,0
	c0,4.844,0,8.988,0,13.61c-18.2,0-36.284,0-54.764,0C988.022,450.935,988.022,461.129,988.022,471.715z"/>
<path fill-rule="evenodd" clip-rule="evenodd" fill="#050405" d="M1673.486,328.246c-4.592,0-8.554-0.032-12.514,0.006
	c-15.982,0.153-25.036,9.032-25.303,25.072c-0.172,10.315-0.029,20.636-0.027,30.953c0,1.624,0,3.248,0,5.136
	c-12.042,0-23.594,0-35.399,0c0-27.811,0-55.521,0-83.528c10.581,0,21.104,0,31.965,0c0,4.608,0,9.047,0,13.484
	c10.64-15.479,25.633-17.307,42.806-14.456C1674.503,312.71,1673.999,320.417,1673.486,328.246z"/>
<path fill-rule="evenodd" clip-rule="evenodd" fill="#050405" d="M404.768,305.794c10.698,0,21.126,0,32.02,0
	c0,4.674,0,9.246,0,15.292c5.337-7.817,10.767-13.446,18.797-15.69c7.836-2.19,15.701-2.042,23.88-0.376
	c-0.551,7.964-1.085,15.706-1.606,23.247c-4.836,0-9.297-0.118-13.751,0.021c-14.784,0.462-24.074,10.054-24.097,24.794
	c-0.018,11.973-0.004,23.945-0.004,36.262c-11.743,0-23.293,0-35.238,0C404.768,361.68,404.768,333.992,404.768,305.794z"/>
<path fill-rule="evenodd" clip-rule="evenodd" fill="#050405" d="M1274.749,517.005c0.075,0.664,0.189,1.278,0.207,1.896
	c0.356,12.493,0.415,12.812-11.883,15.197c-7.534,1.462-15.448,3.108-22.911,2.247c-9.159-1.057-18.582-3.46-26.909-7.37
	c-21.306-10.004-23.912-40.581-13.431-56.498c8.299-12.604,20.854-17.254,34.99-18.658c9.203-0.914,18.382,0.143,26.83,4.017
	c14.465,6.632,22.348,22.579,20.179,40.4c-22.786,0-45.65,0-68.938,0c0.941,10.191,6.082,16.848,14.193,21.335
	c10.571,5.848,21.746,5.411,32.971,2.319C1264.954,520.539,1269.724,518.691,1274.749,517.005z M1213.708,487.276
	c8.518,0,16.653,0,24.789,0c8.097,0,16.193,0,24.263,0c0.277-12.177-8.641-20.984-21.274-21.603
	C1225.996,464.917,1214.987,473.232,1213.708,487.276z"/>
<path fill-rule="evenodd" clip-rule="evenodd" fill="#050405" d="M1518.264,455.562c0,4.376,0,7.97,0,11.839
	c-8.419,0-16.538,0-25.325,0c0,4.852,0,9.444,0,14.037c-0.001,8.655-0.002,17.312-0.003,25.967
	c-0.002,12.193,5.983,17.677,18.135,16.392c2.924-0.31,5.785-1.211,8.805-1.869c0,3.823,0,7.628,0,12.013
	c-12.195,2.361-24.312,3.803-35.762-2.643c-6.666-3.752-9.312-10.137-9.327-17.634c-0.027-13.482-0.005-26.965-0.004-40.447
	c0.001-1.642,0-3.282,0-5.453c-7.499,0-14.728,0-22.321,0c0-4.078,0-7.645,0-11.924c7.107,0,14.478,0,22.331,0
	c0-5.645-0.119-10.602,0.088-15.545c0.05-1.17,0.971-3.043,1.877-3.316c5.203-1.574,10.522-2.764,16.178-4.178
	c0,7.708,0,14.997,0,22.762C1501.45,455.562,1509.686,455.562,1518.264,455.562z"/>
<path fill-rule="evenodd" clip-rule="evenodd" fill="#050405" d="M1407.55,456.961c-0.566,4.263-1.046,7.866-1.491,11.222
	c-7.363-0.875-14.355-2.35-21.358-2.407c-15.92-0.131-28.65,12.465-29.099,28.018c-0.47,16.278,10.694,28.757,27.116,29.924
	c6.878,0.489,13.961,1.26,19.987-3.561c0.452-0.361,1.281-0.312,1.939-0.339c0.627-0.025,1.26,0.099,2.076,0.174
	c0.566,4.198,1.111,8.244,1.696,12.582c-12.87,4.621-25.555,6.156-38.315,1.365c-6.161-2.314-12.19-5.178-17.899-8.456
	c-12.015-6.9-15.829-18.61-15.877-31.369c-0.054-13.935,6.403-25.121,18.439-32.317
	C1371.328,451.892,1389.007,451.846,1407.55,456.961z"/>
<path fill-rule="evenodd" clip-rule="evenodd" fill="#050405" d="M1844.284,519.908c0.269,0.47,0.524,0.728,0.564,1.015
	c1.729,12.525,0.558,14.4-13.154,15.561c-15.903,1.346-30.857-1.963-43.579-12.266c-21.686-17.562-18.141-51.16,6.744-63.922
	c16.075-8.243,32.822-8.089,50.361-3.532c-0.518,4.038-1.014,7.914-1.528,11.931c-6.099-1.062-11.774-2.546-17.526-2.949
	c-11.735-0.821-21.683,3.15-28.281,13.254c-6.743,10.326-6.449,21.33-0.406,31.677c6.396,10.951,21.441,15.707,36.662,12.446
	C1837.608,522.38,1840.938,520.987,1844.284,519.908z"/>
<path fill-rule="evenodd" clip-rule="evenodd" fill="#050405" d="M1112.186,418.88c5.841,0,11.455,0,17.375,0
	c0,38.342,0,76.539,0,114.99c-5.812,0-11.428,0-17.375,0C1112.186,495.77,1112.186,457.547,1112.186,418.88z"/>
<path fill-rule="evenodd" clip-rule="evenodd" fill="#050405" d="M1597.054,533.986c-6.234,0-11.876,0-17.894,0
	c0-25.903,0-51.783,0-77.987c5.342,0,10.733,0,16.613,0c0,3.459,0,6.853,0,11.34c10.217-12.797,22.613-15.759,37.209-12.409
	c0,4.086,0,8.038,0,12.724c-3.026-0.337-5.977-0.811-8.942-0.973c-12.714-0.693-23.139,7.633-25.817,20.953
	c-0.878,4.367-1.056,8.921-1.119,13.396C1596.95,511.832,1597.054,522.639,1597.054,533.986z"/>
<path fill-rule="evenodd" clip-rule="evenodd" fill="#050405" d="M1693.406,455.874c5.995,0,11.572,0,17.411,0
	c0,26.049,0,51.896,0,77.977c-5.792,0-11.489,0-17.411,0C1693.406,507.868,1693.406,482.163,1693.406,455.874z"/>
<path fill-rule="evenodd" clip-rule="evenodd" fill="#050405" d="M1692.21,438.027c0-5.541,0-10.78,0-16.133
	c6.761,0,13.302,0,19.916,0c0,5.479,0,10.695,0,16.133C1705.423,438.027,1699.001,438.027,1692.21,438.027z"/>
<path fill-rule="evenodd" clip-rule="evenodd" fill="#1356A4" d="M260.941,49.565c-0.491,0.524-0.982,1.05-1.474,1.574
	c-0.213-0.171-0.426-0.341-0.639-0.511c0.451-0.608,0.901-1.218,1.352-1.826C260.433,49.057,260.687,49.312,260.941,49.565z"/>
<path fill-rule="evenodd" clip-rule="evenodd" fill="#FEFDFE" d="M940.29,369.194c-12.544-0.022-21.17-9.037-21.208-22.161
	c-0.033-12.018,9.045-20.958,21.331-21.006c12.537-0.049,21.61,9.14,21.596,21.868C961.995,359.942,952.538,369.217,940.29,369.194z
	"/>
</svg>
