<?xml version="1.0" encoding="utf-8"?>
<!-- Generator: Adobe Illustrator 16.0.4, SVG Export Plug-In . SVG Version: 6.00 Build 0)  -->
<!DOCTYPE svg PUBLIC "-//W3C//DTD SVG 1.1//EN" "http://www.w3.org/Graphics/SVG/1.1/DTD/svg11.dtd">
<svg version="1.1" id="Layer_1" xmlns="http://www.w3.org/2000/svg" xmlns:xlink="http://www.w3.org/1999/xlink" x="0px" y="0px"
	 width="264.124px" height="264.347px" viewBox="0 0 264.124 264.347" enable-background="new 0 0 264.124 264.347"
	 xml:space="preserve">
<path fill-rule="evenodd" clip-rule="evenodd" fill="#040404" d="M150.948,118.409c-2.465-0.819-4.846-1.735-7.296-2.394
	c-3.043-0.818-6.144-0.903-9.304-0.53c-2.567,0.303-5.068,0.739-7.445,1.74c-5.336,2.249-8.649,6.11-9.474,11.96
	c-0.557,3.942-0.234,7.729,1.671,11.303c2.186,4.099,5.632,6.58,10.047,7.737c3.447,0.903,6.926,1.173,10.41-0.114
	c0-3.449,0-6.881,0-10.467c-2.647,0-5.298,0-8.033,0c0-3.402,0-6.65,0-9.972c7.283,0,14.501,0,21.82,0c0,9.828,0,19.636,0,29.712
	c-3.272,0.521-6.558,1.165-9.872,1.541c-3.422,0.389-6.875,0.746-10.31,0.709c-5.81-0.062-11.525-0.979-16.771-3.646
	c-7.584-3.858-12.257-9.912-13.544-18.462c-0.973-6.463-0.458-12.727,2.395-18.653c2.734-5.681,7.358-9.293,13.2-11.448
	c4.532-1.671,9.216-2.392,14.039-2.673c6.189-0.361,12.239,0.207,18.222,1.743c1.276,0.328,1.459,0.719,1.291,2.036
	c-0.285,2.227-0.481,4.466-0.715,6.7C151.163,116.354,151.045,117.477,150.948,118.409z"/>
<path fill-rule="evenodd" clip-rule="evenodd" fill="#0C944E" d="M240.411,101.744c-0.945-0.697-1.897-1.385-2.835-2.094
	c-4.915-3.717-9.813-7.457-14.743-11.155c-4.768-3.576-9.579-7.093-14.346-10.668c-4.839-3.629-9.645-7.304-14.472-10.95
	c-5.529-4.177-11.064-8.346-16.599-12.515c-4.506-3.395-9.021-6.778-13.521-10.181c-3.938-2.978-7.852-5.989-11.795-8.96
	c-4.063-3.062-8.16-6.078-12.223-9.14c-6.126-4.618-12.233-9.262-18.353-13.889c-1.715-1.297-3.431-2.595-5.177-3.849
	c-0.745-0.536-0.912-0.931-0.188-1.687c3.11-3.246,6.715-5.783,11.185-6.436c4.146-0.605,8.214,0,11.975,2.243
	c3.434,2.048,6.258,4.754,9.043,7.539c4.701,4.7,9.361,9.44,14.084,14.117c3.672,3.637,7.436,7.182,11.116,10.81
	c3.03,2.987,5.979,6.056,8.997,9.056c5.562,5.529,11.146,11.036,16.726,16.548c5.634,5.565,11.269,11.128,16.911,16.685
	c5.28,5.199,10.564,10.395,15.86,15.577c2.196,2.149,4.446,4.245,6.637,6.4c0.713,0.701,1.315,1.512,1.969,2.273
	C240.579,101.56,240.495,101.652,240.411,101.744z"/>
<path fill-rule="evenodd" clip-rule="evenodd" fill="#D2202E" d="M161.955,241.767c31.435-41.713,62.868-83.427,94.279-125.108
	c2.312,0.988,3.483,2.855,4.663,4.591c2.059,3.03,3.248,6.404,3.227,10.148c-0.023,4.365-1.559,8.28-4.295,11.473
	c-3.808,4.442-8.037,8.526-12.136,12.715c-6.784,6.934-13.604,13.832-20.416,20.737c-4.754,4.82-9.529,9.62-14.281,14.442
	c-6.682,6.779-13.341,13.581-20.028,20.354c-6.172,6.252-12.377,12.472-18.55,18.724c-3.751,3.8-7.468,7.634-11.204,11.448
	c-0.27,0.275-0.57,0.521-0.857,0.779C162.222,241.97,162.088,241.868,161.955,241.767z"/>
<path fill-rule="evenodd" clip-rule="evenodd" fill="#040404" d="M148.126,256.772c-3.334,3.841-7.191,6.515-12.216,7.332
	c-5.657,0.921-10.634-0.831-14.708-4.481c-5.999-5.375-11.648-11.144-17.393-16.799c-8.428-8.298-16.803-16.648-25.209-24.967
	c-5.622-5.562-11.26-11.108-16.892-16.661c-5.577-5.497-11.153-10.994-16.733-16.488c-5.238-5.157-10.467-10.323-15.724-15.462
	c-2.477-2.421-5.008-4.788-7.515-7.18c0.08-0.112,0.159-0.226,0.239-0.338c0.888,0.609,1.8,1.187,2.658,1.835
	c4.426,3.348,8.829,6.726,13.256,10.071c4.753,3.593,9.522,7.166,14.289,10.742c6.035,4.527,12.082,9.04,18.11,13.577
	c5.309,3.996,10.593,8.025,15.897,12.027c5.712,4.31,11.439,8.602,17.154,12.908c6.631,4.998,13.251,10.012,19.887,15.006
	c6.977,5.25,13.97,10.479,20.946,15.731C145.492,254.619,146.758,255.68,148.126,256.772z"/>
<path fill-rule="evenodd" clip-rule="evenodd" fill="#0658A3" d="M101.9,20.526c0.056,1.167-0.711,1.957-1.334,2.788
	c-3.7,4.934-7.417,9.854-11.139,14.771c-3.759,4.965-7.541,9.913-11.291,14.884c-3.176,4.21-6.319,8.445-9.483,12.665
	c-4.257,5.678-8.518,11.354-12.784,17.025c-4.201,5.586-8.402,11.171-12.617,16.747c-3.728,4.932-7.491,9.837-11.208,14.777
	c-4.047,5.38-8.05,10.794-12.09,16.18c-3.849,5.132-7.723,10.244-11.578,15.372c-0.416,0.552-0.804,0.861-1.434,0.264
	c-3.177-3.016-5.632-6.451-6.574-10.836c-0.958-4.458,0.018-8.535,2.143-12.467c2.325-4.302,6.043-7.37,9.357-10.796
	c3.624-3.748,7.273-7.469,10.951-11.164c4.154-4.173,8.381-8.275,12.525-12.459c7.64-7.714,15.243-15.466,22.861-23.202
	c4.933-5.008,9.867-10.015,14.8-15.022c5.772-5.858,11.554-11.705,17.312-17.577c3.617-3.688,7.195-7.414,10.79-11.123
	c0.262-0.27,0.519-0.545,0.777-0.818L101.9,20.526z"/>
<path fill-rule="evenodd" clip-rule="evenodd" fill="#040404" d="M175.089,136.583c0,4.053,0,7.882,0,11.856
	c7.938,0,15.866,0,23.874,0c0,3.476,0,6.806,0,10.213c-12.72,0-25.378,0-38.178,0c-0.022-0.464-0.064-0.927-0.064-1.39
	c-0.003-16.836,0.008-33.673-0.024-50.509c-0.002-1.019,0.299-1.258,1.278-1.255c11.717,0.032,23.435,0.033,35.152,0.001
	c0.946-0.002,1.239,0.235,1.219,1.201c-0.062,2.953-0.022,5.909-0.022,9.022c-7.773,0-15.461,0-23.218,0c0,3.615,0,7.071,0,10.665
	c7.25,0,14.462,0,21.726,0c0,3.443,0,6.751,0,10.196C189.64,136.583,182.43,136.583,175.089,136.583z"/>
<path fill-rule="evenodd" clip-rule="evenodd" fill="#040404" d="M73.722,140.245c0,6.233,0,12.262,0,18.388
	c-4.679,0-9.286,0-14.042,0c0-0.447,0-0.873,0-1.3c0-16.83,0.009-33.661-0.023-50.492c-0.002-1.035,0.225-1.356,1.312-1.346
	c6.036,0.056,12.079-0.146,18.107,0.078c5.144,0.191,10.254,0.859,14.77,3.755c3.338,2.142,5.267,5.221,6.045,9.014
	c0.757,3.694,0.646,7.371-0.629,10.985c-1.047,2.967-2.947,5.243-5.453,7.038c-2.795,2.003-5.999,3.017-9.371,3.361
	c-3.036,0.311-6.099,0.359-9.15,0.515C74.819,140.266,74.349,140.245,73.722,140.245z M73.8,122.772
	c0,2.077,0.028,4.153-0.015,6.229c-0.015,0.73,0.209,1.018,0.95,0.969c1.625-0.106,3.254-0.14,4.878-0.258
	c3.284-0.237,5.799-2.17,6.304-5.702c0.479-3.341-0.9-6.936-4.818-7.691c-2.048-0.395-4.181-0.336-6.272-0.526
	c-0.894-0.081-1.061,0.315-1.041,1.111C73.835,118.859,73.803,120.816,73.8,122.772z"/>
</svg>
