<?xml version="1.0" encoding="utf-8"?>
<!-- Generator: Adobe Illustrator 16.0.4, SVG Export Plug-In . SVG Version: 6.00 Build 0)  -->
<!DOCTYPE svg PUBLIC "-//W3C//DTD SVG 1.1//EN" "http://www.w3.org/Graphics/SVG/1.1/DTD/svg11.dtd">
<svg version="1.1" id="Layer_1" xmlns="http://www.w3.org/2000/svg" xmlns:xlink="http://www.w3.org/1999/xlink" x="0px" y="0px"
	 width="561.956px" height="231.191px" viewBox="0 0 561.956 231.191" enable-background="new 0 0 561.956 231.191"
	 xml:space="preserve">
<path fill-rule="evenodd" clip-rule="evenodd" fill="#144A8A" d="M169.971,4.319c8.401,0,16.583,0,25.002,0
	c0,7.901,0,15.586,0,23.844c0.756-0.644,1.15-0.881,1.416-1.22c24.07-30.683,62.486-33.99,92.327-15.849
	c25.43,15.459,37.439,39.195,38.6,68.542c0.826,20.906-4.729,40.104-17.99,56.458c-18.597,22.935-42.929,32.429-72.077,27.869
	c-16.029-2.507-29.049-11.138-39.449-23.606c-0.389-0.467-0.785-0.927-1.898-1.347c0,15.325,0,30.649,0,45.974
	c0,15.334,0,30.667,0,46.206c-8.774,0-17.253,0-25.931,0C169.971,155.582,169.971,80.096,169.971,4.319z M195.814,81.629
	c0.521,18.736,6.85,34.061,20.088,46.423c17.141,16.006,43.233,17.507,61.917,3.441c27.698-20.852,31.635-63.665,8.296-90.194
	c-16.989-19.312-44.352-22.756-65.302-7.874C204.046,45.336,196.586,62.224,195.814,81.629z"/>
<path fill-rule="evenodd" clip-rule="evenodd" fill="#144A8A" d="M157.731,89.911c-43.674,0-87.33,0-130.994,0
	c0.825,19.408,14.239,41.375,37.287,48.934c19.249,6.314,49.071,2.843,63.077-26.187c8.981,0,18.002,0,27.371,0
	c-2.446,7.859-5.839,14.955-10.399,21.458c-14.636,20.868-35.334,30.07-60.233,30.983c-19.9,0.729-37.945-4.697-53.46-17.295
	c-18.671-15.158-28.632-35.011-30.174-58.98c-1.604-24.962,6.165-46.704,23.357-64.875c31.681-33.486,85.358-31.231,114.485,4.68
	c13.159,16.224,19.085,35.057,20.05,55.672c0.073,1.539,0.073,3.081,0.081,4.621C158.18,89.105,158.021,89.289,157.731,89.911z
	 M128.87,66.168c-3.524-19.067-22.849-42.676-50.728-42.226C51.607,24.371,31.852,46.79,28.32,66.168
	C61.833,66.168,95.336,66.168,128.87,66.168z"/>
<path fill-rule="evenodd" clip-rule="evenodd" fill="#144A8A" d="M507.887,115.379c14.187-22.295,11.431-53.413-5.373-71.953
	c-12.007-13.249-27.059-18.882-44.765-18.161c-29.021,1.182-49.447,20.989-55.273,50.115c-4.806,24.021-0.018,45.777,17.132,63.856
	c15.905,16.766,35.729,23.727,58.688,21.528c4.274-0.409,8.468-1.654,12.699-2.511c0.78-0.158,1.562-0.308,2.599,0.123
	c-0.707,0.405-1.37,0.938-2.127,1.197c-32.3,11.027-62.087,6.697-88.167-15.775c-17.55-15.122-26.31-34.856-27.225-58.135
	c-1.616-41.107,28.599-77.943,69.381-84.193c27.987-4.289,52.894,2.501,73.566,22.037c18.057,17.062,26.31,38.506,25.365,63.362
	c-0.636,16.754-6.158,31.813-16.232,45.205c-1.583-1.062-3.287-1.984-4.731-3.211C518.197,124.424,513.059,119.882,507.887,115.379z
	"/>
<path fill-rule="evenodd" clip-rule="evenodd" fill="#144A8A" d="M338.748,4.236c8.632,0,17.047,0,25.686,0
	c0,52.328,0,104.606,0,157.069c-8.535,0-17.02,0-25.686,0C338.748,108.984,338.748,56.792,338.748,4.236z"/>
<path fill-rule="evenodd" clip-rule="evenodd" fill="#2AACE3" d="M507.887,115.379c5.172,4.503,10.311,9.045,15.536,13.484
	c1.444,1.227,3.148,2.148,4.731,3.211c3.634,3.282,7.194,6.65,10.921,9.824c7.395,6.3,14.88,12.492,22.881,19.192
	c-1.392,0.17-2.116,0.334-2.84,0.335c-11.843,0.016-23.687,0.049-35.528-0.045c-1.327-0.01-2.932-0.421-3.933-1.232
	c-24.493-19.857-48.924-39.793-73.358-59.724c-0.388-0.316-0.688-0.738-1.315-1.423c14.224,0,28.139,0,42.752,0
	c5.05,4.215,10.608,8.881,16.202,13.503C505.189,113.542,506.566,114.425,507.887,115.379z"/>
<path fill-rule="evenodd" clip-rule="evenodd" fill="#FFFFFF" d="M195.814,81.629c0.772-19.405,8.232-36.293,24.999-48.204
	c20.95-14.883,48.313-11.438,65.302,7.874c23.339,26.53,19.401,69.343-8.296,90.194c-18.684,14.065-44.776,12.564-61.917-3.441
	C202.664,115.69,196.334,100.366,195.814,81.629z"/>
<path fill-rule="evenodd" clip-rule="evenodd" fill="#FFFFFF" d="M128.87,66.168c-33.534,0-67.036,0-100.549,0
	c3.532-19.378,23.287-41.797,49.821-42.226C106.021,23.492,125.346,47.101,128.87,66.168z"/>
<g>
</g>
<g>
</g>
<g>
</g>
<g>
</g>
<g>
</g>
<g>
</g>
</svg>
