<?xml version="1.0" encoding="utf-8"?>
<!-- Generator: Adobe Illustrator 16.0.4, SVG Export Plug-In . SVG Version: 6.00 Build 0)  -->
<!DOCTYPE svg PUBLIC "-//W3C//DTD SVG 1.1//EN" "http://www.w3.org/Graphics/SVG/1.1/DTD/svg11.dtd">
<svg version="1.1" id="Layer_1" xmlns="http://www.w3.org/2000/svg" xmlns:xlink="http://www.w3.org/1999/xlink" x="0px" y="0px"
	 width="163px" height="34px" viewBox="0 0 163 34" enable-background="new 0 0 163 34" xml:space="preserve">
<path fill="#6D8D24" d="M25.721,21.633h-2.702v-1.996h2.702c1.149,0,2.081-0.932,2.081-2.076c0-1.152-0.932-2.084-2.081-2.084
	h-3.952c-0.532,0-1.013,0.155-1.662,0.535c-0.122,0.068-0.588,0.411-0.755,0.546c-3.973,3.191-4.583,3.681-4.632,3.72
	c-0.158,0.125-0.56,0.43-0.835,0.58c-0.747,0.454-1.543,0.732-2.304,0.775H7.295c-2.246,0-4.075-1.828-4.075-4.072
	c0-2.25,1.829-4.079,4.075-4.079h2.696v1.994H7.295c-1.149,0-2.082,0.932-2.082,2.084c0,1.145,0.933,2.076,2.082,2.076
	c0,0,4.136-0.004,4.134-0.004c0.468-0.025,0.948-0.197,1.507-0.541l0.537-0.381c0,0,4.615-3.718,4.619-3.714
	c0.006-0.006,0.719-0.573,1.103-0.77c0.87-0.509,1.688-0.745,2.574-0.745h3.952c2.248,0,4.075,1.829,4.075,4.079
	C29.796,19.805,27.969,21.633,25.721,21.633 M20.556,26.51c0,2.246-1.828,4.076-4.076,4.076s-4.074-1.83-4.074-4.076v-2.535h1.993
	v2.535c0,1.148,0.933,2.084,2.081,2.084s2.082-0.936,2.082-2.084v-6.52l1.994-1.602V26.51z M12.406,7.334
	c0-2.247,1.826-4.074,4.074-4.074c2.276,0,4.128,1.795,4.128,4.008c0,2.244-1.852,4.074-4.128,4.074h-0.486V9.349h0.486
	c1.157,0,2.134-0.954,2.134-2.081c0-1.112-0.957-2.016-2.134-2.016c-1.148,0-2.081,0.935-2.081,2.082v7.795l-1.993,1.623V7.334z
	 M25.72,10.979c0,0-2.573,0-2.66,0c0-0.09,0-3.645,0-3.645c0-3.627-2.951-6.578-6.578-6.578S9.904,3.707,9.904,7.334
	c0,0,0,3.555,0,3.645c-0.087,0-2.606,0-2.606,0c-3.626,0-6.577,2.951-6.577,6.582c0,3.623,2.951,6.574,6.577,6.574
	c0,0,2.519,0,2.606,0c0,0.088,0,2.375,0,2.375c0,3.629,2.951,6.574,6.578,6.574s6.578-2.945,6.578-6.574c0,0,0-2.287,0-2.375
	c0.087,0,2.66,0,2.66,0c3.625,0,6.578-2.951,6.578-6.574C32.298,13.93,29.345,10.979,25.72,10.979z"/>
<path d="M55.153,21.215c-1.867,0-2.594-1.189-2.594-4.24c0-3.051,0.727-4.239,2.594-4.239c1.849,0,2.57,1.188,2.57,4.239
	C57.723,20.025,57.002,21.215,55.153,21.215 M55.153,11.998c-2.543,0-4.461,2.141-4.461,4.977c0,2.849,1.918,5,4.461,5
	c2.529,0,4.435-2.15,4.435-5C59.588,14.139,57.682,11.998,55.153,11.998z"/>
<path d="M143.883,19.73h-0.002c-1.137,1.018-1.852,1.131-2.285,1.131c-0.691,0-1.275-0.738-1.275-1.617
	c0-1.529,1.229-2.342,3.559-2.342h0.004V19.73 M146.707,20.891l-0.016-0.027c-0.025-0.041-0.068-0.068-0.119-0.072
	c-0.045-0.004-0.096,0.014-0.127,0.051c-0.186,0.213-0.361,0.324-0.507,0.324c-0.312,0-0.399-0.189-0.399-0.854v-5.149
	c0-2.099-1.074-3.164-3.191-3.164c-1.389,0-3.002,0.901-3.002,2.061c0,0.56,0.412,0.983,0.957,0.983
	c0.527,0,0.957-0.442,0.957-0.983c0-0.338-0.15-0.621-0.42-0.795c0,0-0.004-0.002-0.006-0.004l0.006-0.006
	c0.096-0.133,0.49-0.565,1.508-0.565c1.035,0,1.535,0.518,1.535,1.582v1.959h-0.004c-2.559,0-5.307,1.04-5.307,3.321
	c0,1.352,0.955,2.33,2.273,2.33c1.02,0,2.051-0.475,3.072-1.406l0.01-0.008v0.014c0.139,0.77,0.82,1.354,1.586,1.354
	c0.545,0,1.035-0.346,1.277-0.551c0.055-0.053,0.072-0.135,0.033-0.199L146.707,20.891z"/>
<path d="M87.863,19.73h-0.004c-1.139,1.018-1.85,1.131-2.285,1.131c-0.693,0-1.277-0.738-1.277-1.617
	c0-1.529,1.23-2.342,3.561-2.342h0.006V19.73 M90.777,21.041l-0.107-0.178c-0.027-0.041-0.068-0.068-0.119-0.072
	c-0.049-0.004-0.096,0.014-0.127,0.051c-0.189,0.213-0.362,0.324-0.508,0.324c-0.311,0-0.4-0.189-0.4-0.854v-5.149
	c0-2.099-1.074-3.164-3.189-3.164c-1.388,0-3.004,0.901-3.004,2.061c0,0.56,0.412,0.983,0.959,0.983
	c0.527,0,0.957-0.442,0.957-0.983c0-0.338-0.15-0.621-0.42-0.795c0,0-0.007-0.002-0.007-0.004l0.005-0.006
	c0.096-0.133,0.492-0.565,1.51-0.565c1.035,0,1.537,0.518,1.537,1.582v1.959h-0.006c-2.559,0-5.309,1.04-5.309,3.321
	c0,1.352,0.957,2.33,2.275,2.33c1.02,0,2.051-0.475,3.069-1.406l0.013-0.008l0.002,0.014c0.137,0.77,0.816,1.354,1.58,1.354
	c0.549,0,1.037-0.346,1.281-0.551c0.059-0.053,0.07-0.135,0.031-0.199L90.777,21.041z"/>
<path d="M125.24,14.795c0,0,0,0.003-0.002,0.003C125.24,14.795,125.24,14.795,125.24,14.795 M126.104,12.938l-1.131-0.354
	c-1.543-0.432-2.424-1.426-2.424-2.734c0-1.651,1.17-2.803,2.852-2.803c2.396,0,3.252,1.679,3.252,3.25
	c0,0.248,0.111,0.369,0.346,0.369c0.229,0,0.346-0.125,0.346-0.369V6.49c0-0.179-0.047-0.347-0.369-0.347
	c-0.289,0-0.322,0.209-0.322,0.37c0,0.26-0.201,0.52-0.402,0.663l-0.006,0.004l-0.006-0.007c-0.361-0.392-1.221-1.054-2.908-1.054
	c-2.057,0-4.273,1.57-4.273,4.108c0,2.277,1.377,3.892,3.988,4.669c0.004,0,0.004,0.001,0.004,0.001
	c0.016,0.006,0.029,0.006,0.041,0.006c-0.012,0-0.023,0-0.035-0.003l0.908,0.258c1.041,0.287,2.783,1.055,2.783,2.969
	c0,1.838-1.615,2.828-3.135,2.828c-2.268,0-3.791-1.523-3.791-3.791c0-0.187-0.029-0.37-0.346-0.37c-0.229,0-0.348,0.13-0.348,0.37
	v4.373c0,0.121,0,0.369,0.371,0.369c0.217,0,0.322-0.131,0.322-0.395c0-0.352,0.188-0.697,0.451-0.827l0.004-0.003l0.002,0.003
	c0.422,0.388,1.576,1.29,3.24,1.29c2.816,0,4.861-1.885,4.861-4.484C130.379,15.284,128.939,13.752,126.104,12.938z"/>
<path d="M156.582,15.453c0.305-1.778,1.178-2.717,2.523-2.717c2.025,0,2.107,2.69,2.107,2.72c0,0,0,0.001,0,0.005h-4.631
	C156.582,15.457,156.582,15.453,156.582,15.453 M162.352,18.84c-0.215,0-0.309,0.225-0.371,0.369
	c-0.457,1.301-1.436,1.982-2.828,1.982c-1.797,0-2.709-1.359-2.709-4.043c0,0.003,0.016-0.588,0.021-0.877c0.072,0,6.014,0,6.014,0
	c0.081,0,0.15-0.059,0.154-0.14l0.004-0.05c0.006-0.085,0.014-0.175,0.014-0.263c0-1.009-0.348-1.947-0.969-2.638
	c-0.697-0.774-1.658-1.182-2.789-1.182c-2.121,0-4.318,1.861-4.318,4.977c0,3.089,2.23,5,4.295,5c1.029,0,2.881-0.305,3.756-2.348
	c0.047-0.113,0.094-0.324,0.094-0.442C162.719,19.016,162.594,18.84,162.352,18.84z"/>
<path d="M80.646,20.844l-1.317,0.018v-0.004c0-0.002,0-14.041,0-14.041c0-0.27-0.176-0.418-0.343-0.418
	c-0.011,0.003-0.488,0.039-0.485,0.039l-0.844,0.06c0.013-0.003-1.271-0.019-1.271-0.019c0.001,0-0.124-0.005-0.124-0.005
	c-0.043,0-0.082,0.016-0.111,0.045c-0.03,0.028-0.047,0.065-0.047,0.11V7.12c0,0.044,0.018,0.085,0.051,0.112
	c0.031,0.032,0.073,0.046,0.115,0.041l0.115-0.008c0.194-0.022,0.51-0.054,1.282-0.054h0.005v13.65l-1.287-0.018l-0.123-0.004
	c-0.041,0-0.082,0.016-0.111,0.045c-0.03,0.029-0.047,0.066-0.047,0.109v0.494c0,0.041,0.018,0.082,0.049,0.111
	c0.031,0.029,0.075,0.043,0.117,0.039l0.084-0.004c0.24-0.025,0.681-0.068,2.113-0.068h0.094c1.182,0,1.778,0.033,2.072,0.059
	c0.04,0.004,0.084-0.01,0.116-0.037c0.033-0.029,0.048-0.07,0.048-0.115v-0.477c0-0.041-0.013-0.082-0.042-0.109
	C80.726,20.857,80.687,20.844,80.646,20.844"/>
<path d="M66.465,11.998c-1.23,0-2.185,0.683-2.63,1.873l-0.012,0.037v-1.213c0-0.25-0.178-0.417-0.346-0.417
	c-0.011,0-0.514,0.04-0.514,0.04l-0.814,0.056c0.014,0-1.198-0.019-1.198-0.019c-0.041,0-0.081,0.017-0.111,0.045
	c-0.027,0.03-0.045,0.071-0.045,0.11v0.47c0,0.043,0.02,0.086,0.051,0.116c0.033,0.027,0.074,0.043,0.117,0.039
	c0.202-0.024,0.518-0.045,1.197-0.045h0.008v7.771l-1.217-0.018c-0.041,0-0.082,0.018-0.111,0.045
	c-0.027,0.029-0.045,0.066-0.045,0.107v0.473c0,0.043,0.018,0.084,0.05,0.113c0.03,0.029,0.071,0.043,0.116,0.041
	c0.264-0.023,0.871-0.057,1.976-0.057h0.093c1.109,0,1.676,0.033,1.955,0.057c0.045,0.006,0.086-0.01,0.119-0.041
	c0.031-0.027,0.049-0.07,0.049-0.111v-0.475c0-0.041-0.018-0.078-0.047-0.107c-0.029-0.031-0.068-0.045-0.108-0.045l-1.175,0.018
	v-0.004c0-0.002,0-4.046,0-4.046c0-1.751,0.492-3.113,1.353-3.743c0.397-0.29,0.844-0.384,1.229-0.261l0.011,0.002l-0.008,0.007
	c-0.158,0.158-0.252,0.328-0.252,0.683c0,0.589,0.432,1.036,1.003,1.036c0.601,0,1.039-0.504,1.039-1.199
	C68.198,12.548,67.484,11.998,66.465,11.998"/>
<path d="M45.5,14.469h-1.605V7.352H45.5c2.381,0,3.184,0.892,3.184,3.533C48.684,13.561,47.881,14.469,45.5,14.469 M45.5,6.495
	l-1.787,0.026l-0.892,0.022c-1.337,0-1.99-0.027-2.299-0.051c-0.043-0.002-0.085,0.012-0.115,0.041
	c-0.034,0.029-0.051,0.07-0.051,0.112v0.433c0,0.04,0.017,0.08,0.046,0.107c0.03,0.03,0.069,0.045,0.11,0.044l1.516-0.018v0.004
	c0,0.002,0,12.131,0,13.646l-1.168-0.016c-0.041,0-0.08,0.016-0.11,0.043c-0.029,0.029-0.044,0.066-0.044,0.109v0.471
	c0,0.043,0.018,0.084,0.048,0.113c0.03,0.029,0.075,0.043,0.118,0.041c0.25-0.023,0.836-0.057,1.949-0.057h0.282
	c1.195,0,1.765,0.033,2.03,0.057c0.044,0.006,0.086-0.01,0.119-0.039c0.032-0.027,0.049-0.072,0.049-0.113v-0.477
	c0-0.039-0.014-0.08-0.044-0.107c-0.03-0.029-0.069-0.045-0.11-0.043h-0.04c0.001,0-0.853,0.012-1.212,0.018v-0.004
	c0-0.002,0-4.652,0-5.557H45.5c3.282,0,5.239-1.653,5.239-4.416C50.739,8.138,48.782,6.495,45.5,6.495z"/>
<path d="M74.663,12.35c-0.001,0-1.772,0.019-2.309,0.024v-0.008c0,0.003,0-2.435,0-2.435c0-0.357-0.023-0.675-0.3-0.675
	c-0.303,0-0.372,0.227-0.627,1.493c-0.001,0.003-0.001,0.005-0.001,0.006c-0.234,1.245-0.632,1.483-1.71,1.566
	c-0.079,0.007-0.14,0.073-0.14,0.154v0.48c0,0.084,0.067,0.154,0.151,0.154l0.322,0.004c-0.002,0,0.434,0.007,0.669,0.01v0.012
	c0-0.006,0,6.641,0,6.641c0,1.246,0.718,1.99,1.922,1.99c1.181,0,1.654-0.457,1.802-0.652c0.033-0.045,0.041-0.109,0.017-0.158
	l-0.137-0.287c-0.022-0.047-0.064-0.076-0.111-0.088c-0.051-0.008-0.099,0.01-0.134,0.043c-0.192,0.186-0.576,0.498-1.01,0.498
	c-0.309,0-0.713-0.098-0.713-0.949v-7.049l1.906,0.008l0.402,0.006c0.17,0,0.346-0.149,0.346-0.395
	C75.008,12.496,74.832,12.35,74.663,12.35"/>
<path d="M136.902,12.35c-0.002,0-1.771,0.019-2.309,0.024v-0.008c0,0.003,0-2.435,0-2.435c0-0.357-0.023-0.675-0.301-0.675
	c-0.336,0-0.398,0.181-0.627,1.32c0,0.002,0,0.004-0.004,0.005c-0.229,1.236-0.629,1.642-1.707,1.737
	c-0.08,0.01-0.141,0.076-0.141,0.154v0.48c0,0.04,0.018,0.082,0.045,0.109c0.029,0.031,0.07,0.044,0.113,0.044l0.986-0.015v0.003
	c0,0.003,0,6.683,0,6.683c0,1.246,0.719,1.99,1.92,1.99c1.18,0,1.652-0.457,1.803-0.652c0.039-0.047,0.043-0.109,0.02-0.158
	l-0.018-0.033l-0.12-0.254c-0.024-0.047-0.065-0.076-0.112-0.088c-0.053-0.008-0.1,0.01-0.135,0.043
	c-0.191,0.186-0.576,0.498-1.012,0.498c-0.305,0-0.711-0.098-0.711-0.949v-7.085l1.91,0.036c-0.006,0,0.395,0.014,0.395,0.014
	c0.174,0,0.35-0.149,0.35-0.395C137.248,12.496,137.072,12.35,136.902,12.35"/>
<path d="M153.045,21.113c0.035-0.047,0.041-0.109,0.014-0.158l-0.039-0.084l-0.098-0.207c-0.023-0.043-0.062-0.074-0.112-0.084
	c-0.048-0.008-0.099,0.01-0.134,0.041c-0.189,0.188-0.574,0.5-1.01,0.5c-0.305,0-0.713-0.098-0.713-0.949v-7.085l1.908,0.036
	l0.398,0.014c0.175,0,0.352-0.149,0.352-0.395c0-0.246-0.177-0.392-0.35-0.392c0,0-1.77,0.019-2.309,0.024v-0.008
	c0,0.003,0-2.435,0-2.435c0-0.357-0.023-0.675-0.299-0.675c-0.34,0-0.398,0.181-0.629,1.32v0.002c0,0.001,0,0.002,0,0.003
	c-0.232,1.236-0.629,1.642-1.716,1.737c-0.075,0.01-0.134,0.076-0.134,0.154v0.48c0,0.04,0.014,0.082,0.045,0.109
	c0.027,0.031,0.068,0.044,0.109,0.044l0.99-0.015v0.003c0,0.003,0,6.683,0,6.683c0,1.246,0.719,1.99,1.92,1.99
	C152.42,21.766,152.893,21.309,153.045,21.113"/>
<path d="M102.945,20.846l-1.259,0.016v-0.004c0-0.002,0-5.388,0-5.388c0-1.582-0.503-3.471-2.907-3.471
	c-1.504,0-2.912,1.35-3.404,2.65l-0.012,0.037v-1.99c0-0.25-0.18-0.417-0.346-0.417c-0.01,0-0.516,0.04-0.516,0.04
	c0.002,0-0.812,0.056-0.812,0.056c0.012,0-1.199-0.019-1.199-0.019s-0.025-0.001-0.037-0.001c-0.043,0-0.082,0.015-0.111,0.042
	c-0.03,0.032-0.047,0.069-0.047,0.111V13c0,0.043,0.017,0.082,0.047,0.109c0.029,0.03,0.07,0.045,0.115,0.043l0.035-0.003
	c-0.002,0,0.852-0.018,1.215-0.026v0.005c0,0.001,0,6.641,0,7.733l-1.217-0.018c0.002,0-0.025,0-0.037-0.002
	c-0.043,0-0.082,0.016-0.111,0.045c-0.03,0.027-0.047,0.068-0.047,0.107v0.488c0,0.084,0.07,0.152,0.154,0.152
	c0.004,0,0.014,0,0.016,0c0.207-0.025,0.574-0.068,2.012-0.068h0.092c1.334,0,1.787,0.027,2.012,0.051
	c0.043,0.006,0.086-0.01,0.117-0.039c0.031-0.027,0.051-0.068,0.051-0.111v-0.471c0-0.041-0.018-0.078-0.047-0.107
	c-0.027-0.027-0.068-0.045-0.107-0.045l-1.23,0.018v-0.004c0-0.002,0-3.529,0-3.529c0-2.286,1.58-4.451,3.252-4.451
	c1.031,0,1.414,0.486,1.414,1.793v6.191l-1.273-0.018c-0.041,0-0.08,0.014-0.109,0.043c-0.029,0.027-0.047,0.068-0.047,0.109v0.477
	c0,0.043,0.018,0.084,0.051,0.111c0.031,0.029,0.072,0.045,0.117,0.039c0.287-0.023,0.775-0.057,2.031-0.057h0.096
	c0.998,0,1.664,0.016,2.041,0.043c0.041,0.004,0.084-0.01,0.115-0.039c0.031-0.027,0.049-0.068,0.049-0.111v-0.463
	c0-0.041-0.018-0.078-0.047-0.107C103.027,20.861,102.986,20.844,102.945,20.846"/>
<path d="M108.338,21.191c-1.471,0-2.125-1.301-2.125-4.216c0-2.916,0.654-4.215,2.125-4.215c1.676,0,2.756,1.654,2.756,4.215
	C111.094,19.535,110.014,21.191,108.338,21.191 M114.199,21.484V20.99c0-0.045-0.02-0.088-0.053-0.117
	c-0.031-0.027-0.078-0.039-0.121-0.033c-0.186,0.023-0.494,0.068-1.268,0.068h-0.008V6.817c0-0.248-0.18-0.418-0.346-0.418
	c-0.014,0.003-0.486,0.039-0.482,0.039l-0.844,0.06c0.012-0.003-1.117-0.018-1.117-0.018c-0.041-0.001-0.078,0.015-0.111,0.045
	c-0.027,0.028-0.043,0.069-0.043,0.108v0.461c0,0.045,0.02,0.086,0.049,0.114c0.033,0.03,0.076,0.043,0.119,0.039
	c0.18-0.017,0.488-0.036,1.113-0.036h0.006v6.497l-0.014-0.024c-0.621-1.055-1.654-1.686-2.766-1.686c-2.373,0-3.967,2-3.967,4.977
	c0,2.943,1.631,5,3.967,5c1.105,0,2.139-0.639,2.766-1.711l0.014-0.025v1.039c0,0.252,0.18,0.416,0.348,0.416
	c0.008,0,0.482-0.031,0.482-0.031l0.844-0.049c-0.012,0,1.277,0.025,1.277,0.025c0.041,0,0.078-0.016,0.109-0.045
	C114.186,21.566,114.199,21.525,114.199,21.484z"/>
<path d="M107.571,28.857c0,0.744-0.415,1.184-1.11,1.184c-0.694,0-1.107-0.439-1.107-1.184v-3.102h-0.667v3.102
	c0,1.324,0.917,1.796,1.774,1.796c0.861,0,1.778-0.472,1.778-1.796v-3.102h-0.668V28.857"/>
<path d="M114.86,29.539c-0.164-0.275-2.19-3.783-2.19-3.783h-0.741v4.819h0.668c0,0,0-3.393,0-3.704
	c0.161,0.272,2.146,3.704,2.146,3.704h0.783v-4.819h-0.666C114.86,25.756,114.86,29.227,114.86,29.539"/>
<rect x="119.241" y="25.756" width="0.668" height="4.819"/>
<path d="M125.146,29.703c-0.079-0.23-1.41-3.947-1.41-3.947h-0.709l1.794,4.819h0.637l1.825-4.819h-0.675
	C126.608,25.756,125.388,29.059,125.146,29.703"/>
<path d="M130.965,28.404c0.089,0,1.71,0,1.71,0v-0.608c0,0-1.621,0-1.71,0c0-0.086,0-1.348,0-1.429c0.089,0,1.8,0,1.8,0v-0.611
	h-2.466v4.819h2.55v-0.609c0,0-1.795,0-1.884,0C130.965,29.88,130.965,28.49,130.965,28.404"/>
<path d="M137.385,27.796c0,0-0.301,0-0.375,0c0-0.086,0-1.348,0-1.429c0.074,0,0.359,0,0.359,0c0.637,0,1.058,0.046,1.058,0.688
	C138.427,27.741,137.631,27.796,137.385,27.796 M138.654,28.644c0-0.005-0.016-0.034-0.016-0.034
	c-0.086-0.188-0.184-0.353-0.358-0.465c0.5-0.172,0.816-0.579,0.816-1.089c0-0.849-0.509-1.3-1.464-1.3h-1.292v4.819h0.669
	c0,0,0-2.083,0-2.171c0.068,0,0.271,0,0.271,0c0.392,0,0.55,0,0.796,0.549c0.002,0.002,0.049,0.115,0.666,1.556l0.027,0.066h0.737
	L138.654,28.644z"/>
<rect x="148.695" y="25.756" width="0.668" height="4.819"/>
<path d="M144.024,27.776c-0.459-0.242-0.852-0.451-0.852-0.803c0-0.64,0.678-0.688,0.888-0.688c0.316,0,0.611,0.059,0.785,0.159
	l0.133,0.074l0.099-0.564c0-0.002,0.018-0.089,0.018-0.089l-0.083-0.029c-0.402-0.146-0.822-0.16-0.944-0.16
	c-0.918,0-1.562,0.539-1.562,1.306c0,0.711,0.649,1.066,1.221,1.38c0.462,0.254,0.889,0.488,0.889,0.846
	c0,0.523-0.344,0.834-0.93,0.834c-0.384,0-0.687-0.077-0.959-0.253l-0.146-0.087l-0.072,0.712l0.07,0.033
	c0.22,0.094,0.579,0.207,1.086,0.207c0.807,0,1.617-0.435,1.617-1.407C145.281,28.445,144.613,28.091,144.024,27.776"/>
<path d="M152.258,26.367c0,0,1.337,0,1.423,0c0,0.091,0,4.208,0,4.208h0.669c0,0,0-4.117,0-4.208c0.089,0,1.424,0,1.424,0v-0.611
	h-3.516V26.367"/>
<path d="M160.061,27.914c-0.07-0.118-1.33-2.129-1.33-2.129l-0.042-0.029h-0.756l1.807,2.801l-0.013,2.019h0.672v-2.042
	c0.005,0.004,1.691-2.614,1.691-2.614l0.107-0.163h-0.749C161.448,25.756,160.138,27.798,160.061,27.914"/>
</svg>
