<?xml version="1.0" encoding="utf-8"?>
<!-- Generator: Adobe Illustrator 16.0.4, SVG Export Plug-In . SVG Version: 6.00 Build 0)  -->
<!DOCTYPE svg PUBLIC "-//W3C//DTD SVG 1.1//EN" "http://www.w3.org/Graphics/SVG/1.1/DTD/svg11.dtd">
<svg version="1.1"
	 id="Layer_1" xmlns:dc="http://purl.org/dc/elements/1.1/" xmlns:cc="http://creativecommons.org/ns#" xmlns:rdf="http://www.w3.org/1999/02/22-rdf-syntax-ns#" xmlns:svg="http://www.w3.org/2000/svg" xmlns:sodipodi="http://sodipodi.sourceforge.net/DTD/sodipodi-0.dtd" xmlns:inkscape="http://www.inkscape.org/namespaces/inkscape"
	 xmlns="http://www.w3.org/2000/svg" xmlns:xlink="http://www.w3.org/1999/xlink" x="0px" y="0px" width="526.32px"
	 height="342.719px" viewBox="42.84 148.14 526.32 342.719" enable-background="new 42.84 148.14 526.32 342.719"
	 xml:space="preserve">
<g transform="translate(0,-952.36218)">
	<path fill="#444444" d="M80.134,1100.502c-20.31,0-37.294,16.424-37.294,36.72v269.281c0,20.294,16.984,36.719,37.294,36.719
		h451.732c20.31,0,37.294-16.425,37.294-36.719v-269.281c0-20.295-16.984-36.72-37.294-36.72H80.134z M86.445,1124.982h439.11
		l-208.845,186.66c-5.208,4.654-16.212,4.654-21.42,0L86.445,1124.982z M67.32,1140.664l152.809,136.553L67.32,1403.825V1140.664z
		 M544.68,1140.664v263.161l-152.809-126.608L544.68,1140.664z M238.68,1293.856l40.354,35.955
		c15.304,13.678,38.628,13.678,53.932,0l40.354-35.955l150.896,124.886H87.784L238.68,1293.856L238.68,1293.856z"/>
</g>
</svg>
