<?xml version="1.0" encoding="utf-8"?>
<!-- Generator: Adobe Illustrator 16.0.4, SVG Export Plug-In . SVG Version: 6.00 Build 0)  -->
<!DOCTYPE svg PUBLIC "-//W3C//DTD SVG 1.1//EN" "http://www.w3.org/Graphics/SVG/1.1/DTD/svg11.dtd">
<svg version="1.1" id="Layer_1" xmlns="http://www.w3.org/2000/svg" xmlns:xlink="http://www.w3.org/1999/xlink" x="0px" y="0px"
	 width="259.2px" height="259.2px" viewBox="0 0 259.2 259.2" enable-background="new 0 0 259.2 259.2" xml:space="preserve">
<rect y="0.001" opacity="0.25" enable-background="new    " width="259.2" height="259.199"/>
<polygon fill="none" points="145,87.8 114.2,87.8 114.2,140.6 98.511,140.6 129.6,187.234 160.689,140.6 145,140.6 "/>
<polygon fill="none" points="167,38.111 167,70.2 199.089,70.2 "/>
<path fill="none" d="M162.6,35H57v189.2h145.2V74.6h-39.6V35z M168.911,136.2L129.6,195.166L90.29,136.2H109.8V83.4h39.6v52.8
	H168.911z"/>
<g>
	<path fill="#FFFFFF" d="M162.6,35H57v189.2h145.2V74.6h-39.6V35z M168.911,136.2L129.6,195.166L90.29,136.2H109.8V83.4h39.6v52.8
		H168.911z"/>
	<polygon fill="#FFFFFF" points="167,38.111 167,70.2 199.089,70.2 	"/>
	<polygon fill="#FFFFFF" points="145,87.8 114.2,87.8 114.2,140.6 98.511,140.6 129.6,187.234 160.689,140.6 145,140.6 	"/>
	<path fill="#FFFFFF" d="M0,0v259.2h259.199V0H0z M206.601,228.6h-154v-198h113.112l40.889,40.889V228.6z"/>
</g>
<rect x="-74.7" y="-103.5" fill="none" width="522" height="612"/>
</svg>
