<?xml version="1.0" encoding="utf-8"?>
<!-- Generator: Adobe Illustrator 16.0.4, SVG Export Plug-In . SVG Version: 6.00 Build 0)  -->
<!DOCTYPE svg PUBLIC "-//W3C//DTD SVG 1.1//EN" "http://www.w3.org/Graphics/SVG/1.1/DTD/svg11.dtd">
<svg version="1.1" id="Layer_1" xmlns="http://www.w3.org/2000/svg" xmlns:xlink="http://www.w3.org/1999/xlink" x="0px" y="0px"
	 width="2075.836px" height="468.468px" viewBox="0 0 2075.836 468.468" enable-background="new 0 0 2075.836 468.468"
	 xml:space="preserve">
<path fill-rule="evenodd" clip-rule="evenodd" fill="#FFFFFF" d="M721.996,435.253c-3.434-0.28-6.771,0.893-10.175,1.655
	c-0.297,0.067-0.598,0.358-0.856,0.313c-4.121-0.71-8.02,0.958-12.082,1.13c-4.743,0.2-9.554,0.825-14.143,2.008
	c-4.212,1.086-8.344,1.998-12.7,1.899c-3.664-0.082-7.332-0.027-10.998-0.013c-2.241,0.009-4.4,0.335-6.624,0.812
	c-2.147,0.46-4.24,1.094-6.368,1.604c-2.754,0.662-5.396,1.718-8.348,1.623c-4.995-0.16-9.998,0.004-14.996-0.059
	c-4.187-0.052-8.207,0.479-12.216,1.884c-2.504,0.878-5.417,0.518-8.021,1.19c-4.506,1.165-9.197,0.194-13.564,1.105
	c-6.74,1.406-13.433,0.321-20.116,0.852c-7.1,0.562-14.251,0.848-20.988,3.623c-0.997,0.41-2.23,0.232-3.35,0.365
	c-1.248,0.148-2.598-0.48-3.736,0.694c-0.348,0.36-1.433,0.519-1.814,0.25c-2.243-1.58-4.743-0.721-7.119-0.954
	c-2.212-0.217-4.533,0.613-6.629-0.937c-0.539-0.397-1.688-0.267-2.445-0.027c-6.288,1.989-12.732,0.705-19.094,0.878
	c-2.631,0.071-4.99,0.829-7.441,1.433c-4.265,1.051-8.378,2.929-12.893,2.625c-2.208-0.148-4.542-0.254-6.556-1.047
	c-4.16-1.64-8.24-1.426-12.161,0.176c-2.047,0.837-4.464,0.216-6.242,1.867c-0.268,0.25-1.137,0.244-1.438,0
	c-1.559-1.26-3.478-1.343-5.089-0.879c-3.484,1.001-7.22,0.739-10.567,2.22c-4.43,1.96-8.975,2.874-13.883,2.762
	c-9.993-0.227-20.003,0.18-29.989-0.168c-5.266-0.183-10.083,1.427-15.061,2.405c-3.429,0.674-9.205,0.891-12.433,0.074
	c-2.437-0.616-4.994-1.437-7.42-1.234c-2.362,0.196-4.625,1.577-8.051,2.854c-4.911,0-11.083,0.299-17.206-0.118
	c-3.391-0.23-6.862-0.666-10.196-1.829c-4.54-1.584-5.903-1.387-12.657-0.087c-1.285,0.247-2.782,0.388-3.97-0.028
	c-4.304-1.505-8.193,0.256-12.307,0.855c-2.664,0.388-5.303,1.275-8.055,1.22c-2.831-0.058-5.845,0.61-8.458-0.147
	c-4.891-1.417-9.759-0.611-14.625-0.801c-1.68-0.065-3.375,0.728-5.086,0.899c-1.649,0.166-3.34,0.159-4.993,0.007
	c-2.372-0.219-4.716-0.772-7.09-0.933c-2.488-0.167-5.192,0.562-7.45-0.178c-3.399-1.112-6.405-0.426-9.735-0.026
	c-5.257,0.629-10.66,0.407-15.971,0.074c-3.075-0.192-6.034-1.499-9.12-2.094c-4.522-0.872-5.182-0.981-9.801-0.036
	c-1.942,0.397-3.934,0.503-6.116-0.545c-2.745-1.319-6.058-2.243-9.055-2.074c-5.046,0.284-10.155,0.812-15.103,2.035
	c-4.138,1.023-7.187,0.799-11.795,0.003c-2.804-0.484-5.517-1.708-8.542-1.263c-2.284,0.336-4.676-0.129-6.985,0.105
	c-5.601,0.569-11.024-1.275-16.586-1.039c-3.067-1.561-6.506-0.328-9.551-1.125c-4.224-1.104-8.444-0.432-12.604-0.972
	c-2.58-0.335-5.182-1.005-7.749-1.691c-3.303-0.883-6.711-1.657-10.059-2.409c-3.764-0.847-7.427-0.544-11.128-0.803
	c-4.695-0.327-9.324-1.158-14.084-1.144c-3.013,0.01-6.034-1.373-9.043-2.162c-0.59-0.154-1.122-0.567-1.715-0.672
	c-1.703-0.3-3.395,0.328-5.172-0.888c-1.257-0.859-3.542,0.437-4.994-1.133c-5.259,0.492-9.697-2.264-14.489-3.631
	c-1.065-0.304-2.229-0.334-3.35-0.354c-3.886-0.075-7.725-0.015-11.609-0.898c-3.505-0.799-8.511-5.392-8.914-9.018
	c-0.244-2.199-1.141-4.267-1.015-6.592c0.182-3.373,1.12-6.487,2.547-9.463c2.598-5.418,5.566-10.599,9.852-14.931
	c1.338-1.354,2.418-2.973,3.553-4.517c2.56-3.482,6.358-5.433,9.91-7.501c5.729-3.335,11.805-6.068,17.698-9.127
	c1.657-0.86,3.266-1.861,4.758-2.982c2.975-2.233,6.646-2.486,9.978-3.686c5.515-1.985,11.09-3.805,16.645-5.679
	c2.633-0.889,5.283-1.726,7.916-2.616c4.549-1.538,9.111-3.047,13.02-5.987c0.493-0.371,1.241-0.506,1.577-0.965
	c1.729-2.366,4.514-3.375,6.94-3.687c3.986-0.511,7.127-3.365,11.157-3.361c2.384-1.942,5.287-1.837,8.115-2.164
	c1.586-0.183,8.786-4.747,10.357-6.328c2.498-2.514,4.865-5.178,9.686-6.454c2.478-0.161,6.173-0.68,9.842-1.911
	c2.672-0.897,5.685-0.754,8.535-1.148c1.872-0.26,3.74-0.587,5.584-0.999c5.382-1.201,10.712-2.534,16.234-3.176
	c2.167-0.252,4.41-0.514,6.596-0.875c2.271-0.376,4.463-1.251,6.679-1.94c2.064-0.643,4.139-1.264,6.167-2.007
	c4.917-1.803,9.785-3.743,14.723-5.486c2.77-0.979,5.63-1.711,8.468-2.486c1.506-0.412,3.239-0.347,4.545-1.077
	c3.701-2.068,7.764-2.296,11.777-3.011c2.578-0.459,4.877-2.207,7.679-1.936c1.415-1.779,3.42-1.088,5.082-0.921
	c5.286,0.53,9.944-1.637,14.739-3.14c1.434-0.449,2.607-1.739,3.891-2.656c3.49-2.493,10.131-5.354,14.394-6.294
	c1.042-0.23,2.083-0.632,3.016-1.149c2.267-1.258,4.628-1.973,7.245-1.84c1.926,0.099,3.748-0.148,5.611-0.924
	c2.842-1.181,5.808-2.377,8.823-2.757c3.746-0.471,6.685-2.427,9.882-3.984c1.103-0.538,2.361-1.374,3.439-1.235
	c4.018,0.521,7.38-1.643,11.083-2.332c0.749-0.139,1.438-0.628,2.187-0.73c2.854-0.392,5.99-0.08,8.504-1.195
	c2.488-1.104,5.082-1.412,7.548-2.309c0.287-0.104,0.546-0.521,0.781-0.493c5.812,0.699,10.488-2.949,15.78-4.237
	c1-0.244,2.056-0.898,3.144-0.76c4.928,0.63,9.403-1.481,14.033-2.454c1.421-0.299,2.832-0.492,4.226-0.534
	c4.502-0.136,8.806-1.596,12.781-4.199c2.341-1.533,4.852-2.496,7.774-3.047c3.612-0.681,7.443-0.853,10.894-2.568
	c1.072-0.533,2.604-0.062,3.895-0.256c1.217-0.183,2.384-0.685,3.593-0.956c1.721-0.387,3.625,0.711,5.24-0.63
	c1.285-1.067,3.397,0.509,4.426-1.382c3.925,0.464,7.453-1.307,11.18-1.936c3.104-0.523,6.06-1.63,9.101-2.32
	c3.458-0.786,6.793-0.744,10.141-0.66c5.533,0.138,10.838-1.164,16.147-2.198c4.385-0.854,8.693-1.934,13.192-1.887
	c1.333,0.014,2.683,0.137,3.995-0.029c2.043-0.259,4.086,0.627,6.193-0.785c1.615-1.083,3.926,0.266,6.089-0.993
	c1.711-0.996,4.266-0.417,6.52-1.025c3.528-0.952,7.34-0.973,11.042-1.104c1.842-0.065,3.706,0.499,5.355,0.747
	c3.206,7.384,3.211,7.478,0.834,12.452c-4.328,2.592-9.145,4.273-14.357,4.698c-1.042,0.085-1.746,0.589-2.613,0.969
	c-2.727,1.197-5.809,1.53-8.663,1.871c-3.668,0.438-6.951,1.969-10.47,2.727c-2.067,0.445-4.645-0.576-6.345,1.474
	c-3.792-0.743-7.434,0.582-11.062,1.146c-4.216,0.656-8.446,0.402-12.587,0.983c-3.457,0.486-6.764,2.086-10.114,3.256
	c-4.03,1.407-8.035,2.886-12.415,2.614c-2.128-0.133-3.896,1.037-5.83,1.612c-1.635,0.485-3.27,0.978-4.928,1.371
	c-1.679,0.399-3.397,0.637-5.078,1.031c-1.049,0.245-2.039,0.785-3.093,0.958c-3.007,0.49-5.951,1.266-9.083,1.118
	c-1.801-0.085-3.682,0.637-5.458,1.209c-3.033,0.976-6.044,2.05-9.289,1.669c-1.381-0.162-2.71-0.75-4.091-0.951
	c-4.467-0.649-8.456,1.022-12.227,3.026c-5.034,2.676-10.422,3.887-15.923,5.079c-3.235,0.701-6.392,0.737-9.609,0.916
	c-1.376,0.076-2.814,0.428-4.072,0.991c-5.07,2.273-10.669,3.197-15.483,6.042c-0.888,0.524-1.596,0.985-2.629,0.931
	c-6.305-0.334-12.193,1.439-18.005,3.592c-0.435,0.161-0.908,0.428-1.331,0.376c-5.431-0.665-10.319,1.457-15.159,3.271
	c-2.905,1.089-5.687,2.085-8.764,1.718c-1.865-0.223-3.415,0.861-5.094,0.942c-1.895,0.092-3.225,1.1-4.79,1.796
	c-2.713,1.207-5.415,2.418-8.546,2.361c-1.689-0.031-3.386,0.621-5.085,0.929c-1.542,0.278-3.078-0.33-4.681,0.865
	c-1.256,0.937-3.595-0.679-4.988,1.141c-3.75-0.366-7.279,0.941-10.611,2.158c-2.879,1.052-5.724,2.265-8.673,3.182
	c-2.803,0.873-5.688,1.563-8.371,2.72c-2.543,1.096-4.991,2.384-7.586,3.417c-1.86,0.74-3.565,0.509-5.278,0.455
	c-4.239-0.132-8.1,0.737-12,2.487c-3.345,1.501-7.028,2.406-10.562,3.4c-3.894,1.095-7.437,3.165-11.456,3.784
	c-0.454,0.07-0.893,0.385-1.334,0.374c-4.891-0.113-9.095,1.96-13.356,3.988c-3.335,1.587-7.086,2.184-10.317,4.045
	c-2.163,1.246-4.111,2.967-6.393,3.879c-3.571,1.427-6.792,3.701-10.787,4.201c-1.583,0.197-3.561,1.093-4.419,2.325
	c-1.252,1.798-3.17,1.742-4.65,2.231c-2.824,0.935-5.988,1.445-8.945,1.232c-4.477-0.324-8.68,1.449-13.092,1.114
	c-1.942,1.603-4.507,1.097-6.682,1.97c-2.145,0.861-4.443,1.346-6.572,2.237c-2.131,0.893-4.258,1.904-6.166,3.189
	c-2.441,1.645-5.262,1.952-7.948,2.531c-5.802,1.25-11.608,2.426-17.356,3.947c-2.006,0.53-3.288,1.852-4.851,2.771
	c-4.042,2.376-5.762,3.256-10.707,4.379c-4.307,0.978-8.011,3.288-11.604,5.766c-4.277,2.948-8.612,5.816-12.806,8.879
	c-1.42,1.038-3.048,1.615-4.454,2.512c-5.829,3.72-10.186,9.026-14.411,14.395c-1.508,1.915-1.433,6.769-0.23,9.728
	c0.174,0.428,0.243,0.899,0.361,1.351c4.363,2.028,8.803,3.745,13.561,4.75c1.238,0.261,2.488,0.607,3.723,0.555
	c5.404-0.232,10.654,1.798,16.084,1.032c1.994,1.574,4.701,0.332,6.79,1.741c0.585,0.396,1.578,0.268,2.379,0.246
	c5.167-0.141,10.265,0.097,15.187,1.966c0.874,0.332,1.982,0.019,2.981,0.051c10.027,0.326,20.119,0.086,30.055,1.214
	c5.909,0.67,11.746,0.457,17.607,0.782c4.242-1.828,8.686-0.771,13.046-0.91c2.7,1.953,5.764,0.447,8.621,0.91
	c1.634-1.603,3.691-0.914,5.585-0.979c2.497-0.086,5.047-0.324,7.483,0.067c2.245,0.36,4.354,1.512,6.552,2.228
	c1.914,0.624,3.836,1.403,5.81,1.627c4.508,0.51,9.044,0.856,13.578,1.019c4.66,0.167,9.368,0.405,13.986-0.067
	c4.536-0.464,9.14-0.962,13.553-2.21c6.999-1.979,11.059-2.413,16.786-0.436c1.272,0.439,2.431,0.718,3.679,0.729
	c5.165,0.049,10.333,0.107,15.496-0.025c1.869-0.048,3.733-0.936,5.584-0.885c3.368,0.092,6.77,0.356,10.076,0.982
	c6.313,1.196,11.715,1.145,18.191,0.021c3.332-0.577,6.972-0.461,9.972,1.137c4.11,2.189,8.342,2.886,12.854,2.8
	c2.665-0.052,5.331-0.01,7.998-0.01c1.166,0,2.48,0.352,3.472-0.064c3.23-1.356,6.768-1.203,10.031-2.332
	c3.011-1.041,6.08-1.699,9.336-1.667c2.53,0.024,5.021,0.241,7.653-0.752c2.213-0.837,5.072-0.532,7.261,1.451
	c3.655,3.313,7.824,2.901,12.173,1.564c2.974-0.915,6.055-1.485,9.093-2.19c0.316-0.073,0.665,0.008,0.997-0.013
	c2.508-0.149,4.805,2.148,7.431,0.632c2.479-1.431,5.171-0.254,7.738-0.624c2.036-0.293,4.127,0.496,6.159-0.896
	c0.872-0.598,2.601-0.221,3.859,0.07c3.734,0.86,3.697,0.831,7.785-0.035c1.589-0.335,3.589-0.693,4.896-0.037
	c4.296,2.161,8.074,0.524,11.778-1.172c2.692-1.232,5.28-1.348,7.895-0.398c5.018,1.819,10.136,3.059,15.466,2.395
	c2.609-0.325,5.251-0.752,7.808-1.604c1.322-0.441,3.019-0.588,4.304-0.152c3.671,1.243,7.376,2.036,11.233,1.796
	c3.038-0.188,6.26-0.093,9.031-1.118c2.941-1.089,5.765-0.658,8.641-0.831c1.826-0.11,3.668,0.061,5.497-0.036
	c5.529-0.291,11.153-0.137,16.552-1.149c4.207-0.789,8.515-1.305,12.648-3.191c3.407-1.555,7.372-2.679,11.393-2.654
	c6.998,0.043,14,0.136,20.995-0.03c5.032-0.119,10.116-0.26,15.066-1.065c4.554-0.74,9.141-1.299,13.65-2.093
	c4.422-0.779,9.121-0.645,13.314-2.753c0.665-0.334,1.646,0.003,2.475-0.055c4.529-0.316,9.145-0.221,13.56-1.109
	c4.863-0.979,10.011-0.994,14.516-3.521c0.394-0.221,0.938-0.425,1.342-0.331c2.674,0.622,4.98-1.185,7.592-1.058
	c2.66,0.129,5.348-0.161,7.994,0.068c5.237,0.453,10-1.516,14.954-2.552c2.457-0.514,4.818-1.346,7.378-1.592
	c2.607-0.251,5.281-0.633,7.809-1.58c0.874-0.327,2.116-0.621,2.835-0.248c3.619,1.877,7.427,0.628,11.124,0.853
	c1.471,0.089,3.123-0.472,4.475-1.161c4.093-2.09,8.659-2.418,12.962-3.702c6.222-1.854,12.648-2.184,19.151-2.174
	c3.389,0.005,6.859-0.951,10.148-1.952c3.727-1.134,7.549-1.85,11.267-2.96c2.801-0.837,5.935-0.801,7.959-2.608
	c2.545-0.503,4.711-0.967,6.892-1.351c2.186-0.385,4.619,0.838,6.583-1.01c3.27,0.314,6.173-0.8,9.212-1.883
	c2.901-1.033,6.131-1.661,9.144-1.927c4.511-0.398,8.386-2.494,12.647-3.451c2.417-0.544,4.797-1.904,7.25-1.636
	c3.036,0.332,5.716-0.921,8.578-1.251c2.501-0.289,4.876-1.802,7.268-2.862c3.531-1.567,7.352-2.281,10.89-3.895
	c1.792-0.817,4.247,0.659,6.041-1.094c4.893,0.249,9.067-2.123,13.495-3.619c2.063-0.698,4.303-0.853,6.427-1.396
	c6.599-1.685,13.589-2.28,19.47-6.052c2.911-1.867,5.803-3.835,9.123-4.519c4.633-0.954,9.093-3.122,13.981-2.35
	c7.421-4.273,15.162-7.781,22.786-11.519c0.548-0.269,1.172-0.407,1.775-0.536c6.285-1.347,11.278-5.21,16.352-8.746
	c3.455-2.407,6.731-5.273,9.465-8.467c5.478-6.397,10.595-13.122,15.197-20.185c1.222-1.874,1.813-4.309,2.165-6.567
	c0.645-4.146,0.895-8.353,1.299-12.432c2.54-4.304,5.122-8.341,5.97-13.62c0.896-5.585,0.601-11.084,0.76-16.617
	c0.159-5.494,0.112-10.998-0.011-16.494c-0.038-1.702-0.613-3.393-0.956-5.085c-0.346-1.705,0.748-3.58-0.803-5.198
	c-0.429-0.447-0.205-1.573-0.187-2.387c0.116-4.987-0.894-9.756-2.682-14.389c-0.223-0.578-0.279-1.238-0.317-1.866
	c-0.281-4.606-2.387-12.186-4.254-16.737c-2.337-5.696-4.835-11.329-6.809-17.18c-0.979-2.902-2.774-5.527-3.791-8.421
	c-3.24-9.219-7.979-17.753-12.582-26.263c-4.564-8.44-8.561-17.165-13.278-25.515c-1.455-2.575-3.064-5.062-4.572-7.607
	c-0.31-0.524-0.468-1.138-0.72-1.699c-2.231-4.973-4.972-9.634-7.897-14.247c-2.794-4.407-4.735-9.352-7.112-14.028
	c-1.261-2.483-2.762-4.849-3.955-7.362c-1.119-2.36-2.034-4.825-2.937-7.28c-2.237-6.083-4.854-11.987-7.684-17.822
	c-0.907-1.869-1.753-4.038-1.464-6.413c0.26-2.135,0.055-4.327,0.055-6.845c1.268-1.683,2.707-3.591,4.141-5.494
	c1.852,0,3.506,0.102,5.144-0.021c3.444-0.258,6.095,1.407,8.589,3.417c4.235,3.414,6.143,8.3,8.116,13.128
	c0.175,0.428,0.169,0.941,0.389,1.337c2.329,4.187,3.847,8.777,6.088,12.965c4.033,7.534,8.411,14.908,13.066,22.075
	c2.897,4.461,4.875,9.339,7.408,13.954c2.669,4.862,4.808,10.012,7.401,14.919c1.529,2.893,3.19,5.828,5.354,8.24
	c1.751,1.952,2.931,4.161,4.082,6.36c2.602,4.972,5.546,9.723,8.537,14.456c0.323,0.513,0.444,1.149,0.724,1.696
	c2.818,5.498,5.48,11.087,8.527,16.456c2.771,4.881,4.561,10.099,6.637,15.258c1.756,4.364,3.426,9.123,7.119,12.648
	c1.097,0,2.214,0,3.336,0c2.225-2.685,4.797-4.75,8.296-5.39c0.444-0.081,0.872-0.524,1.28-0.489
	c5.749,0.505,11.386-0.82,17.086-0.968c1.851-0.048,3.71,0.791,5.585,0.901c3.724,0.219,7.268-1.394,11.088-1.038
	c3.8,0.354,7.83,0.786,11.449-0.094c5.087-1.235,10.116-0.911,15.12-0.722c7.257,0.273,14.37-1.167,21.586-1.156
	c1.694,0.003,3.378-0.709,5.087-0.923c1.57-0.196,3.259,0.309,4.604-1.005c0.171-0.166,0.646,0.001,0.978-0.026
	c4.027-0.327,8.06-0.623,12.082-1.008c3.302-0.316,5.438-2.312,7.089-5.041c1.23-2.034,2.623-3.97,3.799-5.733
	c6.006-0.831,11.081,0.822,16.15,2.753c3.03,1.154,5.453,3.231,7.026,5.739c1.894,3.017,4.443,4.761,8.094,6.293
	c4.826,0,10.317,0.093,15.803-0.046c2.202-0.056,4.395-0.595,6.584-0.962c2.027-0.34,4.311,0.942,6.109-0.97
	c0.156-0.167,0.645-0.001,0.977-0.025c4.361-0.329,8.733-0.562,13.08-1.027c3.797-0.406,7.191-1.966,10.194-4.326
	c1.504-1.18,2.958-2.427,4.433-3.643c1.091,0,2.093,0.122,3.056-0.02c5.947-0.875,10.058,3.04,14.705,5.56
	c1.272,2.642,4,4.5,4,7.858c0,1.926,1.459,3.488,0.485,5.886c-0.716,1.764-1.723,3.338-2.635,4.891
	c-0.816,1.39-2.436,2.452-3.912,3.283c-6.563,3.695-13.471,6.785-21.173,5.409c-4.391-0.785-8.818-1.159-13.209-1.742
	c-4.421-0.586-9.021,0.228-13.464-0.271c-2.405-0.271-5.021-0.381-7.317-1.542c-0.273-0.138-0.58-0.307-0.868-0.302
	c-5.39,0.089-10.662-1.74-16.081-0.998c-1.709,0.233-3.394,0.644-5.087,0.986c-1.703,0.345-3.633-0.809-5.172,0.837
	c-0.247,0.264-0.932,0.159-1.413,0.154c-4.498-0.041-8.844,1.542-13.181,1.768c-5.538,0.288-11.073,2.145-16.553,1.142
	c-9.196-1.683-18.484,0.124-27.575-1.074c-8.236-1.085-16.413-0.434-24.602-0.864c-1.708-0.09-3.388-0.659-5.089-0.957
	c-1.546-0.271-3.266,0.584-4.659-0.896c-0.32-0.34-1.269-0.139-1.923-0.104c-13.22,0.704-26.361-1.588-39.58-1.029
	c-3.493,0.147-6.998,0.022-10.262,0.022c-2.107,0.983-2.393,3.253-1.594,4.25c1.231,1.535,0.436,3.148,1.131,4.591
	c0.664,1.378,1.143,2.894,1.411,4.401c0.283,1.595-0.391,3.73,0.434,4.785c1.811,2.315-0.017,5.05,1.621,7.403
	c1.366,1.964,0.856,4.835,2.164,7.083c0.435,0.748,0.138,1.957,0.077,2.95c-0.1,1.635,0.186,3.105,0.948,4.617
	c0.619,1.228-0.623,2.959,0.793,4.176c0.197,0.169,0.299,0.597,0.255,0.874c-0.727,4.611,1.241,9.001,1.055,13.588
	c-0.181,4.491,0.541,9.096-0.208,13.467c-0.702,4.101-0.882,8.424-2.78,12.307c-0.263,0.539-0.222,1.37-0.023,1.967
	c1.757,5.287,1.52,8.202-1.549,14.548c-1.813,3.749-3.416,7.626-5.534,11.195c-3.046,5.13-5.664,10.542-9.669,15.087
	c-1.32,1.498-2.088,3.468-3.236,5.135c-3.601,5.233-7.833,9.918-12.322,14.418c-4.788,4.803-9.734,9.278-15.965,12.19
	c-1.69,0.79-3.248,2.041-4.593,3.357c-3.329,3.261-7.547,5.094-11.496,7.316c-1.97,1.11-4.075,2.104-6.417,2.617
	c-4.97,1.089-9.036,4.229-12.987,7.132c-3.468,2.549-7.267,3.462-11.165,4.531c-4.058,1.111-8.315,1.366-12.267,2.967
	c-1.999,0.809-4.323,1-6.113,2.101c-3.529,2.169-7.462,2.225-11.295,2.954c-3.058,0.581-6.203,1.105-9.035,2.305
	c-1.327,0.562-2.485,0.49-3.726,0.66c-2.526,0.347-5.052,0.903-7.585,0.939c-2.601,0.036-5.012,0.97-7.549,1.288
	c-2.768,0.348-5.298,2.346-8.201,2.999c-3.956,0.891-7.627,2.688-11.837,2.905c-3.045,0.157-6.047,1.454-9.068,2.204
	c-1.227,0.305-2.466,0.425-3.689,0.684c-1.211,0.257-2.39,0.915-3.589,0.933c-3.414,0.051-6.396,1.464-9.339,2.84
	c-4.679,2.187-9.442,3.511-14.673,3.284c-1.833-0.079-3.751-0.655-5.677,0.793c-1.223,0.92-3.24,0.144-5.073,0.94
	c-2.529,1.099-5.641,0.844-8.5,1.194c-4.834,0.596-9.385,2.108-13.692,4.354c-2.651,1.383-5.436,2.122-8.372,2.786
	c-4.092,0.924-8.302,1.263-12.341,2.702c-2.366,0.843-5.28,0.08-7.943,0.17C730.848,431.415,726.609,432.939,721.996,435.253z"/>
<path fill-rule="evenodd" clip-rule="evenodd" fill="#FFFFFF" d="M1488.352,191.642c3.529-0.51,7.015-1.725,10.541-2.19
	c4.576-0.605,8.844-2.047,13.224-3.205c1.327-0.351,2.621-0.93,3.84-1.575c6.694-3.544,13.804-6.108,20.858-8.778
	c3.902-1.478,8.035-2.396,12.052-3.414c3.757-0.953,7.952-0.335,11.941-0.142c1.662,0.08,3.36,0.683,4.924,1.334
	c7.2,3,13.395,7.449,18.411,13.428c1.608,1.917,3.143,4,4.212,6.244c2.092,4.394,4.83,8.358,7.476,12.398
	c1.459,2.229,2.844,4.504,3.799,6.023c1.93,0.605,2.961,0.929,4.269,1.339c2.177-1.492,5.073-0.375,7.713-0.916
	c2.576-0.528,5.291-0.519,7.739-1.806c0.785-0.412,1.953-0.125,2.945-0.107c5.747,0.104,10.673-2.1,15.338-5.231
	c2.962-1.989,5.771-4.01,7.413-7.354c0.342-0.698,1.583-0.918,2.338-1.458c2.312-1.652,4.59-3.354,6.776-4.96
	c1.676,0,3.179,0.089,4.668-0.018c3.799-0.272,6.996,1.135,9.354,3.919c4.034,4.765,9.238,7.956,14.481,11.004
	c3.154,1.834,6.798,2.891,10.313,4.003c0.951,0.301,1.707,0.627,2.533,1.172c2.643,1.745,5.508,2.968,8.779,2.922
	c2.333-0.034,4.672-0.105,6.997,0.021c2.479,0.134,4.696-0.665,6.771-1.775c6.032-3.225,12.665-4.836,18.995-7.251
	c1.438-0.549,2.875-1.102,5.02-1.922c2.335,0.429,5.061-0.937,7.814-2.091c4.158-1.742,8.484-2.88,12.793-4.163
	c5.443-1.621,11.091-2.707,16.287-5.301c3.139-1.568,6.727-2.257,10.136-3.265c4.446-1.313,8.99-2.232,13.286-4.136
	c1.607-0.712,3.806-0.863,5.539-0.917c3.771-0.116,6.9-2.25,10.584-2.466c2.275-0.134,4.472-1.432,6.756-1.651
	c2.235-0.213,4.413-0.845,6.54-1.27c5.812-1.16,11.899-0.933,17.474-3.594c2.189-1.047,4.991-0.757,7.48-1.244
	c3.682-0.72,7.345-1.547,10.995-2.412c4.765-1.128,9.447-2.558,14.431-2.619c2.698-0.032,5.695,0.004,7.992-1.132
	c2.022-0.999,4.018-0.08,5.623-0.918c1.73-0.902,3.409-0.69,5.134-0.927c4.036-0.553,7.979-1.608,11.958-2.453
	c3.986-0.847,7.904-1.963,11.937-2.696c5.253-0.955,10.704-0.643,15.83-2.709c2.435-0.981,5.396-0.554,8.027-1.163
	c4.114-0.95,8.344-1.362,12.379-2.671c0.596-0.193,1.267-0.311,1.885-0.257c3.925,0.34,7.601-1.486,11.593-1.103
	c3.962,0.381,8.124,0.733,11.959-0.062c6.557-1.359,13.08-0.643,19.611-0.817c6.494-0.174,12.997-0.094,19.494-0.009
	c2.381,0.031,4.75-0.393,7.15,0.842c1.253,0.644,3.367,0.355,4.771-0.254c1.353-0.587,2.177-0.608,3.502-0.023
	c1.27,0.56,2.855,0.401,4.49,0.578c3.718,2.12,7.477,4.703,11.586,6.469c3.518,1.513,6.687,3.547,9.53,5.859
	c5.792,4.709,9.247,10.874,9.177,18.632c-0.035,3.833,0.084,7.668-0.033,11.497c-0.102,3.318-0.963,6.495-2.56,9.424
	c-0.599,1.099-1.227,2.275-2.132,3.1c-4.708,4.289-9.705,8.216-15.284,11.336c-4.602,2.574-8.891,5.673-13.739,7.851
	c-1.903,0.855-3.84,1.251-5.75,1.854c-3.03,0.956-5.954,2.007-9.066,1.76c-4.271,3.877-9.719,4.381-14.696,5.989
	c-4.871,1.573-9.623,3.585-14.815,4.126c-1.444,0.149-2.733,1.439-4.191,1.88c-2.681,0.808-5.435,1.369-8.157,2.041
	c-1.813,0.448-3.927,0.474-5.356,1.473c-1.799,1.256-3.688,0.263-5.586,1.08c-2.313,0.995-5.292,1.407-7.891,1.311
	c-4.455-0.167-8.714,0.943-13.086,1.176c-1.209,0.064-2.375,0.738-3.591,0.928c-1.251,0.194-2.686-0.376-3.581,1.031
	c-2.547-0.444-5.116,0.586-7.748-0.613c-1.789-0.815-3.912-0.625-6.062,0.271c-2.108,0.877-4.428,1.517-6.944,1.445
	c-3.237-0.092-6.564-0.781-9.769,0.443c-2.758,1.054-5.732,1.647-8.53,2.215c-3.521,0.715-7.397,3.001-11.121,0.239
	c-2.45,0.52-4.888,1.12-7.356,1.53c-1.747,0.289-3.866-0.22-5.229,0.604c-1.774,1.072-3.449,0.859-5.164,0.812
	c-1.71-0.048-3.665,0.842-5.113-0.926c-0.134-0.163-0.645-0.062-0.973-0.016c-3.279,0.468-6.383-0.795-9.585-0.968
	c-3.157-0.17-6.33-0.037-9.496-0.037c-3.333,0-6.668,0.102-9.997-0.021c-7.195-0.266-14.413-0.379-21.571-1.072
	c-4.896-0.475-9.689-1.961-14.677-1.907c-2.868-1.787-6.056-0.667-9.083-1.01c-2.533-0.286-5.048-0.793-7.587-0.953
	c-2.656-0.167-5.33,0.005-7.995-0.07c-0.57-0.017-1.107-0.573-1.697-0.689c-4.013-0.787-8.014-1.696-12.062-2.237
	c-6.536-0.872-12.94-1.847-19.076-4.679c-2.685-1.239-5.741-2.285-9.004-2.49c-3.204-0.201-6.363-1.396-9.505-2.289
	c-4.865-1.383-9.812-1.887-14.836-1.542c-1.047,0.071-2.117,0.512-3.078,0.982c-4.197,2.051-8.668,3.251-13.142,4.495
	c-2.059,0.573-4.122,1.41-5.936,2.529c-4.254,2.625-9.097,3.869-13.637,5.715c-4.961,2.019-10.014,4.021-15.211,5.529
	c-3.993,1.157-7.987,2.252-11.653,4.477c-3.415,2.071-7.521,2.705-11.277,4.1c-3.889,1.443-7.859,2.899-11.844,3.947
	c-5.007,1.316-9.349,4.094-14.262,5.443c-4.201,1.155-7.583,4.218-11.938,4.987c-0.749,0.132-1.44,0.568-2.187,0.737
	c-1.685,0.38-3.373,0.83-5.085,0.975c-1.985,0.168-4.227,0.593-5.929-0.118c-1.665-0.694-3.889-0.336-5.073-2.294
	c-0.894-1.478-2.075-2.781-3.269-4.347c0.414-0.571,1.084-1.066,1.084-1.561c-0.008-4.849,3.313-7.061,7.002-8.934
	c6.323-3.214,12.592-6.512,19.143-9.294c5.671-2.409,11.361-4.806,17.14-6.881c7.41-2.663,14.585-5.829,21.808-8.913
	c3.965-1.693,8.116-2.928,12.151-4.439c2.728-1.021,4.738-2.509,6.713-4.451c0.848-2.376-0.194-4.364-1.673-6.055
	c-1.955-2.235-4.744-1.577-7.48-1.687c-4.42,4.265-10.249,6.117-16.006,7.964c-5.489,1.761-11.133,3.012-16.763,4.306
	c-4.785,1.101-9.776,1.692-14.463,3.587c-2.04,0.824-4.676,0.729-7.034,1.041c-5.808,0.771-11.663,1.706-17.563,1.101
	c-4.17-0.429-8.095,0.973-11.149,3.167c-5.676,4.078-12.104,6.308-18.416,8.741c-7.181,2.77-14.776,4.329-21.726,7.93
	c-3.367,1.744-7.435,2.118-11.164,3.189c-5.002,1.436-9.992,2.722-15.247,3.119c-2.504,0.189-5.007,1.112-7.591,0.845
	c-2.041-0.212-4.048-0.769-6.09-0.939c-1.985-0.166-4.006,0.081-5.991-0.079c-1.214-0.099-2.38-0.691-3.592-0.945
	c-4.911-1.027-9.953-1.627-14.719-3.111c-5.457-1.7-10.811-3.949-15.306-7.657c-4.519-3.729-6.931-6.785-8.421-10.408
	c-0.879-2.136-1.556-4.354-2.37-6.518c-0.271-0.722-0.688-1.39-1.077-2.161c-1.546,0-3.002,0-4.562,0
	c-0.604,0.604-1.311,1.311-1.998,1.998c-1.211,6.101-1.687,12.236-1.284,18.176c-1.786,3.073-3.635,5.796-5.017,8.737
	c-2.186,4.65-5.514,8.36-9.318,11.595c-3.11,2.646-6.368,5.538-10.081,6.967c-7.488,2.88-14.152,7.679-22.118,9.368
	c-3.076,2.229-6.645,3.228-10.234,4.268c-2.89,0.838-5.682,1.909-8.775,1.75c-3.375-0.175-6.555,0.882-9.778,1.7
	c-1.24,0.315-2.589,0.209-3.889,0.279c-6.194,0.337-12.486,0.12-18.544,1.209c-3.595,0.646-7.095,0.799-10.619,0.733
	c-8.557-0.158-16.999,1.505-25.584,1.143c-8.815-0.374-17.658-0.083-26.49-0.083c-8.664,0-17.402-0.691-25.971,0.215
	c-7.068,0.747-14.073,0.507-21.103,0.777c-3.402,0.132-6.753-2.029-10.053-0.9c-4.535,1.551-9.086,0.556-13.614,0.895
	c-1.16,0.086-2.347-0.098-3.493,0.053c-0.732,0.097-1.414,0.579-1.553,0.64c-2.39-0.266-4.256-0.648-6.121-0.652
	c-20.495-0.043-40.99-0.021-61.485-0.037c-2.302-0.002-5.009,0.59-6.798-0.405c-1.979-1.101-4.453,0.649-5.875-1.572
	c-2.165-0.004-4.328-0.011-6.493-0.011c-3.468-0.001-6.351-1.486-9.296-3.442c1.954-4.226,5.821-5.002,9.458-5.443
	c3.477-0.422,7.003-0.02,10.245-1.927c0.871-0.513,2.258-0.176,3.409-0.183c2.999-0.016,6.081,0.445,8.981-0.089
	c8.68-1.6,17.493,0.069,26.068-1.112c7.748-1.067,15.486,0.123,23.087-0.947c7.059-0.994,14.066-0.727,21.101-0.833
	c6.996-0.106,13.997,0.055,20.993-0.069c2.2-0.039,4.381-0.757,6.588-0.916c2.32-0.167,4.873,0.559,6.946-0.175
	c3.239-1.144,6.423-0.764,9.633-0.83c2.583-0.053,4.882-1.433,7.594-1.13c2.327,0.26,4.902,0.773,7.073-0.902
	c4.333,0,8.665,0.002,12.997-0.001c2.244-0.001,4.419,0.001,6.619-0.916c1.854-0.773,4.281,0.852,6.061-1.072
	c0.077-0.083,0.322,0.001,0.488-0.013c4.195-0.331,8.394-0.613,12.58-1.02c2.207-0.214,4.386-0.696,6.588-0.963
	c2.207-0.269,4.433,0.333,6.646-0.902c1.144-0.639,2.951,0.016,4.432-0.152c1.217-0.138,2.378-0.716,3.594-0.94
	c2.181-0.402,4.375-0.822,6.583-0.982c2.32-0.167,4.671,0.084,6.992-0.08c1.544-0.108,3.059-0.624,4.587-0.957
	c1.385-0.302,2.947,0.651,4.226-0.73c0.33-0.357,1.223-0.211,1.859-0.267c3.86-0.339,7.736-0.56,11.575-1.059
	c1.49-0.193,3.003-0.826,4.325-1.576c4.582-2.605,8.592-6.452,14.363-6.367c1.549-1.443,3.676-1.6,5.471-2.475
	c1.812-0.884,3.496-2.047,5.193-3.151c2.354-1.529,4.767-2.992,7.103-4.505c3.038-1.967,5.803-4.499,5.936-8.884
	c0.048-1.571,1.2-3.044,0.478-4.934c-0.993-2.594-1.765-5.191-4.945-6.048c-1.309,0-2.617-0.027-3.924,0.005
	c-3.863,0.096-7.6-0.448-11.211-1.903c-0.717-0.289-1.803-0.392-2.43-0.05c-3.267,1.781-6.876,1.322-10.086,0.794
	c-6.713-1.104-13.465-0.188-20.085-1.015c-4.44-0.556-8.985-1.154-13.358-2.606c-2.824-0.938-5.982-0.905-9.001-1.21
	c-3.855-0.39-7.763-0.45-11.559-1.138c-1.335-0.242-2.885-0.453-4.047-1.006c-1.405-0.668-2.892-0.424-4.11-0.951
	c-3.48-1.502-7.257-1.653-10.832-2.783c-5.656-1.788-10.098-3.705-13.899-7.507c-0.59-0.59-1.179-1.178-1.742-1.741
	c-1.797-3.677-1.393-7.577-1.361-11.138c1.082-1.847,1.829-3.635,3.032-5.031c1.219-1.413,2.713-2.952,4.396-3.523
	c3.387-1.147,6.057-3.898,9.77-4.191c1.807-2.059,4.496-0.729,6.767-1.793c2.611-1.224,5.962-0.856,8.986-1.213
	c1.557-0.184,3.283,0.631,4.642-0.945c0.283-0.329,1.296-0.15,1.939-0.026c1.374,0.264,2.727,0.905,4.089,0.905
	c1.36,0,2.705-0.728,4.087-0.904c6.411-0.817,12.684,1.294,19.079,0.978c2.367,1.545,5.139,0.462,7.552,1.116
	c2.387,0.646,4.705,0.822,7.113,0.932c1.041,0.047,2.047,0.666,3.09,0.944c4.15,1.107,8.52,0.973,12.651,2.061
	c3.721,0.98,7.288,2.531,10.985,3.618c3.219,0.945,5.834,2.849,8.688,4.443c4.383,2.446,7.821,6.336,12.667,7.977
	c0.577,0.196,1.09,0.878,1.621,0.864c5.37-0.138,10.874,0.897,16.058-1.022c3.531-1.307,7.218-1.849,10.78-2.931
	c5.627-1.708,11.572-1.817,17.216-3.162c5.81-1.385,11.51-3.44,17.185-5.483C1478.436,195.791,1483.119,193.075,1488.352,191.642z
	 M1928.387,229.33c6.836-1.26,14.914-0.985,22.878-2.911c1.168,0.963,2.671,1.186,4.303,0.606
	c5.876-2.086,11.974-3.329,18.023-4.766c4.671-1.108,9.247-2.327,13.586-4.644c2.782-1.486,5.46-3.93,9.097-3.345
	c1.43-2.237,3.884-0.694,5.864-1.535c3.144-1.333,6.051-3.352,9.214-4.233c2.783-0.775,5.02-2.422,7.677-3.266
	c2.636-0.838,5.254-1.814,7.744-3.011c2.089-1.004,4.353-1.695,6.098-3.438c1.582-1.579,3.319-3.099,5.235-4.228
	c4.139-2.438,4.865-6.257,4.667-10.496c-0.05-1.041-0.729-2.037-0.939-3.091c-0.8-4.011-4.437-7.628-8.535-7.616
	c-4.417,0.013-8.636-1.836-13.086-1.098c-0.636,0.104-1.52,0.231-1.932-0.099c-2.24-1.788-4.778-0.637-7.153-0.837
	c-2.482-0.209-5.139-0.572-7.466,0.061c-5.178,1.407-10.365,2.042-15.697,1.904c-2.664-0.068-5.334-0.068-7.996,0.016
	c-1.089,0.035-2.167,0.376-3.25,0.577c-4.818,0.896-9.428,2.775-14.509,2.457c-4.646-0.291-9.328-0.103-13.992-0.034
	c-1.24,0.019-2.474,0.274-3.719,0.573c-2.735,0.657-5.397,2.323-8.03,2.23c-4.63-0.162-8.997,1.489-13.592,1.215
	c-2.85-0.17-5.861-0.605-8.301,1.661c-0.293,0.272-0.902,0.28-1.365,0.281c-5.764,0.015-10.915,3.426-16.753,3.011
	c-1.466,2.18-3.915,0.521-5.892,1.502c-1.88,0.932-4.491,0.36-6.776,0.512c-1.092,0.072-2.177,0.363-3.225,0.581
	c-4.476,0.93-8.855,2.707-13.527,2.364c-2.184-0.161-4.224,0.593-5.904,1.45c-2.726,1.391-5.63,1.736-8.436,2.597
	c-0.735,0.226-1.465,0.489-2.164,0.808c-5.486,2.506-11.052,4.504-17.266,4.255c-2.466-0.099-4.911,0.819-7.162,1.939
	c-4.341,2.16-8.78,3.792-13.313,2.917c-0.926,0.489-1.469,0.801-2.032,1.069c-4.089,1.944-8.477,2.924-12.836,4.013
	c-3.752,0.938-7.638,1.33-11.1,3.399c-1.542,0.922-3.51,1.271-5.334,1.549c-3.172,0.482-6.385,0.688-9.575,1.064
	c-0.429,0.051-0.796,0.524-1.231,0.621c-3.939,0.876-7.547,2.722-11.472,3.767c-4.069,1.083-8.919,1.695-11.331,6.527
	c0,0.301,0,0.96,0,1.715c0.625,0.436,1.259,0.921,1.934,1.34c4.545,2.82,9.867,1.85,14.786,2.827
	c2.297,0.456,4.615,1.061,6.958,1.411c0.909,0.136,1.771,0.663,2.679,0.737c3.698,0.305,7.374,0.305,11.109,0.822
	c7.431,1.03,15.025,0.878,22.553,1.201c1.159,0.05,2.624-0.416,3.426,0.127c2.486,1.682,5.16,0.365,7.648,0.914
	c2.427,0.536,4.788,1.824,7.179-0.036c4.999,0,9.998,0.063,14.996-0.041c1.376-0.029,2.435,0.452,3.61,0.984
	c0.692,0.312,1.991,0.409,2.41-0.008c1.423-1.415,3.095-0.704,4.646-0.95c1.705-0.27,3.413-1.008,5.084-0.915
	c4.096,0.229,7.771-1.38,11.59-2.295c3.131-0.75,10.307-0.735,13.439-0.299c3.506,0.49,7.204,0.662,10.658,0.055
	c1.94-0.342,3.952,0.046,5.705-0.609c2.03-0.762,4.025-1.079,6.111-0.896c1.555,0.137,2.874,1.22,4.593,1.011
	c3.679-0.45,7.426-0.468,11.063-1.116C1922.597,231.735,1924.999,230.527,1928.387,229.33z M1480.885,230.926
	c0,1.075-0.039,2.396,0.01,3.714c0.069,1.867,0.885,3.713,2.421,4.397c1.938,0.863,3.928,1.767,5.997,2.442
	c2.735,0.896,5.797-0.142,8.268,1.74c0.395,0.299,1.578,0.228,1.858-0.114c0.925-1.126,2.08-0.748,3.187-0.844
	c3.692-0.32,7.386-0.646,11.074-1.016c0.434-0.043,0.824-0.415,1.263-0.55c5.164-1.591,10.138-3.596,15.059-5.872
	c3.076-1.424,6.064-2.54,8.127-5.717c-1.304-1.668-2.617-3.242-3.807-4.905c-0.904-1.265-2.199-2.582-2.354-3.982
	c-0.388-3.495-0.324-7.047,1.654-10.253c0.611-0.991,0.915-2.171,1.475-3.548c-2.995-0.381-5.415,0.062-7.908,0.798
	c-3.289,0.969-6.915,1.046-9.992,2.415c-3.272,1.457-6.709,2.304-9.975,3.667c-1.988,0.83-4.147,1.602-5.725,2.979
	c-2.422,2.118-5.248,3.457-7.982,4.946C1488.861,223.769,1484.427,226.553,1480.885,230.926z M1535.437,206.78
	c3.949,0.754,7.291,1.074,10.419,2.066c4.25,1.35,8.575,2.484,12.685,4.341c2.36,1.067,5.098,1.305,7.754,1.936
	c0.666-0.334,1.493-0.75,2.362-1.187c0.1-0.382,0.139-0.875,0.354-1.273c0.288-0.532,0.713-0.99,1.013-1.391
	c-5.356-9.011-6.95-11.08-11.367-13.796C1549.228,196.29,1541.27,198.323,1535.437,206.78z M1315.929,208.974
	c0.693,0.642,1.414,1.75,2.417,2.146c2.286,0.903,4.674,1.795,7.091,2.066c3.115,0.349,6.307-0.045,9.452,0.122
	c3.027,0.161,6.03,0.758,9.056,0.927c2.98,0.166,5.976,0.006,8.965,0.044c3.536,0.046,6.775-1.049,9.851-2.292
	c0.914-3.45-1.886-4.124-3.765-4.595c-3.635-0.912-7.241-2.188-11.097-2.139c-5.646,0.072-11.293,0.077-16.938-0.009
	c-2.374-0.036-4.682,0.188-7.113-0.844c-2.876-1.218-5.318,1.272-7.919,2.286C1315.929,207.217,1315.929,207.709,1315.929,208.974z"
	/>
<path fill-rule="evenodd" clip-rule="evenodd" fill="#FFFFFF" d="M1160.425,107.284c-1.654-1.654-3.067-3.067-4.49-4.49
	c0-2.32,0-4.648,0-6.803c1.691-3.138,3.877-5.51,6.927-7.272c2.339-1.352,4.288-3.405,6.338-5.227
	c3.542-3.147,7.027-6.357,10.744-9.729c-0.056-0.596,0.169-1.734-0.256-2.083c-1.182-0.972-2.557-2.052-3.993-2.304
	c-3.4-0.596-6.669-1.534-9.891-2.71c-0.289-0.105-0.612-0.417-0.836-0.351c-2.21,0.655-4.014-1.125-6.088-1.003
	c-3.582,0.213-6.84-0.988-10.175-1.994c-2.68-0.808-5.411-1.783-8.162-1.938c-5.301-0.3-9.224-3.602-13.619-5.777
	c-2.197-1.086-3.441-3.504-4.115-6.212c-0.586-2.366-1.665-4.475,0.121-6.696c-0.158-4.883,2.907-7.448,6.687-9.681
	c1.388-0.82,2.45-2.243,3.556-3.484c6.167-6.926,13.902-11.908,21.369-17.206c3.483-2.472,6.82-5.138,10.359-7.532
	c1.582-1.069,2.931-2.516,4.576-3.452c2.812-1.6,6.138-1.627,8.979-0.811c3.325,0.955,7.206,1.898,8.465,6.144
	c0,1.316-0.078,2.637,0.016,3.946c0.242,3.429-1.419,6.077-3.428,8.579c-2.876,3.58-6.629,6.201-10.525,8.39
	c-4.645,2.608-8.134,6.378-11.949,10.084c0,0.87,0,1.839,0,3.193c1.981,2.396,4.896,3.581,8.178,4.53
	c3.052,0.882,6.051,0.886,9.108,0.892c8.161,0.017,16.323,0.036,24.484-0.005c5.717-0.028,9.606,2.771,12.25,7.637
	c0.521,0.96,1.125,1.875,1.863,3.096c0,1.158,0.203,2.678-0.043,4.121c-0.533,3.125,0.99,5.69,2.526,7.94
	c1.409,2.066,2.085,4.18,2.485,6.49c0.147,0.85-2.271,6.742-3.007,7.208c-2.493,1.577-4.927,3.465-7.669,4.355
	c-1.805,0.587-3.442,1.342-5.124,2.141c-5.007,2.381-10.085,4.614-15.066,7.044c-2.781,1.357-5.698,2.658-8.072,4.578
	c-4.415,3.57-9.965,4.181-14.931,6.245C1165.887,108.021,1163.082,107.284,1160.425,107.284z"/>
<path fill-rule="evenodd" clip-rule="evenodd" fill="#FFFFFF" d="M1057.75,374.25c-3.834-2.086-7.372-4.111-8.581-8.467
	c-1.688-5.819,2.388-10.151,9.054-13.268c0.686-0.32,1.59-0.287,2.383-0.244c2.599,0.141,4.914-1.012,7.344-1.586
	c4.216-0.998,8.338-2.39,12.551-3.402c5.29-1.271,10.601-2.407,16.135-2.098c1.834,0.102,3.818-0.324,5.547-0.992
	c2.992-1.158,6.04-0.821,9.089-0.979c0.885-0.045,1.746-0.555,2.725-0.888c3.909,1.947,8.247,0.397,12.146,1.001
	c1.567,0.781,2.945,1.47,4.611,2.301c0.958,1.898,2.069,4.102,3.26,6.458c-2.422,5.88-7.37,8.65-13.217,10.135
	c-4.302,1.092-8.754,1.452-13.109,2.195c-5.342,0.912-10.789,1.678-15.967,3.518c-1.601,0.569-3.48,1.175-4.941,1.15
	c-5.693-0.099-10.543,3.658-16.227,3.166c-1.725,1.679-4.15,1.219-6.203,1.853C1062.225,374.761,1059.742,374.25,1057.75,374.25z"/>
<path fill-rule="evenodd" clip-rule="evenodd" fill="#FFFFFF" d="M1628.855,75.097c0,2.057,0,4.384,0,6.692
	c-2.076,3.094-4.136,6.163-7.71,7.751c-0.426,0.188-0.757,0.651-1.062,1.042c-2.949,3.77-7.25,5.49-11.257,7.774
	c-9.203,5.247-19.207,8.425-29.202,11.479c-5.288,1.616-10.827,0.735-15.182-3.486c-0.836-0.812-1.649-1.646-2.52-2.517
	c-0.477-3.233,1.195-5.812,3.089-8.081c2.23-2.673,4.699-5.227,7.419-7.389c2.147-1.707,4.793-2.814,7.279-4.063
	c6.252-3.138,12.175-6.833,18.167-10.424c4.65-2.788,9.602-5.083,15.154-5.601c0.61-0.057,1.21-0.278,1.803-0.458
	c4.282-1.294,9.612,0.628,12.034,4.339C1627.477,73.088,1628.113,74.001,1628.855,75.097z"/>
</svg>
