<?xml version="1.0" encoding="utf-8"?>
<!-- Generator: Adobe Illustrator 16.0.4, SVG Export Plug-In . SVG Version: 6.00 Build 0)  -->
<!DOCTYPE svg PUBLIC "-//W3C//DTD SVG 1.1//EN" "http://www.w3.org/Graphics/SVG/1.1/DTD/svg11.dtd">
<svg version="1.1" id="Layer_1" xmlns="http://www.w3.org/2000/svg" xmlns:xlink="http://www.w3.org/1999/xlink" x="0px" y="0px"
	 width="396px" height="87.17px" viewBox="0 0 396 87.17" enable-background="new 0 0 396 87.17" xml:space="preserve">
<g>
	<g>
		<path fill="#FFFFFF" d="M63.43,5.586L60.884,7.22c-1.191-2.076-2.837-3.115-4.94-3.115c-1.292,0-2.407,0.418-3.344,1.254
			c-0.938,0.836-1.406,1.899-1.406,3.191c0,0.583,0.126,1.115,0.38,1.597c0.253,0.481,0.646,0.905,1.178,1.272
			c0.532,0.368,0.981,0.652,1.349,0.855c0.367,0.203,0.893,0.456,1.577,0.76l1.9,0.836c1.089,0.481,1.988,0.931,2.698,1.349
			c0.709,0.418,1.412,0.938,2.109,1.559S63.601,18.14,63.943,19c0.342,0.861,0.513,1.837,0.513,2.926
			c0,2.483-0.874,4.579-2.622,6.289s-3.876,2.565-6.384,2.565c-2.28,0-4.225-0.678-5.833-2.033
			c-1.609-1.354-2.641-3.147-3.097-5.377l3.116-0.874c0.202,1.495,0.836,2.755,1.9,3.781c1.064,1.025,2.343,1.539,3.838,1.539
			c1.57,0,2.945-0.538,4.123-1.615c1.178-1.076,1.767-2.4,1.767-3.971c0-0.633-0.108-1.223-0.323-1.768
			c-0.215-0.544-0.456-0.981-0.722-1.311c-0.266-0.329-0.691-0.685-1.273-1.064c-0.583-0.38-1.039-0.651-1.368-0.816
			c-0.33-0.165-0.862-0.412-1.596-0.741l-1.748-0.76c-2.027-0.912-3.572-1.9-4.636-2.965c-1.064-1.063-1.596-2.52-1.596-4.369
			c0-2.153,0.785-3.908,2.356-5.264c1.571-1.354,3.458-2.033,5.662-2.033c1.596,0,3.04,0.387,4.332,1.159
			C61.644,3.072,62.67,4.168,63.43,5.586z"/>
		<path fill="#FFFFFF" d="M87.56,22.154H75.324l-3.458,8.132H68.37l13.224-30.02l12.882,30.02h-3.534L87.56,22.154z M86.306,19.19
			L81.518,7.714L76.616,19.19H86.306z"/>
		<path fill="#FFFFFF" d="M97.401,30.286L103.215,0l10.412,24.054L124.077,0l5.814,30.286h-3.268l-3.686-19.38h-0.076l-9.234,20.558
			l-9.196-20.558h-0.076l-3.686,19.38H97.401z"/>
		<path fill="#FFFFFF" d="M138.555,1.634v17.062c0,1.09,0.006,1.862,0.019,2.317c0.013,0.456,0.12,1.109,0.323,1.957
			c0.202,0.85,0.506,1.553,0.912,2.109c0.608,0.836,1.45,1.501,2.527,1.995c1.076,0.494,2.159,0.741,3.249,0.741
			c1.038,0,2.071-0.229,3.097-0.685c1.026-0.456,1.868-1.076,2.527-1.861c0.43-0.532,0.76-1.185,0.988-1.957s0.354-1.419,0.38-1.938
			c0.025-0.519,0.038-1.26,0.038-2.223c0-0.203,0-0.354,0-0.456V1.634h3.192V19.57c0,1.824-0.158,3.331-0.475,4.521
			c-0.317,1.191-0.994,2.331-2.033,3.42c-2.027,2.18-4.598,3.269-7.714,3.269c-2.939,0-5.409-0.975-7.41-2.926
			c-1.14-1.089-1.894-2.268-2.261-3.534s-0.551-2.851-0.551-4.75V1.634H138.555z"/>
		<path fill="#FFFFFF" d="M163.331,30.286V1.634h14.858v2.964h-11.666v8.513h11.324v2.964h-11.324v11.248h11.666v2.964H163.331z"/>
		<path fill="#FFFFFF" d="M188.715,1.634v25.688h7.904v2.964h-11.096V1.634H188.715z"/>
		<path fill="#FFFFFF" d="M229.982,15.884h11.932c0.051,2.18-0.127,4.054-0.531,5.624c-0.406,1.571-1.217,3.065-2.432,4.484
			c-1.293,1.52-2.883,2.698-4.77,3.534c-1.888,0.836-3.832,1.254-5.833,1.254c-4.028,0-7.493-1.45-10.394-4.352
			c-2.9-2.9-4.351-6.364-4.351-10.393c0-4.104,1.456-7.612,4.37-10.526c2.913-2.912,6.435-4.37,10.564-4.37
			c4.914,0,8.955,2.065,12.121,6.194L238.343,9.5c-2.56-3.597-5.84-5.396-9.843-5.396c-3.242,0-6.004,1.178-8.283,3.533
			c-2.28,2.356-3.42,5.168-3.42,8.437c0,3.116,1.114,5.813,3.344,8.094c1.089,1.09,2.355,1.971,3.8,2.642s2.888,1.007,4.332,1.007
			c2.609,0,4.966-0.855,7.068-2.565s3.153-3.844,3.153-6.403h-8.512V15.884z"/>
		<path fill="#FFFFFF" d="M264.867,22.154h-12.236l-3.458,8.132h-3.496L258.9,0.267l12.883,30.02h-3.535L264.867,22.154z
			 M263.613,19.19l-4.789-11.477l-4.901,11.477H263.613z"/>
		<path fill="#FFFFFF" d="M279.99,17.708v12.578h-3.191V1.634h4.141c1.47,0,2.787,0.114,3.953,0.343
			c1.164,0.228,2.267,0.621,3.306,1.178c1.038,0.558,1.837,1.374,2.394,2.451s0.836,2.388,0.836,3.933
			c0,2.204-0.646,4.028-1.938,5.472c-1.292,1.444-3.04,2.256-5.244,2.433l9.12,12.844h-3.914l-8.664-12.578H279.99z M279.99,4.598
			v10.299h0.988c1.013,0,1.906-0.063,2.679-0.19c0.772-0.126,1.532-0.361,2.28-0.703c0.746-0.342,1.316-0.867,1.709-1.577
			c0.393-0.709,0.59-1.596,0.59-2.659c0-0.912-0.14-1.691-0.418-2.338c-0.279-0.646-0.621-1.152-1.026-1.52s-0.95-0.652-1.634-0.855
			c-0.684-0.202-1.336-0.328-1.957-0.38c-0.621-0.05-1.375-0.076-2.262-0.076H279.99z"/>
		<path fill="#FFFFFF" d="M299.294,30.286V1.634h14.858v2.964h-11.666v8.513h11.323v2.964h-11.323v11.248h11.666v2.964H299.294z"/>
		<path fill="#FFFFFF" d="M321.676,30.286V0.418l22.344,23.408V1.634h3.191v29.944l-22.344-23.37v22.078H321.676z"/>
	</g>
	<g>
		<path fill="#FFFFFF" d="M93.991,69.321c2.002-1.984,4.407-2.978,7.215-2.978s5.213,0.993,7.215,2.978s3.003,4.381,3.003,7.188
			c0,2.809-1.001,5.196-3.003,7.163c-2.002,1.968-4.407,2.951-7.215,2.951s-5.213-0.983-7.215-2.951
			c-2.002-1.967-3.003-4.354-3.003-7.163C90.988,73.702,91.989,71.306,93.991,69.321z M106.9,70.751
			c-1.56-1.586-3.458-2.379-5.694-2.379s-4.134,0.793-5.694,2.379c-1.56,1.586-2.34,3.497-2.34,5.733
			c0,2.219,0.784,4.125,2.353,5.72s3.462,2.392,5.681,2.392c2.218,0,4.112-0.797,5.681-2.392c1.568-1.595,2.353-3.501,2.353-5.72
			C109.24,74.248,108.46,72.337,106.9,70.751z"/>
		<path fill="#FFFFFF" d="M115.818,86.286V65.851l15.288,16.016V66.683h2.184V87.17l-15.288-15.99v15.106H115.818z"/>
		<path fill="#FFFFFF" d="M140.856,66.683v17.575h5.408v2.028h-7.592V66.683H140.856z"/>
		<path fill="#FFFFFF" d="M151.932,66.683v19.604h-2.184V66.683H151.932z"/>
		<path fill="#FFFFFF" d="M157.34,86.286V65.851l15.288,16.016V66.683h2.184V87.17l-15.288-15.99v15.106H157.34z"/>
		<path fill="#FFFFFF" d="M180.168,86.286V66.683h10.166v2.027h-7.982v5.824h7.748v2.028h-7.748v7.695h7.982v2.028H180.168z"/>
		<path fill="#FFFFFF" d="M206.818,77.68v8.606h-2.185V66.683h2.834c1.005,0,1.906,0.077,2.704,0.233
			c0.797,0.156,1.551,0.425,2.262,0.806c0.711,0.382,1.257,0.941,1.639,1.678c0.381,0.736,0.571,1.634,0.571,2.69
			c0,1.508-0.442,2.756-1.325,3.744c-0.885,0.988-2.08,1.543-3.589,1.664l6.24,8.788h-2.679l-5.928-8.606H206.818z M206.818,68.71
			v7.046h0.676c0.693,0,1.304-0.043,1.832-0.13c0.529-0.086,1.049-0.247,1.561-0.48c0.512-0.234,0.9-0.594,1.17-1.079
			c0.269-0.485,0.402-1.092,0.402-1.82c0-0.624-0.095-1.157-0.285-1.599c-0.191-0.442-0.426-0.789-0.702-1.04
			c-0.277-0.251-0.649-0.446-1.118-0.585c-0.468-0.139-0.914-0.226-1.339-0.261c-0.425-0.034-0.94-0.052-1.547-0.052H206.818z"/>
		<path fill="#FFFFFF" d="M220.025,86.286V66.683h10.166v2.027h-7.981v5.824h7.748v2.028h-7.748v7.695h7.981v2.028H220.025z
			 M226.5,60.208l2.184,0.988l-3.979,4.004l-1.299-0.729L226.5,60.208z"/>
		<path fill="#FFFFFF" d="M245.844,69.386l-1.742,1.118c-0.814-1.421-1.941-2.132-3.381-2.132c-0.883,0-1.646,0.286-2.287,0.858
			c-0.642,0.571-0.963,1.3-0.963,2.184c0,0.399,0.088,0.763,0.261,1.092c0.173,0.33,0.442,0.62,0.806,0.871
			c0.364,0.252,0.672,0.446,0.924,0.585c0.25,0.139,0.61,0.312,1.078,0.521l1.301,0.571c0.744,0.33,1.359,0.638,1.846,0.924
			c0.484,0.285,0.966,0.641,1.443,1.065c0.477,0.425,0.832,0.932,1.065,1.521c0.233,0.589,0.351,1.257,0.351,2.002
			c0,1.698-0.598,3.133-1.793,4.303c-1.197,1.17-2.652,1.755-4.369,1.755c-1.56,0-2.89-0.464-3.99-1.391
			c-1.102-0.928-1.807-2.153-2.119-3.68l2.132-0.598c0.139,1.023,0.572,1.885,1.3,2.587c0.729,0.702,1.604,1.053,2.627,1.053
			c1.074,0,2.014-0.367,2.82-1.104c0.807-0.736,1.209-1.643,1.209-2.717c0-0.434-0.074-0.836-0.221-1.209
			c-0.147-0.373-0.312-0.672-0.494-0.897c-0.182-0.225-0.473-0.468-0.871-0.728c-0.398-0.261-0.711-0.446-0.936-0.56
			c-0.227-0.112-0.59-0.281-1.092-0.507l-1.197-0.52c-1.387-0.624-2.443-1.301-3.172-2.028c-0.728-0.729-1.092-1.725-1.092-2.99
			c0-1.473,0.537-2.673,1.612-3.601s2.366-1.392,3.874-1.392c1.092,0,2.08,0.265,2.964,0.793
			C244.621,67.666,245.323,68.416,245.844,69.386z"/>
		<path fill="#FFFFFF" d="M253.176,66.683v11.674c0,0.745,0.004,1.273,0.013,1.586c0.009,0.312,0.082,0.758,0.221,1.339
			s0.347,1.062,0.624,1.443c0.416,0.571,0.992,1.026,1.729,1.364c0.737,0.338,1.479,0.507,2.224,0.507
			c0.71,0,1.417-0.155,2.119-0.468c0.702-0.312,1.278-0.736,1.729-1.273c0.294-0.364,0.52-0.811,0.676-1.34
			c0.156-0.528,0.242-0.97,0.26-1.325s0.025-0.862,0.025-1.521c0-0.139,0-0.242,0-0.312V66.683h2.185v12.271
			c0,1.248-0.108,2.279-0.325,3.094c-0.217,0.815-0.68,1.596-1.391,2.34c-1.387,1.491-3.146,2.236-5.278,2.236
			c-2.011,0-3.7-0.667-5.069-2.002c-0.781-0.745-1.297-1.551-1.548-2.418c-0.251-0.866-0.377-1.95-0.377-3.25V66.683H253.176z"/>
		<path fill="#FFFFFF" d="M268.723,86.286l3.979-20.722l7.124,16.458l7.149-16.458l3.979,20.722h-2.236l-2.521-13.26h-0.053
			l-6.317,14.065l-6.292-14.065h-0.052l-2.522,13.26H268.723z"/>
		<path fill="#FFFFFF" d="M294.749,86.286V66.683h10.166v2.027h-7.981v5.824h7.748v2.028h-7.748v7.695h7.981v2.028H294.749z
			 M301.223,60.208l2.184,0.988l-3.978,4.004l-1.3-0.729L301.223,60.208z"/>
	</g>
	<g>
		<rect y="47.866" fill="#FFFFFF" width="396" height="1"/>
	</g>
</g>
</svg>
