<?xml version="1.0" encoding="utf-8"?>
<!-- Generator: Adobe Illustrator 16.0.4, SVG Export Plug-In . SVG Version: 6.00 Build 0)  -->
<!DOCTYPE svg PUBLIC "-//W3C//DTD SVG 1.1//EN" "http://www.w3.org/Graphics/SVG/1.1/DTD/svg11.dtd">
<svg version="1.1" id="Layer_1" xmlns="http://www.w3.org/2000/svg" xmlns:xlink="http://www.w3.org/1999/xlink" x="0px" y="0px"
	 width="500.014px" height="499.888px" viewBox="0 0 500.014 499.888" enable-background="new 0 0 500.014 499.888"
	 xml:space="preserve">
<path fill-rule="evenodd" clip-rule="evenodd" d="M110.424,129.032C91.24,109.828,72.419,90.987,53.269,71.817
	c-8.251,8.379-16.725,16.981-26.003,26.402C18.047,65.011,9.171,33.037,0,0c32.746,9.063,64.794,17.934,97.221,26.91
	c-8.977,8.806-17.582,17.247-25.803,25.311c19.781,19.785,38.711,38.718,57.881,57.893c5.126-4.353,10.844-9.409,16.769-14.21
	c49.497-40.108,106.437-64.432,167.972-78.904C366.845,4.581,420.5,0.004,474.625,0.003c12.721,0,22.739,8.515,25.003,20.866
	c2.129,11.63-4.694,23.351-16.475,27.604c-2.821,1.02-3.817,2.396-4.215,5.219c-12.5,88.725-25.08,177.439-37.647,266.156
	c-1.705,12.036-3.321,24.087-5.159,36.104c-0.501,3.277,0.278,5.57,2.681,7.949c20.125,19.923,40.116,39.981,60.979,60.829
	c-25.426,0-49.877,0-74.749,0c0,25.072,0,49.478,0,74.909c-2.015-1.851-3.339-2.98-4.566-4.207
	c-18.508-18.488-37.061-36.929-55.434-55.55c-2.665-2.7-5.185-3.431-8.825-2.876c-67.337,10.256-134.69,20.413-202.041,30.582
	c-33.593,5.071-67.182,10.175-100.797,15.103c-3.298,0.483-5.177,1.642-6.84,4.635c-5.557,10.002-16.817,14.562-27.742,11.736
	c-10.982-2.842-18.747-12.267-18.744-23.631c0.016-71.505,7.621-141.922,30.935-209.988c16.967-49.538,41.79-94.583,77.074-133.573
	C108.948,130.89,109.756,129.838,110.424,129.032z M349.955,422.919c0-17.442,0.124-34.261-0.137-51.072
	c-0.039-2.462-1.315-5.476-3.035-7.247c-14.161-14.582-28.543-28.948-42.894-43.345c-50.586-50.749-101.181-101.487-151.801-152.2
	c-1.567-1.57-3.448-2.827-6.097-4.97c-10.293,13.891-20.893,26.792-29.966,40.688C79.616,260.542,62.828,322.984,55.027,388.32
	c-1.618,13.548-3.179,27.135-3.88,40.751c-0.657,12.759-0.141,25.578-0.141,38.869C150.289,452.988,249.875,437.99,349.955,422.919z
	 M464.345,50.486c-1.998-0.09-3.291-0.245-4.575-0.191c-12.463,0.522-24.936,0.89-37.384,1.661
	c-38.135,2.362-75.781,7.901-112.679,18.018c-52.207,14.313-100.021,37.11-140.908,73.217c-1.328,1.173-2.573,2.438-3.986,3.785
	c1.434,1.499,2.55,2.71,3.714,3.875c34.246,34.277,68.488,68.557,102.748,102.819c30.976,30.979,62,61.907,92.902,92.957
	c2.443,2.455,4.849,3.422,8.276,3.381c14.656-0.177,29.315-0.075,43.974-0.075c1.78,0,3.56,0,5.553,0
	C436.137,249.868,450.215,150.359,464.345,50.486z"/>
<path fill-rule="evenodd" clip-rule="evenodd" fill="#FFFFFF" d="M349.955,422.919C249.875,437.99,150.289,452.988,51.006,467.94
	c0-13.291-0.517-26.11,0.141-38.869c0.702-13.616,2.263-27.203,3.88-40.751c7.801-65.336,24.589-127.778,60.999-183.547
	c9.073-13.896,19.673-26.797,29.966-40.688c2.649,2.143,4.529,3.4,6.097,4.97c50.62,50.713,101.215,101.451,151.801,152.2
	c14.351,14.396,28.732,28.763,42.894,43.345c1.72,1.771,2.996,4.785,3.035,7.247C350.079,388.658,349.955,405.477,349.955,422.919z"
	/>
<path fill-rule="evenodd" clip-rule="evenodd" fill="#FFFFFF" d="M464.345,50.486c-14.13,99.873-28.208,199.382-42.365,299.446
	c-1.993,0-3.772,0-5.553,0c-14.658,0-29.317-0.102-43.974,0.075c-3.428,0.041-5.833-0.926-8.276-3.381
	c-30.902-31.05-61.927-61.979-92.902-92.957c-34.26-34.262-68.502-68.542-102.748-102.819c-1.164-1.165-2.28-2.376-3.714-3.875
	c1.413-1.347,2.659-2.612,3.986-3.785c40.888-36.107,88.701-58.904,140.908-73.217c36.897-10.116,74.544-15.655,112.679-18.018
	c12.448-0.771,24.921-1.138,37.384-1.661C461.054,50.241,462.347,50.396,464.345,50.486z"/>
</svg>
