<?xml version="1.0" encoding="utf-8"?>
<!-- Generator: Adobe Illustrator 16.0.4, SVG Export Plug-In . SVG Version: 6.00 Build 0)  -->
<!DOCTYPE svg PUBLIC "-//W3C//DTD SVG 1.1//EN" "http://www.w3.org/Graphics/SVG/1.1/DTD/svg11.dtd">
<svg version="1.1" id="Layer_1" xmlns="http://www.w3.org/2000/svg" xmlns:xlink="http://www.w3.org/1999/xlink" x="0px" y="0px"
	 width="500.014px" height="499.887px" viewBox="0 0 500.014 499.887" enable-background="new 0 0 500.014 499.887"
	 xml:space="preserve">
<path fill="#FFFFFF" d="M110.424,129.032C91.24,109.828,72.419,90.987,53.269,71.817c-8.251,8.379-16.725,16.981-26.003,26.402
	C18.047,65.011,9.171,33.037,0,0c32.746,9.063,64.794,17.934,97.221,26.91c-8.977,8.806-17.582,17.247-25.803,25.311
	c19.781,19.785,38.711,38.718,57.881,57.893c5.126-4.354,10.844-9.409,16.769-14.21C195.565,55.796,252.505,31.472,314.04,17
	C366.845,4.581,420.5,0.004,474.625,0.003c12.721,0,22.739,8.515,25.003,20.866c2.129,11.63-4.694,23.351-16.475,27.604
	c-2.821,1.02-3.817,2.396-4.216,5.219c-12.5,88.725-25.079,177.439-37.646,266.156c-1.705,12.035-3.321,24.087-5.159,36.104
	c-0.501,3.277,0.278,5.57,2.681,7.949c20.125,19.924,40.116,39.98,60.979,60.83c-25.426,0-49.877,0-74.749,0
	c0,25.07,0,49.477,0,74.908c-2.015-1.852-3.339-2.98-4.566-4.207c-18.508-18.488-37.061-36.93-55.434-55.551
	c-2.665-2.699-5.185-3.43-8.825-2.875c-67.337,10.256-134.69,20.412-202.041,30.582c-33.593,5.07-67.182,10.174-100.797,15.104
	c-3.298,0.482-5.177,1.641-6.84,4.635c-5.557,10.002-16.817,14.561-27.742,11.736C7.816,496.219,0.051,486.795,0.054,475.43
	c0.016-71.504,7.621-141.922,30.935-209.987c16.967-49.538,41.79-94.583,77.074-133.573
	C108.948,130.89,109.756,129.838,110.424,129.032z M349.955,422.918c0-17.441,0.124-34.26-0.137-51.071
	c-0.039-2.462-1.315-5.476-3.035-7.247c-14.161-14.582-28.543-28.948-42.894-43.346c-50.587-50.748-101.182-101.486-151.802-152.199
	c-1.567-1.57-3.448-2.827-6.097-4.97c-10.293,13.891-20.893,26.792-29.966,40.688C79.616,260.542,62.828,322.984,55.027,388.32
	c-1.618,13.548-3.179,27.136-3.88,40.751c-0.657,12.76-0.141,25.578-0.141,38.869C150.289,452.989,249.875,437.991,349.955,422.918z
	 M464.345,50.486c-1.998-0.09-3.291-0.245-4.575-0.191c-12.463,0.522-24.936,0.89-37.384,1.661
	c-38.135,2.362-75.78,7.901-112.679,18.018c-52.207,14.313-100.021,37.11-140.908,73.217c-1.328,1.173-2.573,2.438-3.986,3.785
	c1.434,1.499,2.55,2.71,3.714,3.875c34.246,34.277,68.488,68.557,102.748,102.819c30.977,30.979,62.001,61.906,92.902,92.957
	c2.443,2.455,4.85,3.422,8.276,3.381c14.656-0.178,29.314-0.075,43.974-0.075c1.78,0,3.561,0,5.554,0
	C436.137,249.868,450.215,150.359,464.345,50.486z"/>
</svg>
