<?xml version="1.0" encoding="utf-8"?>
<!-- Generator: Adobe Illustrator 16.0.4, SVG Export Plug-In . SVG Version: 6.00 Build 0)  -->
<!DOCTYPE svg PUBLIC "-//W3C//DTD SVG 1.1//EN" "http://www.w3.org/Graphics/SVG/1.1/DTD/svg11.dtd">
<svg version="1.1" id="Layer_1" xmlns="http://www.w3.org/2000/svg" xmlns:xlink="http://www.w3.org/1999/xlink" x="0px" y="0px"
	 width="612px" height="496.183px" viewBox="0 79.288 612 496.183" enable-background="new 0 79.288 612 496.183"
	 xml:space="preserve">
<polygon fill="#FFFFFF" points="549.529,180.935 556.941,225.405 444.706,244.464 436.235,199.993 "/>
<polygon fill="#FFFFFF" points="419.294,98.346 532.588,79.287 545.294,156.582 433.059,175.64 "/>
<polygon fill="#FFFFFF" points="405.529,196.412 405.529,240.882 291.176,240.882 291.176,196.412 "/>
<polygon fill="#FFFFFF" points="291.176,92.647 405.529,92.647 405.529,171 291.176,171 "/>
<polygon fill="#FFFFFF" points="259.412,196.412 259.412,240.882 145.059,240.882 145.059,196.412 "/>
<polygon fill="#FFFFFF" points="145.059,92.647 259.412,92.647 259.412,171 145.059,171 "/>
<polygon fill="#FFFFFF" points="113.294,196.412 113.294,240.882 0,240.882 0,196.412 "/>
<polygon fill="#FFFFFF" points="583.412,384.229 561.177,250.816 447.883,269.875 471.177,403.287 "/>
<polygon fill="#FFFFFF" points="595.059,453.052 587.647,408.581 474.353,427.641 481.765,472.11 "/>
<polygon fill="#FFFFFF" points="499.765,574.816 612,555.758 599.294,478.464 486,497.522 "/>
<polygon fill="#FFFFFF" points="405.529,401.823 405.529,266.294 291.176,266.294 291.176,401.823 "/>
<polygon fill="#FFFFFF" points="405.529,471.706 405.529,426.177 291.176,426.177 291.176,471.706 "/>
<polygon fill="#FFFFFF" points="291.176,575.471 405.529,575.471 405.529,497.117 291.176,497.117 "/>
<polygon fill="#FFFFFF" points="259.412,401.823 259.412,266.294 145.059,266.294 145.059,401.823 "/>
<polygon fill="#FFFFFF" points="259.412,471.706 259.412,426.177 145.059,426.177 145.059,471.706 "/>
<polygon fill="#FFFFFF" points="145.059,575.471 259.412,575.471 259.412,497.117 145.059,497.117 "/>
<polygon fill="#FFFFFF" points="113.294,401.823 113.294,266.294 0,266.294 0,401.823 "/>
<polygon fill="#FFFFFF" points="113.294,471.706 113.294,426.177 0,426.177 0,471.706 "/>
<polygon fill="#FFFFFF" points="0,575.471 113.294,575.471 113.294,497.117 0,497.117 "/>
<polygon fill="#FFFFFF" points="0,92.647 113.294,92.647 113.294,171 0,171 "/>
</svg>
