<?xml version="1.0" encoding="utf-8"?>
<!-- Generator: Adobe Illustrator 16.0.4, SVG Export Plug-In . SVG Version: 6.00 Build 0)  -->
<!DOCTYPE svg PUBLIC "-//W3C//DTD SVG 1.1//EN" "http://www.w3.org/Graphics/SVG/1.1/DTD/svg11.dtd">
<svg version="1.1" id="Layer_1" xmlns="http://www.w3.org/2000/svg" xmlns:xlink="http://www.w3.org/1999/xlink" x="0px" y="0px"
	 width="301.881px" height="239.302px" viewBox="0 0 301.881 239.302" enable-background="new 0 0 301.881 239.302"
	 xml:space="preserve">
<g>
	<path fill-rule="evenodd" clip-rule="evenodd" fill="#FFFFFF" d="M275.009,0c0,66.448,0,131.887,0,197.744
		c-39.741,13.755-79.472,27.507-120.065,41.558c0-64.041,0-126.124,0-188.757C194.504,33.891,234.379,17.104,275.009,0z"/>
	<path fill-rule="evenodd" clip-rule="evenodd" fill="#FFFFFF" d="M301.881,232.111c-39.446,1.958-78.787,3.911-122.336,6.073
		c36.431-12.743,68.901-24.101,101.642-35.553c0-59.59,0-118.997,0-178.833c7.042,0,13.724,0,20.694,0
		C301.881,93.16,301.881,162.375,301.881,232.111z"/>
</g>
<g>
	<path fill-rule="evenodd" clip-rule="evenodd" fill="#FFFFFF" d="M26.871,0c0,66.448,0,131.887,0,197.744
		c39.741,13.755,79.472,27.507,120.065,41.558c0-64.041,0-126.124,0-188.757C107.376,33.891,67.5,17.104,26.871,0z"/>
	<path fill-rule="evenodd" clip-rule="evenodd" fill="#FFFFFF" d="M-0.001,232.111c39.447,1.958,78.787,3.911,122.336,6.073
		c-36.431-12.743-68.901-24.101-101.641-35.553c0-59.59,0-118.997,0-178.833c-7.042,0-13.724,0-20.695,0
		C-0.001,93.16-0.001,162.375-0.001,232.111z"/>
</g>
</svg>
