<?xml version="1.0" encoding="utf-8"?>
<!-- Generator: Adobe Illustrator 16.0.4, SVG Export Plug-In . SVG Version: 6.00 Build 0)  -->
<!DOCTYPE svg PUBLIC "-//W3C//DTD SVG 1.1//EN" "http://www.w3.org/Graphics/SVG/1.1/DTD/svg11.dtd">
<svg version="1.1" id="Layer_1" xmlns="http://www.w3.org/2000/svg" xmlns:xlink="http://www.w3.org/1999/xlink" x="0px" y="0px"
	 width="194.925px" height="297.107px" viewBox="0 0 194.925 297.107" enable-background="new 0 0 194.925 297.107"
	 xml:space="preserve">
<path fill-rule="evenodd" clip-rule="evenodd" d="M0,104.256c25.942,0,51.884,0,78.633,0c-1.038-1.435-1.7-2.232-2.235-3.107
	c-4.139-6.779-8.264-13.566-12.371-20.363c-1.446-2.395-2.728-4.893-4.269-7.221c-2.297-3.467-2.251-3.791-0.058-7.569
	c1.937-3.334,3.435-6.923,5.365-10.261c3.428-5.927,7.08-11.724,10.551-17.627c1.566-2.663,2.886-5.469,4.381-8.176
	c3.297-5.97,6.958-11.726,10.055-17.82C92.156,7.973,94.86,4.139,97.4,0c2.505,5.231,5.083,9.996,8.204,14.494
	c1.579,2.276,2.536,4.935,4.194,7.272c2.211,3.118,3.459,6.899,5.448,10.198c3.936,6.526,7.569,13.226,11.489,19.761
	c1.486,2.479,2.861,5.123,4.251,7.71c1.318,2.455,2.477,5.028,4.069,7.293c1.227,1.744,1.142,3.125,0.164,4.819
	c-2.636,4.565-5.143,9.205-7.805,13.754c-2.517,4.3-5.155,8.53-7.765,12.776c-0.657,1.07-1.512,2.031-2.077,3.144
	c-0.405,0.796-0.48,1.761-0.756,2.861c25.759,0,51.2,0,77.034,0c0.043,2.08,0.1,4.013,0.119,5.947
	c0.02,1.975,0.004,3.949,0.004,6.225c-64.786,0-129.381,0-193.976,0C0,112.255,0,108.255,0,104.256z M96.964,25.471
	c-0.936,1.593-1.4,2.399-1.878,3.195c-2.4,3.989-4.405,8.192-6.982,12.101c-2.11,3.2-3.287,7.021-5.429,10.195
	c-3.579,5.301-6.091,11.208-9.729,16.441c-0.995,1.432-0.931,2.301-0.007,3.731c2.355,3.646,4.396,7.494,6.652,11.207
	c3.722,6.122,7.717,12.086,11.176,18.35c1.354,2.454,2.653,3.835,5.505,3.594c1.792-0.151,3.608-0.028,5.287-0.028
	c0.693-1.455,1.186-2.769,1.902-3.945c3.811-6.25,7.84-12.372,11.463-18.727c2.067-3.626,4.582-6.991,6.262-10.873
	c0.518-1.196,0.719-1.62,0.022-2.854c-2.361-4.185-4.715-8.367-7.169-12.503c-3.865-6.517-7.348-13.259-11.066-19.864
	C101.174,32.299,99.209,29.202,96.964,25.471z"/>
<path fill-rule="evenodd" clip-rule="evenodd" d="M98.987,165.366c-1.381,0-2.499,0-4.005,0c0.537,4.865-1.472,9.497-1.072,14.427
	c0.148,1.822-0.65,3.707-0.905,5.579c-0.256,1.878,0.016,3.691-0.848,5.654c-0.833,1.894-0.756,4.361-1.004,6.527
	c-0.973,8.479-3.651,16.56-5.267,24.878c-0.725,3.731-2.66,7.213-3.876,10.864c-2.549,7.649-6.34,14.718-10.029,21.835
	c-2.615,5.045-5.974,9.587-9.403,14.116c-4.715,6.226-10.655,11.228-15.972,16.847c-0.766,0.81-1.682,1.504-2.612,2.126
	c-2.715,1.812-5.472,3.561-8.303,5.393c-1.961-3.901-3.746-7.455-5.59-11.122c6.047-3.883,11.958-8.154,16.73-13.671
	c7.222-8.347,13.356-17.406,18.274-27.386c4.124-8.367,6.239-17.407,9.886-25.9c0.134-5.253,3.135-9.943,3-15.25
	c1.538-2.002,0.191-4.735,1.194-6.476c1.344-2.331,0.353-4.509,0.803-6.689c0.349-1.691,0.762-3.377,0.976-5.087
	c0.196-1.568-0.375-3.284,1.027-4.58c0-3.971,0-7.941,0-12.083c-5.652,0-11.103,0-16.776,0c0-4.07,0-7.972,0-11.998
	c21.147,0,42.258,0,63.569,0c0,3.877,0,7.777,0,11.856c-5.55,0-11.001,0-16.906,0c0.544,4.16-0.827,8.225,1.108,12.11
	c-0.722,3.789,0.732,7.387,1.118,11.068c0.323,3.076,0.558,6.236,1.688,9.256c0.699,1.869,0.685,4.031,1.026,6.035
	c0.848,4.96,2.292,9.711,3.552,14.548c1.488,5.712,3.633,11.175,5.714,16.642c1.804,4.734,4.458,9.146,6.756,13.69
	c0.143,0.282,0.582,0.436,0.677,0.719c1.729,5.191,5.975,8.786,8.533,13.454c0.461,0.841,1.411,1.403,2.078,2.146
	c1.506,1.671,2.9,3.507,4.38,5.112c3.335,3.618,7.261,6.733,11.799,9.761c8.249-10.985,16.321-21.733,24.516-32.646
	c3.23,2.402,6.527,4.854,10.104,7.515c-10.709,14.264-21.425,28.538-31.885,42.471c-2.896-1.914-5.508-3.437-7.89-5.259
	c-4.096-3.131-8.25-6.159-11.982-9.797c-5.749-5.604-11.385-11.408-15.672-18.074c-5.409-8.409-10.671-17.001-13.664-26.805
	c-1.477-4.834-3.749-9.461-4.872-14.458c-1.815-1.491-0.63-3.904-1.851-5.76c-0.958-1.457-0.872-3.673-1.312-5.456
	c-0.466-1.894-0.032-4.305-0.979-5.497c-1.557-1.958,0.093-4.206-1.458-5.979c-1.273-1.456,0.619-3.965-1.374-5.404
	c-0.334-3.194-0.641-6.391-1.009-9.581c-0.291-2.532-0.696-5.051-0.979-7.584c-0.266-2.372,0.37-4.753-0.892-7.145
	C98.433,169.03,98.987,167.103,98.987,165.366z"/>
<path fill-rule="evenodd" clip-rule="evenodd" d="M161.792,128.419c-1.788,4.145-0.184,8.433-1.04,12.68
	c-42.383,0-84.797,0-127.543,0c-0.47-1.875-0.148-4.001-0.201-6.09c-0.054-2.142-0.012-4.286-0.012-6.59
	C76.032,128.419,118.901,128.419,161.792,128.419z"/>
<path fill-rule="evenodd" clip-rule="evenodd" fill="#FFFFFF" d="M96.964,25.471c2.245,3.731,4.209,6.828,6.007,10.02
	c3.719,6.605,7.201,13.347,11.066,19.864c2.454,4.136,4.808,8.318,7.169,12.503c0.696,1.234,0.495,1.658-0.022,2.854
	c-1.68,3.881-4.194,7.246-6.262,10.873c-3.623,6.355-7.652,12.477-11.463,18.727c-0.717,1.176-1.209,2.49-1.902,3.945
	c-1.679,0-3.495-0.123-5.287,0.028c-2.852,0.241-4.151-1.141-5.505-3.594c-3.459-6.263-7.454-12.228-11.176-18.35
	c-2.257-3.712-4.297-7.561-6.652-11.207c-0.924-1.43-0.987-2.299,0.007-3.731c3.638-5.234,6.15-11.14,9.729-16.441
	c2.142-3.173,3.319-6.995,5.429-10.195c2.577-3.909,4.583-8.112,6.982-12.101C95.564,27.87,96.028,27.064,96.964,25.471z"/>
</svg>
