<?xml version="1.0" encoding="utf-8"?>
<!-- Generator: Adobe Illustrator 16.0.4, SVG Export Plug-In . SVG Version: 6.00 Build 0)  -->
<!DOCTYPE svg PUBLIC "-//W3C//DTD SVG 1.1//EN" "http://www.w3.org/Graphics/SVG/1.1/DTD/svg11.dtd">
<svg version="1.1" id="Layer_1" xmlns="http://www.w3.org/2000/svg" xmlns:xlink="http://www.w3.org/1999/xlink" x="0px" y="0px"
	 width="528.86px" height="566.295px" viewBox="45.961 39.082 528.86 566.295"
	 enable-background="new 45.961 39.082 528.86 566.295" xml:space="preserve">
<path d="M261.605,605.377l283.754-163.838l29.462-150.833L261.6,471.539v133.838H261.605z M278.778,560.31v-80.839
	c0-0.073,0.067-0.122,0.08-0.189c0.024-0.202,0.116-0.35,0.214-0.521c0.104-0.178,0.184-0.33,0.349-0.446
	c0.055-0.05,0.061-0.129,0.128-0.166l82.351-47.54c0,0,0-0.006,0.006-0.006l2.815-1.652c0,0,0.006,0,0.012,0v-0.006l13.458-7.761
	l0,0l2.797-1.628l0,0l0,0l6.922-3.978l0,0l19.438-11.23l1.432-0.838c0,0,0,0,0.006,0c0,0,0-0.007,0.006-0.007l3.599-2.068
	c0,0,0.007,0,0.013,0v-0.006l1.145-0.643l4.234-2.454l11.519-6.671h0.006l0,0l9.254-5.318c0.012-0.006,0.012-0.012,0.024-0.012
	l0.073-0.049h0.006l2.718-1.573c0,0,0,0,0.006,0l0.092-0.055l94.383-54.48c0-0.006,0.006-0.012,0.012-0.012l0.08-0.049l15.532-8.984
	c0.171-0.104,0.373-0.049,0.563-0.073c0.165-0.031,0.317-0.135,0.495-0.104c0.019,0,0.03,0.024,0.043,0.03
	c0.184,0.043,0.3,0.196,0.453,0.3c0.178,0.122,0.379,0.196,0.489,0.379c0.013,0.012,0.037,0.012,0.049,0.03
	c0.099,0.166,0.037,0.355,0.074,0.533c0.024,0.177,0.141,0.336,0.104,0.52L532.52,431.423c0,0.019-0.024,0.03-0.03,0.055
	c-0.024,0.11-0.116,0.165-0.159,0.264c-0.123,0.251-0.251,0.478-0.478,0.624c-0.03,0.024-0.03,0.073-0.067,0.098L281.098,577.201
	c-0.245,0.135-0.508,0.202-0.765,0.202c-0.355,0-0.673-0.159-0.948-0.392c-0.074-0.062-0.129-0.11-0.184-0.184
	c-0.062-0.067-0.141-0.104-0.19-0.184c-0.073-0.129-0.019-0.264-0.049-0.393c-0.037-0.128-0.153-0.226-0.153-0.373V560.31H278.778z"
	/>
<path d="M550.084,325.467l-12.014,6.946l-17.687,90.454c-0.007,0.018-0.024,0.03-0.03,0.049c-0.025,0.116-0.123,0.184-0.166,0.287
	c-0.122,0.245-0.251,0.459-0.465,0.606c-0.037,0.024-0.037,0.073-0.073,0.098L281.838,561.191v12.031l247.792-143.073
	L550.084,325.467z"/>
<path d="M573.915,287.707l-89.634-51.75l-17.441,10.055l69.927,40.367c0.129,0.074,0.141,0.22,0.239,0.312
	c0.104,0.098,0.251,0.123,0.324,0.245c0.036,0.067,0,0.135,0.024,0.202c0.086,0.189,0.073,0.361,0.073,0.563
	c0,0.202,0.013,0.373-0.073,0.563c-0.024,0.067,0.012,0.134-0.024,0.202c-0.135,0.233-0.337,0.41-0.551,0.545
	c-0.006,0-0.006,0.012-0.013,0.012l-0.012,0.006l0,0l-12.179,7.032l-0.007,0.006c-0.006,0-0.006,0-0.006,0L260.84,448.332
	c0,0,0,0-0.006,0c-0.232,0.129-0.496,0.202-0.759,0.202s-0.526-0.073-0.759-0.202c0,0,0,0-0.006,0l-154.016-88.923
	c0-0.006-0.006-0.006-0.012-0.006l0,0l-2.179-1.249l-43.127-4.786l200.1,115.521L573.915,287.707z"/>
<path d="M62.399,283.759c-0.006,0.037-0.024,0.061-0.037,0.092c-0.031,0.184-0.128,0.312-0.227,0.471
	c-0.11,0.184-0.202,0.331-0.373,0.453c-0.055,0.043-0.067,0.129-0.128,0.159l-4.009,2.13l-3.372,2.858l-2.876,3.642l-2.301,4.388
	l-1.695,5.037l-1.04,5.741l-0.379,6.224l0.312,6.634l1.022,7.038l1.677,7.16l2.344,7.356l2.638,6.469l49.798,5.533l4.131,0.453
	l135.276,14.988l-0.826-5.085l-1.824-7.204l-2.46-7.276l-3.072-7.246l-3.635-7.069l-4.137-6.83l-4.608-6.494l-4.915-5.942
	l-5.263-5.435l-5.44-4.743l-5.545-4.027l-5.667-3.292l-0.006-0.006c-0.006,0-0.006-0.013-0.012-0.013
	c-0.22-0.128-0.416-0.312-0.551-0.551l-11.353-19.957l-13.519-18.042l-15.067-15.379l-15.924-12.007l-15.985-8.079l-14.394-3.58l0,0
	l-1.236-0.263l-13.581,0.587l-11.897,4.835l-9.486,8.905l-6.67,12.668l-3.513,15.955l-0.122,18.403c0,0.012-0.013,0.018-0.013,0.037
	s0.013,0.019,0.013,0.031l-0.006,0.177C62.442,283.698,62.399,283.723,62.399,283.759z M63.379,314.549
	c0.012-0.043,0.067-0.055,0.085-0.098c0.019-0.043-0.006-0.086,0.012-0.129l1.475-2.797c0.024-0.049,0.085-0.049,0.116-0.098
	s0.006-0.104,0.043-0.141l1.854-2.332c0.037-0.042,0.098-0.037,0.135-0.073s0.024-0.098,0.067-0.135l2.179-1.867
	c0.049-0.042,0.116-0.018,0.165-0.055c0.049-0.037,0.055-0.104,0.11-0.135l8.121-4.314l0.166-24.493
	c0-0.061,0.055-0.098,0.067-0.153c0.006-0.055-0.043-0.104-0.031-0.165l2.711-12.326c0.019-0.074,0.098-0.104,0.123-0.171
	s-0.012-0.141,0.019-0.214l5.227-9.908c0.042-0.08,0.141-0.092,0.196-0.165c0.055-0.074,0.037-0.172,0.11-0.239l7.466-7.026
	c0.074-0.073,0.184-0.049,0.27-0.104c0.085-0.055,0.11-0.166,0.208-0.202l8.287-3.348c0,0,0,0,0.006,0l0,0l1.145-0.453
	c0.086-0.037,0.166,0.018,0.257,0c0.085-0.019,0.134-0.104,0.226-0.11l10.337-0.587c0.08,0,0.116,0.061,0.189,0.067
	c0.067,0,0.129-0.055,0.196-0.037l0.422,0.085c0.012,0,0.019,0.019,0.031,0.019s0.024-0.006,0.043-0.006l11.977,2.999
	c0.062,0.012,0.086,0.085,0.141,0.11c0.062,0.019,0.123-0.012,0.178,0.012l12.319,6.243c0.043,0.024,0.049,0.08,0.092,0.11
	c0.043,0.031,0.098,0.006,0.135,0.037l12.197,9.204c0.037,0.024,0.031,0.074,0.061,0.104c0.031,0.03,0.08,0.018,0.11,0.049
	l11.524,11.763c0.024,0.024,0.012,0.067,0.037,0.098c0.024,0.024,0.067,0.019,0.092,0.055l10.331,13.782
	c0.019,0.031,0.006,0.067,0.024,0.098c0.019,0.031,0.062,0.031,0.08,0.062l15.19,26.677l11.922,6.94
	c0.024,0.012,0.024,0.049,0.049,0.061s0.055,0,0.08,0.019l3.421,2.472c0.019,0.019,0.019,0.049,0.043,0.074
	c0.019,0.012,0.049,0,0.067,0.024l3.335,2.919c0.018,0.013,0.012,0.043,0.031,0.062c0.018,0.012,0.042,0.006,0.061,0.024
	l3.194,3.299c0.013,0.018,0.006,0.042,0.025,0.061c0.018,0.018,0.042,0.012,0.055,0.031l3.023,3.66
	c0.012,0.018,0.006,0.042,0.019,0.055c0.012,0.018,0.037,0.018,0.049,0.037l2.093,2.938l0.698,0.967
	c0.012,0.019,0,0.049,0.012,0.067c0.012,0.019,0.043,0.019,0.055,0.043l2.528,4.174c0.006,0.012,0,0.031,0.006,0.049
	c0.006,0.012,0.031,0.019,0.037,0.037l2.001,3.825c0.073,0.141,0.012,0.294,0.037,0.44c0.031,0.153,0.141,0.27,0.128,0.429
	c-0.006,0.061-0.061,0.085-0.073,0.141c-0.031,0.165-0.128,0.275-0.22,0.422c-0.117,0.189-0.221,0.361-0.398,0.483
	c-0.055,0.037-0.061,0.11-0.123,0.135c-0.22,0.116-0.465,0.171-0.698,0.171c0,0,0,0-0.006,0l0,0c-0.055,0-0.11,0-0.166-0.012
	L62.895,330.754c-0.049,0-0.073-0.055-0.122-0.067c-0.239-0.049-0.447-0.135-0.637-0.294c-0.061-0.049-0.116-0.092-0.171-0.147
	c-0.043-0.055-0.08-0.092-0.122-0.141c-0.031-0.043-0.08-0.055-0.104-0.104c-0.061-0.11-0.012-0.227-0.042-0.349
	c-0.037-0.128-0.153-0.208-0.159-0.349l-0.171-3.538c0-0.03,0.031-0.049,0.031-0.079c0-0.031-0.031-0.055-0.031-0.086l0.227-3.874
	c0-0.037,0.037-0.055,0.042-0.092c0-0.037-0.024-0.061-0.018-0.098l0.655-3.586c0.006-0.043,0.055-0.061,0.067-0.098
	c0.006-0.037-0.024-0.08-0.006-0.116L63.379,314.549z"/>
<path d="M238.319,573.223v-12.031l-128.11-73.979c-0.037-0.025-0.037-0.074-0.067-0.099c-0.22-0.141-0.349-0.36-0.471-0.611
	c-0.049-0.104-0.141-0.166-0.165-0.282c-0.006-0.018-0.025-0.03-0.031-0.049l-17.681-90.435l-12.032-6.958l20.453,104.701
	L238.319,573.223z"/>
<polygon points="238.319,557.66 238.319,480.352 95.301,397.769 112.339,484.905 "/>
<path d="M84.499,504.869l174.046,100.508V471.545L55.031,354.042L84.499,504.869z M76.286,385.015
	c0.006-0.019,0.031-0.019,0.043-0.037c0.11-0.171,0.312-0.245,0.483-0.367c0.159-0.11,0.275-0.263,0.459-0.306
	c0.019-0.006,0.024-0.024,0.043-0.031c0.202-0.042,0.379,0.074,0.569,0.116c0.165,0.031,0.336-0.024,0.489,0.062l15.545,8.99
	l146.696,84.701c0.062,0.037,0.067,0.122,0.129,0.165c0.159,0.123,0.245,0.27,0.342,0.447c0.104,0.171,0.19,0.318,0.214,0.52
	c0.012,0.074,0.08,0.123,0.08,0.19v80.839v15.563c0,0.141-0.116,0.238-0.153,0.373c-0.037,0.135,0.018,0.27-0.055,0.392
	c-0.049,0.086-0.128,0.122-0.19,0.184c-0.061,0.079-0.116,0.128-0.184,0.184c-0.275,0.232-0.6,0.392-0.948,0.392
	c-0.257,0-0.521-0.067-0.765-0.202L98.079,495.786c-0.037-0.024-0.037-0.073-0.067-0.098c-0.227-0.141-0.361-0.373-0.477-0.624
	c-0.049-0.098-0.135-0.153-0.159-0.264c-0.006-0.024-0.031-0.036-0.031-0.055l-21.23-108.691c-0.037-0.189,0.074-0.349,0.104-0.526
	C76.249,385.351,76.188,385.18,76.286,385.015z"/>
<path d="M73.654,321.342l-0.128-2.62c0-0.03,0.03-0.049,0.03-0.08c0-0.03-0.03-0.055-0.03-0.085l0.238-3.874
	c0-0.037,0.037-0.055,0.043-0.092c0-0.037-0.024-0.061-0.018-0.098l0.667-3.562c0.006-0.037,0.049-0.049,0.061-0.092
	c0.006-0.037-0.019-0.067-0.006-0.11l1.064-3.213c0.012-0.043,0.067-0.055,0.086-0.104c0.018-0.049-0.012-0.092,0.012-0.128
	l0.251-0.471l-4.707,2.503l-1.94,1.658l-1.677,2.112l-1.347,2.564l-0.998,2.956l-0.624,3.403l-0.214,3.69l0.043,0.948
	L73.654,321.342z"/>
<path d="M90.086,270.864c0-0.061,0.061-0.098,0.067-0.153c0.006-0.055-0.043-0.11-0.031-0.171l2.736-12.362
	c0.018-0.074,0.098-0.104,0.122-0.178c0.025-0.067-0.018-0.135,0.019-0.202l4.529-8.605l-1.842,0.747l-7.068,6.653l-5.012,9.504
	l-2.632,11.965l-0.153,22.583l9.131-5.257L90.086,270.864z"/>
<polygon points="361.142,434.568 281.838,480.352 281.838,557.66 361.142,511.876 "/>
<polygon points="67.853,328.227 218.649,344.922 217.994,343.68 215.534,339.616 215.265,339.249 75.551,323.778 "/>
<path d="M212.884,335.908l-0.086-0.123l-2.956-3.58l-3.115-3.213l-3.213-2.809l-3.317-2.405l-12.191-7.099c0,0,0,0-0.006,0
	l-0.006-0.006c-0.006,0-0.006-0.012-0.012-0.018c-0.22-0.128-0.41-0.312-0.545-0.545l-15.343-26.946l-10.214-13.635l-11.365-11.604
	l-11.995-9.051l-12.038-6.102l-11.799-2.956l-0.171-0.031l-9.89,0.557l-0.649,0.257l-3.17,2.956l-4.988,9.486l-2.656,12.007
	l-0.147,25.239c0,0.074-0.067,0.117-0.08,0.184c-0.024,0.202-0.116,0.349-0.22,0.521s-0.178,0.324-0.343,0.447
	c-0.055,0.043-0.061,0.128-0.128,0.165l-10.337,5.961l-0.459,0.386l-1.652,2.093l-1.353,2.564l-0.991,2.999l-0.637,3.366
	l-0.227,3.703l0.11,2.154L212.884,335.908z"/>
<polygon points="386.288,424.93 386.833,419.728 383.191,421.82 383.112,422.671 384.6,423.724 "/>
<path d="M437.268,390.608l-5.771,3.317l-1.028,10.012c0,0.049-0.049,0.073-0.062,0.122c-0.024,0.166-0.129,0.275-0.214,0.429
	c-0.11,0.189-0.202,0.373-0.38,0.496c-0.049,0.03-0.049,0.098-0.098,0.128l-10.098,5.826l-0.784,7.491
	c-0.006,0.049-0.049,0.073-0.055,0.122c-0.037,0.159-0.135,0.275-0.214,0.417c-0.116,0.195-0.202,0.379-0.386,0.508
	c-0.043,0.03-0.043,0.092-0.092,0.122l-4.254,2.473c-0.238,0.141-0.502,0.202-0.759,0.208c-0.006,0-0.006,0-0.006,0l0,0
	c-0.062,0-0.11,0-0.159-0.013c-0.049,0-0.073-0.049-0.116-0.061c-0.189-0.037-0.38-0.086-0.545-0.19
	c-0.019-0.012-0.055-0.006-0.073-0.024l-5.251-3.727l-18.611,10.759c-0.238,0.135-0.501,0.196-0.752,0.202c0,0-0.007,0-0.013,0l0,0
	c-0.055,0-0.11,0-0.153-0.013c-0.049,0-0.073-0.055-0.122-0.061c-0.189-0.037-0.373-0.086-0.538-0.184
	c-0.024-0.019-0.05-0.007-0.074-0.024l-3.831-2.712l-2.215-1.566c-0.062-0.043-0.062-0.129-0.11-0.178
	c-0.153-0.135-0.214-0.293-0.306-0.478c-0.056-0.122-0.178-0.195-0.202-0.33l-0.282,0.165l0,0l-12.692,7.313v73.636l54.027-31.206
	L437.268,390.608z"/>
<polygon points="517.52,421.594 534.558,334.439 443.59,386.961 426.558,474.109 "/>
<polygon points="406.288,408.491 390.101,417.836 389.373,424.868 405.566,415.511 "/>
<path d="M364.538,508.577c-0.074-0.061-0.129-0.11-0.184-0.184c-0.049-0.055-0.116-0.092-0.153-0.146v1.021l0.753-0.435
	C364.795,508.768,364.673,508.682,364.538,508.577z"/>
<path d="M427.507,402.842l0.722-7.025l-7.546,4.37c0,0.036,0.03,0.061,0.03,0.098l-0.716,6.897L427.507,402.842z"/>
<polygon points="410.744,412.854 411.02,412.701 411.784,405.309 410.982,405.773 410.218,413.167 410.744,412.86 "/>
<polygon points="416.649,409.844 417.365,402.94 416.387,403.503 414.894,417.909 415.872,417.334 "/>
<polygon points="532.941,287.707 463.786,247.78 454.661,253.043 523.811,292.982 "/>
<path d="M245.363,373.76c-0.049,0.019-0.074,0.074-0.129,0.08c-0.08,0.019-0.159,0.024-0.239,0.024l0,0l0,0l0,0
	c-0.055,0-0.11,0-0.165-0.012l-134.138-14.865l149.396,86.249L520.77,294.745l-69.175-39.939L416.472,275.1l0.717,2.472
	c0.043,0.147-0.05,0.27-0.05,0.417c0,0.202,0.013,0.373-0.061,0.557c-0.073,0.19-0.202,0.306-0.349,0.453
	c-0.099,0.104-0.123,0.251-0.251,0.324l-12.179,7.062c-0.08,0.043-0.159,0.031-0.239,0.061c-0.049,0.019-0.061,0.074-0.11,0.086
	c-0.141,0.042-0.281,0.061-0.416,0.061l0,0c0,0,0,0-0.006,0c-0.055,0-0.116,0-0.171-0.006l-5.692-0.636l-151.91,87.712
	C245.632,373.729,245.498,373.729,245.363,373.76z"/>
<polygon points="413.914,277.278 413.198,274.806 405.664,248.937 396.196,254.396 404.459,282.762 "/>
<polygon points="398.528,282.963 401.423,283.288 393.21,255.087 390.315,254.775 "/>
<polygon points="393.032,251.99 394.066,252.101 401.766,247.651 400.737,247.541 "/>
<path d="M107.773,218.985c0.067,0,0.122,0.067,0.189,0.073c0.073,0.006,0.128-0.049,0.202-0.037l1.487,0.324
	c0.006,0,0.012,0.012,0.019,0.012s0.019-0.006,0.024,0l14.553,3.623c0.062,0.012,0.086,0.086,0.141,0.104
	c0.055,0.024,0.122-0.012,0.177,0.012l16.267,8.226c0.043,0.024,0.049,0.079,0.092,0.11s0.098,0.006,0.135,0.037l16.126,12.154
	c0.037,0.025,0.031,0.074,0.061,0.104c0.031,0.03,0.08,0.018,0.11,0.049l15.22,15.539c0.025,0.024,0.013,0.067,0.037,0.098
	c0.024,0.024,0.067,0.018,0.092,0.055l13.629,18.195c0.019,0.031,0.006,0.067,0.025,0.098c0.018,0.03,0.061,0.03,0.079,0.061
	l11.2,19.682l5.379,3.127c0.025,0.012,0.025,0.049,0.049,0.067c0.024,0.012,0.055,0,0.08,0.019l5.667,4.112
	c0.018,0.013,0.018,0.043,0.037,0.062c0.019,0.018,0.049,0.006,0.067,0.024l5.551,4.841c0.019,0.019,0.012,0.043,0.031,0.062
	c0.018,0.018,0.049,0.012,0.067,0.03l5.324,5.496c0.012,0.018,0.006,0.042,0.024,0.061c0.019,0.018,0.037,0.012,0.055,0.031
	l5.024,6.071c0.012,0.019,0,0.043,0.019,0.061c0.012,0.012,0.037,0.012,0.049,0.031l4.645,6.548c0.012,0.019,0,0.043,0.012,0.061
	c0.006,0.012,0.031,0.012,0.043,0.037l4.198,6.921c0.012,0.012,0,0.037,0.006,0.055c0.006,0.019,0.03,0.019,0.042,0.037l3.69,7.185
	c0.006,0.019,0,0.043,0.006,0.061c0.006,0.019,0.03,0.024,0.043,0.043l3.121,7.35c0.006,0.024-0.006,0.043,0,0.061
	c0.006,0.025,0.037,0.025,0.042,0.049l2.497,7.375c0.006,0.024-0.012,0.043,0,0.061c0.006,0.024,0.031,0.031,0.037,0.055
	l1.854,7.326c0.006,0.024-0.012,0.049-0.006,0.073c0,0.024,0.03,0.037,0.037,0.062l0.802,4.963l149.395-86.255l-8.801-30.214
	c-0.036-0.104,0.037-0.202,0.031-0.306c-0.007-0.104-0.099-0.178-0.086-0.288c0.006-0.043,0.055-0.067,0.062-0.11
	c0.018-0.104,0.061-0.177,0.104-0.269c0.062-0.153,0.147-0.257,0.257-0.379c0.092-0.11,0.142-0.221,0.258-0.3
	c0.042-0.024,0.042-0.08,0.085-0.098l12.197-7.038c0.147-0.085,0.318-0.031,0.472-0.061c0.159-0.037,0.294-0.153,0.453-0.135
	l6.181,0.667c0.043,0,0.062,0.049,0.11,0.055c0.098,0.018,0.171,0.061,0.275,0.104c0.153,0.061,0.251,0.153,0.379,0.257
	c0.11,0.092,0.215,0.147,0.294,0.263c0.03,0.037,0.08,0.037,0.104,0.074c0.03,0.061,0,0.128,0.024,0.184
	c0.024,0.061,0.098,0.085,0.122,0.153l7.527,25.869l35.239-20.355c0,0,0-0.006,0.006-0.006l12.186-7.026c0.006,0,0.012,0,0.012,0
	l20.49-11.818l76.702-44.309l-0.979-5.992l-1.817-7.252l-2.461-7.265l-3.072-7.209l-3.647-7.117l-4.149-6.824l-4.577-6.457
	l-4.964-5.979l-5.227-5.416l-5.446-4.743l-5.569-4.045l-5.637-3.287h-0.006l-0.013-0.006c-0.006-0.006-0.006-0.012-0.012-0.019
	c-0.215-0.128-0.404-0.306-0.545-0.544l-11.358-19.939l-13.52-18.06l-15.055-15.392l-15.937-12.032l-15.967-8.048L424.826,39.1
	l-0.123-0.019l-13.653,0.612l-12.062,4.89L96.011,219.499L107.773,218.985z"/>
</svg>
