<?xml version="1.0" encoding="utf-8"?>
<!-- Generator: Adobe Illustrator 16.0.4, SVG Export Plug-In . SVG Version: 6.00 Build 0)  -->
<!DOCTYPE svg PUBLIC "-//W3C//DTD SVG 1.1//EN" "http://www.w3.org/Graphics/SVG/1.1/DTD/svg11.dtd">
<svg version="1.1" id="Layer_1" xmlns="http://www.w3.org/2000/svg" xmlns:xlink="http://www.w3.org/1999/xlink" x="0px" y="0px"
	 width="566.645px" height="566.645px" viewBox="22.675 36.181 566.645 566.645"
	 enable-background="new 22.675 36.181 566.645 566.645" xml:space="preserve">
<path d="M409.354,374.617L589.319,319.5l-179.965-55.123l54.627-102.858l-102.864,54.627L306,36.181l-55.129,179.965
	l-102.859-54.627l54.627,102.858L22.675,319.5l179.964,55.117l-54.627,102.859l102.859-54.627L306,602.825l55.117-179.977
	l102.864,54.627L409.354,374.617z M162.205,178.819l74.976,74.982l-30.239,9.26L162.205,178.819z M165.326,463.296l74.976-74.982
	l9.26,30.238L165.326,463.296z M241.018,380.522L50.906,322.297h248.337L241.018,380.522z M303.203,312.744l-58.232-58.226
	l58.232-190.105V312.744z M449.789,460.174l-74.976-74.982l30.238-9.266L449.789,460.174z M446.668,175.698l-74.976,74.982
	l-9.266-30.239L446.668,175.698z M370.97,258.478l190.112,58.226H312.75L370.97,258.478z M308.791,326.256l58.226,58.226
	l-58.226,190.112V326.256z"/>
</svg>
