<?xml version="1.0" encoding="utf-8"?>
<!-- Generator: Adobe Illustrator 16.0.4, SVG Export Plug-In . SVG Version: 6.00 Build 0)  -->
<!DOCTYPE svg PUBLIC "-//W3C//DTD SVG 1.1//EN" "http://www.w3.org/Graphics/SVG/1.1/DTD/svg11.dtd">
<svg version="1.1" id="Layer_1" xmlns="http://www.w3.org/2000/svg" xmlns:xlink="http://www.w3.org/1999/xlink" x="0px" y="0px"
	 width="299.881px" height="219.752px" viewBox="0 0 299.881 219.752" enable-background="new 0 0 299.881 219.752"
	 xml:space="preserve">
<path fill-rule="evenodd" clip-rule="evenodd" d="M214.014,0c6.487,1.367,13.085,2.348,19.443,4.168
	c28.884,8.267,50.7,25.693,66.424,52.063c-10.336,5.355-20.423,10.581-30.627,15.868c-21.844-32-51.344-43.33-89.823-33.879
	c17.314,21.145,26.408,44.595,26.478,71.187c0.07,26.693-8.878,50.209-26.402,71.316c17.133,5.657,33.593,5.467,50.025-0.509
	c16.385-5.958,28.991-16.656,38.688-31.659c10.329,5.295,20.473,10.496,30.938,15.861c-13.518,22.52-31.938,38.733-56.171,47.864
	c-30.277,11.408-60.062,9.74-88.942-4.931c-3.12-1.584-5.273-1.323-8.192,0.197C95.168,233.94,31.066,215.434,2.047,166.126
	c-0.248-0.421-0.403-0.896-0.798-1.794c10.028-5.174,20.027-10.335,30.56-15.769c12.464,19.021,29.617,31.248,52.123,35.234
	c12.176,2.156,24.176,1.075,36.694-3.005c-17.208-20.754-26.361-44.176-26.392-70.753c-0.031-26.646,8.798-50.239,26.225-71.361
	c-17.345-5.525-34.001-5.326-50.558,0.908c-16.637,6.265-29.332,17.351-38.674,32.651C20.898,66.91,10.887,61.743,0,56.125
	c4.049-5.658,7.537-11.3,11.768-16.315C30.382,17.75,54.037,4.698,82.727,0.91c1.122-0.148,2.203-0.6,3.303-0.91
	c6.666,0,13.332,0,19.998,0c0.615,0.236,1.215,0.621,1.848,0.688c14.22,1.496,27.55,5.758,40.164,12.481
	c1.239,0.661,3.414,0.218,4.905-0.357c7.259-2.793,14.294-6.245,21.682-8.609c6.27-2.006,12.913-2.847,19.391-4.203
	C200.682,0,207.348,0,214.014,0z M149.9,161.44c30.765-30.461,25.484-80.481-0.145-102.565
	C122.3,85.299,122.249,133.021,149.9,161.44z"/>
<path fill-rule="evenodd" clip-rule="evenodd" fill="#FFFFFF" d="M194.016,0c-6.478,1.356-13.121,2.197-19.391,4.203
	c-7.388,2.364-14.423,5.815-21.682,8.609c-1.491,0.575-3.666,1.019-4.905,0.357c-12.614-6.724-25.944-10.986-40.164-12.481
	c-0.633-0.066-1.233-0.451-1.848-0.688C135.357,0,164.686,0,194.016,0z"/>
<path fill-rule="evenodd" clip-rule="evenodd" fill="#FFFFFF" d="M149.9,161.44c-27.651-28.419-27.6-76.142-0.145-102.565
	C175.384,80.959,180.665,130.979,149.9,161.44z"/>
</svg>
