<?xml version="1.0" encoding="utf-8"?>
<!-- Generator: Adobe Illustrator 16.0.4, SVG Export Plug-In . SVG Version: 6.00 Build 0)  -->
<!DOCTYPE svg PUBLIC "-//W3C//DTD SVG 1.1//EN" "http://www.w3.org/Graphics/SVG/1.1/DTD/svg11.dtd">
<svg version="1.1" id="Layer_1" xmlns="http://www.w3.org/2000/svg" xmlns:xlink="http://www.w3.org/1999/xlink" x="0px" y="0px"
	 width="612px" height="612px" viewBox="0 13.5 612 612" enable-background="new 0 13.5 612 612" xml:space="preserve">
<path d="M199.311,487.155l-60.966-60.966l0,0l-37.517-35.172L70.345,421.5l46.896,46.896l0,0l4.69,4.689L0,595.018L30.483,625.5
	l121.931-121.931l4.69,4.689l0,0L204,555.155l30.483-30.482L199.311,487.155L199.311,487.155L199.311,487.155z M412.689,487.155
	l60.966-60.966l0,0l37.518-35.172l30.482,30.483l-46.896,46.896l0,0l-4.689,4.689L612,595.018L581.518,625.5L459.586,503.569
	l-4.689,4.689l0,0L408,555.155l-30.482-30.482L412.689,487.155L412.689,487.155L412.689,487.155z M58.621,20.535l248.552,248.552
	L553.379,20.535L612,13.5l-7.034,58.621L356.414,320.672L459.586,421.5L408,473.086L307.173,369.914L204,473.086L152.414,421.5
	l103.172-100.828L7.035,72.121L0,13.5L58.621,20.535L58.621,20.535z"/>
</svg>
