<?xml version="1.0" encoding="utf-8"?>
<!-- Generator: Adobe Illustrator 16.0.4, SVG Export Plug-In . SVG Version: 6.00 Build 0)  -->
<!DOCTYPE svg PUBLIC "-//W3C//DTD SVG 1.1//EN" "http://www.w3.org/Graphics/SVG/1.1/DTD/svg11.dtd">
<svg version="1.1" id="Layer_1" xmlns="http://www.w3.org/2000/svg" xmlns:xlink="http://www.w3.org/1999/xlink" x="0px" y="0px"
	 width="299.852px" height="299.938px" viewBox="0 0 299.852 299.938" enable-background="new 0 0 299.852 299.938"
	 xml:space="preserve">
<path fill="#FFFFFF" d="M292.964,0c-4.584,53.037-12.721,105.414-29.073,156.261c-0.146,0.455-0.422,0.87-0.991,2.021
	c-3.186-3.16-6.155-6.136-9.159-9.078c-3.653-3.58-10.21-4.202-14.463-1.269c-8.334,5.746-16.615,11.566-25.228,17.57
	c-14.339-15.651-28.483-31.094-42.888-46.817c1.701-1.484,3.253-2.838,4.806-4.192c-0.111-0.21-0.224-0.42-0.335-0.63
	c-1.816,0.949-3.633,1.897-5.991,3.129c-22.228-24.275-44.555-48.66-67.36-73.567c2.028-0.937,3.564-1.737,5.167-2.369
	c24.088-9.506,49.38-13.622,74.948-15.991c31.058-2.877,61.967-6.298,91.489-17.13c6.166-2.264,12.06-5.271,18.077-7.937
	C292.297,0,292.63,0,292.964,0z"/>
<path fill="#FFFFFF" d="M2,0c5.77,1.98,11.495,4.098,17.314,5.915c15.409,4.813,30.883,9.42,46.265,14.315
	c2.413,0.768,4.951,2.186,6.643,4.027c44.401,48.336,88.7,96.768,133.01,145.188c0.438,0.479,0.808,1.021,1.542,1.96
	c-12.667,7.973-23.193,17.888-30.303,31.594c-1.302-1.018-2.472-1.826-3.521-2.769c-48.33-43.41-96.667-86.814-144.908-130.321
	c-1.98-1.787-3.531-4.396-4.487-6.922C15.947,42.909,8.535,22.756,1.04,2.634C0.82,2.042,0.353,1.542,0,1
	C0.667,0.667,1.333,0.333,2,0z"/>
<path fill="#FFFFFF" d="M69.555,245.171c-11.952,12.482-21.126,26.562-30.065,40.812c-0.708,1.128-1.372,2.283-2.064,3.421
	c-6.242,10.251-6.24,10.242-18.1,7.032c-4.81-1.303-9.632-2.557-15.3-4.059c32.93-47.272,68.282-91.787,111.841-129.811
	c17.853,15.634,35.593,31.171,53.484,46.841c-6.306,8.728-12.451,17.214-18.573,25.718c-4.949,6.875-4.347,12.439,1.927,18.235
	c2.164,1.997,4.321,4.002,7.165,6.637C127.257,267.081,97.426,263.667,69.555,245.171z"/>
<path fill="#FFFFFF" d="M201.962,229.165c-10.141,9.691-20.093,19.202-30.419,29.072c-5.126-4.696-10.218-9.362-15.583-14.278
	c8.604-11.938,17.61-23.294,25.341-35.462c8.32-13.096,19.025-23.148,32.094-31.307c11.123-6.943,21.614-14.897,32.331-22.366
	c4.566,4.802,8.994,9.454,14.422,15.16c-9.886,9.035-20.422,18.666-30.989,28.323c11.536,14.449,21.98,27.614,32.585,40.648
	c0.805,0.988,2.811,1.593,4.162,1.453c18.072-1.862,33.343,10.899,33.929,28.516c0.589,17.666-14.073,31.957-31.763,30.963
	c-17.336-0.977-30.126-17.062-27.368-34.84c0.571-3.679-0.419-5.715-3.25-7.896C225.61,248.025,213.954,238.657,201.962,229.165z"/>
<path fill="#FFFFFF" d="M107.975,155.592c-24.167,17.481-48.244,34.236-66.47,58.865c-19.862-39.605-15.353-77.605,3.708-115.833
	C66.305,117.768,86.967,136.522,107.975,155.592z"/>
</svg>
