<?xml version="1.0" encoding="utf-8"?>
<!-- Generator: Adobe Illustrator 16.0.4, SVG Export Plug-In . SVG Version: 6.00 Build 0)  -->
<!DOCTYPE svg PUBLIC "-//W3C//DTD SVG 1.1//EN" "http://www.w3.org/Graphics/SVG/1.1/DTD/svg11.dtd">
<svg version="1.1" id="Layer_1" xmlns="http://www.w3.org/2000/svg" xmlns:xlink="http://www.w3.org/1999/xlink" x="0px" y="0px"
	 width="633.825px" height="470.73px" viewBox="-12.137 81.322 633.825 470.73"
	 enable-background="new -12.137 81.322 633.825 470.73" xml:space="preserve">
<path fill="#FFFFFF" d="M339.863,550.959h169.931c50.979,0,58.263-92.248,12.138-92.248c-70.4-2.428-114.096-2.428-135.945-2.428
	c-21.848,0-38.841-4.855-60.689,9.711l0,0C296.167,485.414,305.876,541.248,339.863,550.959z"/>
<path fill="#FFFFFF" d="M444.249,235.373c24.276,0,65.545,2.428,126.234,2.428c72.827-7.283,72.827-101.958-31.559-97.104H415.118
	c4.854,9.71,7.282,16.993,9.71,26.704l0,0C429.684,191.676,436.967,215.952,444.249,235.373z"/>
<path fill="#FFFFFF" d="M497.656,342.186c12.138,0,29.131,0,53.406,0c60.689,0,67.973-80.11,7.283-87.393
	c-48.552-2.428-84.966-2.428-106.814-2.428l0,0c9.711,24.276,21.849,46.124,31.559,63.117l0,0
	C490.373,325.194,495.229,334.904,497.656,342.186z"/>
<path fill="#FFFFFF" d="M400.553,356.752c-75.256-7.283-60.689,80.111-24.275,82.537l0,0c43.695,4.855,106.812,2.428,152.938,2.428
	c63.117,4.855,67.973-72.827,19.42-82.538c-21.848,0-36.413,0-48.551,0c0,2.428-2.428,7.283-4.855,12.139l0,0
	c-7.283,7.282-16.993,12.138-29.131,12.138C439.395,383.456,419.973,371.318,400.553,356.752z"/>
<path fill="#FFFFFF" d="M145.656,150.407c-29.131,36.414-80.11,55.834-157.793,60.689v245.187
	c58.262-7.283,97.104-2.428,114.096,7.283c50.979,65.545,121.38,94.676,208.773,87.393c-26.704-26.703-26.704-77.684,7.282-101.959
	l0,0c7.282-4.855,14.565-7.283,24.276-7.283c-26.704-38.84-12.139-99.531,43.695-101.958c-14.564-16.993-29.131-36.414-43.695-60.69
	c-29.132,46.125-60.69,75.255-94.676,87.393c-36.414,12.138-75.255,4.855-114.097-26.703c-2.427-2.428-4.854-7.283,0-12.139
	c2.428-2.427,7.283-4.854,9.711,0c36.414,26.704,67.973,33.986,99.531,24.276c31.559-12.138,63.117-43.697,92.249-94.676
	l7.283-12.138l7.282,12.138c21.849,38.841,41.269,65.545,60.689,84.965l0,0c14.565,14.566,33.986,26.704,55.835,24.276l0,0
	c12.138,0,21.848-7.283,16.992-19.421c-7.282-21.848-33.985-50.979-46.123-87.393c-19.421-46.124-29.131-94.676-46.125-140.8
	c-7.282-14.565-21.848-31.559-46.124-36.414C286.456,75.152,182.069,104.283,145.656,150.407z"/>
</svg>
