<?xml version="1.0" encoding="utf-8"?>
<!-- Generator: Adobe Illustrator 16.0.4, SVG Export Plug-In . SVG Version: 6.00 Build 0)  -->
<!DOCTYPE svg PUBLIC "-//W3C//DTD SVG 1.1//EN" "http://www.w3.org/Graphics/SVG/1.1/DTD/svg11.dtd">
<svg version="1.1" id="Layer_1" xmlns="http://www.w3.org/2000/svg" xmlns:xlink="http://www.w3.org/1999/xlink" x="0px" y="0px"
	 width="277.706px" height="294.832px" viewBox="0 0 277.706 294.832" enable-background="new 0 0 277.706 294.832"
	 xml:space="preserve">
<path fill-rule="evenodd" clip-rule="evenodd" d="M224.834,94.935c-1.318,1.631-2.668,3.638-4.345,5.32
	c-45.395,45.52-90.823,91.005-136.246,136.497c-18.239,18.267-36.58,36.434-54.633,54.881c-3.62,3.698-6.986,4.022-11.087,1.834
	c-7.711-4.115-13.624-10.037-17.471-17.932c-1.796-3.688-1.351-6.688,1.787-9.823c64.082-64.037,128.094-128.145,192.013-192.345
	c3.438-3.454,6.593-3.924,10.623-1.786c7.735,4.104,13.663,9.994,17.589,17.822C223.794,90.858,224.083,92.535,224.834,94.935z
	 M149.323,131.711c4.604,4.796,8.699,9.062,12.982,13.523c1.131-1.063,2.352-2.15,3.505-3.305
	c13.647-13.648,27.285-27.306,40.923-40.965c5.157-5.165,5.222-6.94,0.167-12.246c-1.361-1.43-2.989-2.639-4.62-3.768
	c-2.348-1.624-4.464-1.547-6.59,0.76c-3.38,3.667-7.005,7.108-10.554,10.618C173.098,108.235,161.046,120.13,149.323,131.711z"/>
<path fill-rule="evenodd" clip-rule="evenodd" d="M203.643,0c-7.894,22.915-1.155,38.663,23.173,46.065
	c-10.235-0.665-19.729-4.761-29.123-0.425c-9.479,4.375-12.113,14.44-17.887,22.824c8.378-23.252,0.399-38.053-22.203-45.917
	c1.324,0.188,2.652,0.363,3.975,0.566c4.272,0.658,8.53,1.438,12.818,1.967c9.005,1.11,16.021-2.195,20.719-9.974
	C198.103,10.16,200.81,5.041,203.643,0z"/>
<path fill-rule="evenodd" clip-rule="evenodd" d="M238.046,63.365c11.63,15.258,24.87,15.332,39.66,3.109
	c-15.005,12.741-16.777,26.073-3.894,39.914c-6.306-3.579-12.593-9.614-19.438-10.333c-6.742-0.709-14.051,3.97-18.629,5.471
	c2.338-4.271,8.171-10.574,8.829-17.377C245.209,77.583,240.503,70.502,238.046,63.365z"/>
<path fill-rule="evenodd" clip-rule="evenodd" d="M159.158,75.244c-12.596-8.302-13.106-8.301-26.413,0.017
	c8.383-8.671,8.51-17.292-0.021-26.295c9.221,8.804,17.795,8.256,26.827-0.25C150.91,57.605,150.655,66.327,159.158,75.244z"/>
<path fill-rule="evenodd" clip-rule="evenodd" d="M209.994,130.646c7.812-1.545,11.823-6.14,10.826-15.288
	c1.949,8.543,6.807,12.481,15.648,11.684c-8.178,2.058-12.021,6.87-11.416,15.613c-1.614-9.209-7.732-11.308-15.3-11.311
	C209.808,131.188,209.861,131.029,209.994,130.646z"/>
</svg>
