<?xml version="1.0" encoding="utf-8"?>
<!-- Generator: Adobe Illustrator 16.0.4, SVG Export Plug-In . SVG Version: 6.00 Build 0)  -->
<!DOCTYPE svg PUBLIC "-//W3C//DTD SVG 1.1//EN" "http://www.w3.org/Graphics/SVG/1.1/DTD/svg11.dtd">
<svg version="1.1" id="Layer_1" xmlns="http://www.w3.org/2000/svg" xmlns:xlink="http://www.w3.org/1999/xlink" x="0px" y="0px"
	 width="215.928px" height="215.935px" viewBox="0 0 215.928 215.935" enable-background="new 0 0 215.928 215.935"
	 xml:space="preserve">
<path fill-rule="evenodd" clip-rule="evenodd" fill="#FFFFFF" d="M215.928,206.941c0,3.061,0,6.013,0,8.993
	c-71.981,0-143.933,0-215.928,0C0,143.968,0,72.002,0,0c2.966,0,5.932,0,8.942,0c0,68.973,0,137.925,0,206.941
	C77.952,206.941,146.917,206.941,215.928,206.941z"/>
<path fill-rule="evenodd" clip-rule="evenodd" fill="#FFFFFF" d="M30.265,192.153c-2.216-2.215-4.307-4.306-6.443-6.44
	c48.203-48.224,96.434-96.476,144.74-144.804c-6.888,0-13.703,0-20.518,0c-0.009-0.045-0.017-0.091-0.025-0.136
	c16.505-7.502,33.011-15.004,49.516-22.506c0.041,0.036,0.082,0.073,0.123,0.109c-7.503,16.505-15.005,33.011-22.507,49.517
	c-0.037-0.005-0.075-0.009-0.113-0.014c0-6.811,0-13.622,0-20.432C126.749,95.714,78.499,143.941,30.265,192.153z"/>
</svg>
