<?xml version="1.0" encoding="utf-8"?>
<!-- Generator: Adobe Illustrator 16.0.4, SVG Export Plug-In . SVG Version: 6.00 Build 0)  -->
<!DOCTYPE svg PUBLIC "-//W3C//DTD SVG 1.1//EN" "http://www.w3.org/Graphics/SVG/1.1/DTD/svg11.dtd">
<svg version="1.1" id="Layer_1" xmlns="http://www.w3.org/2000/svg" xmlns:xlink="http://www.w3.org/1999/xlink" x="0px" y="0px"
	 width="248.122px" height="679.521px" viewBox="175.056 -1.183 248.122 679.521"
	 enable-background="new 175.056 -1.183 248.122 679.521" xml:space="preserve">
<path d="M251.419,252.616c0,256.309,47.725,425.722,47.725,425.722s47.706-169.413,47.715-425.731
	C315.043,249.024,283.227,249.041,251.419,252.616z M289.587,588.412c-12.939-72.537-27.946-186.333-28.604-326.25l28.604,0.008
	V588.412z"/>
<path d="M299.126-1.183c-25.402-0.009-39.719,28.812-25.238,48.9c4.69,6.509,5.055,15.181,0.951,22.071
	c-20.079,33.685-21.975,99.835-3.496,138.756c2.926,6.18-1.593,13.346-8.439,13.337h-40.123c0-31.521-47.725-31.557-47.725,0
	c0,45.317,50.866,3.956,224.26,23.862c13.172,0,23.861-10.672,23.861-23.861c0.01-31.496-47.715-31.548-47.707,0.017l-40.115-0.008
	c-3.203,0-6.18-1.645-7.902-4.336c-1.705-2.709-1.912-6.102-0.537-9.001c18.463-38.835,16.609-105.011-3.486-138.765
	c-4.121-6.872-3.73-15.553,0.951-22.053C338.879,27.63,324.545-1.174,299.126-1.183z M283.279,78.296
	c-0.19,0.467-18.591,48.398-8.171,95.55c0.831,3.67-4.777,4.951-5.6,1.238c-10.802-48.901,7.642-96.858,8.431-98.875
	C279.246,72.705,284.664,74.713,283.279,78.296z M301.939,8.952c0.32,1.549-0.676,3.081-2.198,3.41
	c-0.771,0.165-18.825,4.301-15.96,25.446c0.52,3.722-5.15,4.579-5.678,0.761C274.753,13.808,300.312,1.284,301.939,8.952z"/>
</svg>
