<?xml version="1.0" encoding="utf-8"?>
<!-- Generator: Adobe Illustrator 16.0.4, SVG Export Plug-In . SVG Version: 6.00 Build 0)  -->
<!DOCTYPE svg PUBLIC "-//W3C//DTD SVG 1.1//EN" "http://www.w3.org/Graphics/SVG/1.1/DTD/svg11.dtd">
<svg version="1.1" id="Layer_1" xmlns="http://www.w3.org/2000/svg" xmlns:xlink="http://www.w3.org/1999/xlink" x="0px" y="0px"
	 width="222.25px" height="299.283px" viewBox="0 0 222.25 299.283" enable-background="new 0 0 222.25 299.283"
	 xml:space="preserve">
<path d="M0,194.13c0-4.332,0-8.665,0-12.998c0.281-1.288,0.689-2.562,0.826-3.865c3.183-30.446,16.641-55.361,39.851-75.279
	C53.567,90.926,66.253,79.6,78.598,67.936c12.546-11.853,20.692-26.476,23.979-43.481c1.525-7.892,2.081-15.971,3.137-24.455
	c17.842,13.145,33.009,28.433,42.731,48.233c14.581,29.695,12.966,58.97-4.768,86.943c-5.239,8.265-12.061,15.512-17.62,23.594
	c-3.819,5.553-7.896,11.39-9.787,17.717c-4.968,16.615,9.32,31.053,26.142,26.881c4.778-1.185,9.605-3.036,13.795-5.592
	c21.2-12.932,32.915-32.468,37.655-56.394c1.459-7.363,1.787-14.952,2.78-23.742c3.861,5,7.528,8.901,10.223,13.385
	c10.991,18.287,15.926,38.127,15.338,59.541c-1.555,56.594-45.039,103.196-101.414,108.304
	c-49.872,4.519-99.647-28.282-114.726-76.09C3.141,213.513,1.976,203.693,0,194.13z"/>
</svg>
