<?xml version="1.0" encoding="utf-8"?>
<!-- Generator: Adobe Illustrator 16.0.4, SVG Export Plug-In . SVG Version: 6.00 Build 0)  -->
<!DOCTYPE svg PUBLIC "-//W3C//DTD SVG 1.1//EN" "http://www.w3.org/Graphics/SVG/1.1/DTD/svg11.dtd">
<svg version="1.1" id="Layer_1" xmlns:xl="http://www.w3.org/1999/xlink" xmlns:dc="http://purl.org/dc/elements/1.1/"
	 xmlns="http://www.w3.org/2000/svg" xmlns:xlink="http://www.w3.org/1999/xlink" x="0px" y="0px" width="577px" height="577px"
	 viewBox="-0.5 -0.5 577 577" enable-background="new -0.5 -0.5 577 577" xml:space="preserve">
<title>Canvas 1</title>
<circle fill="#D3AE6A" cx="288" cy="540" r="2.25"/>
<circle fill="#D3AE6A" cx="151.859" cy="500.061" r="2.25"/>
<circle fill="#D3AE6A" cx="424.141" cy="500.061" r="2.25"/>
<circle fill="#D3AE6A" cx="58.69" cy="392.503" r="2.25"/>
<circle fill="#D3AE6A" cx="517.311" cy="392.503" r="2.25"/>
<circle fill="#D3AE6A" cx="38.576" cy="252.058" r="2.25"/>
<circle fill="#D3AE6A" cx="537.424" cy="252.058" r="2.25"/>
<circle fill="#D3AE6A" cx="97.525" cy="123.005" r="2.25"/>
<circle fill="#D3AE6A" cx="478.475" cy="123.005" r="2.25"/>
<circle fill="#D3AE6A" cx="216.85" cy="46.253" r="2.25"/>
<circle fill="#D3AE6A" cx="359.15" cy="46.253" r="2.25"/>
<path fill="#D3AE6A" d="M288.003,545.001c-1.897,0-3.711-1.085-4.551-2.924L92.977,125.083c-1.147-2.512-0.042-5.479,2.47-6.625
	c2.512-1.148,5.479-0.041,6.625,2.47l190.475,416.995c1.147,2.512,0.042,5.478-2.47,6.625
	C289.404,544.855,288.698,545.001,288.003,545.001z"/>
<path fill="#D3AE6A" d="M287.997,545.001c-0.695,0-1.401-0.146-2.075-0.453c-2.512-1.147-3.618-4.113-2.47-6.625l190.475-416.995
	c1.147-2.512,4.117-3.617,6.625-2.47c2.512,1.147,3.618,4.113,2.471,6.625L292.548,542.077
	C291.708,543.916,289.894,545.001,287.997,545.001z"/>
<path fill="#D3AE6A" d="M38.574,257.059c-2.162,0-4.156-1.414-4.795-3.594c-0.777-2.65,0.741-5.428,3.39-6.206l439.899-129.052
	c2.652-0.776,5.428,0.741,6.205,3.39c0.777,2.65-0.74,5.428-3.391,6.206L39.984,256.855
	C39.514,256.993,39.04,257.059,38.574,257.059z"/>
<path fill="#D3AE6A" d="M537.426,257.059c-0.466,0-0.939-0.066-1.409-0.204L96.117,127.803c-2.649-0.777-4.167-3.556-3.39-6.206
	c0.778-2.649,3.553-4.166,6.206-3.39L538.831,247.26c2.65,0.777,4.168,3.556,3.391,6.206
	C541.582,255.645,539.588,257.059,537.426,257.059z"/>
<path fill="#D3AE6A" d="M151.864,505.062c-1.645,0-3.254-0.811-4.21-2.296c-1.494-2.322-0.822-5.416,1.5-6.91l385.564-248.003
	c2.323-1.496,5.417-0.821,6.91,1.5c1.494,2.323,0.822,5.417-1.5,6.91L154.564,504.266
	C153.728,504.804,152.79,505.062,151.864,505.062z"/>
<path fill="#D3AE6A" d="M151.866,505.062c-0.236,0-0.475-0.017-0.715-0.052c-2.733-0.392-4.632-2.925-4.241-5.658L211.9,45.544
	c0.392-2.733,2.92-4.631,5.659-4.241c2.733,0.392,4.632,2.925,4.241,5.659L156.809,500.77
	C156.452,503.263,154.313,505.062,151.866,505.062z"/>
<path fill="#D3AE6A" d="M517.312,397.503c-1.398,0-2.79-0.584-3.778-1.723L213.074,49.53c-1.81-2.085-1.586-5.243,0.5-7.053
	c2.084-1.811,5.243-1.587,7.053,0.5l300.46,346.25c1.81,2.086,1.586,5.244-0.499,7.054
	C519.642,397.101,518.475,397.503,517.312,397.503z"/>
<path fill="#D3AE6A" d="M517.311,397.503H58.69c-2.761,0-5-2.238-5-5s2.239-5,5-5h458.621c2.762,0,5,2.238,5,5
	S520.072,397.503,517.311,397.503z"/>
<path fill="#D3AE6A" d="M58.688,397.503c-1.162,0-2.329-0.402-3.275-1.224c-2.086-1.81-2.31-4.968-0.5-7.054l300.46-346.25
	c1.81-2.087,4.968-2.31,7.054-0.5c2.085,1.81,2.309,4.968,0.499,7.053L62.466,395.78C61.478,396.919,60.086,397.503,58.688,397.503z
	"/>
<path fill="#D3AE6A" d="M424.135,505.062c-2.448,0-4.587-1.799-4.943-4.292l-64.99-453.808c-0.392-2.734,1.507-5.267,4.24-5.659
	c2.736-0.392,5.268,1.508,5.658,4.241l64.99,453.808c0.392,2.733-1.507,5.267-4.24,5.658
	C424.609,505.045,424.37,505.062,424.135,505.062z"/>
<path fill="#D3AE6A" d="M424.136,505.062c-0.926,0-1.863-0.258-2.7-0.796L35.871,256.263c-2.322-1.494-2.994-4.587-1.5-6.91
	c1.494-2.322,4.587-2.994,6.91-1.5l385.564,248.003c2.322,1.494,2.994,4.588,1.5,6.91
	C427.391,504.251,425.78,505.062,424.136,505.062z"/>
</svg>
