<?xml version="1.0" encoding="utf-8"?>
<!-- Generator: Adobe Illustrator 16.0.4, SVG Export Plug-In . SVG Version: 6.00 Build 0)  -->
<!DOCTYPE svg PUBLIC "-//W3C//DTD SVG 1.1//EN" "http://www.w3.org/Graphics/SVG/1.1/DTD/svg11.dtd">
<svg version="1.1" id="Layer_1" xmlns="http://www.w3.org/2000/svg" xmlns:xlink="http://www.w3.org/1999/xlink" x="0px" y="0px"
	 width="108.737px" height="108.737px" viewBox="0 0 108.737 108.737" enable-background="new 0 0 108.737 108.737"
	 xml:space="preserve">
<rect x="2.52" y="2.52" fill="none" stroke="#FFFFFF" stroke-width="5" stroke-miterlimit="10" width="103.68" height="103.68"/>
<path fill-rule="evenodd" clip-rule="evenodd" fill="#FFFFFF" d="M65.669,9.368c10.618,0,21.236,0,31.854,0
	c0.479,0,0.964-0.033,1.438,0.019c0.148,0.016,0.339,0.24,0.391,0.406c0.067,0.219,0.017,0.475,0.017,0.715
	c0,5.219,0,10.438,0,15.657c0,0.3,0.014,0.601-0.008,0.899c-0.007,0.101-0.104,0.194-0.16,0.291
	c-0.064-0.085-0.177-0.167-0.185-0.257c-0.065-0.74,0.097-1.478-0.33-2.211c-0.229-0.393-0.203-0.359-0.511-0.124
	c-1.36,1.039-1.467,1.189-2.05,3.086c-0.441,1.436-0.694,2.926-1.338,4.306c-0.247,0.53-0.231,1.138,0.325,1.585
	c0.278,0.224,0.537,0.485,0.759,0.766c0.13,0.165,0.17,0.402,0.251,0.607c-0.17-0.054-0.338-0.113-0.51-0.161
	c-0.323-0.089-0.654-0.155-0.973-0.259c-0.841-0.275-1.535-0.197-2.222,0.49c-1.162,1.163-2.435,2.216-3.649,3.328
	c-0.531,0.486-1.117,0.746-1.856,0.744c-2.178-0.005-4.319-0.618-6.51-0.369c-0.919-0.532-1.929-0.343-2.91-0.35
	c-0.272-0.002-0.597,0.047-0.811,0.196c-1.274,0.889-1.291,1.386-0.1,2.381c0.483,0.404,1.029,0.736,1.491,1.161
	c0.271,0.249,0.336,0.008,0.525-0.059c1.622-0.577,3.276-1.07,4.876-1.701c0.406-0.16,0.555-0.121,0.893,0.083
	c1.337,0.806,2.711,1.554,4.084,2.3c0.288,0.156,0.629,0.278,0.951,0.295c0.777,0.042,1.578-0.094,2.336,0.035
	c1.958,0.335,3.081-0.728,4.037-2.189c0.253-0.387,0.593-0.716,0.893-1.072c0.18,0.405,0.463,0.796,0.518,1.218
	c0.104,0.8,0.916,1.329,0.781,2.217c-0.021,0.141,0.297,0.461,0.484,0.485c1.046,0.129,0.918,0.881,0.918,1.588
	c-0.001,17.577-0.001,35.154-0.001,52.731c0,0.181-0.015,0.361,0.003,0.54c0.042,0.426-0.055,0.639-0.568,0.633
	c-2.159-0.029-4.319-0.023-6.479-0.004c-0.432,0.005-0.749-0.146-1.121-0.349c-1.366-0.742-2.774-1.405-4.17-2.094
	c-0.293-0.145-0.542-0.186-0.631,0.257c-0.089,0.437-0.337,0.864-0.329,1.292c0.012,0.661-0.106,0.939-0.866,0.906
	c-1.557-0.07-3.118-0.011-4.678-0.025c-1.277-0.012-1.675-0.627-1.13-1.792c0.284-0.606,0.67-1.163,1.008-1.743
	c0.084-0.145,0.197-0.287,0.225-0.442c0.012-0.067-0.221-0.253-0.242-0.238c-0.932,0.643-2.03,0.899-3.046,1.344
	c-0.966,0.422-1.898,0.925-2.884,1.291c-0.39,0.145-0.909,0.109-1.318-0.013c-0.523-0.157-1.088-0.391-1.471-0.761
	c-0.709-0.687-1.444-0.718-2.215-0.286c-0.626,0.35-1.303,0.024-2.002,0.411c-0.794,0.438-1.933,0.198-2.862,0.461
	c-1.327,0.376-2.669,0.223-3.993,0.374c-0.558,0.063-1.165,0.491-1.572,0.922c-0.819,0.869-1.799,0.371-2.697,0.454
	c-0.673,0.062-1.04-0.52-1.22-1.068c-0.219-0.667-0.7-0.33-1.03-0.328c-1.296,0.006-1.3,0.04-2.063-0.759
	c-0.211-0.222-0.371-0.426-0.644-0.055c-0.444,0.604-1.207,0.935-1.422,1.757c-0.053,0.204-0.44,0.442-0.68,0.449
	c-0.465,0.014-0.288-0.42-0.295-0.677c-0.02-0.779-0.007-1.56-0.007-2.339c0-0.24,0.034-0.486-0.009-0.719
	c-0.047-0.25-2.24-1.66-2.54-1.624c-0.121,0.015-0.3,0.184-0.317,0.303c-0.066,0.462,0.085,1.198-0.146,1.339
	c-0.398,0.242-1.021,0.106-1.548,0.146c-0.403,0.031-0.499-0.161-0.486-0.528c0.024-0.659,0.01-1.319,0.006-1.979
	c-0.006-1.086-0.008-1.089-1.17-1.094c-1.14-0.004-2.281-0.032-3.419,0.007c-1.307,0.046-2.343-0.721-3.502-1.11
	c-0.094-0.032-0.178-0.445-0.098-0.583c0.737-1.259,1.524-2.488,2.267-3.744c0.224-0.378,0.352-0.812,0.523-1.222
	c-0.452-0.062-0.904-0.133-1.357-0.184c-0.107-0.012-0.267,0.002-0.324,0.069c-0.322,0.386-0.829,0.454-1.071,0.164
	c-0.213-0.255-0.255-0.862-0.097-1.175c0.368-0.724,0.291-1.461,0.342-2.205c0.014-0.203,0.152-0.439,0.306-0.585
	c1.807-1.707,3.619-3.409,5.457-5.083c0.18-0.164,0.539-0.176,0.814-0.172c0.136,0.002,0.257,0.223,0.404,0.31
	c0.617,0.365,1.242,0.718,1.863,1.074c0.749-0.509,1.493-1.026,2.251-1.521c0.177-0.115,0.406-0.151,0.61-0.223
	c0.054,0.217,0.151,0.435,0.154,0.652c0.015,1.2,0.044,2.401-0.007,3.6c-0.028,0.642,0.073,1.162,0.616,1.553
	c0.517,0.372,0.699,0.783,0.125,1.278c-0.066,0.057-0.01,0.237-0.065,0.327c-0.208,0.336-0.439,0.659-0.662,0.986
	c0.391,0.195,0.763,0.452,1.176,0.573c1.549,0.453,3.085,0.961,4.632,1.406c1.286,0.371,2.052,1.21,2.835,2.137
	c0.566,0.67,1.141,1.335,1.743,1.974c0.138,0.146,0.398,0.23,0.608,0.243c0.538,0.034,1.095-0.071,1.616,0.026
	c1.608,0.301,2.986-0.412,4.165-1.227c1.075-0.743,2.265-1.256,3.345-1.983c2.096-1.413,2.722-1.27,5.681-0.82
	c1.102,0.167,2.328,0.361,3.485-0.205c0.438-0.214,1.056-0.152,1.574-0.084c1.018,0.134,1.96-0.254,2.859-0.522
	c0.768-0.229,1.435-0.972,2.008-1.611c0.347-0.386,0.455-1,0.627-1.526c0.262-0.8,0.24-0.797,0.906-0.319
	c0.492,0.353,1.017,0.97,1.5,0.945c0.595-0.03,1.162-0.604,1.742-0.943c0.289-0.17,0.587-0.327,0.865-0.515
	c0.146-0.099,0.258-0.249,0.385-0.377c-0.149-0.062-0.297-0.13-0.449-0.184c-0.054-0.019-0.119-0.001-0.179-0.004
	c-0.711-0.021-1.421-0.044-2.132-0.066c0.477-0.552,1.05-1.047,1.403-1.669c0.416-0.73,0.996-1.281,1.546-1.879
	c0.104-0.113,0.205-0.41,0.163-0.444c-0.157-0.127-0.372-0.244-0.568-0.25c-0.899-0.024-1.812-0.103-2.696,0.014
	c-1.04,0.136-1.691-0.344-2.265-1.075c-0.1-0.128-0.125-0.312-0.22-0.446c-0.314-0.443-0.888-0.863-0.909-1.313
	c-0.03-0.624,0.339-1.271,0.556-1.902c0.184-0.532,0.461-0.571,1.148-0.46c0.548,0.09,1.164,0.127,1.685-0.03
	c2.5-0.758,4.98-1.583,7.463-2.398c1.645-0.54,1.644-0.549,3.496-2.418c0.319-0.322,0.607-0.676,0.91-1.016
	c-0.503-0.14-0.936-0.086-1.476,0.088c-1.597,0.517-3.248,0.883-4.897,1.215c-2.029,0.408-2.014,0.308-3.996-0.475
	c-0.944-0.373-1.947-1.142-3.04-0.269c-1.878,0.113-3.678,0.61-5.479,1.108c-0.384,0.105-0.979-0.029-1.151,0.195
	c-0.282,0.369-0.324,0.938-0.416,1.431c-0.054,0.29,0.018,0.602-0.016,0.897c-0.062,0.555,0.2,0.887,0.68,1.082
	c0.924,0.377,1.862,0.721,2.77,1.132c0.185,0.084,0.262,0.406,0.389,0.618c-0.365,0.142-0.044,0.929-0.73,0.775
	c-0.114-0.025-0.244,0.019-0.357-0.008c-0.492-0.11-0.977-0.264-1.474-0.348c-0.501-0.085-0.97-0.096-1.493-0.309
	c-1.111-0.452-2.429,0.077-2.971,1.258c-0.504,1.099-1.22,1.274-2.229,1.21c-0.657-0.041-1.321-0.031-1.979,0
	c-0.623,0.029-1.21,0.052-1.854,0.291c-0.973,0.362-1.989-0.285-2.988-0.492c-0.378-0.078-0.734-0.254-1.104-0.372
	c-0.745-0.238-1.386-0.281-2.104,0.295c-0.674,0.541-1.521,1.238-2.439,0.942c-0.748-0.241-1.473-0.217-2.202-0.339
	c-0.488-0.081-0.93-0.354-1.475-0.357c-0.491-0.003-0.983-0.205-1.469-0.343c-0.11-0.031-0.193-0.162-0.289-0.246
	c0.573-0.479,0.039-1.215,0.331-1.651c0.214-0.319,0.121-0.815,0.746-1.032c0.879-0.305,1.68-0.934,2.405-1.552
	c0.905-0.771,1.009-0.802,0.426-1.875c-0.667-1.229-0.873-2.598-0.751-4.01c0.042-0.485-0.118-0.316-0.465-0.175
	c-0.873,0.357-1.804,0.576-2.72,0.817c-0.173,0.045-0.489,0.055-0.249-0.342c0.229-0.376,0.318-0.845,0.577-1.193
	c0.372-0.502,0.718-1.059,1.531-1c0.42,0.03,0.853-0.244,1.29-0.326c0.739-0.14,0.93-0.352,0.717-0.948
	c-0.204-0.573-0.423-1.146-0.678-1.698c-0.442-0.961-0.704-0.993-1.588-0.271c-0.351,0.287-0.639,0.601-1.101,0.812
	c-0.846,0.385-1.633,0.758-2.669,0.647c-0.681-0.073-1.216,0.256-1.774,0.509c-0.407,0.184-0.771,0.475-1.125,0.756
	c-0.306,0.242-0.369,0.112-0.378-0.185c-0.003-0.12,0.005-0.24-0.001-0.36c-0.078-1.592-0.561-2.068-2.158-2.152
	c-0.224-0.012-0.445-0.08-0.668-0.122c0.211-0.127,0.416-0.269,0.635-0.379c0.944-0.473,1.888-0.944,2.84-1.4
	c0.805-0.385,1.017-0.34,1.482,0.257c0.835,1.071,1.132,1.147,2.331,0.607c0.303-0.137,0.63-0.412,0.91-0.372
	c0.964,0.139,0.895-0.59,0.714-0.993c-0.457-1.024-0.348-2.07-0.307-3.104c0.043-1.081-0.315-1.937-1.123-2.598
	c-0.559-0.457-0.703-0.982-0.723-1.696c-0.047-1.751-0.492-3.478-0.349-5.252c0.044-0.544-0.297-0.51-0.685-0.272
	c-0.522,0.32-1.062,0.615-1.613,0.884c-0.123,0.06-0.319-0.029-0.481-0.049c0.07-0.127,0.158-0.248,0.207-0.383
	c0.15-0.418,0.295-0.839,0.426-1.264c0.246-0.798,0.706-1.615,0.655-2.396c-0.047-0.712-0.614-1.41-1.021-2.072
	c-0.907-1.476-1.416-3.165-2.503-4.547c-0.88-1.119-1.667-2.31-2.526-3.446c-0.239-0.315-0.543-0.512-1.015-0.599
	c-0.717-0.132-1.153-0.65-1.167-1.506c-0.019-1.168-0.14-1.249-1.304-1.327c-0.803-0.054-1.514-0.528-2.375-0.401
	c-0.388,0.057-0.954-0.155-1.211-0.446c-0.215-0.244-0.181-0.795-0.112-1.185c0.122-0.689-0.111-1.313-0.458-1.794
	c-1.188-1.647-1.963-3.521-3.015-5.241c-0.339-0.555-0.558-0.935-1.349-1.073c-1.717-0.3-3.434-0.649-5.139-1.035
	c-0.264-0.06-0.492-0.273-0.755-0.341c-0.298-0.077-0.635,0.004-0.215-0.453c1.468-1.601,2.479-3.529,3.688-5.314
	c0.517-0.762,1.03-1.105,1.971-1.103C43.833,9.379,54.75,9.368,65.669,9.368z"/>
<path fill-rule="evenodd" clip-rule="evenodd" fill="#FFFFFF" d="M34.568,42.779c0-0.18-0.004-0.359,0-0.539
	c0.024-0.845,0.322-0.217,0.563-0.12c0.602,0.245,1.219,0.452,1.83,0.674c0.042-0.64,0.089-1.28,0.125-1.921
	c0.014-0.238-0.004-0.479,0.008-0.717c0.002-0.045,0.089-0.13,0.113-0.122c0.086,0.027,0.213,0.07,0.234,0.136
	c0.306,0.975,0.88,1.795,1.433,2.64c0.61,0.932,0.585,1.066-0.258,1.903c-0.477,0.474-0.465,0.695-0.061,1.288
	c0.817,1.197,1.784,2.492,1.375,4.058c-0.287,1.098-0.295,2.173-0.328,3.27c-0.003,0.1-0.097,0.196-0.149,0.294
	c-0.068-0.076-0.175-0.141-0.198-0.229c-0.154-0.595-0.269-1.202-0.437-1.793c-0.524-1.841-1.502-3.461-2.53-5.051
	c-0.49-0.757-1.072-1.462-1.493-2.255c-0.23-0.433-0.214-0.998-0.309-1.503C34.513,42.789,34.541,42.784,34.568,42.779z"/>
<path fill-rule="evenodd" clip-rule="evenodd" fill="#FFFFFF" d="M32.048,53.142c-0.111-0.538,0.129-0.963,0.573-1.334
	c0.895-0.747,1.759-1.529,2.658-2.271c0.145-0.12,0.415-0.176,0.602-0.138c0.377,0.077,0.88,0.136,1.064,0.393
	c0.204,0.284,0.113,0.781,0.141,1.187c0.013,0.179,0.012,0.36,0,0.539c-0.034,0.547,0.028,1.022,0.514,1.417
	c0.29,0.234,0.382,0.707,0.663,0.961c0.363,0.329,0.123,0.479-0.094,0.647c-1.039,0.811-2.082,1.616-3.133,2.41
	c-0.173,0.132-0.395,0.199-0.594,0.297c-0.078-0.257-0.244-0.523-0.215-0.768c0.058-0.496,0.283-0.975,0.329-1.471
	c0.09-0.985,0.059-0.989-0.885-1.001c-0.299-0.004-0.599,0.004-0.898-0.002C32.043,53.994,32.043,53.992,32.048,53.142z"/>
<path fill-rule="evenodd" clip-rule="evenodd" fill="#FFFFFF" d="M36.981,71.109c0.156,1.195,0.305,2.392,0.474,3.585
	c0.025,0.177,0.143,0.341,0.217,0.511c-0.162-0.013-0.33,0.001-0.483-0.042c-0.265-0.073-0.513-0.222-0.78-0.267
	c-0.84-0.141-1.689-0.229-2.526-0.384c-0.152-0.028-0.302-0.249-0.389-0.415c-0.39-0.745-0.312-1.62-0.688-2.396
	c-0.199-0.411-0.162-1.036,0.402-1.418c0.269-0.183,0.441-0.518,0.637-0.798c0.387-0.552,0.759-1.113,1.137-1.671
	c0.548,0.317,1.067,0.719,1.655,0.924c0.355,0.124,0.469,0.217,0.456,0.568c-0.022,0.595-0.006,1.191-0.006,1.787
	C37.052,71.098,37.017,71.103,36.981,71.109z"/>
</svg>
