<?xml version="1.0" encoding="utf-8"?>
<!-- Generator: Adobe Illustrator 16.0.4, SVG Export Plug-In . SVG Version: 6.00 Build 0)  -->
<!DOCTYPE svg PUBLIC "-//W3C//DTD SVG 1.1//EN" "http://www.w3.org/Graphics/SVG/1.1/DTD/svg11.dtd">
<svg version="1.1"
	 id="Layer_1" xmlns:svg="http://www.w3.org/2000/svg" xmlns:rdf="http://www.w3.org/1999/02/22-rdf-syntax-ns#" xmlns:dc="http://purl.org/dc/elements/1.1/" xmlns:cc="http://creativecommons.org/ns#"
	 xmlns="http://www.w3.org/2000/svg" xmlns:xlink="http://www.w3.org/1999/xlink" x="0px" y="0px" width="550.803px"
	 height="550.8px" viewBox="30.599 44.1 550.803 550.8" enable-background="new 30.599 44.1 550.803 550.8" xml:space="preserve">
<g transform="matrix(0.08145725,0,0,0.08145725,5.0001874,5.0000012)">
	<path d="M3684.805,480.01c-214.25,0.869-428.5,21.903-639.279,63.103c41.421,34.911,81.751,71.992,120.786,111.027
		c197.55,197.549,342.409,427.846,434.356,673.542c681.341-25.806,1371.146,221.186,1891.372,741.411
		c518.055,518.055,765.274,1204.396,741.632,1882.919c240.481,92.379,465.797,235.5,659.666,429.363
		c44.01,44.022,85.431,89.562,124.25,136.617c30.355-155.481,49.873-312.701,58.553-470.346v-368.431
		c-43.591-803.434-372.117-1594.292-986.021-2208.196c-658.802-658.797-1521.652-989.061-2384.934-990.793L3684.805,480.01z
		 M3692.61,1426.564c-19.302,0-38.597,0.432-57.899,0.869c202.975,650.548,46.84,1389.147-468.398,1904.385
		c-515.454,515.454-1254.047,671.588-1904.601,468.614l0,0c-16.7,644.482,220.969,1294.389,713.003,1786.201
		c489.432,489.438,1135.215,727.102,1776.664,713.003c-209.694-654.019-54.86-1399.332,464.274-1918.478
		c518.93-518.924,1264.243-673.537,1918.262-464.058c13.883-641.449-223.565-1287.231-713.003-1776.879
		C4943.629,1663.149,4318.012,1425.264,3692.61,1426.564z M3090.634,2937.367c-55.951,0.647-145.291,51.605-227.911,134.015
		c-107.556,107.557-161.122,227.258-120.139,268.457l157.004,156.782c81.535-58.762,159.599-124.904,233.114-198.413
		c58.547-58.553,112.544-120.139,161.985-184.11l-163.286-163.07C3121.858,2941.485,3107.765,2936.929,3090.634,2937.367z
		 M377.39,3211.249C168.565,4279.237,477.795,5428.55,1305.296,6256.058c613.689,613.689,1404.763,942.215,2208.197,985.806h367.999
		c157.867-8.464,315.087-27.981,470.784-58.553c-47.056-38.819-92.816-80.024-136.623-124.035
		c-193.857-193.869-336.978-419.4-429.363-659.881c-678.524,23.63-1364.858-223.577-1882.92-741.632
		c-520.225-520.225-767.216-1210.03-741.41-1891.377c-245.69-91.941-475.987-236.801-673.542-434.35
		C449.388,3293,412.307,3252.664,377.39,3211.249z M4433.163,4252.784c-63.972,49.441-125.342,103.438-184.11,161.985
		c-73.299,73.515-139.656,151.363-198.425,233.12l2593.98,2593.974h431.533v-346.101L4433.163,4252.784L4433.163,4252.784z"/>
</g>
</svg>
