<?xml version="1.0" encoding="utf-8"?>
<!-- Generator: Adobe Illustrator 16.0.4, SVG Export Plug-In . SVG Version: 6.00 Build 0)  -->
<!DOCTYPE svg PUBLIC "-//W3C//DTD SVG 1.1//EN" "http://www.w3.org/Graphics/SVG/1.1/DTD/svg11.dtd">
<svg version="1.1" id="Layer_1" xmlns="http://www.w3.org/2000/svg" xmlns:xlink="http://www.w3.org/1999/xlink" x="0px" y="0px"
	 width="299.731px" height="299.923px" viewBox="0 0 299.731 299.923" enable-background="new 0 0 299.731 299.923"
	 xml:space="preserve">
<path fill-rule="evenodd" clip-rule="evenodd" d="M0,128.175c2.692-5.228,7.159-6.716,12.773-6.676
	c19.976,0.144,39.955,0.146,59.93-0.026c3.597-0.031,4.811,1.115,5.412,4.617c3.294,19.181,6.888,38.312,10.311,57.472
	c0.284,1.589,0.344,3.328,0.025,4.9c-5.338,26.242-10.839,52.45-16.054,78.717c-0.715,3.604-2.152,4.49-5.577,4.43
	c-11.15-0.196-22.309-0.206-33.459,0.003c-3.639,0.068-5.091-0.947-5.853-4.724c-8.65-42.88-17.518-85.718-26.355-128.56
	c-0.223-1.084-0.761-2.104-1.153-3.153C0,132.842,0,130.508,0,128.175z"/>
<path fill-rule="evenodd" clip-rule="evenodd" d="M175.767,299.923c-17.193,0-34.312,0-51.78,0
	c-2.615-14.322-5.239-28.54-7.804-42.768c-8.827-48.987-17.639-97.979-26.444-146.971c-1.938-10.788,3.283-17.082,14.229-17.091
	c30.654-0.025,61.309-0.022,91.963-0.002c11.128,0.007,16.232,6.299,14.216,17.514c-11.105,61.771-22.228,123.54-33.359,185.308
	C176.553,297.21,176.14,298.475,175.767,299.923z"/>
<path fill-rule="evenodd" clip-rule="evenodd" d="M258.002,121.556c9.987,0.001,19.976-0.067,29.962,0.021
	c9.595,0.084,13.197,4.628,11.263,14.103c-8.886,43.508-17.874,86.996-26.577,130.541c-0.887,4.437-2.663,5.509-6.854,5.406
	c-10.979-0.269-21.972-0.196-32.955-0.026c-3.234,0.05-4.558-0.884-5.226-4.226c-5.279-26.42-11.193-52.722-15.927-79.235
	c-1.105-6.191,1.385-13.084,2.521-19.602c2.485-14.257,5.276-28.46,7.682-42.728c0.562-3.332,1.838-4.382,5.151-4.323
	C237.359,121.674,247.682,121.555,258.002,121.556z"/>
<path fill-rule="evenodd" clip-rule="evenodd" d="M250.098,89.37c-15.839,0.054-28.622-12.562-28.725-28.349
	c-0.102-15.652,12.777-28.654,28.457-28.729c15.673-0.074,28.62,12.748,28.738,28.461C278.687,76.443,265.88,89.315,250.098,89.37z"
	/>
<path fill-rule="evenodd" clip-rule="evenodd" d="M50.138,89.36C34.272,89.417,21.417,76.687,21.41,60.911
	c-0.007-15.718,12.975-28.666,28.683-28.608C65.61,32.36,78.358,45.034,78.57,60.616C78.784,76.333,65.955,89.303,50.138,89.36z"/>
<path fill-rule="evenodd" clip-rule="evenodd" d="M150.144,64.368c-17.865,0.066-32.341-14.296-32.349-32.093
	C117.787,14.543,132.405-0.064,150.092,0c17.474,0.065,31.828,14.363,32.068,31.941C182.4,49.673,167.955,64.304,150.144,64.368z"/>
</svg>
