<?xml version="1.0" encoding="utf-8"?>
<!-- Generator: Adobe Illustrator 16.0.4, SVG Export Plug-In . SVG Version: 6.00 Build 0)  -->
<!DOCTYPE svg PUBLIC "-//W3C//DTD SVG 1.1//EN" "http://www.w3.org/Graphics/SVG/1.1/DTD/svg11.dtd">
<svg version="1.1" id="Layer_1" xmlns="http://www.w3.org/2000/svg" xmlns:xlink="http://www.w3.org/1999/xlink" x="0px" y="0px"
	 width="299.422px" height="298.314px" viewBox="0 0 299.422 298.314" enable-background="new 0 0 299.422 298.314"
	 xml:space="preserve">
<path fill-rule="evenodd" clip-rule="evenodd" d="M234.267,220.665c-4.727,4.727-9.03,9.031-13.298,13.298
	c-0.795-0.953-1.793-2.361-2.995-3.564c-20.241-20.281-40.106-40.96-60.9-60.658c-15.544-14.726-30.45-30.063-45.717-45.05
	c-15.335-15.054-30.42-30.361-45.621-45.552c-1.158-1.156-2.371-2.256-3.229-3.069c4.643-4.636,9.032-9.018,13.395-13.376
	c0.682,0.839,1.557,2.133,2.642,3.22c21.067,21.105,41.758,42.608,63.381,63.129c15.167,14.396,29.734,29.368,44.651,43.996
	c14.986,14.696,29.716,29.652,44.559,44.494C232.291,218.689,233.448,219.847,234.267,220.665z"/>
<path fill-rule="evenodd" clip-rule="evenodd" d="M72.657,58.632c-4.735,4.735-9.204,9.204-13.665,13.665
	c-4.737,0.589-8.978-1.586-13.457-2.407c-3.832-0.701-7.606-1.706-11.414-2.54c-2-0.438-4.018-0.799-6.498-1.289
	c-2.658-1.502-2.822-5.026-4.056-7.788c-2.127-4.761-3.931-9.671-6.007-14.476c-2.494-5.774-4.659-11.704-7.046-17.539
	c-1.92-4.692-3.616-9.473-5.704-14.107C3.132,8.429,1.786,4.554,0,0c1.35,0.455,1.911,0.578,2.413,0.823
	c6.782,3.313,13.879,5.846,20.914,8.543c4.304,1.649,8.624,3.291,12.805,5.221c6.293,2.905,12.781,5.288,19.23,7.794
	c3.725,1.448,7.324,3.218,10.754,4.745C67.667,38.137,71.27,48.271,72.657,58.632z"/>
<path fill-rule="evenodd" clip-rule="evenodd" d="M277.877,289.357c-17.701-17.701-34.962-34.961-52.213-52.213
	c1.851-1.716,3.97-3.62,6.019-5.597c2.145-2.067,4.222-4.205,6.309-6.293c3.59,2.307,35.58,33.885,51.535,50.844
	c-0.178,0.675-0.141,1.66-0.614,2.151C285.239,282.057,281.468,285.769,277.877,289.357z"/>
<path fill-rule="evenodd" clip-rule="evenodd" d="M290.992,298.314c-1.155,0-2.986,0-4.565,0c-1.987-1.99-3.854-3.857-5.497-5.503
	c3.952-3.952,8.16-8.16,12.563-12.563c3.116,1.657,4.359,4.97,5.929,7.96C298,292.324,296.264,296.135,290.992,298.314z"/>
</svg>
