<?xml version="1.0" encoding="utf-8"?>
<!-- Generator: Adobe Illustrator 16.0.4, SVG Export Plug-In . SVG Version: 6.00 Build 0)  -->
<!DOCTYPE svg PUBLIC "-//W3C//DTD SVG 1.1//EN" "http://www.w3.org/Graphics/SVG/1.1/DTD/svg11.dtd">
<svg version="1.1" id="Layer_1" xmlns="http://www.w3.org/2000/svg" xmlns:xlink="http://www.w3.org/1999/xlink" x="0px" y="0px"
	 width="2075.836px" height="468.468px" viewBox="0 0 2075.836 468.468" enable-background="new 0 0 2075.836 468.468"
	 xml:space="preserve">
<path fill="#FFFFFF" d="M721.996,435.253c-26.768-2.192-55.578,11.88-82.294,11.031c-30.785-0.987-62.867,5.356-93.251,8.959
	c-4.741,0.563-15.227,2.065-19.298-0.947c-8.523-6.27-31.844,5.583-41.873,4.91c-25.672-1.726-49.635,5.076-75.933,5.078
	c-14.388,0.001-30.839-0.08-44.907,1.098c-15.128,1.251-33.427-2.008-48.109,0.82c-28.313,5.422-60.828,1.466-89.734,1.265
	c-28.123-0.195-56.219-7.065-84.523-4.192c-11.723,1.189-26.963-1.604-38.741-3.137c-16.574-2.146-35.92-3.976-52.063-8.209
	c-14.568-3.808-52.381-2.477-51.258-23.186c1.865-34.541,48.604-49,74.941-57.886c12.265-4.144,23.233-10.008,35.015-15.129
	c8.264-3.592,17.256-3.125,24.067-9.979c9.002-9.059,21.899-7.886,33.647-10.512c17.506-3.906,33.427-7.493,50.399-13.484
	c21.57-7.621,42.44-9.97,63.088-18.956c23.859-10.384,50.661-12.229,74.825-21.02c44.169-16.075,93.32-22.05,139.689-29.911
	c9.811-1.663,51.704-10.48,48.219,4.859c-3.31,14.571-54.886,15.872-67.649,17.666c-22.385,3.149-46.354,17.241-69.379,13.887
	c-8.297-1.204-34.348,6.665-41.831,10.012c-14.932,6.695-29.872,7.511-45.25,11.647c-48.344,13.006-96.223,24.523-143.73,40.201
	c-10.039,3.313-19.01,10.843-28.958,14.137c-10.055,3.33-21.27,0.983-31.13,4.94c-29.265,11.751-55.553,19.05-82.464,36.211
	c-9.354,5.971-17.253,14.072-14.28,25.475c11.461,5.326,24.329,6.616,36.727,7.269c29.361,1.546,59.527,6.676,88.938,5.171
	c23.469-1.2,46.959,8.357,70.916,1.582c28.517-8.062,64.068,4.868,92.639,4.324c42.491-0.841,90.98-11.799,133.17-4.345
	c7.953,1.405,32.513,2.038,40.226-0.812c13.472-4.991,29.503,1.103,43.338-5.207c14.301-6.525,32.165-1.265,47.454-3.75
	c14.231-2.313,28.977-3.188,42.999-6.01c22.94-4.615,46.824-9.157,69.953-9.768c26.991-0.714,55.092-16.688,81.82-16.058
	c13.233,0.312,28.438-11.376,41.461-9.95c4.895,0.535,28.793-5.211,32.776-9.103c9.59,0.488,31.272-5.858,39.393-11.067
	c13.46-8.634,31.099-11.135,45.89-18.388c54.317-26.626,58.722-84.244,47.214-137.964c-7.142-33.336-27.268-67.309-44.473-96.348
	c-7.236-12.208-47.776-79.308-22.429-81.211c15.805-1.183,37.331,55.355,43.655,66.876c8.166,14.877,16.284,29.592,25.374,43.975
	c8.406,13.345,11.604,35.172,23.007,46.058c8.468,0,19.347-6.571,29.998-6.847c11.734-0.303,23.87-0.892,35.713-1.126
	c13.479-0.267,26.493-1.862,39.784-2.937c17.265-1.402,22.376-15.409,39.12-9.029c13.776,5.246,12.991,12.441,30.923,11.986
	c8.727-0.223,17.988-2.047,26.75-2.984c16.365-1.751,14.23-12.275,32.389-2.429c5.851,12.157,5.729,19.208-8.757,25.269
	c-18.317,7.663-53.26-0.991-73.152-1.88c-29.837-1.333-60.345,6.44-90.938,1.075c-8.485-1.485-60.187-0.465-58.018,2.243
	c6.886,8.591,2.872,26.084,7.786,35.831c17.722,35.137-13.091,89.247-38.101,111.409c-34.121,30.235-80.644,39.076-123.511,48.708
	c-8.96,2.018-18.994,6.592-28.183,6.727c-4.15,0.062-26.122,4.235-29.689,6.916c-6.267,4.715-19.575,2.478-27.265,6.488
	C750.854,432.521,735.181,428.638,721.996,435.253C718.562,434.972,726.609,432.939,721.996,435.253z"/>
<path fill="#FFFFFF" d="M1488.352,191.642c22.969-3.321,54.589-27.453,77.381-17.97c15.443,6.435,21.475,18.901,30.099,32.07
	c6.874,10.501,23.194,7.293,34.54,3.13c11.371-4.172,16.175-16.737,28.458-17.619c10.859-0.777,22.909,15.37,34.147,18.926
	c28.981,9.165,62.345-11.988,90.956-20.23c25.872-7.454,52.075-12.05,78.337-17.853c24.644-5.445,55.021-5.293,78.392-14.714
	c24.292-9.788,59.752-6.412,84.947-6.082c28.085,0.369,51.118,12.705,50.173,43.6c-0.803,26.214-57.279,43.277-78.042,45.44
	c-15.925,1.638-43.443,17.48-59.187,10.307c-13.191-6.005-55.917,18.07-65.288,6.633c-4.769-5.778-43.747-1.352-51.622-2.113
	c-13.252-1.287-28.177-2.116-41.039-4.629c-27.903-5.474-59.743-21.829-86.639-5.231c-25.173,15.53-57.641,18.105-83.796,31.85
	c-4.881,2.564-20.335,8.206-24.301,1.647c-8.051-13.303,13.584-19.729,23.96-24.135c14.757-6.271,29.854-12.812,44.998-18.082
	c18.611-6.478,13.47-17.238-3.841-9.456c-12.706,5.712-26.986,5.814-39.729,10.968c-11.112,4.484-25.719-1.899-35.746,5.31
	c-16.513,11.859-46.264,21.447-66.553,22.979c-19.243,1.455-53.079-1.309-61.711-22.295c-4.506-10.945-10.188-12.264-11.254,2.469
	c-1.038,14.339-9.678,30.637-24.453,36.326c-10.913,4.197-21.103,10.376-32.352,13.636c-13.645,3.955-27.265,2.471-40.986,4.938
	c-29.122,5.229-59.435-1.083-88.664,2.008c-21.71,2.292-44.448,0.821-66.184,0.796c-21.478-0.025-60.514,7.292-79.7-5.45
	c4.457-9.64,32.641-8.285,40.804-8.379c20.539-0.235,41.012-1.847,61.545-2.154c28.69-0.437,56.732-3.697,84.992-6.024
	c23.39-1.846,46.515-5.049,69.662-8.052c16.665-2.162,65.809-32.168,28.301-38.306c-27.854-4.557-57.104-4.529-85.568-10.246
	c-40.885-8.21-15.096-36.769,12.894-37.34c24.776-0.505,48.406,1.446,72.831,8.63c14.744,4.328,21.559,18.73,39.034,12.262
	C1446.994,202.231,1468.93,196.961,1488.352,191.642C1491.881,191.132,1483.119,193.075,1488.352,191.642z M1928.387,229.33
	c26.578-4.9,53.942-6.292,78.352-18.881c9.886-5.099,30.75-8.31,35.328-20.462c7.453-19.786-17.053-12.435-23.785-17.827
	c-6.8-5.428-30.081,0.884-38.312,1.144c-13.951,0.451-29.731,6.291-43.5,5.803c-13.633-0.478-26.745,7.111-40.011,6.168
	c-3.853,5.731-28.911,3.139-35.324,6.409c-12.36,6.309-28.33,8.792-41.612,12.196c-12.048,3.087-25.577,8.454-38.03,10.35
	c-7.301,1.109-33.609,3.906-33.609,13.694c9.57,6.677,26.077,5.56,37.466,7.137c21.015,2.91,43.5,3.005,64.098,2.229
	C1873.251,236.39,1906.025,237.23,1928.387,229.33C1935.223,228.07,1924.999,230.527,1928.387,229.33z M1480.885,230.926
	c0,15.437,24.336,12.756,34.078,9.769c6.815-2.1,18.925-5.026,23.186-11.589c-6.751-8.637-7.156-12.555-3.031-22.688
	C1518.41,204.293,1490.763,218.73,1480.885,230.926C1480.885,232.001,1484.427,226.553,1480.885,230.926z M1535.438,206.78
	c6.694,1.278,30.531,11.518,33.573,5.883C1577.014,197.878,1543.993,194.374,1535.438,206.78
	C1539.386,207.534,1541.27,198.323,1535.438,206.78z M1315.929,208.974c6.824,6.319,19.335,4.776,28.017,5.261
	c-0.695-0.039,25.655,0.498,17.98-5.663C1355.812,203.666,1315.929,201.012,1315.929,208.974
	C1316.622,209.616,1315.929,207.709,1315.929,208.974z"/>
<path fill="#FFFFFF" d="M1160.425,107.284c-14.511-14.519,22.379-33.047,19.264-35.604c-6.891-5.664-30.464-9.81-39.146-10.3
	c-47.004-2.659,19.435-72.495,42.92-59.013c16.861,9.679-17.644,30.657-22.428,35.305c0,15.577,37.581,5.877,46.899,9.496
	c7.854,3.05,15.591,25.357,12.779,32.146C1215.504,91.895,1173.076,107.284,1160.425,107.284
	C1158.771,105.63,1163.082,107.284,1160.425,107.284z"/>
<path fill="#FFFFFF" d="M1057.75,374.25c-19.253-10.475-2.309-20.609,10.2-23.564c17.53-4.15,34.473-6.769,52.124-7.354
	c7.534-0.251,19.438,4.776,10.735,13.666c-5.941,6.07-15.359,6.097-23.122,7.419C1091.18,367.234,1074.482,374.25,1057.75,374.25
	C1053.916,372.164,1059.742,374.25,1057.75,374.25z"/>
<path fill="#FFFFFF" d="M1628.855,75.097c0,22.584-51.256,44.413-66.934,28.735C1559.133,84.914,1616.414,56.721,1628.855,75.097
	C1628.855,77.154,1628.113,74.001,1628.855,75.097z"/>
</svg>
